%TF.GenerationSoftware,KiCad,Pcbnew,7.0.10*%
%TF.CreationDate,2024-02-03T01:06:53+01:00*%
%TF.ProjectId,Powerlabstech_Stool,506f7765-726c-4616-9273-746563685f53,rev?*%
%TF.SameCoordinates,Original*%
%TF.FileFunction,Copper,L2,Bot*%
%TF.FilePolarity,Positive*%
%FSLAX46Y46*%
G04 Gerber Fmt 4.6, Leading zero omitted, Abs format (unit mm)*
G04 Created by KiCad (PCBNEW 7.0.10) date 2024-02-03 01:06:53*
%MOMM*%
%LPD*%
G01*
G04 APERTURE LIST*
%TA.AperFunction,ComponentPad*%
%ADD10O,1.700000X1.100000*%
%TD*%
%TA.AperFunction,ComponentPad*%
%ADD11R,2.600000X2.600000*%
%TD*%
%TA.AperFunction,ComponentPad*%
%ADD12C,2.600000*%
%TD*%
%TA.AperFunction,ComponentPad*%
%ADD13R,1.700000X1.700000*%
%TD*%
%TA.AperFunction,ComponentPad*%
%ADD14O,1.700000X1.700000*%
%TD*%
%TA.AperFunction,ComponentPad*%
%ADD15R,2.400000X2.400000*%
%TD*%
%TA.AperFunction,ComponentPad*%
%ADD16C,2.400000*%
%TD*%
%TA.AperFunction,ComponentPad*%
%ADD17C,3.000000*%
%TD*%
%TA.AperFunction,ComponentPad*%
%ADD18C,2.500000*%
%TD*%
%TA.AperFunction,ViaPad*%
%ADD19C,0.800000*%
%TD*%
%TA.AperFunction,ViaPad*%
%ADD20C,1.000000*%
%TD*%
%TA.AperFunction,Conductor*%
%ADD21C,1.500000*%
%TD*%
%TA.AperFunction,Conductor*%
%ADD22C,0.500000*%
%TD*%
%TA.AperFunction,Conductor*%
%ADD23C,0.300000*%
%TD*%
G04 APERTURE END LIST*
D10*
%TO.P,J6,S1,SHIELD*%
%TO.N,GND*%
X83010000Y-108770000D03*
X79210000Y-108770000D03*
X83010000Y-117410000D03*
X79210000Y-117410000D03*
%TD*%
D11*
%TO.P,D3,1,A*%
%TO.N,+5V*%
X144620000Y-68080000D03*
D12*
%TO.P,D3,2,RK*%
%TO.N,/LED_RED_OUT*%
X144620000Y-73160000D03*
%TO.P,D3,3,GK*%
%TO.N,/LED_GREEN_OUT*%
X144620000Y-78240000D03*
%TO.P,D3,4,BK*%
%TO.N,/LED_BLUE_OUT*%
X144620000Y-83320000D03*
%TD*%
D13*
%TO.P,J5,1,Pin_1*%
%TO.N,/sw_OUT*%
X81215000Y-123610000D03*
D14*
%TO.P,J5,2,Pin_2*%
%TO.N,GND*%
X78675000Y-123610000D03*
%TD*%
D12*
%TO.P,J1,2,Pin_2*%
%TO.N,/NEUTRAL*%
X146375000Y-127485000D03*
D11*
%TO.P,J1,1,Pin_1*%
%TO.N,/LIVE*%
X146375000Y-132565000D03*
%TD*%
D14*
%TO.P,U5,1,GP0*%
%TO.N,unconnected-(U5-GP0-Pad1)*%
X109220000Y-60452000D03*
%TO.P,U5,2,GP1*%
%TO.N,/GSM_TXD*%
X109220000Y-62992000D03*
D13*
%TO.P,U5,3,GND*%
%TO.N,GND*%
X109220000Y-65532000D03*
D14*
%TO.P,U5,4,GP2*%
%TO.N,/GSM_RXD*%
X109220000Y-68072000D03*
%TO.P,U5,5,GP3*%
%TO.N,/GSM_RESET*%
X109220000Y-70612000D03*
%TO.P,U5,6,GP4*%
%TO.N,/LOAD_SWITCH*%
X109220000Y-73152000D03*
%TO.P,U5,7,GP5*%
%TO.N,/BATT_READ*%
X109220000Y-75692000D03*
D13*
%TO.P,U5,8,GND*%
%TO.N,unconnected-(U5-GND-Pad8)*%
X109220000Y-78232000D03*
D14*
%TO.P,U5,9,GP6*%
%TO.N,/MAINS_SENSE*%
X109220000Y-80772000D03*
%TO.P,U5,10,GP7*%
%TO.N,unconnected-(U5-GP7-Pad10)*%
X109220000Y-83312000D03*
%TO.P,U5,11,GP8*%
%TO.N,unconnected-(U5-GP8-Pad11)*%
X109220000Y-85852000D03*
%TO.P,U5,12,GP9*%
%TO.N,unconnected-(U5-GP9-Pad12)*%
X109220000Y-88392000D03*
D13*
%TO.P,U5,13,GND*%
%TO.N,GND*%
X109220000Y-90932000D03*
D14*
%TO.P,U5,14,GP10*%
%TO.N,unconnected-(U5-GP10-Pad14)*%
X109220000Y-93472000D03*
%TO.P,U5,15,GP11*%
%TO.N,unconnected-(U5-GP11-Pad15)*%
X109220000Y-96012000D03*
%TO.P,U5,16,GP12*%
%TO.N,unconnected-(U5-GP12-Pad16)*%
X109220000Y-98552000D03*
%TO.P,U5,17,GP13*%
%TO.N,unconnected-(U5-GP13-Pad17)*%
X109220000Y-101092000D03*
D13*
%TO.P,U5,18,GND*%
%TO.N,GND*%
X109220000Y-103632000D03*
D14*
%TO.P,U5,19,GP14*%
%TO.N,unconnected-(U5-GP14-Pad19)*%
X109220000Y-106172000D03*
%TO.P,U5,20,GP15*%
%TO.N,unconnected-(U5-GP15-Pad20)*%
X109220000Y-108712000D03*
%TO.P,U5,21,GP16*%
%TO.N,unconnected-(U5-GP16-Pad21)*%
X127000000Y-108712000D03*
%TO.P,U5,22,GP17*%
%TO.N,unconnected-(U5-GP17-Pad22)*%
X127000000Y-106172000D03*
D13*
%TO.P,U5,23,GND*%
%TO.N,GND*%
X127000000Y-103632000D03*
D14*
%TO.P,U5,24,GP18*%
%TO.N,unconnected-(U5-GP18-Pad24)*%
X127000000Y-101092000D03*
%TO.P,U5,25,GP19*%
%TO.N,unconnected-(U5-GP19-Pad25)*%
X127000000Y-98552000D03*
%TO.P,U5,26,GP20*%
%TO.N,unconnected-(U5-GP20-Pad26)*%
X127000000Y-96012000D03*
%TO.P,U5,27,GP21*%
%TO.N,unconnected-(U5-GP21-Pad27)*%
X127000000Y-93472000D03*
D13*
%TO.P,U5,28,GND*%
%TO.N,GND*%
X127000000Y-90932000D03*
D14*
%TO.P,U5,29,GP22*%
%TO.N,/MAINS_RELAY*%
X127000000Y-88392000D03*
%TO.P,U5,30,~{RUN}*%
%TO.N,unconnected-(U5-~{RUN}-Pad30)*%
X127000000Y-85852000D03*
%TO.P,U5,31,GP26*%
%TO.N,/LED_BLUE*%
X127000000Y-83312000D03*
%TO.P,U5,32,GP27*%
%TO.N,/LED_GREEN*%
X127000000Y-80772000D03*
D13*
%TO.P,U5,33,AGND*%
%TO.N,GND*%
X127000000Y-78232000D03*
D14*
%TO.P,U5,34,GP28*%
%TO.N,/LED_RED*%
X127000000Y-75692000D03*
%TO.P,U5,35,ADC_VREF*%
%TO.N,unconnected-(U5-ADC_VREF-Pad35)*%
X127000000Y-73152000D03*
%TO.P,U5,36,3V3_OUT*%
%TO.N,+3.3V*%
X127000000Y-70612000D03*
%TO.P,U5,37,3V3_EN*%
%TO.N,unconnected-(U5-3V3_EN-Pad37)*%
X127000000Y-68072000D03*
D13*
%TO.P,U5,38,GND*%
%TO.N,unconnected-(U5-GND-Pad38)*%
X127000000Y-65532000D03*
D14*
%TO.P,U5,39,VSYS*%
%TO.N,+5V*%
X127000000Y-62992000D03*
%TO.P,U5,40,VBUS*%
%TO.N,unconnected-(U5-VBUS-Pad40)*%
X127000000Y-60452000D03*
%TD*%
D13*
%TO.P,J3,1,Pin_1*%
%TO.N,/BATT_POS*%
X121600000Y-120105000D03*
D14*
%TO.P,J3,2,Pin_2*%
%TO.N,GND*%
X121600000Y-117565000D03*
%TD*%
D13*
%TO.P,J4,1,Pin_1*%
%TO.N,GND*%
X83945000Y-61680000D03*
D14*
%TO.P,J4,2,Pin_2*%
%TO.N,/GSM_TXD*%
X86485000Y-61680000D03*
%TO.P,J4,3,Pin_3*%
%TO.N,/GSM_RXD*%
X89025000Y-61680000D03*
%TO.P,J4,4,Pin_4*%
%TO.N,/GSM_RESET*%
X91565000Y-61680000D03*
%TO.P,J4,5,Pin_5*%
%TO.N,+5V*%
X94105000Y-61680000D03*
%TD*%
D13*
%TO.P,BT1,1,+*%
%TO.N,/BATT_POS*%
X112870000Y-119985000D03*
D14*
%TO.P,BT1,2,-*%
%TO.N,GND*%
X112870000Y-117445000D03*
%TD*%
D15*
%TO.P,C1,1*%
%TO.N,/main_det_ret*%
X131190000Y-130930000D03*
D16*
%TO.P,C1,2*%
%TO.N,/NEUTRAL*%
X131190000Y-123430000D03*
%TD*%
D13*
%TO.P,J2,1,Pin_1*%
%TO.N,/NEUTRAL*%
X140970000Y-89662000D03*
D14*
%TO.P,J2,2,Pin_2*%
%TO.N,/LIVE_RELAY_CHARGER_OUT*%
X143510000Y-89662000D03*
%TD*%
D17*
%TO.P,K1,1*%
%TO.N,/LIVE_RELAY_CHARGER_OUT*%
X143088000Y-97472000D03*
D18*
%TO.P,K1,2*%
%TO.N,Net-(D2-A)*%
X137038000Y-99422000D03*
D17*
%TO.P,K1,3*%
%TO.N,unconnected-(K1-Pad3)*%
X137038000Y-111622000D03*
%TO.P,K1,4*%
%TO.N,/LIVE*%
X149088000Y-111672000D03*
D18*
%TO.P,K1,5*%
%TO.N,+5V*%
X149038000Y-99422000D03*
%TD*%
D19*
%TO.N,GND*%
X89780000Y-84600000D03*
X81770000Y-115860000D03*
X81700000Y-110420000D03*
X85590000Y-108780000D03*
X85160000Y-117290000D03*
X78675000Y-120480000D03*
X133760000Y-85700000D03*
X133410000Y-79970000D03*
X133440000Y-74890000D03*
D20*
X99060000Y-101600000D03*
X83566000Y-135890000D03*
D19*
X84710000Y-91110000D03*
X91950000Y-139630000D03*
D20*
X87630000Y-105410000D03*
D19*
X104880000Y-116390000D03*
D20*
X91186000Y-104902000D03*
X87122000Y-134366000D03*
X110490000Y-139700000D03*
X90678000Y-133604000D03*
D19*
X104990000Y-117940000D03*
X98190000Y-87850000D03*
D20*
X82804000Y-105410000D03*
D19*
X116200000Y-134000000D03*
X85770000Y-90780000D03*
D20*
X85598000Y-104902000D03*
D19*
X91150000Y-64560000D03*
D20*
X130810000Y-90932000D03*
D19*
X117670000Y-123390000D03*
X114000000Y-135200000D03*
D20*
X98298000Y-103378000D03*
X99314000Y-142494000D03*
X83058000Y-100584000D03*
D19*
X83680000Y-92250000D03*
X93550000Y-139680000D03*
D20*
X79756000Y-134112000D03*
X90678000Y-135890000D03*
D19*
X82630000Y-90170000D03*
X79100000Y-92090000D03*
X86020000Y-87820000D03*
D20*
X83820000Y-133604000D03*
X98298000Y-105664000D03*
X80772000Y-105156000D03*
X94996000Y-105156000D03*
X86868000Y-135890000D03*
D19*
X86080000Y-89180000D03*
D20*
X79502000Y-135890000D03*
D19*
%TO.N,+5V*%
X88920000Y-81710000D03*
X83360000Y-80150000D03*
X82730000Y-81440000D03*
X84410000Y-81710000D03*
X86010000Y-79900000D03*
X84490000Y-80140000D03*
X85900000Y-81430000D03*
X87480000Y-81560000D03*
%TO.N,/MAINS_SENSE*%
X115390000Y-115650000D03*
X113000000Y-138200000D03*
D20*
%TO.N,+3.3V*%
X120650000Y-142240000D03*
%TD*%
D21*
%TO.N,+5V*%
X149038000Y-99422000D02*
X149038000Y-72498000D01*
X149038000Y-72498000D02*
X144620000Y-68080000D01*
X89170000Y-81960000D02*
X93010000Y-85800000D01*
X93010000Y-85800000D02*
X93010000Y-88480000D01*
X93010000Y-88480000D02*
X95670000Y-91140000D01*
X95670000Y-91140000D02*
X104330000Y-91140000D01*
X104330000Y-91140000D02*
X104330000Y-109650000D01*
X104330000Y-109650000D02*
X108860000Y-114180000D01*
X108860000Y-114180000D02*
X112522000Y-114180000D01*
X112522000Y-114180000D02*
X112522000Y-76446000D01*
X125976000Y-62992000D02*
X139532000Y-62992000D01*
X112522000Y-76446000D02*
X125976000Y-62992000D01*
X139532000Y-62992000D02*
X144620000Y-68080000D01*
D22*
%TO.N,/NEUTRAL*%
X130930000Y-123200000D02*
X134924000Y-123200000D01*
X134924000Y-123200000D02*
X139730000Y-118394000D01*
D23*
%TO.N,/MAINS_SENSE*%
X113000000Y-138200000D02*
X113000000Y-122990000D01*
X113000000Y-122990000D02*
X110700000Y-120690000D01*
X111110000Y-115650000D02*
X115390000Y-115650000D01*
X110700000Y-120690000D02*
X110700000Y-116060000D01*
X110700000Y-116060000D02*
X111110000Y-115650000D01*
D21*
%TO.N,/BATT_POS*%
X120570000Y-121890000D02*
X114775000Y-121890000D01*
X121600000Y-120105000D02*
X121600000Y-120860000D01*
X114775000Y-121890000D02*
X112870000Y-119985000D01*
X121600000Y-120860000D02*
X120570000Y-121890000D01*
D22*
%TO.N,+5V*%
X94105000Y-67205000D02*
X84680000Y-76630000D01*
D21*
X88390000Y-81180000D02*
X89170000Y-81960000D01*
X88920000Y-81710000D02*
X89170000Y-81960000D01*
X88390000Y-81180000D02*
X87860000Y-81180000D01*
D22*
X94105000Y-61680000D02*
X94105000Y-67205000D01*
D21*
%TO.N,/NEUTRAL*%
X142228000Y-120892000D02*
X146640000Y-125304000D01*
X146640000Y-125304000D02*
X146640000Y-127220000D01*
X139730000Y-118394000D02*
X139730000Y-90902000D01*
X139730000Y-90902000D02*
X140970000Y-89662000D01*
X142228000Y-120892000D02*
X139730000Y-118394000D01*
%TO.N,+3.3V*%
X117850000Y-107500000D02*
X117840000Y-107490000D01*
X121070000Y-141750000D02*
X121070000Y-141820000D01*
X121070000Y-141750000D02*
X121070000Y-129170000D01*
X121070000Y-141820000D02*
X120650000Y-142240000D01*
X123510000Y-126730000D02*
X123510000Y-113180000D01*
X117840000Y-107510000D02*
X117850000Y-107500000D01*
X117840000Y-79662000D02*
X126890000Y-70612000D01*
X123510000Y-113180000D02*
X117840000Y-107510000D01*
X117840000Y-107490000D02*
X117840000Y-79662000D01*
X121070000Y-129170000D02*
X123510000Y-126730000D01*
%TO.N,/LIVE_RELAY_CHARGER_OUT*%
X143088000Y-90084000D02*
X143510000Y-89662000D01*
X143088000Y-97472000D02*
X143088000Y-90084000D01*
%TD*%
%TA.AperFunction,Conductor*%
%TO.N,GND*%
G36*
X151142539Y-58820185D02*
G01*
X151188294Y-58872989D01*
X151199500Y-58924500D01*
X151199500Y-86998000D01*
X151179815Y-87065039D01*
X151127011Y-87110794D01*
X151075500Y-87122000D01*
X150039500Y-87122000D01*
X149972461Y-87102315D01*
X149926706Y-87049511D01*
X149915500Y-86998000D01*
X149915500Y-72538702D01*
X149915909Y-72528638D01*
X149920350Y-72474101D01*
X149909296Y-72392964D01*
X149908888Y-72389631D01*
X149900038Y-72308254D01*
X149900038Y-72308251D01*
X149899970Y-72308051D01*
X149894612Y-72285189D01*
X149894584Y-72284977D01*
X149881564Y-72249537D01*
X149866340Y-72208097D01*
X149865225Y-72204931D01*
X149857643Y-72182429D01*
X149839093Y-72127375D01*
X149838984Y-72127193D01*
X149828833Y-72106007D01*
X149828764Y-72105818D01*
X149784656Y-72036811D01*
X149782885Y-72033956D01*
X149740691Y-71963828D01*
X149740692Y-71963828D01*
X149740540Y-71963668D01*
X149726088Y-71945183D01*
X149725969Y-71944996D01*
X149668072Y-71887099D01*
X149665730Y-71884693D01*
X149609431Y-71825259D01*
X149609427Y-71825256D01*
X149609426Y-71825255D01*
X149609249Y-71825135D01*
X149591157Y-71810184D01*
X146083819Y-68302846D01*
X146050334Y-68241523D01*
X146047500Y-68215165D01*
X146047500Y-66767441D01*
X146045662Y-66758205D01*
X146040102Y-66730252D01*
X146040101Y-66730250D01*
X146011922Y-66688077D01*
X145969749Y-66659898D01*
X145932559Y-66652500D01*
X145932558Y-66652500D01*
X144484835Y-66652500D01*
X144417796Y-66632815D01*
X144397154Y-66616181D01*
X140181264Y-62400291D01*
X140174437Y-62392886D01*
X140139016Y-62351185D01*
X140139015Y-62351184D01*
X140139014Y-62351183D01*
X140073796Y-62301605D01*
X140071251Y-62299615D01*
X140007380Y-62248274D01*
X140007180Y-62248174D01*
X139987244Y-62235809D01*
X139987066Y-62235674D01*
X139912749Y-62201291D01*
X139909749Y-62199853D01*
X139854204Y-62172306D01*
X146723828Y-62172306D01*
X146733613Y-62402662D01*
X146733614Y-62402670D01*
X146782190Y-62628062D01*
X146782190Y-62628063D01*
X146868157Y-62842002D01*
X146868159Y-62842006D01*
X146913206Y-62915166D01*
X146989048Y-63038342D01*
X147141380Y-63211425D01*
X147141384Y-63211429D01*
X147320765Y-63356269D01*
X147320766Y-63356270D01*
X147320769Y-63356271D01*
X147320772Y-63356274D01*
X147522063Y-63468721D01*
X147739462Y-63545533D01*
X147866272Y-63567277D01*
X147966706Y-63584499D01*
X147966715Y-63584500D01*
X148139534Y-63584500D01*
X148139535Y-63584500D01*
X148139536Y-63584499D01*
X148139553Y-63584499D01*
X148311734Y-63569844D01*
X148311737Y-63569843D01*
X148311739Y-63569843D01*
X148534869Y-63511745D01*
X148663229Y-63453722D01*
X148744965Y-63416776D01*
X148744967Y-63416775D01*
X148744967Y-63416774D01*
X148744971Y-63416773D01*
X148936000Y-63287659D01*
X149102462Y-63128119D01*
X149239566Y-62942742D01*
X149343370Y-62736860D01*
X149410886Y-62516397D01*
X149440172Y-62287694D01*
X149438497Y-62248275D01*
X149434558Y-62155531D01*
X149430386Y-62057332D01*
X149381810Y-61831938D01*
X149295841Y-61617994D01*
X149174951Y-61421657D01*
X149022620Y-61248575D01*
X149022619Y-61248574D01*
X149022615Y-61248570D01*
X148843234Y-61103730D01*
X148843233Y-61103729D01*
X148834422Y-61098807D01*
X148734922Y-61043223D01*
X148641938Y-60991279D01*
X148424541Y-60914468D01*
X148424540Y-60914467D01*
X148424538Y-60914467D01*
X148424534Y-60914466D01*
X148424533Y-60914466D01*
X148197293Y-60875500D01*
X148197285Y-60875500D01*
X148024465Y-60875500D01*
X148024446Y-60875500D01*
X147852265Y-60890155D01*
X147629131Y-60948254D01*
X147419034Y-61043223D01*
X147419032Y-61043224D01*
X147227999Y-61172342D01*
X147061540Y-61331878D01*
X146924434Y-61517257D01*
X146820630Y-61723138D01*
X146753113Y-61943606D01*
X146723828Y-62172306D01*
X139854204Y-62172306D01*
X139836389Y-62163471D01*
X139836387Y-62163470D01*
X139836385Y-62163469D01*
X139836381Y-62163468D01*
X139836175Y-62163417D01*
X139814038Y-62155623D01*
X139813840Y-62155531D01*
X139813838Y-62155530D01*
X139733867Y-62137927D01*
X139730600Y-62137161D01*
X139723458Y-62135385D01*
X139651161Y-62117406D01*
X139651157Y-62117405D01*
X139651159Y-62117405D01*
X139650928Y-62117399D01*
X139627663Y-62114550D01*
X139627436Y-62114500D01*
X139627434Y-62114500D01*
X139545570Y-62114500D01*
X139542213Y-62114455D01*
X139460364Y-62112238D01*
X139460363Y-62112238D01*
X139460153Y-62112278D01*
X139436787Y-62114500D01*
X127462998Y-62114500D01*
X127404545Y-62099858D01*
X127375883Y-62084538D01*
X127375882Y-62084537D01*
X127375881Y-62084537D01*
X127191626Y-62028643D01*
X127000000Y-62009770D01*
X126808373Y-62028643D01*
X126624118Y-62084537D01*
X126608475Y-62092898D01*
X126595454Y-62099858D01*
X126537002Y-62114500D01*
X126016702Y-62114500D01*
X126006639Y-62114091D01*
X126003439Y-62113830D01*
X125952099Y-62109649D01*
X125870981Y-62120701D01*
X125867651Y-62121109D01*
X125786247Y-62129962D01*
X125786024Y-62130038D01*
X125763206Y-62135385D01*
X125762984Y-62135415D01*
X125762970Y-62135418D01*
X125686136Y-62163645D01*
X125682973Y-62164759D01*
X125605378Y-62190905D01*
X125605372Y-62190908D01*
X125605177Y-62191026D01*
X125584042Y-62201153D01*
X125583828Y-62201231D01*
X125583814Y-62201238D01*
X125514833Y-62245329D01*
X125511982Y-62247098D01*
X125441829Y-62289308D01*
X125441821Y-62289314D01*
X125441651Y-62289476D01*
X125423193Y-62303905D01*
X125423003Y-62304026D01*
X125422999Y-62304029D01*
X125365135Y-62361892D01*
X125362732Y-62364231D01*
X125303258Y-62420569D01*
X125303256Y-62420571D01*
X125303129Y-62420760D01*
X125288186Y-62438840D01*
X111930290Y-75796735D01*
X111922887Y-75803560D01*
X111881187Y-75838981D01*
X111881184Y-75838984D01*
X111831648Y-75904144D01*
X111829585Y-75906783D01*
X111778269Y-75970626D01*
X111778171Y-75970825D01*
X111765812Y-75990751D01*
X111765679Y-75990925D01*
X111765669Y-75990941D01*
X111731295Y-76065238D01*
X111729846Y-76068262D01*
X111693474Y-76141602D01*
X111693466Y-76141624D01*
X111693412Y-76141844D01*
X111685632Y-76163941D01*
X111685534Y-76164152D01*
X111685528Y-76164168D01*
X111667926Y-76244132D01*
X111667161Y-76247398D01*
X111647405Y-76326841D01*
X111647399Y-76327073D01*
X111644551Y-76350335D01*
X111644500Y-76350566D01*
X111644500Y-76432429D01*
X111644455Y-76435786D01*
X111642238Y-76517635D01*
X111642278Y-76517844D01*
X111644500Y-76541213D01*
X111644500Y-113178500D01*
X111624815Y-113245539D01*
X111572011Y-113291294D01*
X111520500Y-113302500D01*
X109274834Y-113302500D01*
X109207795Y-113282815D01*
X109187153Y-113266181D01*
X105243819Y-109322846D01*
X105210334Y-109261523D01*
X105207500Y-109235165D01*
X105207500Y-108712000D01*
X108237770Y-108712000D01*
X108256643Y-108903626D01*
X108312538Y-109087884D01*
X108403302Y-109257692D01*
X108403306Y-109257699D01*
X108525458Y-109406541D01*
X108674300Y-109528693D01*
X108674307Y-109528697D01*
X108816898Y-109604913D01*
X108844117Y-109619462D01*
X109028376Y-109675357D01*
X109220000Y-109694230D01*
X109411624Y-109675357D01*
X109595883Y-109619462D01*
X109765698Y-109528694D01*
X109914541Y-109406541D01*
X110036694Y-109257698D01*
X110127462Y-109087883D01*
X110183357Y-108903624D01*
X110202230Y-108712000D01*
X110183357Y-108520376D01*
X110127462Y-108336117D01*
X110089393Y-108264894D01*
X110036697Y-108166307D01*
X110036693Y-108166300D01*
X109914541Y-108017458D01*
X109765699Y-107895306D01*
X109765692Y-107895302D01*
X109595884Y-107804538D01*
X109411626Y-107748643D01*
X109220000Y-107729770D01*
X109028373Y-107748643D01*
X108844115Y-107804538D01*
X108674307Y-107895302D01*
X108674300Y-107895306D01*
X108525458Y-108017458D01*
X108403306Y-108166300D01*
X108403302Y-108166307D01*
X108312538Y-108336115D01*
X108256643Y-108520373D01*
X108237770Y-108712000D01*
X105207500Y-108712000D01*
X105207500Y-106172000D01*
X108237770Y-106172000D01*
X108256643Y-106363626D01*
X108312538Y-106547884D01*
X108403302Y-106717692D01*
X108403306Y-106717699D01*
X108525458Y-106866541D01*
X108674300Y-106988693D01*
X108674307Y-106988697D01*
X108844115Y-107079461D01*
X108844117Y-107079462D01*
X109028376Y-107135357D01*
X109220000Y-107154230D01*
X109411624Y-107135357D01*
X109595883Y-107079462D01*
X109765698Y-106988694D01*
X109914541Y-106866541D01*
X110036694Y-106717698D01*
X110127462Y-106547883D01*
X110183357Y-106363624D01*
X110202230Y-106172000D01*
X110183357Y-105980376D01*
X110127462Y-105796117D01*
X110036694Y-105626302D01*
X110036693Y-105626300D01*
X109914541Y-105477458D01*
X109765699Y-105355306D01*
X109765692Y-105355302D01*
X109595884Y-105264538D01*
X109411626Y-105208643D01*
X109220000Y-105189770D01*
X109028373Y-105208643D01*
X108844115Y-105264538D01*
X108674307Y-105355302D01*
X108674300Y-105355306D01*
X108525458Y-105477458D01*
X108403306Y-105626300D01*
X108403302Y-105626307D01*
X108312538Y-105796115D01*
X108256643Y-105980373D01*
X108237770Y-106172000D01*
X105207500Y-106172000D01*
X105207500Y-103382000D01*
X107970000Y-103382000D01*
X108774428Y-103382000D01*
X108751318Y-103417960D01*
X108710000Y-103558673D01*
X108710000Y-103705327D01*
X108751318Y-103846040D01*
X108774428Y-103882000D01*
X107970001Y-103882000D01*
X107970001Y-104513479D01*
X107984835Y-104607149D01*
X107984837Y-104607155D01*
X108042356Y-104720041D01*
X108042363Y-104720050D01*
X108131949Y-104809636D01*
X108131953Y-104809639D01*
X108244855Y-104867166D01*
X108338514Y-104881999D01*
X108969999Y-104881999D01*
X108970000Y-104881998D01*
X108970000Y-104078494D01*
X109074839Y-104126373D01*
X109183527Y-104142000D01*
X109256473Y-104142000D01*
X109365161Y-104126373D01*
X109470000Y-104078494D01*
X109470000Y-104881999D01*
X110101479Y-104881999D01*
X110195149Y-104867164D01*
X110195155Y-104867162D01*
X110308041Y-104809643D01*
X110308050Y-104809636D01*
X110397636Y-104720050D01*
X110397639Y-104720046D01*
X110455166Y-104607144D01*
X110470000Y-104513486D01*
X110470000Y-103882000D01*
X109665572Y-103882000D01*
X109688682Y-103846040D01*
X109730000Y-103705327D01*
X109730000Y-103558673D01*
X109688682Y-103417960D01*
X109665572Y-103382000D01*
X110469999Y-103382000D01*
X110469999Y-102750520D01*
X110455164Y-102656850D01*
X110455162Y-102656844D01*
X110397643Y-102543958D01*
X110397636Y-102543949D01*
X110308050Y-102454363D01*
X110308046Y-102454360D01*
X110195144Y-102396833D01*
X110101486Y-102382000D01*
X109470000Y-102382000D01*
X109470000Y-103185505D01*
X109365161Y-103137627D01*
X109256473Y-103122000D01*
X109183527Y-103122000D01*
X109074839Y-103137627D01*
X108970000Y-103185505D01*
X108970000Y-102382000D01*
X108338520Y-102382000D01*
X108244850Y-102396835D01*
X108244844Y-102396837D01*
X108131958Y-102454356D01*
X108131949Y-102454363D01*
X108042363Y-102543949D01*
X108042360Y-102543953D01*
X107984833Y-102656855D01*
X107970000Y-102750513D01*
X107970000Y-103382000D01*
X105207500Y-103382000D01*
X105207500Y-101092000D01*
X108237770Y-101092000D01*
X108256643Y-101283626D01*
X108312538Y-101467884D01*
X108403302Y-101637692D01*
X108403306Y-101637699D01*
X108525458Y-101786541D01*
X108674300Y-101908693D01*
X108674307Y-101908697D01*
X108844115Y-101999461D01*
X108844117Y-101999462D01*
X109028376Y-102055357D01*
X109220000Y-102074230D01*
X109411624Y-102055357D01*
X109595883Y-101999462D01*
X109765698Y-101908694D01*
X109914541Y-101786541D01*
X110036694Y-101637698D01*
X110127462Y-101467883D01*
X110183357Y-101283624D01*
X110202230Y-101092000D01*
X110183357Y-100900376D01*
X110127462Y-100716117D01*
X110060657Y-100591133D01*
X110036697Y-100546307D01*
X110036693Y-100546300D01*
X109914541Y-100397458D01*
X109765699Y-100275306D01*
X109765692Y-100275302D01*
X109595884Y-100184538D01*
X109411626Y-100128643D01*
X109220000Y-100109770D01*
X109028373Y-100128643D01*
X108844115Y-100184538D01*
X108674307Y-100275302D01*
X108674300Y-100275306D01*
X108525458Y-100397458D01*
X108403306Y-100546300D01*
X108403302Y-100546307D01*
X108312538Y-100716115D01*
X108256643Y-100900373D01*
X108237770Y-101092000D01*
X105207500Y-101092000D01*
X105207500Y-98552000D01*
X108237770Y-98552000D01*
X108256643Y-98743626D01*
X108312538Y-98927884D01*
X108403302Y-99097692D01*
X108403306Y-99097699D01*
X108525458Y-99246541D01*
X108674300Y-99368693D01*
X108674307Y-99368697D01*
X108774040Y-99422005D01*
X108844117Y-99459462D01*
X109028376Y-99515357D01*
X109220000Y-99534230D01*
X109411624Y-99515357D01*
X109595883Y-99459462D01*
X109765698Y-99368694D01*
X109914541Y-99246541D01*
X110036694Y-99097698D01*
X110127462Y-98927883D01*
X110183357Y-98743624D01*
X110202230Y-98552000D01*
X110183357Y-98360376D01*
X110127462Y-98176117D01*
X110077196Y-98082075D01*
X110036697Y-98006307D01*
X110036693Y-98006300D01*
X109914541Y-97857458D01*
X109765699Y-97735306D01*
X109765692Y-97735302D01*
X109595884Y-97644538D01*
X109411626Y-97588643D01*
X109220000Y-97569770D01*
X109028373Y-97588643D01*
X108844115Y-97644538D01*
X108674307Y-97735302D01*
X108674300Y-97735306D01*
X108525458Y-97857458D01*
X108403306Y-98006300D01*
X108403302Y-98006307D01*
X108312538Y-98176115D01*
X108256643Y-98360373D01*
X108237770Y-98552000D01*
X105207500Y-98552000D01*
X105207500Y-96012000D01*
X108237770Y-96012000D01*
X108256643Y-96203626D01*
X108312538Y-96387884D01*
X108403302Y-96557692D01*
X108403306Y-96557699D01*
X108525458Y-96706541D01*
X108674300Y-96828693D01*
X108674307Y-96828697D01*
X108844115Y-96919461D01*
X108844117Y-96919462D01*
X109028376Y-96975357D01*
X109220000Y-96994230D01*
X109411624Y-96975357D01*
X109595883Y-96919462D01*
X109765698Y-96828694D01*
X109914541Y-96706541D01*
X110036694Y-96557698D01*
X110127462Y-96387883D01*
X110183357Y-96203624D01*
X110202230Y-96012000D01*
X110183357Y-95820376D01*
X110127462Y-95636117D01*
X110036694Y-95466302D01*
X110036693Y-95466300D01*
X109914541Y-95317458D01*
X109765699Y-95195306D01*
X109765692Y-95195302D01*
X109595884Y-95104538D01*
X109411626Y-95048643D01*
X109220000Y-95029770D01*
X109028373Y-95048643D01*
X108844115Y-95104538D01*
X108674307Y-95195302D01*
X108674300Y-95195306D01*
X108525458Y-95317458D01*
X108403306Y-95466300D01*
X108403302Y-95466307D01*
X108312538Y-95636115D01*
X108256643Y-95820373D01*
X108237770Y-96012000D01*
X105207500Y-96012000D01*
X105207500Y-93472000D01*
X108237770Y-93472000D01*
X108256643Y-93663626D01*
X108312538Y-93847884D01*
X108403302Y-94017692D01*
X108403306Y-94017699D01*
X108525458Y-94166541D01*
X108674300Y-94288693D01*
X108674307Y-94288697D01*
X108844115Y-94379461D01*
X108844117Y-94379462D01*
X109028376Y-94435357D01*
X109220000Y-94454230D01*
X109411624Y-94435357D01*
X109595883Y-94379462D01*
X109765698Y-94288694D01*
X109914541Y-94166541D01*
X110036694Y-94017698D01*
X110127462Y-93847883D01*
X110183357Y-93663624D01*
X110202230Y-93472000D01*
X110183357Y-93280376D01*
X110127462Y-93096117D01*
X110036694Y-92926302D01*
X110036693Y-92926300D01*
X109914541Y-92777458D01*
X109765699Y-92655306D01*
X109765692Y-92655302D01*
X109595884Y-92564538D01*
X109411626Y-92508643D01*
X109220000Y-92489770D01*
X109028373Y-92508643D01*
X108844115Y-92564538D01*
X108674307Y-92655302D01*
X108674300Y-92655306D01*
X108525458Y-92777458D01*
X108403306Y-92926300D01*
X108403302Y-92926307D01*
X108312538Y-93096115D01*
X108256643Y-93280373D01*
X108237770Y-93472000D01*
X105207500Y-93472000D01*
X105207500Y-91221546D01*
X105209133Y-91201488D01*
X105209390Y-91199914D01*
X105211379Y-91187787D01*
X105207682Y-91119596D01*
X105207500Y-91112883D01*
X105207500Y-91092429D01*
X105207500Y-91092425D01*
X105205287Y-91072085D01*
X105204743Y-91065393D01*
X105201046Y-90997199D01*
X105197330Y-90983818D01*
X105193539Y-90964055D01*
X105192038Y-90950251D01*
X105170216Y-90885489D01*
X105168261Y-90879119D01*
X105149984Y-90813289D01*
X105143477Y-90801015D01*
X105135523Y-90782523D01*
X105131094Y-90769378D01*
X105131093Y-90769376D01*
X105131093Y-90769375D01*
X105095882Y-90710854D01*
X105092579Y-90705010D01*
X105080379Y-90682000D01*
X107970000Y-90682000D01*
X108774428Y-90682000D01*
X108751318Y-90717960D01*
X108710000Y-90858673D01*
X108710000Y-91005327D01*
X108751318Y-91146040D01*
X108774428Y-91182000D01*
X107970001Y-91182000D01*
X107970001Y-91813479D01*
X107984835Y-91907149D01*
X107984837Y-91907155D01*
X108042356Y-92020041D01*
X108042363Y-92020050D01*
X108131949Y-92109636D01*
X108131953Y-92109639D01*
X108244855Y-92167166D01*
X108338514Y-92181999D01*
X108969999Y-92181999D01*
X108970000Y-92181998D01*
X108970000Y-91378494D01*
X109074839Y-91426373D01*
X109183527Y-91442000D01*
X109256473Y-91442000D01*
X109365161Y-91426373D01*
X109470000Y-91378494D01*
X109470000Y-92181999D01*
X110101479Y-92181999D01*
X110195149Y-92167164D01*
X110195155Y-92167162D01*
X110308041Y-92109643D01*
X110308050Y-92109636D01*
X110397636Y-92020050D01*
X110397639Y-92020046D01*
X110455166Y-91907144D01*
X110470000Y-91813486D01*
X110470000Y-91182000D01*
X109665572Y-91182000D01*
X109688682Y-91146040D01*
X109730000Y-91005327D01*
X109730000Y-90858673D01*
X109688682Y-90717960D01*
X109665572Y-90682000D01*
X110469999Y-90682000D01*
X110469999Y-90050520D01*
X110455164Y-89956850D01*
X110455162Y-89956844D01*
X110397643Y-89843958D01*
X110397636Y-89843949D01*
X110308050Y-89754363D01*
X110308046Y-89754360D01*
X110195144Y-89696833D01*
X110101486Y-89682000D01*
X109470000Y-89682000D01*
X109470000Y-90485505D01*
X109365161Y-90437627D01*
X109256473Y-90422000D01*
X109183527Y-90422000D01*
X109074839Y-90437627D01*
X108970000Y-90485505D01*
X108970000Y-89682000D01*
X108338520Y-89682000D01*
X108244850Y-89696835D01*
X108244844Y-89696837D01*
X108131958Y-89754356D01*
X108131949Y-89754363D01*
X108042363Y-89843949D01*
X108042360Y-89843953D01*
X107984833Y-89956855D01*
X107970000Y-90050513D01*
X107970000Y-90682000D01*
X105080379Y-90682000D01*
X105072614Y-90667355D01*
X105060580Y-90644655D01*
X105060577Y-90644651D01*
X105051592Y-90634073D01*
X105039848Y-90617724D01*
X105032691Y-90605828D01*
X105004380Y-90575940D01*
X104985710Y-90556230D01*
X104981227Y-90551233D01*
X104937016Y-90499185D01*
X104937015Y-90499184D01*
X104937014Y-90499183D01*
X104925956Y-90490776D01*
X104910982Y-90477342D01*
X104901431Y-90467259D01*
X104844881Y-90428917D01*
X104839470Y-90425031D01*
X104785066Y-90383674D01*
X104772455Y-90377839D01*
X104754947Y-90367940D01*
X104743454Y-90360148D01*
X104743451Y-90360146D01*
X104679996Y-90334863D01*
X104673830Y-90332210D01*
X104611839Y-90303531D01*
X104611836Y-90303530D01*
X104598272Y-90300544D01*
X104579039Y-90294638D01*
X104566141Y-90289499D01*
X104566135Y-90289497D01*
X104498731Y-90278447D01*
X104492138Y-90277182D01*
X104425436Y-90262500D01*
X104425434Y-90262500D01*
X104411547Y-90262500D01*
X104391489Y-90260867D01*
X104383636Y-90259579D01*
X104377787Y-90258621D01*
X104377786Y-90258621D01*
X104309597Y-90262318D01*
X104302884Y-90262500D01*
X96084834Y-90262500D01*
X96017795Y-90242815D01*
X95997153Y-90226181D01*
X94162973Y-88392000D01*
X108237770Y-88392000D01*
X108256643Y-88583626D01*
X108312538Y-88767884D01*
X108403302Y-88937692D01*
X108403306Y-88937699D01*
X108525458Y-89086541D01*
X108674300Y-89208693D01*
X108674307Y-89208697D01*
X108844115Y-89299461D01*
X108844117Y-89299462D01*
X109028376Y-89355357D01*
X109220000Y-89374230D01*
X109411624Y-89355357D01*
X109595883Y-89299462D01*
X109765698Y-89208694D01*
X109914541Y-89086541D01*
X110036694Y-88937698D01*
X110127462Y-88767883D01*
X110183357Y-88583624D01*
X110202230Y-88392000D01*
X110183357Y-88200376D01*
X110127462Y-88016117D01*
X110097937Y-87960879D01*
X110036697Y-87846307D01*
X110036693Y-87846300D01*
X109914541Y-87697458D01*
X109765699Y-87575306D01*
X109765692Y-87575302D01*
X109595884Y-87484538D01*
X109411626Y-87428643D01*
X109220000Y-87409770D01*
X109028373Y-87428643D01*
X108844115Y-87484538D01*
X108674307Y-87575302D01*
X108674300Y-87575306D01*
X108525458Y-87697458D01*
X108403306Y-87846300D01*
X108403302Y-87846307D01*
X108312538Y-88016115D01*
X108256643Y-88200373D01*
X108237770Y-88392000D01*
X94162973Y-88392000D01*
X93923819Y-88152846D01*
X93890334Y-88091523D01*
X93887500Y-88065165D01*
X93887500Y-85852000D01*
X108237770Y-85852000D01*
X108256643Y-86043626D01*
X108312538Y-86227884D01*
X108403302Y-86397692D01*
X108403306Y-86397699D01*
X108525458Y-86546541D01*
X108674300Y-86668693D01*
X108674307Y-86668697D01*
X108844115Y-86759461D01*
X108844117Y-86759462D01*
X109028376Y-86815357D01*
X109220000Y-86834230D01*
X109411624Y-86815357D01*
X109595883Y-86759462D01*
X109765698Y-86668694D01*
X109914541Y-86546541D01*
X110036694Y-86397698D01*
X110127462Y-86227883D01*
X110183357Y-86043624D01*
X110202230Y-85852000D01*
X110183357Y-85660376D01*
X110127462Y-85476117D01*
X110127461Y-85476115D01*
X110036697Y-85306307D01*
X110036693Y-85306300D01*
X109914541Y-85157458D01*
X109765699Y-85035306D01*
X109765692Y-85035302D01*
X109595884Y-84944538D01*
X109411626Y-84888643D01*
X109220000Y-84869770D01*
X109028373Y-84888643D01*
X108844115Y-84944538D01*
X108674307Y-85035302D01*
X108674300Y-85035306D01*
X108525458Y-85157458D01*
X108403306Y-85306300D01*
X108403302Y-85306307D01*
X108312538Y-85476115D01*
X108256643Y-85660373D01*
X108237770Y-85852000D01*
X93887500Y-85852000D01*
X93887500Y-85840702D01*
X93887909Y-85830638D01*
X93892350Y-85776101D01*
X93881298Y-85694980D01*
X93880890Y-85691647D01*
X93877489Y-85660373D01*
X93872038Y-85610251D01*
X93871969Y-85610046D01*
X93866610Y-85587175D01*
X93866583Y-85586977D01*
X93838341Y-85510104D01*
X93837226Y-85506936D01*
X93811093Y-85429376D01*
X93811093Y-85429375D01*
X93810980Y-85429188D01*
X93800839Y-85408025D01*
X93800762Y-85407815D01*
X93756672Y-85338838D01*
X93754901Y-85335983D01*
X93712693Y-85265831D01*
X93712692Y-85265830D01*
X93712691Y-85265828D01*
X93712538Y-85265666D01*
X93698082Y-85247174D01*
X93697970Y-85246999D01*
X93697966Y-85246994D01*
X93640090Y-85189118D01*
X93637748Y-85186712D01*
X93610037Y-85157458D01*
X93581431Y-85127259D01*
X93581427Y-85127256D01*
X93581425Y-85127254D01*
X93581242Y-85127130D01*
X93563153Y-85112181D01*
X91762972Y-83312000D01*
X108237770Y-83312000D01*
X108256643Y-83503626D01*
X108312538Y-83687884D01*
X108403302Y-83857692D01*
X108403306Y-83857699D01*
X108525458Y-84006541D01*
X108674300Y-84128693D01*
X108674307Y-84128697D01*
X108750489Y-84169417D01*
X108844117Y-84219462D01*
X109028376Y-84275357D01*
X109220000Y-84294230D01*
X109411624Y-84275357D01*
X109595883Y-84219462D01*
X109765698Y-84128694D01*
X109914541Y-84006541D01*
X110036694Y-83857698D01*
X110127462Y-83687883D01*
X110183357Y-83503624D01*
X110202230Y-83312000D01*
X110183357Y-83120376D01*
X110127462Y-82936117D01*
X110036694Y-82766302D01*
X110036693Y-82766300D01*
X109914541Y-82617458D01*
X109765699Y-82495306D01*
X109765692Y-82495302D01*
X109595884Y-82404538D01*
X109411626Y-82348643D01*
X109220000Y-82329770D01*
X109028373Y-82348643D01*
X108844115Y-82404538D01*
X108674307Y-82495302D01*
X108674300Y-82495306D01*
X108525458Y-82617458D01*
X108403306Y-82766300D01*
X108403302Y-82766307D01*
X108312538Y-82936115D01*
X108256643Y-83120373D01*
X108237770Y-83312000D01*
X91762972Y-83312000D01*
X89756846Y-81305873D01*
X89469079Y-81018106D01*
X89435594Y-80956783D01*
X89432781Y-80928117D01*
X89435687Y-80772000D01*
X108237770Y-80772000D01*
X108256643Y-80963626D01*
X108312538Y-81147884D01*
X108403302Y-81317692D01*
X108403306Y-81317699D01*
X108525458Y-81466541D01*
X108674300Y-81588693D01*
X108674307Y-81588697D01*
X108844115Y-81679461D01*
X108844117Y-81679462D01*
X109028376Y-81735357D01*
X109220000Y-81754230D01*
X109411624Y-81735357D01*
X109595883Y-81679462D01*
X109765698Y-81588694D01*
X109914541Y-81466541D01*
X110036694Y-81317698D01*
X110127462Y-81147883D01*
X110183357Y-80963624D01*
X110202230Y-80772000D01*
X110183357Y-80580376D01*
X110127462Y-80396117D01*
X110036694Y-80226302D01*
X110036693Y-80226300D01*
X109914541Y-80077458D01*
X109765699Y-79955306D01*
X109765692Y-79955302D01*
X109595884Y-79864538D01*
X109411626Y-79808643D01*
X109220000Y-79789770D01*
X109028373Y-79808643D01*
X108844115Y-79864538D01*
X108674307Y-79955302D01*
X108674300Y-79955306D01*
X108525458Y-80077458D01*
X108403306Y-80226300D01*
X108403302Y-80226307D01*
X108312538Y-80396115D01*
X108256643Y-80580373D01*
X108237770Y-80772000D01*
X89435687Y-80772000D01*
X89445845Y-80226300D01*
X89466912Y-79094558D01*
X108242500Y-79094558D01*
X108249898Y-79131749D01*
X108278077Y-79173922D01*
X108320250Y-79202101D01*
X108320252Y-79202102D01*
X108345654Y-79207155D01*
X108357441Y-79209500D01*
X108357442Y-79209500D01*
X110082559Y-79209500D01*
X110094346Y-79207155D01*
X110119748Y-79202102D01*
X110161922Y-79173922D01*
X110190102Y-79131748D01*
X110197500Y-79094558D01*
X110197500Y-77369442D01*
X110190102Y-77332252D01*
X110190101Y-77332250D01*
X110161922Y-77290077D01*
X110119749Y-77261898D01*
X110082559Y-77254500D01*
X110082558Y-77254500D01*
X108357442Y-77254500D01*
X108357441Y-77254500D01*
X108320250Y-77261898D01*
X108278077Y-77290077D01*
X108249898Y-77332250D01*
X108242500Y-77369441D01*
X108242500Y-79094558D01*
X89466912Y-79094558D01*
X89530248Y-75692000D01*
X108237770Y-75692000D01*
X108256643Y-75883626D01*
X108312538Y-76067884D01*
X108403302Y-76237692D01*
X108403306Y-76237699D01*
X108525458Y-76386541D01*
X108674300Y-76508693D01*
X108674307Y-76508697D01*
X108844115Y-76599461D01*
X108844117Y-76599462D01*
X109028376Y-76655357D01*
X109220000Y-76674230D01*
X109411624Y-76655357D01*
X109595883Y-76599462D01*
X109765698Y-76508694D01*
X109914541Y-76386541D01*
X110036694Y-76237698D01*
X110127462Y-76067883D01*
X110183357Y-75883624D01*
X110202230Y-75692000D01*
X110183357Y-75500376D01*
X110127462Y-75316117D01*
X110036694Y-75146302D01*
X110036693Y-75146300D01*
X109914541Y-74997458D01*
X109765699Y-74875306D01*
X109765692Y-74875302D01*
X109595884Y-74784538D01*
X109411626Y-74728643D01*
X109220000Y-74709770D01*
X109028373Y-74728643D01*
X108844115Y-74784538D01*
X108674307Y-74875302D01*
X108674300Y-74875306D01*
X108525458Y-74997458D01*
X108403306Y-75146300D01*
X108403302Y-75146307D01*
X108312538Y-75316115D01*
X108256643Y-75500373D01*
X108237770Y-75692000D01*
X89530248Y-75692000D01*
X89577528Y-73152000D01*
X108237770Y-73152000D01*
X108256643Y-73343626D01*
X108312538Y-73527884D01*
X108403302Y-73697692D01*
X108403306Y-73697699D01*
X108525458Y-73846541D01*
X108674300Y-73968693D01*
X108674307Y-73968697D01*
X108807313Y-74039790D01*
X108844117Y-74059462D01*
X109028376Y-74115357D01*
X109220000Y-74134230D01*
X109411624Y-74115357D01*
X109595883Y-74059462D01*
X109765698Y-73968694D01*
X109914541Y-73846541D01*
X110036694Y-73697698D01*
X110127462Y-73527883D01*
X110183357Y-73343624D01*
X110202230Y-73152000D01*
X110183357Y-72960376D01*
X110127462Y-72776117D01*
X110036694Y-72606302D01*
X110036693Y-72606300D01*
X109914541Y-72457458D01*
X109765699Y-72335306D01*
X109765692Y-72335302D01*
X109595884Y-72244538D01*
X109411626Y-72188643D01*
X109220000Y-72169770D01*
X109028373Y-72188643D01*
X108844115Y-72244538D01*
X108674307Y-72335302D01*
X108674300Y-72335306D01*
X108525458Y-72457458D01*
X108403306Y-72606300D01*
X108403302Y-72606307D01*
X108312538Y-72776115D01*
X108256643Y-72960373D01*
X108237770Y-73152000D01*
X89577528Y-73152000D01*
X89593396Y-72299541D01*
X89614325Y-72232881D01*
X89629689Y-72214174D01*
X91231863Y-70612000D01*
X108237770Y-70612000D01*
X108256643Y-70803626D01*
X108312538Y-70987884D01*
X108403302Y-71157692D01*
X108403306Y-71157699D01*
X108525458Y-71306541D01*
X108674300Y-71428693D01*
X108674307Y-71428697D01*
X108791532Y-71491355D01*
X108844117Y-71519462D01*
X109028376Y-71575357D01*
X109220000Y-71594230D01*
X109411624Y-71575357D01*
X109595883Y-71519462D01*
X109765698Y-71428694D01*
X109914541Y-71306541D01*
X110036694Y-71157698D01*
X110127462Y-70987883D01*
X110183357Y-70803624D01*
X110202230Y-70612000D01*
X110183357Y-70420376D01*
X110127462Y-70236117D01*
X110127461Y-70236115D01*
X110036697Y-70066307D01*
X110036693Y-70066300D01*
X109914541Y-69917458D01*
X109765699Y-69795306D01*
X109765692Y-69795302D01*
X109595884Y-69704538D01*
X109411626Y-69648643D01*
X109220000Y-69629770D01*
X109028373Y-69648643D01*
X108844115Y-69704538D01*
X108674307Y-69795302D01*
X108674300Y-69795306D01*
X108525458Y-69917458D01*
X108403306Y-70066300D01*
X108403302Y-70066307D01*
X108312538Y-70236115D01*
X108256643Y-70420373D01*
X108237770Y-70612000D01*
X91231863Y-70612000D01*
X93771864Y-68072000D01*
X108237770Y-68072000D01*
X108256643Y-68263626D01*
X108312538Y-68447884D01*
X108403302Y-68617692D01*
X108403306Y-68617699D01*
X108525458Y-68766541D01*
X108674300Y-68888693D01*
X108674307Y-68888697D01*
X108844115Y-68979461D01*
X108844117Y-68979462D01*
X109028376Y-69035357D01*
X109220000Y-69054230D01*
X109411624Y-69035357D01*
X109595883Y-68979462D01*
X109765698Y-68888694D01*
X109914541Y-68766541D01*
X110036694Y-68617698D01*
X110127462Y-68447883D01*
X110183357Y-68263624D01*
X110202230Y-68072000D01*
X110183357Y-67880376D01*
X110127462Y-67696117D01*
X110036694Y-67526302D01*
X110036693Y-67526300D01*
X109914541Y-67377458D01*
X109765699Y-67255306D01*
X109765692Y-67255302D01*
X109595884Y-67164538D01*
X109411626Y-67108643D01*
X109220000Y-67089770D01*
X109028373Y-67108643D01*
X108844115Y-67164538D01*
X108674307Y-67255302D01*
X108674300Y-67255306D01*
X108525458Y-67377458D01*
X108403306Y-67526300D01*
X108403302Y-67526307D01*
X108312538Y-67696115D01*
X108256643Y-67880373D01*
X108237770Y-68072000D01*
X93771864Y-68072000D01*
X94335157Y-67508707D01*
X94355014Y-67492582D01*
X94364209Y-67486576D01*
X94383778Y-67461432D01*
X94393963Y-67449902D01*
X94394052Y-67449814D01*
X94399091Y-67442756D01*
X94406212Y-67432783D01*
X94409278Y-67428671D01*
X94441592Y-67387155D01*
X94441592Y-67387152D01*
X94445344Y-67380219D01*
X94448828Y-67373093D01*
X94448832Y-67373089D01*
X94463854Y-67322625D01*
X94465413Y-67317764D01*
X94482500Y-67267994D01*
X94483800Y-67260201D01*
X94484781Y-67252338D01*
X94482606Y-67199758D01*
X94482500Y-67194633D01*
X94482500Y-65282000D01*
X107970000Y-65282000D01*
X108774428Y-65282000D01*
X108751318Y-65317960D01*
X108710000Y-65458673D01*
X108710000Y-65605327D01*
X108751318Y-65746040D01*
X108774428Y-65782000D01*
X107970001Y-65782000D01*
X107970001Y-66413479D01*
X107984835Y-66507149D01*
X107984837Y-66507155D01*
X108042356Y-66620041D01*
X108042363Y-66620050D01*
X108131949Y-66709636D01*
X108131953Y-66709639D01*
X108244855Y-66767166D01*
X108338514Y-66781999D01*
X108969999Y-66781999D01*
X108970000Y-66781998D01*
X108970000Y-65978494D01*
X109074839Y-66026373D01*
X109183527Y-66042000D01*
X109256473Y-66042000D01*
X109365161Y-66026373D01*
X109470000Y-65978494D01*
X109470000Y-66781999D01*
X110101479Y-66781999D01*
X110195149Y-66767164D01*
X110195155Y-66767162D01*
X110308041Y-66709643D01*
X110308050Y-66709636D01*
X110397636Y-66620050D01*
X110397639Y-66620046D01*
X110455166Y-66507144D01*
X110470000Y-66413486D01*
X110470000Y-65782000D01*
X109665572Y-65782000D01*
X109688682Y-65746040D01*
X109730000Y-65605327D01*
X109730000Y-65458673D01*
X109688682Y-65317960D01*
X109665572Y-65282000D01*
X110469999Y-65282000D01*
X110469999Y-64650520D01*
X110455164Y-64556850D01*
X110455162Y-64556844D01*
X110397643Y-64443958D01*
X110397636Y-64443949D01*
X110308050Y-64354363D01*
X110308046Y-64354360D01*
X110195144Y-64296833D01*
X110101486Y-64282000D01*
X109470000Y-64282000D01*
X109470000Y-65085505D01*
X109365161Y-65037627D01*
X109256473Y-65022000D01*
X109183527Y-65022000D01*
X109074839Y-65037627D01*
X108970000Y-65085505D01*
X108970000Y-64282000D01*
X108338520Y-64282000D01*
X108244850Y-64296835D01*
X108244844Y-64296837D01*
X108131958Y-64354356D01*
X108131949Y-64354363D01*
X108042363Y-64443949D01*
X108042360Y-64443953D01*
X107984833Y-64556855D01*
X107970000Y-64650513D01*
X107970000Y-65282000D01*
X94482500Y-65282000D01*
X94482500Y-62992000D01*
X108237770Y-62992000D01*
X108256643Y-63183626D01*
X108312538Y-63367884D01*
X108403302Y-63537692D01*
X108403306Y-63537699D01*
X108525458Y-63686541D01*
X108674300Y-63808693D01*
X108674307Y-63808697D01*
X108779776Y-63865071D01*
X108844117Y-63899462D01*
X109028376Y-63955357D01*
X109220000Y-63974230D01*
X109411624Y-63955357D01*
X109595883Y-63899462D01*
X109765698Y-63808694D01*
X109914541Y-63686541D01*
X109933747Y-63663139D01*
X114676616Y-63663139D01*
X114707550Y-63865071D01*
X114707553Y-63865083D01*
X114747977Y-63974229D01*
X114778505Y-64056657D01*
X114886570Y-64230031D01*
X114886571Y-64230032D01*
X114886573Y-64230035D01*
X115023161Y-64373726D01*
X115027322Y-64378103D01*
X115195000Y-64494810D01*
X115382739Y-64575375D01*
X115582852Y-64616500D01*
X115582853Y-64616500D01*
X115735941Y-64616500D01*
X115888248Y-64601012D01*
X116083164Y-64539856D01*
X116083164Y-64539855D01*
X116083173Y-64539853D01*
X116261798Y-64440708D01*
X116416809Y-64307636D01*
X116541859Y-64146084D01*
X116631830Y-63962667D01*
X116683037Y-63764894D01*
X116688197Y-63663139D01*
X119526616Y-63663139D01*
X119557550Y-63865071D01*
X119557553Y-63865083D01*
X119597977Y-63974229D01*
X119628505Y-64056657D01*
X119736570Y-64230031D01*
X119736571Y-64230032D01*
X119736573Y-64230035D01*
X119873161Y-64373726D01*
X119877322Y-64378103D01*
X120045000Y-64494810D01*
X120232739Y-64575375D01*
X120432852Y-64616500D01*
X120432853Y-64616500D01*
X120585941Y-64616500D01*
X120738248Y-64601012D01*
X120933164Y-64539856D01*
X120933164Y-64539855D01*
X120933173Y-64539853D01*
X121111798Y-64440708D01*
X121266809Y-64307636D01*
X121391859Y-64146084D01*
X121481830Y-63962667D01*
X121533037Y-63764894D01*
X121543384Y-63560861D01*
X121512448Y-63358921D01*
X121441495Y-63167343D01*
X121333430Y-62993969D01*
X121333427Y-62993966D01*
X121333426Y-62993964D01*
X121192680Y-62845899D01*
X121192679Y-62845898D01*
X121187087Y-62842006D01*
X121080819Y-62768041D01*
X121024999Y-62729189D01*
X120837262Y-62648625D01*
X120712507Y-62622987D01*
X120637148Y-62607500D01*
X120484060Y-62607500D01*
X120484059Y-62607500D01*
X120331751Y-62622987D01*
X120136835Y-62684143D01*
X120136825Y-62684148D01*
X119958200Y-62783293D01*
X119958199Y-62783293D01*
X119803191Y-62916362D01*
X119803190Y-62916363D01*
X119678143Y-63077912D01*
X119588170Y-63261332D01*
X119536963Y-63459105D01*
X119526616Y-63663138D01*
X119526616Y-63663139D01*
X116688197Y-63663139D01*
X116693384Y-63560861D01*
X116662448Y-63358921D01*
X116591495Y-63167343D01*
X116483430Y-62993969D01*
X116483427Y-62993966D01*
X116483426Y-62993964D01*
X116342680Y-62845899D01*
X116342679Y-62845898D01*
X116337087Y-62842006D01*
X116230819Y-62768041D01*
X116174999Y-62729189D01*
X115987262Y-62648625D01*
X115862507Y-62622987D01*
X115787148Y-62607500D01*
X115634060Y-62607500D01*
X115634059Y-62607500D01*
X115481751Y-62622987D01*
X115286835Y-62684143D01*
X115286825Y-62684148D01*
X115108200Y-62783293D01*
X115108199Y-62783293D01*
X114953191Y-62916362D01*
X114953190Y-62916363D01*
X114828143Y-63077912D01*
X114738170Y-63261332D01*
X114686963Y-63459105D01*
X114676616Y-63663138D01*
X114676616Y-63663139D01*
X109933747Y-63663139D01*
X110036694Y-63537698D01*
X110127462Y-63367883D01*
X110183357Y-63183624D01*
X110202230Y-62992000D01*
X110183357Y-62800376D01*
X110127462Y-62616117D01*
X110098261Y-62561486D01*
X110036697Y-62446307D01*
X110036693Y-62446300D01*
X109914541Y-62297458D01*
X109765699Y-62175306D01*
X109765692Y-62175302D01*
X109595884Y-62084538D01*
X109411626Y-62028643D01*
X109220000Y-62009770D01*
X109028373Y-62028643D01*
X108844115Y-62084538D01*
X108674307Y-62175302D01*
X108674300Y-62175306D01*
X108525458Y-62297458D01*
X108403306Y-62446300D01*
X108403302Y-62446307D01*
X108312538Y-62616115D01*
X108256643Y-62800373D01*
X108237770Y-62992000D01*
X94482500Y-62992000D01*
X94482500Y-62660919D01*
X94502185Y-62593880D01*
X94548045Y-62551562D01*
X94650698Y-62496694D01*
X94799541Y-62374541D01*
X94921694Y-62225698D01*
X95012462Y-62055883D01*
X95068357Y-61871624D01*
X95087230Y-61680000D01*
X95068357Y-61488376D01*
X95012462Y-61304117D01*
X94993528Y-61268694D01*
X94921697Y-61134307D01*
X94921693Y-61134300D01*
X94799541Y-60985458D01*
X94650699Y-60863306D01*
X94650692Y-60863302D01*
X94480884Y-60772538D01*
X94296626Y-60716643D01*
X94105000Y-60697770D01*
X93913373Y-60716643D01*
X93729115Y-60772538D01*
X93559307Y-60863302D01*
X93559300Y-60863306D01*
X93410458Y-60985458D01*
X93288306Y-61134300D01*
X93288302Y-61134307D01*
X93197538Y-61304115D01*
X93141643Y-61488373D01*
X93122770Y-61680000D01*
X93141643Y-61871626D01*
X93197538Y-62055884D01*
X93288302Y-62225692D01*
X93288306Y-62225699D01*
X93410458Y-62374541D01*
X93514036Y-62459545D01*
X93559302Y-62496694D01*
X93661954Y-62551562D01*
X93711797Y-62600522D01*
X93727500Y-62660919D01*
X93727500Y-66997272D01*
X93707815Y-67064311D01*
X93691181Y-67084953D01*
X89557676Y-71218457D01*
X89496353Y-71251942D01*
X89426661Y-71246958D01*
X89409569Y-71239056D01*
X89402679Y-71235211D01*
X89402674Y-71235209D01*
X89402673Y-71235209D01*
X89335632Y-71215593D01*
X89335624Y-71215592D01*
X89277719Y-71207324D01*
X89277717Y-71207324D01*
X89258115Y-71207343D01*
X79299088Y-71217077D01*
X79254655Y-71221981D01*
X79254644Y-71221983D01*
X79202353Y-71233615D01*
X79191445Y-71236357D01*
X79191444Y-71236358D01*
X79191443Y-71236358D01*
X79191441Y-71236359D01*
X79111567Y-71279781D01*
X79111091Y-71280040D01*
X79111085Y-71280044D01*
X79058670Y-71326234D01*
X79040868Y-71343969D01*
X78996884Y-71424163D01*
X78996883Y-71424166D01*
X78977761Y-71491355D01*
X78977761Y-71491357D01*
X78969919Y-71549326D01*
X78969919Y-71549329D01*
X78969919Y-71549330D01*
X79107909Y-88078554D01*
X79111549Y-88115375D01*
X79111549Y-88115379D01*
X79119909Y-88159154D01*
X79120581Y-88162512D01*
X79120586Y-88162525D01*
X79158725Y-88245638D01*
X79158726Y-88245640D01*
X79158728Y-88245643D01*
X79158730Y-88245645D01*
X79201264Y-88301063D01*
X79201279Y-88301082D01*
X79213340Y-88314948D01*
X79217765Y-88320036D01*
X79294792Y-88369341D01*
X79360545Y-88392969D01*
X79360550Y-88392970D01*
X79417840Y-88404713D01*
X79417842Y-88404713D01*
X79417847Y-88404714D01*
X82064043Y-88562005D01*
X82084408Y-88562204D01*
X82108933Y-88561228D01*
X82185399Y-88543152D01*
X82249068Y-88514375D01*
X82271297Y-88502641D01*
X82336872Y-88438891D01*
X82374876Y-88380261D01*
X82399382Y-88327149D01*
X82508488Y-87960861D01*
X82510822Y-87953811D01*
X82758620Y-87274361D01*
X82800081Y-87218126D01*
X82843159Y-87197037D01*
X84890796Y-86651000D01*
X84918746Y-86646879D01*
X88017020Y-86547228D01*
X88084657Y-86564747D01*
X88132086Y-86616053D01*
X88143006Y-86648982D01*
X88163093Y-86759461D01*
X88186870Y-86890229D01*
X88188870Y-86912411D01*
X88188870Y-91694058D01*
X88193267Y-91731707D01*
X88194403Y-91741428D01*
X88207578Y-91797055D01*
X88211339Y-91810789D01*
X88257286Y-91889867D01*
X88257287Y-91889869D01*
X88304940Y-91940945D01*
X88304951Y-91940955D01*
X88323192Y-91958252D01*
X88404596Y-91999936D01*
X88472314Y-92017144D01*
X88530476Y-92023335D01*
X89642741Y-91982443D01*
X89682331Y-91977102D01*
X89729035Y-91966095D01*
X89729051Y-91966090D01*
X89729072Y-91966086D01*
X89735311Y-91964511D01*
X89735312Y-91964511D01*
X89747121Y-91958252D01*
X89816122Y-91921681D01*
X89869028Y-91876044D01*
X89887023Y-91858491D01*
X89931847Y-91778773D01*
X89951681Y-91711777D01*
X89960134Y-91653900D01*
X89969840Y-87295792D01*
X89968828Y-87274950D01*
X89968769Y-87274363D01*
X89966336Y-87249954D01*
X89966334Y-87249936D01*
X89966334Y-87249931D01*
X89963214Y-87229309D01*
X89755902Y-86211265D01*
X89753656Y-86194356D01*
X89753284Y-86188476D01*
X89688862Y-85170145D01*
X89685005Y-85141458D01*
X89677941Y-85107338D01*
X89642672Y-85027814D01*
X89601470Y-84971388D01*
X89601467Y-84971385D01*
X89601465Y-84971382D01*
X89560614Y-84929547D01*
X89560612Y-84929545D01*
X89560606Y-84929539D01*
X89553390Y-84924002D01*
X89511230Y-84891652D01*
X89488339Y-84868761D01*
X89444905Y-84812155D01*
X89428721Y-84784123D01*
X89401413Y-84718196D01*
X89393035Y-84686928D01*
X89383721Y-84616178D01*
X89383721Y-84583818D01*
X89393034Y-84513067D01*
X89401412Y-84481803D01*
X89405952Y-84470841D01*
X89428721Y-84415872D01*
X89444901Y-84387847D01*
X89496654Y-84320401D01*
X89509912Y-84305717D01*
X89512074Y-84303675D01*
X89519759Y-84296422D01*
X89552607Y-84258370D01*
X89557968Y-84251896D01*
X89597487Y-84169418D01*
X89612900Y-84101269D01*
X89617552Y-84042963D01*
X89611642Y-83949555D01*
X89627055Y-83881411D01*
X89676864Y-83832413D01*
X89745257Y-83818123D01*
X89810519Y-83843077D01*
X89823076Y-83854049D01*
X92096181Y-86127153D01*
X92129666Y-86188476D01*
X92132500Y-86214834D01*
X92132500Y-88439296D01*
X92132091Y-88449360D01*
X92127649Y-88503898D01*
X92127650Y-88503906D01*
X92138699Y-88585006D01*
X92139107Y-88588337D01*
X92147962Y-88669750D01*
X92148036Y-88669969D01*
X92153385Y-88692793D01*
X92153414Y-88693012D01*
X92153419Y-88693029D01*
X92181649Y-88769873D01*
X92182763Y-88773038D01*
X92208904Y-88850619D01*
X92208906Y-88850622D01*
X92208907Y-88850625D01*
X92209018Y-88850810D01*
X92219157Y-88871967D01*
X92219237Y-88872183D01*
X92261113Y-88937698D01*
X92263323Y-88941155D01*
X92265092Y-88944007D01*
X92307310Y-89014173D01*
X92307461Y-89014332D01*
X92321914Y-89032819D01*
X92322032Y-89033004D01*
X92379944Y-89090916D01*
X92382214Y-89093248D01*
X92438569Y-89152741D01*
X92438750Y-89152864D01*
X92456844Y-89167816D01*
X95020734Y-91731707D01*
X95027560Y-91739111D01*
X95062986Y-91780817D01*
X95128177Y-91830374D01*
X95130737Y-91832375D01*
X95194620Y-91883726D01*
X95194811Y-91883820D01*
X95214760Y-91896194D01*
X95214934Y-91896326D01*
X95214936Y-91896327D01*
X95214939Y-91896329D01*
X95264394Y-91919208D01*
X95289286Y-91930724D01*
X95292249Y-91932145D01*
X95365613Y-91968530D01*
X95365820Y-91968581D01*
X95387961Y-91976376D01*
X95388161Y-91976469D01*
X95388164Y-91976469D01*
X95388165Y-91976470D01*
X95388164Y-91976470D01*
X95468113Y-91994068D01*
X95471382Y-91994834D01*
X95482957Y-91997712D01*
X95550839Y-92014594D01*
X95551045Y-92014599D01*
X95574362Y-92017455D01*
X95574566Y-92017500D01*
X95656430Y-92017500D01*
X95659787Y-92017545D01*
X95741637Y-92019762D01*
X95741846Y-92019721D01*
X95765213Y-92017500D01*
X103328500Y-92017500D01*
X103395539Y-92037185D01*
X103441294Y-92089989D01*
X103452500Y-92141500D01*
X103452500Y-109609296D01*
X103452091Y-109619360D01*
X103447649Y-109673898D01*
X103447650Y-109673906D01*
X103458699Y-109755006D01*
X103459107Y-109758337D01*
X103467962Y-109839750D01*
X103468036Y-109839969D01*
X103473385Y-109862793D01*
X103473414Y-109863012D01*
X103473419Y-109863029D01*
X103501649Y-109939873D01*
X103502763Y-109943038D01*
X103528904Y-110020619D01*
X103528906Y-110020622D01*
X103528907Y-110020625D01*
X103529018Y-110020810D01*
X103539157Y-110041967D01*
X103539237Y-110042183D01*
X103583323Y-110111155D01*
X103585092Y-110114007D01*
X103627310Y-110184173D01*
X103627461Y-110184332D01*
X103641914Y-110202819D01*
X103642032Y-110203004D01*
X103699944Y-110260916D01*
X103702214Y-110263248D01*
X103758569Y-110322741D01*
X103758750Y-110322864D01*
X103776844Y-110337816D01*
X108210729Y-114771701D01*
X108217556Y-114779106D01*
X108252982Y-114820813D01*
X108252983Y-114820813D01*
X108252986Y-114820817D01*
X108318189Y-114870384D01*
X108320796Y-114872422D01*
X108384620Y-114923725D01*
X108384743Y-114923786D01*
X108384815Y-114923822D01*
X108404752Y-114936188D01*
X108404934Y-114936326D01*
X108404935Y-114936326D01*
X108404937Y-114936328D01*
X108425591Y-114945883D01*
X108479293Y-114970728D01*
X108482271Y-114972155D01*
X108500287Y-114981090D01*
X108555608Y-115008527D01*
X108555609Y-115008527D01*
X108555613Y-115008529D01*
X108555808Y-115008577D01*
X108577965Y-115016378D01*
X108578161Y-115016469D01*
X108658176Y-115034081D01*
X108661326Y-115034818D01*
X108740839Y-115054594D01*
X108741045Y-115054599D01*
X108764362Y-115057455D01*
X108764566Y-115057500D01*
X108846430Y-115057500D01*
X108849787Y-115057545D01*
X108931637Y-115059762D01*
X108931846Y-115059721D01*
X108955213Y-115057500D01*
X112440453Y-115057500D01*
X112460511Y-115059133D01*
X112462981Y-115059537D01*
X112474213Y-115061379D01*
X112542403Y-115057681D01*
X112549116Y-115057500D01*
X112569567Y-115057500D01*
X112569575Y-115057500D01*
X112589962Y-115055282D01*
X112596575Y-115054744D01*
X112664801Y-115051046D01*
X112678179Y-115047331D01*
X112697935Y-115043540D01*
X112711749Y-115042038D01*
X112776502Y-115020219D01*
X112782863Y-115018265D01*
X112848711Y-114999984D01*
X112860979Y-114993479D01*
X112879463Y-114985527D01*
X112892625Y-114981093D01*
X112951176Y-114945863D01*
X112956976Y-114942584D01*
X113017345Y-114910580D01*
X113027927Y-114901590D01*
X113044274Y-114889848D01*
X113056172Y-114882691D01*
X113105806Y-114835673D01*
X113110737Y-114831250D01*
X113162817Y-114787014D01*
X113171219Y-114775960D01*
X113184653Y-114760986D01*
X113194741Y-114751431D01*
X113233082Y-114694880D01*
X113236964Y-114689474D01*
X113278326Y-114635066D01*
X113284154Y-114622466D01*
X113294065Y-114604938D01*
X113301853Y-114593452D01*
X113327143Y-114529977D01*
X113329778Y-114523851D01*
X113358469Y-114461839D01*
X113361453Y-114448284D01*
X113367362Y-114429038D01*
X113372500Y-114416142D01*
X113372499Y-114416142D01*
X113372501Y-114416140D01*
X113383552Y-114348723D01*
X113384815Y-114342144D01*
X113399499Y-114275437D01*
X113399500Y-114275434D01*
X113399500Y-114261546D01*
X113401133Y-114241488D01*
X113401390Y-114239914D01*
X113403379Y-114227787D01*
X113399682Y-114159596D01*
X113399500Y-114152883D01*
X113399500Y-76860834D01*
X113419185Y-76793795D01*
X113435819Y-76773153D01*
X122136973Y-68072000D01*
X126017770Y-68072000D01*
X126036643Y-68263626D01*
X126092538Y-68447884D01*
X126183302Y-68617692D01*
X126183306Y-68617699D01*
X126305458Y-68766541D01*
X126454300Y-68888693D01*
X126454307Y-68888697D01*
X126624115Y-68979461D01*
X126624117Y-68979462D01*
X126808376Y-69035357D01*
X127000000Y-69054230D01*
X127191624Y-69035357D01*
X127375883Y-68979462D01*
X127545698Y-68888694D01*
X127694541Y-68766541D01*
X127816694Y-68617698D01*
X127907462Y-68447883D01*
X127963357Y-68263624D01*
X127982230Y-68072000D01*
X127963357Y-67880376D01*
X127907462Y-67696117D01*
X127816694Y-67526302D01*
X127816693Y-67526300D01*
X127694541Y-67377458D01*
X127545699Y-67255306D01*
X127545692Y-67255302D01*
X127375884Y-67164538D01*
X127191626Y-67108643D01*
X127000000Y-67089770D01*
X126808373Y-67108643D01*
X126624115Y-67164538D01*
X126454307Y-67255302D01*
X126454300Y-67255306D01*
X126305458Y-67377458D01*
X126183306Y-67526300D01*
X126183302Y-67526307D01*
X126092538Y-67696115D01*
X126036643Y-67880373D01*
X126017770Y-68072000D01*
X122136973Y-68072000D01*
X123814415Y-66394558D01*
X126022500Y-66394558D01*
X126029898Y-66431749D01*
X126058077Y-66473922D01*
X126100250Y-66502101D01*
X126100252Y-66502102D01*
X126125654Y-66507155D01*
X126137441Y-66509500D01*
X126137442Y-66509500D01*
X127862559Y-66509500D01*
X127874346Y-66507155D01*
X127899748Y-66502102D01*
X127941922Y-66473922D01*
X127970102Y-66431748D01*
X127977500Y-66394558D01*
X127977500Y-64669442D01*
X127970102Y-64632252D01*
X127949807Y-64601878D01*
X127941922Y-64590077D01*
X127899749Y-64561898D01*
X127862559Y-64554500D01*
X127862558Y-64554500D01*
X126137442Y-64554500D01*
X126137441Y-64554500D01*
X126100250Y-64561898D01*
X126058077Y-64590077D01*
X126029898Y-64632250D01*
X126022500Y-64669441D01*
X126022500Y-66394558D01*
X123814415Y-66394558D01*
X126303154Y-63905819D01*
X126364477Y-63872334D01*
X126390835Y-63869500D01*
X126537002Y-63869500D01*
X126595454Y-63884141D01*
X126624117Y-63899462D01*
X126808376Y-63955357D01*
X127000000Y-63974230D01*
X127191624Y-63955357D01*
X127375883Y-63899462D01*
X127404545Y-63884141D01*
X127462998Y-63869500D01*
X139117166Y-63869500D01*
X139184205Y-63889185D01*
X139204847Y-63905819D01*
X143156181Y-67857153D01*
X143189666Y-67918476D01*
X143192500Y-67944834D01*
X143192500Y-69392558D01*
X143199898Y-69429749D01*
X143228077Y-69471922D01*
X143270250Y-69500101D01*
X143270252Y-69500102D01*
X143298205Y-69505662D01*
X143307441Y-69507500D01*
X143307442Y-69507500D01*
X144755166Y-69507500D01*
X144822205Y-69527185D01*
X144842847Y-69543819D01*
X148124181Y-72825153D01*
X148157666Y-72886476D01*
X148160500Y-72912834D01*
X148160500Y-86998000D01*
X148140815Y-87065039D01*
X148088011Y-87110794D01*
X148036500Y-87122000D01*
X138176000Y-87122000D01*
X138010926Y-98181904D01*
X137990243Y-98248642D01*
X137936762Y-98293604D01*
X137867463Y-98302514D01*
X137810779Y-98277907D01*
X137794010Y-98264856D01*
X137794005Y-98264852D01*
X137593233Y-98156199D01*
X137593228Y-98156197D01*
X137377317Y-98082075D01*
X137227200Y-98057025D01*
X137152143Y-98044500D01*
X136923857Y-98044500D01*
X136867564Y-98053893D01*
X136698682Y-98082075D01*
X136482771Y-98156197D01*
X136482766Y-98156199D01*
X136281994Y-98264852D01*
X136101849Y-98405065D01*
X136101844Y-98405070D01*
X135947230Y-98573024D01*
X135822372Y-98764136D01*
X135730671Y-98973195D01*
X135674631Y-99194490D01*
X135674629Y-99194502D01*
X135655779Y-99421994D01*
X135655779Y-99422005D01*
X135674629Y-99649497D01*
X135674631Y-99649509D01*
X135730671Y-99870804D01*
X135822372Y-100079863D01*
X135947230Y-100270975D01*
X135951217Y-100275306D01*
X136101847Y-100438933D01*
X136281997Y-100579149D01*
X136482768Y-100687801D01*
X136698685Y-100761925D01*
X136923857Y-100799500D01*
X136923858Y-100799500D01*
X137152142Y-100799500D01*
X137152143Y-100799500D01*
X137377315Y-100761925D01*
X137593232Y-100687801D01*
X137790459Y-100581066D01*
X137858786Y-100566471D01*
X137924158Y-100591133D01*
X137965820Y-100647224D01*
X137973462Y-100691972D01*
X137922670Y-104095059D01*
X137901987Y-104161797D01*
X137892690Y-104174072D01*
X127720000Y-115999999D01*
X127720000Y-116000000D01*
X129553955Y-143050836D01*
X129555059Y-143067112D01*
X129539954Y-143135330D01*
X129490366Y-143184552D01*
X129431343Y-143199500D01*
X121202432Y-143199500D01*
X121135393Y-143179815D01*
X121089638Y-143127011D01*
X121079694Y-143057853D01*
X121108719Y-142994297D01*
X121135646Y-142971022D01*
X121203004Y-142927968D01*
X121661711Y-142469259D01*
X121669091Y-142462455D01*
X121710817Y-142427014D01*
X121760373Y-142361821D01*
X121762423Y-142359202D01*
X121800657Y-142311638D01*
X121813726Y-142295380D01*
X121813819Y-142295190D01*
X121826203Y-142275227D01*
X121826326Y-142275066D01*
X121860713Y-142200736D01*
X121862128Y-142197783D01*
X121898530Y-142124387D01*
X121898581Y-142124181D01*
X121906385Y-142102020D01*
X121906469Y-142101839D01*
X121924072Y-142021866D01*
X121924832Y-142018623D01*
X121944594Y-141939161D01*
X121944599Y-141938954D01*
X121947456Y-141915632D01*
X121947500Y-141915434D01*
X121947500Y-141833590D01*
X121947545Y-141830232D01*
X121948180Y-141806776D01*
X121949763Y-141748363D01*
X121949719Y-141748138D01*
X121947500Y-141724780D01*
X121947500Y-129584834D01*
X121967185Y-129517795D01*
X121983819Y-129497153D01*
X122960237Y-128520735D01*
X124101717Y-127379254D01*
X124109097Y-127372449D01*
X124150817Y-127337014D01*
X124200361Y-127271838D01*
X124202411Y-127269217D01*
X124253726Y-127205380D01*
X124253816Y-127205196D01*
X124266205Y-127185223D01*
X124266326Y-127185066D01*
X124300713Y-127110736D01*
X124302128Y-127107783D01*
X124338530Y-127034387D01*
X124338581Y-127034181D01*
X124346385Y-127012020D01*
X124346469Y-127011839D01*
X124364072Y-126931866D01*
X124364832Y-126928623D01*
X124384594Y-126849161D01*
X124384599Y-126848954D01*
X124387456Y-126825632D01*
X124387500Y-126825434D01*
X124387500Y-126743569D01*
X124387545Y-126740212D01*
X124389762Y-126658363D01*
X124389720Y-126658144D01*
X124387500Y-126634785D01*
X124387500Y-113220702D01*
X124387909Y-113210638D01*
X124392350Y-113156101D01*
X124381296Y-113074964D01*
X124380888Y-113071631D01*
X124372038Y-112990254D01*
X124372038Y-112990251D01*
X124371970Y-112990051D01*
X124366612Y-112967189D01*
X124366584Y-112966977D01*
X124359715Y-112948282D01*
X124338339Y-112890095D01*
X124337224Y-112886928D01*
X124311092Y-112809373D01*
X124311091Y-112809372D01*
X124310982Y-112809190D01*
X124300835Y-112788014D01*
X124300762Y-112787815D01*
X124256672Y-112718838D01*
X124254901Y-112715983D01*
X124212693Y-112645831D01*
X124212692Y-112645830D01*
X124212691Y-112645828D01*
X124212538Y-112645666D01*
X124198082Y-112627174D01*
X124197970Y-112626999D01*
X124197966Y-112626994D01*
X124140090Y-112569118D01*
X124137748Y-112566712D01*
X124081431Y-112507259D01*
X124081427Y-112507256D01*
X124081425Y-112507254D01*
X124081242Y-112507130D01*
X124063153Y-112492181D01*
X120282973Y-108712000D01*
X126017770Y-108712000D01*
X126036643Y-108903626D01*
X126092538Y-109087884D01*
X126183302Y-109257692D01*
X126183306Y-109257699D01*
X126305458Y-109406541D01*
X126454300Y-109528693D01*
X126454307Y-109528697D01*
X126596898Y-109604913D01*
X126624117Y-109619462D01*
X126808376Y-109675357D01*
X127000000Y-109694230D01*
X127191624Y-109675357D01*
X127375883Y-109619462D01*
X127545698Y-109528694D01*
X127694541Y-109406541D01*
X127816694Y-109257698D01*
X127907462Y-109087883D01*
X127963357Y-108903624D01*
X127982230Y-108712000D01*
X127963357Y-108520376D01*
X127907462Y-108336117D01*
X127869393Y-108264894D01*
X127816697Y-108166307D01*
X127816693Y-108166300D01*
X127694541Y-108017458D01*
X127545699Y-107895306D01*
X127545692Y-107895302D01*
X127375884Y-107804538D01*
X127191626Y-107748643D01*
X127000000Y-107729770D01*
X126808373Y-107748643D01*
X126624115Y-107804538D01*
X126454307Y-107895302D01*
X126454300Y-107895306D01*
X126305458Y-108017458D01*
X126183306Y-108166300D01*
X126183302Y-108166307D01*
X126092538Y-108336115D01*
X126036643Y-108520373D01*
X126017770Y-108712000D01*
X120282973Y-108712000D01*
X118753819Y-107182846D01*
X118720334Y-107121523D01*
X118717500Y-107095165D01*
X118717500Y-106172000D01*
X126017770Y-106172000D01*
X126036643Y-106363626D01*
X126092538Y-106547884D01*
X126183302Y-106717692D01*
X126183306Y-106717699D01*
X126305458Y-106866541D01*
X126454300Y-106988693D01*
X126454307Y-106988697D01*
X126624115Y-107079461D01*
X126624117Y-107079462D01*
X126808376Y-107135357D01*
X127000000Y-107154230D01*
X127191624Y-107135357D01*
X127375883Y-107079462D01*
X127545698Y-106988694D01*
X127694541Y-106866541D01*
X127816694Y-106717698D01*
X127907462Y-106547883D01*
X127963357Y-106363624D01*
X127982230Y-106172000D01*
X127963357Y-105980376D01*
X127907462Y-105796117D01*
X127816694Y-105626302D01*
X127816693Y-105626300D01*
X127694541Y-105477458D01*
X127545699Y-105355306D01*
X127545692Y-105355302D01*
X127375884Y-105264538D01*
X127191626Y-105208643D01*
X127000000Y-105189770D01*
X126808373Y-105208643D01*
X126624115Y-105264538D01*
X126454307Y-105355302D01*
X126454300Y-105355306D01*
X126305458Y-105477458D01*
X126183306Y-105626300D01*
X126183302Y-105626307D01*
X126092538Y-105796115D01*
X126036643Y-105980373D01*
X126017770Y-106172000D01*
X118717500Y-106172000D01*
X118717500Y-103382000D01*
X125750000Y-103382000D01*
X126554428Y-103382000D01*
X126531318Y-103417960D01*
X126490000Y-103558673D01*
X126490000Y-103705327D01*
X126531318Y-103846040D01*
X126554428Y-103882000D01*
X125750001Y-103882000D01*
X125750001Y-104513479D01*
X125764835Y-104607149D01*
X125764837Y-104607155D01*
X125822356Y-104720041D01*
X125822363Y-104720050D01*
X125911949Y-104809636D01*
X125911953Y-104809639D01*
X126024855Y-104867166D01*
X126118514Y-104881999D01*
X126749999Y-104881999D01*
X126750000Y-104881998D01*
X126750000Y-104078494D01*
X126854839Y-104126373D01*
X126963527Y-104142000D01*
X127036473Y-104142000D01*
X127145161Y-104126373D01*
X127250000Y-104078494D01*
X127250000Y-104881999D01*
X127881479Y-104881999D01*
X127975149Y-104867164D01*
X127975155Y-104867162D01*
X128088041Y-104809643D01*
X128088050Y-104809636D01*
X128177636Y-104720050D01*
X128177639Y-104720046D01*
X128235166Y-104607144D01*
X128250000Y-104513486D01*
X128250000Y-103882000D01*
X127445572Y-103882000D01*
X127468682Y-103846040D01*
X127510000Y-103705327D01*
X127510000Y-103558673D01*
X127468682Y-103417960D01*
X127445572Y-103382000D01*
X128249999Y-103382000D01*
X128249999Y-102750520D01*
X128235164Y-102656850D01*
X128235162Y-102656844D01*
X128177643Y-102543958D01*
X128177636Y-102543949D01*
X128088050Y-102454363D01*
X128088046Y-102454360D01*
X127975144Y-102396833D01*
X127881486Y-102382000D01*
X127250000Y-102382000D01*
X127250000Y-103185505D01*
X127145161Y-103137627D01*
X127036473Y-103122000D01*
X126963527Y-103122000D01*
X126854839Y-103137627D01*
X126750000Y-103185505D01*
X126750000Y-102382000D01*
X126118520Y-102382000D01*
X126024850Y-102396835D01*
X126024844Y-102396837D01*
X125911958Y-102454356D01*
X125911949Y-102454363D01*
X125822363Y-102543949D01*
X125822360Y-102543953D01*
X125764833Y-102656855D01*
X125750000Y-102750513D01*
X125750000Y-103382000D01*
X118717500Y-103382000D01*
X118717500Y-101092000D01*
X126017770Y-101092000D01*
X126036643Y-101283626D01*
X126092538Y-101467884D01*
X126183302Y-101637692D01*
X126183306Y-101637699D01*
X126305458Y-101786541D01*
X126454300Y-101908693D01*
X126454307Y-101908697D01*
X126624115Y-101999461D01*
X126624117Y-101999462D01*
X126808376Y-102055357D01*
X127000000Y-102074230D01*
X127191624Y-102055357D01*
X127375883Y-101999462D01*
X127545698Y-101908694D01*
X127694541Y-101786541D01*
X127816694Y-101637698D01*
X127907462Y-101467883D01*
X127963357Y-101283624D01*
X127982230Y-101092000D01*
X127963357Y-100900376D01*
X127907462Y-100716117D01*
X127840657Y-100591133D01*
X127816697Y-100546307D01*
X127816693Y-100546300D01*
X127694541Y-100397458D01*
X127545699Y-100275306D01*
X127545692Y-100275302D01*
X127375884Y-100184538D01*
X127191626Y-100128643D01*
X127000000Y-100109770D01*
X126808373Y-100128643D01*
X126624115Y-100184538D01*
X126454307Y-100275302D01*
X126454300Y-100275306D01*
X126305458Y-100397458D01*
X126183306Y-100546300D01*
X126183302Y-100546307D01*
X126092538Y-100716115D01*
X126036643Y-100900373D01*
X126017770Y-101092000D01*
X118717500Y-101092000D01*
X118717500Y-98552000D01*
X126017770Y-98552000D01*
X126036643Y-98743626D01*
X126092538Y-98927884D01*
X126183302Y-99097692D01*
X126183306Y-99097699D01*
X126305458Y-99246541D01*
X126454300Y-99368693D01*
X126454307Y-99368697D01*
X126554040Y-99422005D01*
X126624117Y-99459462D01*
X126808376Y-99515357D01*
X127000000Y-99534230D01*
X127191624Y-99515357D01*
X127375883Y-99459462D01*
X127545698Y-99368694D01*
X127694541Y-99246541D01*
X127816694Y-99097698D01*
X127907462Y-98927883D01*
X127963357Y-98743624D01*
X127982230Y-98552000D01*
X127963357Y-98360376D01*
X127907462Y-98176117D01*
X127857196Y-98082075D01*
X127816697Y-98006307D01*
X127816693Y-98006300D01*
X127694541Y-97857458D01*
X127545699Y-97735306D01*
X127545692Y-97735302D01*
X127375884Y-97644538D01*
X127191626Y-97588643D01*
X127000000Y-97569770D01*
X126808373Y-97588643D01*
X126624115Y-97644538D01*
X126454307Y-97735302D01*
X126454300Y-97735306D01*
X126305458Y-97857458D01*
X126183306Y-98006300D01*
X126183302Y-98006307D01*
X126092538Y-98176115D01*
X126036643Y-98360373D01*
X126017770Y-98552000D01*
X118717500Y-98552000D01*
X118717500Y-96012000D01*
X126017770Y-96012000D01*
X126036643Y-96203626D01*
X126092538Y-96387884D01*
X126183302Y-96557692D01*
X126183306Y-96557699D01*
X126305458Y-96706541D01*
X126454300Y-96828693D01*
X126454307Y-96828697D01*
X126624115Y-96919461D01*
X126624117Y-96919462D01*
X126808376Y-96975357D01*
X127000000Y-96994230D01*
X127191624Y-96975357D01*
X127375883Y-96919462D01*
X127545698Y-96828694D01*
X127694541Y-96706541D01*
X127816694Y-96557698D01*
X127907462Y-96387883D01*
X127963357Y-96203624D01*
X127982230Y-96012000D01*
X127963357Y-95820376D01*
X127907462Y-95636117D01*
X127816694Y-95466302D01*
X127816693Y-95466300D01*
X127694541Y-95317458D01*
X127545699Y-95195306D01*
X127545692Y-95195302D01*
X127375884Y-95104538D01*
X127191626Y-95048643D01*
X127000000Y-95029770D01*
X126808373Y-95048643D01*
X126624115Y-95104538D01*
X126454307Y-95195302D01*
X126454300Y-95195306D01*
X126305458Y-95317458D01*
X126183306Y-95466300D01*
X126183302Y-95466307D01*
X126092538Y-95636115D01*
X126036643Y-95820373D01*
X126017770Y-96012000D01*
X118717500Y-96012000D01*
X118717500Y-93472000D01*
X126017770Y-93472000D01*
X126036643Y-93663626D01*
X126092538Y-93847884D01*
X126183302Y-94017692D01*
X126183306Y-94017699D01*
X126305458Y-94166541D01*
X126454300Y-94288693D01*
X126454307Y-94288697D01*
X126624115Y-94379461D01*
X126624117Y-94379462D01*
X126808376Y-94435357D01*
X127000000Y-94454230D01*
X127191624Y-94435357D01*
X127375883Y-94379462D01*
X127545698Y-94288694D01*
X127694541Y-94166541D01*
X127816694Y-94017698D01*
X127907462Y-93847883D01*
X127963357Y-93663624D01*
X127982230Y-93472000D01*
X127963357Y-93280376D01*
X127907462Y-93096117D01*
X127816694Y-92926302D01*
X127816693Y-92926300D01*
X127694541Y-92777458D01*
X127545699Y-92655306D01*
X127545692Y-92655302D01*
X127375884Y-92564538D01*
X127191626Y-92508643D01*
X127000000Y-92489770D01*
X126808373Y-92508643D01*
X126624115Y-92564538D01*
X126454307Y-92655302D01*
X126454300Y-92655306D01*
X126305458Y-92777458D01*
X126183306Y-92926300D01*
X126183302Y-92926307D01*
X126092538Y-93096115D01*
X126036643Y-93280373D01*
X126017770Y-93472000D01*
X118717500Y-93472000D01*
X118717500Y-90682000D01*
X125750000Y-90682000D01*
X126554428Y-90682000D01*
X126531318Y-90717960D01*
X126490000Y-90858673D01*
X126490000Y-91005327D01*
X126531318Y-91146040D01*
X126554428Y-91182000D01*
X125750001Y-91182000D01*
X125750001Y-91813479D01*
X125764835Y-91907149D01*
X125764837Y-91907155D01*
X125822356Y-92020041D01*
X125822363Y-92020050D01*
X125911949Y-92109636D01*
X125911953Y-92109639D01*
X126024855Y-92167166D01*
X126118514Y-92181999D01*
X126749999Y-92181999D01*
X126750000Y-92181998D01*
X126750000Y-91378494D01*
X126854839Y-91426373D01*
X126963527Y-91442000D01*
X127036473Y-91442000D01*
X127145161Y-91426373D01*
X127250000Y-91378494D01*
X127250000Y-92181999D01*
X127881479Y-92181999D01*
X127975149Y-92167164D01*
X127975155Y-92167162D01*
X128088041Y-92109643D01*
X128088050Y-92109636D01*
X128177636Y-92020050D01*
X128177639Y-92020046D01*
X128235166Y-91907144D01*
X128250000Y-91813486D01*
X128250000Y-91182000D01*
X127445572Y-91182000D01*
X127468682Y-91146040D01*
X127510000Y-91005327D01*
X127510000Y-90858673D01*
X127468682Y-90717960D01*
X127445572Y-90682000D01*
X128249999Y-90682000D01*
X128249999Y-90050520D01*
X128235164Y-89956850D01*
X128235162Y-89956844D01*
X128177643Y-89843958D01*
X128177636Y-89843949D01*
X128088050Y-89754363D01*
X128088046Y-89754360D01*
X127975144Y-89696833D01*
X127881486Y-89682000D01*
X127250000Y-89682000D01*
X127250000Y-90485505D01*
X127145161Y-90437627D01*
X127036473Y-90422000D01*
X126963527Y-90422000D01*
X126854839Y-90437627D01*
X126750000Y-90485505D01*
X126750000Y-89682000D01*
X126118520Y-89682000D01*
X126024850Y-89696835D01*
X126024844Y-89696837D01*
X125911958Y-89754356D01*
X125911949Y-89754363D01*
X125822363Y-89843949D01*
X125822360Y-89843953D01*
X125764833Y-89956855D01*
X125750000Y-90050513D01*
X125750000Y-90682000D01*
X118717500Y-90682000D01*
X118717500Y-88392000D01*
X126017770Y-88392000D01*
X126036643Y-88583626D01*
X126092538Y-88767884D01*
X126183302Y-88937692D01*
X126183306Y-88937699D01*
X126305458Y-89086541D01*
X126454300Y-89208693D01*
X126454307Y-89208697D01*
X126624115Y-89299461D01*
X126624117Y-89299462D01*
X126808376Y-89355357D01*
X127000000Y-89374230D01*
X127191624Y-89355357D01*
X127375883Y-89299462D01*
X127545698Y-89208694D01*
X127694541Y-89086541D01*
X127816694Y-88937698D01*
X127907462Y-88767883D01*
X127963357Y-88583624D01*
X127982230Y-88392000D01*
X127963357Y-88200376D01*
X127907462Y-88016117D01*
X127877937Y-87960879D01*
X127816697Y-87846307D01*
X127816693Y-87846300D01*
X127694541Y-87697458D01*
X127545699Y-87575306D01*
X127545692Y-87575302D01*
X127375884Y-87484538D01*
X127191626Y-87428643D01*
X127000000Y-87409770D01*
X126808373Y-87428643D01*
X126624115Y-87484538D01*
X126454307Y-87575302D01*
X126454300Y-87575306D01*
X126305458Y-87697458D01*
X126183306Y-87846300D01*
X126183302Y-87846307D01*
X126092538Y-88016115D01*
X126036643Y-88200373D01*
X126017770Y-88392000D01*
X118717500Y-88392000D01*
X118717500Y-85852000D01*
X126017770Y-85852000D01*
X126036643Y-86043626D01*
X126092538Y-86227884D01*
X126183302Y-86397692D01*
X126183306Y-86397699D01*
X126305458Y-86546541D01*
X126454300Y-86668693D01*
X126454307Y-86668697D01*
X126624115Y-86759461D01*
X126624117Y-86759462D01*
X126808376Y-86815357D01*
X127000000Y-86834230D01*
X127191624Y-86815357D01*
X127375883Y-86759462D01*
X127545698Y-86668694D01*
X127694541Y-86546541D01*
X127816694Y-86397698D01*
X127907462Y-86227883D01*
X127963357Y-86043624D01*
X127982230Y-85852000D01*
X127963357Y-85660376D01*
X127907462Y-85476117D01*
X127907461Y-85476115D01*
X127816697Y-85306307D01*
X127816693Y-85306300D01*
X127694541Y-85157458D01*
X127545699Y-85035306D01*
X127545692Y-85035302D01*
X127375884Y-84944538D01*
X127191626Y-84888643D01*
X127000000Y-84869770D01*
X126808373Y-84888643D01*
X126624115Y-84944538D01*
X126454307Y-85035302D01*
X126454300Y-85035306D01*
X126305458Y-85157458D01*
X126183306Y-85306300D01*
X126183302Y-85306307D01*
X126092538Y-85476115D01*
X126036643Y-85660373D01*
X126017770Y-85852000D01*
X118717500Y-85852000D01*
X118717500Y-83312000D01*
X126017770Y-83312000D01*
X126036643Y-83503626D01*
X126092538Y-83687884D01*
X126183302Y-83857692D01*
X126183306Y-83857699D01*
X126305458Y-84006541D01*
X126454300Y-84128693D01*
X126454307Y-84128697D01*
X126530489Y-84169417D01*
X126624117Y-84219462D01*
X126808376Y-84275357D01*
X127000000Y-84294230D01*
X127191624Y-84275357D01*
X127375883Y-84219462D01*
X127545698Y-84128694D01*
X127694541Y-84006541D01*
X127816694Y-83857698D01*
X127907462Y-83687883D01*
X127963357Y-83503624D01*
X127981442Y-83320005D01*
X143187608Y-83320005D01*
X143207143Y-83555760D01*
X143265219Y-83785097D01*
X143360248Y-84001742D01*
X143489638Y-84199790D01*
X143518615Y-84231267D01*
X143649867Y-84373845D01*
X143836556Y-84519151D01*
X144044615Y-84631746D01*
X144268369Y-84708561D01*
X144501714Y-84747500D01*
X144501715Y-84747500D01*
X144738285Y-84747500D01*
X144738286Y-84747500D01*
X144971631Y-84708561D01*
X145195385Y-84631746D01*
X145403444Y-84519151D01*
X145590133Y-84373845D01*
X145750359Y-84199793D01*
X145879751Y-84001743D01*
X145974781Y-83785097D01*
X146032856Y-83555764D01*
X146052392Y-83320000D01*
X146051729Y-83312000D01*
X146032856Y-83084239D01*
X146032856Y-83084236D01*
X145974781Y-82854903D01*
X145879751Y-82638257D01*
X145786357Y-82495306D01*
X145750361Y-82440209D01*
X145666068Y-82348643D01*
X145590133Y-82266155D01*
X145519992Y-82211562D01*
X145403446Y-82120850D01*
X145403441Y-82120847D01*
X145195391Y-82008257D01*
X145195388Y-82008255D01*
X145195385Y-82008254D01*
X145195382Y-82008253D01*
X145195380Y-82008252D01*
X144971633Y-81931439D01*
X144816067Y-81905479D01*
X144738286Y-81892500D01*
X144501714Y-81892500D01*
X144443377Y-81902234D01*
X144268366Y-81931439D01*
X144044619Y-82008252D01*
X144044608Y-82008257D01*
X143836558Y-82120847D01*
X143836553Y-82120850D01*
X143649869Y-82266153D01*
X143489638Y-82440209D01*
X143360248Y-82638257D01*
X143265219Y-82854902D01*
X143207143Y-83084239D01*
X143187608Y-83319994D01*
X143187608Y-83320005D01*
X127981442Y-83320005D01*
X127982230Y-83312000D01*
X127963357Y-83120376D01*
X127907462Y-82936117D01*
X127816694Y-82766302D01*
X127816693Y-82766300D01*
X127694541Y-82617458D01*
X127545699Y-82495306D01*
X127545692Y-82495302D01*
X127375884Y-82404538D01*
X127191626Y-82348643D01*
X127000000Y-82329770D01*
X126808373Y-82348643D01*
X126624115Y-82404538D01*
X126454307Y-82495302D01*
X126454300Y-82495306D01*
X126305458Y-82617458D01*
X126183306Y-82766300D01*
X126183302Y-82766307D01*
X126092538Y-82936115D01*
X126036643Y-83120373D01*
X126017770Y-83312000D01*
X118717500Y-83312000D01*
X118717500Y-80772000D01*
X126017770Y-80772000D01*
X126036643Y-80963626D01*
X126092538Y-81147884D01*
X126183302Y-81317692D01*
X126183306Y-81317699D01*
X126305458Y-81466541D01*
X126454300Y-81588693D01*
X126454307Y-81588697D01*
X126624115Y-81679461D01*
X126624117Y-81679462D01*
X126808376Y-81735357D01*
X127000000Y-81754230D01*
X127191624Y-81735357D01*
X127375883Y-81679462D01*
X127545698Y-81588694D01*
X127694541Y-81466541D01*
X127816694Y-81317698D01*
X127907462Y-81147883D01*
X127963357Y-80963624D01*
X127982230Y-80772000D01*
X127963357Y-80580376D01*
X127907462Y-80396117D01*
X127816694Y-80226302D01*
X127816693Y-80226300D01*
X127694541Y-80077458D01*
X127545699Y-79955306D01*
X127545692Y-79955302D01*
X127375884Y-79864538D01*
X127191626Y-79808643D01*
X127000000Y-79789770D01*
X126808373Y-79808643D01*
X126624115Y-79864538D01*
X126454307Y-79955302D01*
X126454300Y-79955306D01*
X126305458Y-80077458D01*
X126183306Y-80226300D01*
X126183302Y-80226307D01*
X126092538Y-80396115D01*
X126036643Y-80580373D01*
X126017770Y-80772000D01*
X118717500Y-80772000D01*
X118717500Y-80076833D01*
X118737185Y-80009794D01*
X118753814Y-79989157D01*
X120760971Y-77982000D01*
X125750000Y-77982000D01*
X126554428Y-77982000D01*
X126531318Y-78017960D01*
X126490000Y-78158673D01*
X126490000Y-78305327D01*
X126531318Y-78446040D01*
X126554428Y-78482000D01*
X125750001Y-78482000D01*
X125750001Y-79113479D01*
X125764835Y-79207149D01*
X125764837Y-79207155D01*
X125822356Y-79320041D01*
X125822363Y-79320050D01*
X125911949Y-79409636D01*
X125911953Y-79409639D01*
X126024855Y-79467166D01*
X126118514Y-79481999D01*
X126749999Y-79481999D01*
X126750000Y-79481998D01*
X126750000Y-78678494D01*
X126854839Y-78726373D01*
X126963527Y-78742000D01*
X127036473Y-78742000D01*
X127145161Y-78726373D01*
X127250000Y-78678494D01*
X127250000Y-79481999D01*
X127881479Y-79481999D01*
X127975149Y-79467164D01*
X127975155Y-79467162D01*
X128088041Y-79409643D01*
X128088050Y-79409636D01*
X128177636Y-79320050D01*
X128177639Y-79320046D01*
X128235166Y-79207144D01*
X128250000Y-79113486D01*
X128250000Y-78482000D01*
X127445572Y-78482000D01*
X127468682Y-78446040D01*
X127510000Y-78305327D01*
X127510000Y-78240005D01*
X143187608Y-78240005D01*
X143207143Y-78475760D01*
X143265219Y-78705097D01*
X143360248Y-78921742D01*
X143489638Y-79119790D01*
X143489641Y-79119793D01*
X143649867Y-79293845D01*
X143836556Y-79439151D01*
X144044615Y-79551746D01*
X144268369Y-79628561D01*
X144501714Y-79667500D01*
X144501715Y-79667500D01*
X144738285Y-79667500D01*
X144738286Y-79667500D01*
X144971631Y-79628561D01*
X145195385Y-79551746D01*
X145403444Y-79439151D01*
X145590133Y-79293845D01*
X145750359Y-79119793D01*
X145879751Y-78921743D01*
X145974781Y-78705097D01*
X146032856Y-78475764D01*
X146052392Y-78240000D01*
X146032856Y-78004236D01*
X145974781Y-77774903D01*
X145879751Y-77558257D01*
X145756393Y-77369442D01*
X145750361Y-77360209D01*
X145724623Y-77332250D01*
X145590133Y-77186155D01*
X145420807Y-77054363D01*
X145403446Y-77040850D01*
X145403441Y-77040847D01*
X145195391Y-76928257D01*
X145195388Y-76928255D01*
X145195385Y-76928254D01*
X145195382Y-76928253D01*
X145195380Y-76928252D01*
X144971633Y-76851439D01*
X144816067Y-76825479D01*
X144738286Y-76812500D01*
X144501714Y-76812500D01*
X144443377Y-76822234D01*
X144268366Y-76851439D01*
X144044619Y-76928252D01*
X144044608Y-76928257D01*
X143836558Y-77040847D01*
X143836553Y-77040850D01*
X143649869Y-77186153D01*
X143489638Y-77360209D01*
X143360248Y-77558257D01*
X143265219Y-77774902D01*
X143207143Y-78004239D01*
X143187608Y-78239994D01*
X143187608Y-78240005D01*
X127510000Y-78240005D01*
X127510000Y-78158673D01*
X127468682Y-78017960D01*
X127445572Y-77982000D01*
X128249999Y-77982000D01*
X128249999Y-77350520D01*
X128235164Y-77256850D01*
X128235162Y-77256844D01*
X128177643Y-77143958D01*
X128177636Y-77143949D01*
X128088050Y-77054363D01*
X128088046Y-77054360D01*
X127975144Y-76996833D01*
X127881486Y-76982000D01*
X127250000Y-76982000D01*
X127250000Y-77785505D01*
X127145161Y-77737627D01*
X127036473Y-77722000D01*
X126963527Y-77722000D01*
X126854839Y-77737627D01*
X126750000Y-77785505D01*
X126750000Y-76982000D01*
X126118520Y-76982000D01*
X126024850Y-76996835D01*
X126024844Y-76996837D01*
X125911958Y-77054356D01*
X125911949Y-77054363D01*
X125822363Y-77143949D01*
X125822360Y-77143953D01*
X125764833Y-77256855D01*
X125750000Y-77350513D01*
X125750000Y-77982000D01*
X120760971Y-77982000D01*
X123050971Y-75692000D01*
X126017770Y-75692000D01*
X126036643Y-75883626D01*
X126092538Y-76067884D01*
X126183302Y-76237692D01*
X126183306Y-76237699D01*
X126305458Y-76386541D01*
X126454300Y-76508693D01*
X126454307Y-76508697D01*
X126624115Y-76599461D01*
X126624117Y-76599462D01*
X126808376Y-76655357D01*
X127000000Y-76674230D01*
X127191624Y-76655357D01*
X127375883Y-76599462D01*
X127545698Y-76508694D01*
X127694541Y-76386541D01*
X127816694Y-76237698D01*
X127907462Y-76067883D01*
X127963357Y-75883624D01*
X127982230Y-75692000D01*
X127963357Y-75500376D01*
X127907462Y-75316117D01*
X127816694Y-75146302D01*
X127816693Y-75146300D01*
X127694541Y-74997458D01*
X127545699Y-74875306D01*
X127545692Y-74875302D01*
X127375884Y-74784538D01*
X127191626Y-74728643D01*
X127000000Y-74709770D01*
X126808373Y-74728643D01*
X126624115Y-74784538D01*
X126454307Y-74875302D01*
X126454300Y-74875306D01*
X126305458Y-74997458D01*
X126183306Y-75146300D01*
X126183302Y-75146307D01*
X126092538Y-75316115D01*
X126036643Y-75500373D01*
X126017770Y-75692000D01*
X123050971Y-75692000D01*
X125819347Y-72923623D01*
X125880668Y-72890140D01*
X125950360Y-72895124D01*
X126006293Y-72936996D01*
X126030710Y-73002460D01*
X126030429Y-73023459D01*
X126017770Y-73151999D01*
X126036643Y-73343626D01*
X126092538Y-73527884D01*
X126183302Y-73697692D01*
X126183306Y-73697699D01*
X126305458Y-73846541D01*
X126454300Y-73968693D01*
X126454307Y-73968697D01*
X126587313Y-74039790D01*
X126624117Y-74059462D01*
X126808376Y-74115357D01*
X127000000Y-74134230D01*
X127191624Y-74115357D01*
X127375883Y-74059462D01*
X127545698Y-73968694D01*
X127694541Y-73846541D01*
X127816694Y-73697698D01*
X127907462Y-73527883D01*
X127963357Y-73343624D01*
X127981442Y-73160005D01*
X143187608Y-73160005D01*
X143207143Y-73395760D01*
X143265219Y-73625097D01*
X143360248Y-73841742D01*
X143489638Y-74039790D01*
X143518615Y-74071267D01*
X143649867Y-74213845D01*
X143836556Y-74359151D01*
X144044615Y-74471746D01*
X144268369Y-74548561D01*
X144501714Y-74587500D01*
X144501715Y-74587500D01*
X144738285Y-74587500D01*
X144738286Y-74587500D01*
X144971631Y-74548561D01*
X145195385Y-74471746D01*
X145403444Y-74359151D01*
X145590133Y-74213845D01*
X145750359Y-74039793D01*
X145879751Y-73841743D01*
X145974781Y-73625097D01*
X146032856Y-73395764D01*
X146052392Y-73160000D01*
X146051729Y-73152000D01*
X146032856Y-72924239D01*
X146032856Y-72924236D01*
X145974781Y-72694903D01*
X145879751Y-72478257D01*
X145786357Y-72335306D01*
X145750361Y-72280209D01*
X145706792Y-72232881D01*
X145590133Y-72106155D01*
X145497372Y-72033956D01*
X145403446Y-71960850D01*
X145403441Y-71960847D01*
X145195391Y-71848257D01*
X145195388Y-71848255D01*
X145195385Y-71848254D01*
X145195382Y-71848253D01*
X145195380Y-71848252D01*
X144971633Y-71771439D01*
X144816067Y-71745479D01*
X144738286Y-71732500D01*
X144501714Y-71732500D01*
X144443377Y-71742234D01*
X144268366Y-71771439D01*
X144044619Y-71848252D01*
X144044608Y-71848257D01*
X143836558Y-71960847D01*
X143836553Y-71960850D01*
X143649869Y-72106153D01*
X143489638Y-72280209D01*
X143360248Y-72478257D01*
X143265219Y-72694902D01*
X143207143Y-72924239D01*
X143187608Y-73159994D01*
X143187608Y-73160005D01*
X127981442Y-73160005D01*
X127982230Y-73152000D01*
X127963357Y-72960376D01*
X127907462Y-72776117D01*
X127816694Y-72606302D01*
X127816693Y-72606300D01*
X127694541Y-72457458D01*
X127545699Y-72335306D01*
X127545692Y-72335302D01*
X127375884Y-72244538D01*
X127191626Y-72188643D01*
X127000000Y-72169770D01*
X126999999Y-72169770D01*
X126871459Y-72182429D01*
X126802813Y-72169410D01*
X126752103Y-72121344D01*
X126735429Y-72053493D01*
X126758086Y-71987399D01*
X126771619Y-71971351D01*
X127135198Y-71607772D01*
X127186882Y-71576794D01*
X127191616Y-71575357D01*
X127191624Y-71575357D01*
X127375883Y-71519462D01*
X127545698Y-71428694D01*
X127694541Y-71306541D01*
X127816694Y-71157698D01*
X127907462Y-70987883D01*
X127963357Y-70803624D01*
X127982230Y-70612000D01*
X127963357Y-70420376D01*
X127907462Y-70236117D01*
X127907461Y-70236115D01*
X127816697Y-70066307D01*
X127816693Y-70066300D01*
X127694541Y-69917458D01*
X127545699Y-69795306D01*
X127545692Y-69795302D01*
X127375884Y-69704538D01*
X127191626Y-69648643D01*
X127000000Y-69629770D01*
X126808373Y-69648643D01*
X126624115Y-69704538D01*
X126454307Y-69795302D01*
X126454300Y-69795306D01*
X126305458Y-69917458D01*
X126183307Y-70066300D01*
X126183305Y-70066303D01*
X126178859Y-70074620D01*
X126157186Y-70103840D01*
X117248290Y-79012735D01*
X117240887Y-79019560D01*
X117199187Y-79054981D01*
X117199184Y-79054984D01*
X117149648Y-79120144D01*
X117147585Y-79122783D01*
X117096269Y-79186626D01*
X117096171Y-79186825D01*
X117083812Y-79206751D01*
X117083679Y-79206925D01*
X117083669Y-79206941D01*
X117049295Y-79281238D01*
X117047846Y-79284262D01*
X117011474Y-79357602D01*
X117011466Y-79357624D01*
X117011412Y-79357844D01*
X117003632Y-79379941D01*
X117003534Y-79380152D01*
X117003528Y-79380168D01*
X116985926Y-79460132D01*
X116985161Y-79463398D01*
X116965405Y-79542841D01*
X116965399Y-79543073D01*
X116962551Y-79566335D01*
X116962500Y-79566566D01*
X116962500Y-79648429D01*
X116962455Y-79651786D01*
X116960238Y-79733635D01*
X116960278Y-79733844D01*
X116962500Y-79757213D01*
X116962500Y-107449297D01*
X116962091Y-107459359D01*
X116957650Y-107513902D01*
X116957832Y-107520629D01*
X116957196Y-107520646D01*
X116957371Y-107527177D01*
X116957467Y-107527175D01*
X116957649Y-107533900D01*
X116959524Y-107547660D01*
X116960614Y-107567747D01*
X116960238Y-107581637D01*
X116960238Y-107581638D01*
X116973109Y-107648722D01*
X116974194Y-107655343D01*
X116983416Y-107723021D01*
X116983418Y-107723029D01*
X116988204Y-107736057D01*
X116993586Y-107755438D01*
X116996204Y-107769081D01*
X117023193Y-107831821D01*
X117025678Y-107838058D01*
X117049236Y-107902181D01*
X117049236Y-107902182D01*
X117056715Y-107913882D01*
X117066143Y-107931666D01*
X117071627Y-107944416D01*
X117071628Y-107944418D01*
X117071629Y-107944419D01*
X117111500Y-107999926D01*
X117115223Y-108005417D01*
X117152032Y-108063004D01*
X117152037Y-108063009D01*
X117161846Y-108072818D01*
X117174876Y-108088157D01*
X117182978Y-108099437D01*
X117182982Y-108099441D01*
X117233823Y-108145052D01*
X117238699Y-108149671D01*
X122596181Y-113507153D01*
X122629666Y-113568476D01*
X122632500Y-113594834D01*
X122632500Y-116530371D01*
X122612815Y-116597410D01*
X122560011Y-116643165D01*
X122490853Y-116653109D01*
X122427297Y-116624084D01*
X122420819Y-116618052D01*
X122406554Y-116603787D01*
X122227387Y-116478333D01*
X122029159Y-116385898D01*
X122029150Y-116385894D01*
X121850000Y-116337891D01*
X121850000Y-117129498D01*
X121742315Y-117080320D01*
X121635763Y-117065000D01*
X121564237Y-117065000D01*
X121457685Y-117080320D01*
X121350000Y-117129498D01*
X121350000Y-116337892D01*
X121349999Y-116337891D01*
X121170849Y-116385894D01*
X121170840Y-116385898D01*
X120972612Y-116478333D01*
X120972608Y-116478335D01*
X120793450Y-116603783D01*
X120793444Y-116603788D01*
X120638788Y-116758444D01*
X120638783Y-116758450D01*
X120513335Y-116937608D01*
X120513333Y-116937612D01*
X120420898Y-117135840D01*
X120420894Y-117135849D01*
X120372891Y-117314999D01*
X120372892Y-117315000D01*
X121166314Y-117315000D01*
X121140507Y-117355156D01*
X121100000Y-117493111D01*
X121100000Y-117636889D01*
X121140507Y-117774844D01*
X121166314Y-117815000D01*
X120372892Y-117815000D01*
X120420894Y-117994150D01*
X120420898Y-117994159D01*
X120513333Y-118192387D01*
X120638787Y-118371554D01*
X120793445Y-118526212D01*
X120972612Y-118651666D01*
X121170843Y-118744103D01*
X121350000Y-118792106D01*
X121350000Y-118000501D01*
X121457685Y-118049680D01*
X121564237Y-118065000D01*
X121635763Y-118065000D01*
X121742315Y-118049680D01*
X121850000Y-118000501D01*
X121850000Y-118792105D01*
X122029156Y-118744103D01*
X122029157Y-118744103D01*
X122227387Y-118651666D01*
X122406554Y-118526212D01*
X122406557Y-118526209D01*
X122420819Y-118511948D01*
X122482142Y-118478463D01*
X122551834Y-118483447D01*
X122607767Y-118525319D01*
X122632184Y-118590783D01*
X122632500Y-118599629D01*
X122632500Y-119010209D01*
X122612815Y-119077248D01*
X122560011Y-119123003D01*
X122490853Y-119132947D01*
X122484307Y-119131826D01*
X122462560Y-119127500D01*
X122462558Y-119127500D01*
X120737442Y-119127500D01*
X120737441Y-119127500D01*
X120700250Y-119134898D01*
X120658077Y-119163077D01*
X120629898Y-119205250D01*
X120622500Y-119242441D01*
X120622500Y-120545165D01*
X120602815Y-120612204D01*
X120586181Y-120632846D01*
X120242846Y-120976181D01*
X120181523Y-121009666D01*
X120155165Y-121012500D01*
X115189834Y-121012500D01*
X115122795Y-120992815D01*
X115102153Y-120976181D01*
X113883819Y-119757846D01*
X113850334Y-119696523D01*
X113847500Y-119670165D01*
X113847500Y-119122441D01*
X113845662Y-119113205D01*
X113840102Y-119085252D01*
X113834754Y-119077248D01*
X113811922Y-119043077D01*
X113769749Y-119014898D01*
X113732559Y-119007500D01*
X113732558Y-119007500D01*
X112007442Y-119007500D01*
X112007441Y-119007500D01*
X111970250Y-119014898D01*
X111928077Y-119043077D01*
X111899898Y-119085250D01*
X111892500Y-119122441D01*
X111892500Y-120847558D01*
X111899898Y-120884749D01*
X111928077Y-120926922D01*
X111970250Y-120955101D01*
X111970252Y-120955102D01*
X111998205Y-120960662D01*
X112007441Y-120962500D01*
X112007442Y-120962500D01*
X112555166Y-120962500D01*
X112622205Y-120982185D01*
X112642847Y-120998819D01*
X114125729Y-122481701D01*
X114132555Y-122489105D01*
X114167986Y-122530817D01*
X114233183Y-122580379D01*
X114235808Y-122582432D01*
X114299614Y-122633722D01*
X114299616Y-122633723D01*
X114299620Y-122633726D01*
X114299811Y-122633820D01*
X114319760Y-122646194D01*
X114319934Y-122646326D01*
X114319936Y-122646327D01*
X114319939Y-122646329D01*
X114366948Y-122668077D01*
X114394286Y-122680724D01*
X114397249Y-122682145D01*
X114470613Y-122718530D01*
X114470820Y-122718581D01*
X114492961Y-122726376D01*
X114493161Y-122726469D01*
X114493164Y-122726469D01*
X114493165Y-122726470D01*
X114493164Y-122726470D01*
X114573113Y-122744068D01*
X114576382Y-122744834D01*
X114583411Y-122746582D01*
X114655839Y-122764594D01*
X114656044Y-122764599D01*
X114679363Y-122767455D01*
X114679566Y-122767500D01*
X114761408Y-122767500D01*
X114764766Y-122767545D01*
X114846637Y-122769763D01*
X114846852Y-122769721D01*
X114870218Y-122767500D01*
X120529297Y-122767500D01*
X120539359Y-122767908D01*
X120593902Y-122772350D01*
X120675032Y-122761296D01*
X120678337Y-122760891D01*
X120759749Y-122752038D01*
X120759935Y-122751975D01*
X120782824Y-122746610D01*
X120783023Y-122746583D01*
X120859881Y-122718345D01*
X120863010Y-122717243D01*
X120940625Y-122691093D01*
X120940801Y-122690986D01*
X120961986Y-122680835D01*
X120962183Y-122680763D01*
X121031193Y-122636651D01*
X121033994Y-122634914D01*
X121104172Y-122592691D01*
X121104322Y-122592548D01*
X121122828Y-122578079D01*
X121123004Y-122577968D01*
X121180916Y-122520054D01*
X121183248Y-122517784D01*
X121242741Y-122461431D01*
X121242861Y-122461253D01*
X121257811Y-122443160D01*
X122191717Y-121509254D01*
X122199097Y-121502449D01*
X122240817Y-121467014D01*
X122290361Y-121401838D01*
X122292411Y-121399217D01*
X122343726Y-121335380D01*
X122343816Y-121335196D01*
X122356205Y-121315223D01*
X122356326Y-121315066D01*
X122390713Y-121240736D01*
X122392129Y-121237781D01*
X122397414Y-121227125D01*
X122444836Y-121175816D01*
X122512472Y-121158289D01*
X122578846Y-121180110D01*
X122622886Y-121234353D01*
X122632500Y-121282225D01*
X122632500Y-126315164D01*
X122612815Y-126382203D01*
X122596181Y-126402845D01*
X120478290Y-128520735D01*
X120470887Y-128527560D01*
X120429187Y-128562981D01*
X120429184Y-128562984D01*
X120379648Y-128628144D01*
X120377585Y-128630783D01*
X120326269Y-128694626D01*
X120326171Y-128694825D01*
X120313812Y-128714751D01*
X120313679Y-128714925D01*
X120313669Y-128714941D01*
X120279295Y-128789238D01*
X120277846Y-128792262D01*
X120241474Y-128865602D01*
X120241466Y-128865624D01*
X120241412Y-128865844D01*
X120233632Y-128887941D01*
X120233534Y-128888152D01*
X120233528Y-128888168D01*
X120215926Y-128968132D01*
X120215161Y-128971398D01*
X120195405Y-129050841D01*
X120195399Y-129051073D01*
X120192551Y-129074335D01*
X120192500Y-129074566D01*
X120192500Y-129156429D01*
X120192455Y-129159786D01*
X120190238Y-129241635D01*
X120190278Y-129241844D01*
X120192500Y-129265213D01*
X120192500Y-141405165D01*
X120172815Y-141472204D01*
X120156181Y-141492846D01*
X119995878Y-141653148D01*
X119995864Y-141653164D01*
X119906273Y-141764620D01*
X119821471Y-141935610D01*
X119821470Y-141935611D01*
X119815444Y-141959843D01*
X119775406Y-142120839D01*
X119771229Y-142275060D01*
X119770238Y-142311638D01*
X119799801Y-142465703D01*
X119806206Y-142499085D01*
X119881629Y-142674419D01*
X119992980Y-142829439D01*
X120135053Y-142956898D01*
X120153908Y-142967558D01*
X120202578Y-143017688D01*
X120216419Y-143086173D01*
X120191037Y-143151269D01*
X120134491Y-143192310D01*
X120092879Y-143199500D01*
X76924500Y-143199500D01*
X76857461Y-143179815D01*
X76811706Y-143127011D01*
X76800500Y-143075500D01*
X76800500Y-140562306D01*
X78161828Y-140562306D01*
X78171613Y-140792662D01*
X78171614Y-140792670D01*
X78220190Y-141018062D01*
X78220190Y-141018063D01*
X78306157Y-141232002D01*
X78427048Y-141428342D01*
X78579380Y-141601425D01*
X78579384Y-141601429D01*
X78758765Y-141746269D01*
X78758766Y-141746270D01*
X78758769Y-141746271D01*
X78758772Y-141746274D01*
X78960063Y-141858721D01*
X79177462Y-141935533D01*
X79304272Y-141957277D01*
X79404706Y-141974499D01*
X79404715Y-141974500D01*
X79577534Y-141974500D01*
X79577535Y-141974500D01*
X79577536Y-141974499D01*
X79577553Y-141974499D01*
X79749734Y-141959844D01*
X79749737Y-141959843D01*
X79749739Y-141959843D01*
X79972869Y-141901745D01*
X80131074Y-141830232D01*
X80182965Y-141806776D01*
X80182967Y-141806775D01*
X80182967Y-141806774D01*
X80182971Y-141806773D01*
X80374000Y-141677659D01*
X80540462Y-141518119D01*
X80677566Y-141332742D01*
X80781370Y-141126860D01*
X80848886Y-140906397D01*
X80878172Y-140677694D01*
X80868386Y-140447332D01*
X80819810Y-140221938D01*
X80733841Y-140007994D01*
X80612951Y-139811657D01*
X80460620Y-139638575D01*
X80460619Y-139638574D01*
X80460615Y-139638570D01*
X80281234Y-139493730D01*
X80281233Y-139493729D01*
X80079938Y-139381279D01*
X79862541Y-139304468D01*
X79862540Y-139304467D01*
X79862538Y-139304467D01*
X79862534Y-139304466D01*
X79862533Y-139304466D01*
X79635293Y-139265500D01*
X79635285Y-139265500D01*
X79462465Y-139265500D01*
X79462446Y-139265500D01*
X79290265Y-139280155D01*
X79067131Y-139338254D01*
X78857034Y-139433223D01*
X78857032Y-139433224D01*
X78665999Y-139562342D01*
X78499540Y-139721878D01*
X78362434Y-139907257D01*
X78258630Y-140113138D01*
X78191113Y-140333606D01*
X78161828Y-140562306D01*
X76800500Y-140562306D01*
X76800500Y-123359999D01*
X77447891Y-123359999D01*
X77447892Y-123360000D01*
X78241314Y-123360000D01*
X78215507Y-123400156D01*
X78175000Y-123538111D01*
X78175000Y-123681889D01*
X78215507Y-123819844D01*
X78241314Y-123860000D01*
X77447892Y-123860000D01*
X77495894Y-124039150D01*
X77495898Y-124039159D01*
X77588333Y-124237387D01*
X77713787Y-124416554D01*
X77868445Y-124571212D01*
X78047612Y-124696666D01*
X78245843Y-124789103D01*
X78425000Y-124837106D01*
X78425000Y-124045501D01*
X78532685Y-124094680D01*
X78639237Y-124110000D01*
X78710763Y-124110000D01*
X78817315Y-124094680D01*
X78925000Y-124045501D01*
X78925000Y-124837105D01*
X79104156Y-124789103D01*
X79104157Y-124789103D01*
X79302387Y-124696666D01*
X79481554Y-124571212D01*
X79580208Y-124472558D01*
X80237500Y-124472558D01*
X80244898Y-124509749D01*
X80273077Y-124551922D01*
X80315250Y-124580101D01*
X80315252Y-124580102D01*
X80343205Y-124585662D01*
X80352441Y-124587500D01*
X80352442Y-124587500D01*
X82077559Y-124587500D01*
X82084957Y-124586028D01*
X82114748Y-124580102D01*
X82156922Y-124551922D01*
X82185102Y-124509748D01*
X82192500Y-124472558D01*
X82192500Y-122747442D01*
X82185102Y-122710252D01*
X82185101Y-122710250D01*
X82156922Y-122668077D01*
X82114749Y-122639898D01*
X82077559Y-122632500D01*
X82077558Y-122632500D01*
X80352442Y-122632500D01*
X80352441Y-122632500D01*
X80315250Y-122639898D01*
X80273077Y-122668077D01*
X80244898Y-122710250D01*
X80237500Y-122747441D01*
X80237500Y-124472558D01*
X79580208Y-124472558D01*
X79636212Y-124416554D01*
X79761666Y-124237387D01*
X79854101Y-124039159D01*
X79854105Y-124039150D01*
X79902108Y-123860000D01*
X79108686Y-123860000D01*
X79134493Y-123819844D01*
X79175000Y-123681889D01*
X79175000Y-123538111D01*
X79134493Y-123400156D01*
X79108686Y-123360000D01*
X79902108Y-123360000D01*
X79902108Y-123359999D01*
X79854105Y-123180849D01*
X79854101Y-123180840D01*
X79761666Y-122982612D01*
X79761664Y-122982608D01*
X79636216Y-122803450D01*
X79636211Y-122803444D01*
X79481554Y-122648787D01*
X79302387Y-122523333D01*
X79104159Y-122430898D01*
X79104150Y-122430894D01*
X78925000Y-122382891D01*
X78925000Y-123174498D01*
X78817315Y-123125320D01*
X78710763Y-123110000D01*
X78639237Y-123110000D01*
X78532685Y-123125320D01*
X78425000Y-123174498D01*
X78425000Y-122382892D01*
X78424999Y-122382891D01*
X78245849Y-122430894D01*
X78245840Y-122430898D01*
X78047612Y-122523333D01*
X78047608Y-122523335D01*
X77868450Y-122648783D01*
X77868444Y-122648788D01*
X77713788Y-122803444D01*
X77713783Y-122803450D01*
X77588335Y-122982608D01*
X77588333Y-122982612D01*
X77495898Y-123180840D01*
X77495894Y-123180849D01*
X77447891Y-123359999D01*
X76800500Y-123359999D01*
X76800500Y-117660000D01*
X77989529Y-117660000D01*
X78052685Y-117830527D01*
X78052687Y-117830531D01*
X78154892Y-117994503D01*
X78288002Y-118134534D01*
X78288003Y-118134535D01*
X78446586Y-118244913D01*
X78624137Y-118321106D01*
X78813394Y-118360000D01*
X78960000Y-118360000D01*
X78960000Y-117710000D01*
X79460000Y-117710000D01*
X79460000Y-118360000D01*
X79558176Y-118360000D01*
X79702221Y-118345352D01*
X79886561Y-118287515D01*
X79886571Y-118287510D01*
X80055498Y-118193748D01*
X80055505Y-118193743D01*
X80202105Y-118067892D01*
X80320368Y-117915109D01*
X80320370Y-117915105D01*
X80405457Y-117741643D01*
X80426596Y-117660000D01*
X81789529Y-117660000D01*
X81852685Y-117830527D01*
X81852687Y-117830531D01*
X81954892Y-117994503D01*
X82088002Y-118134534D01*
X82088003Y-118134535D01*
X82246586Y-118244913D01*
X82424137Y-118321106D01*
X82613394Y-118360000D01*
X82760000Y-118360000D01*
X82760000Y-117710000D01*
X83260000Y-117710000D01*
X83260000Y-118360000D01*
X83358176Y-118360000D01*
X83502221Y-118345352D01*
X83686561Y-118287515D01*
X83686571Y-118287510D01*
X83855498Y-118193748D01*
X83855505Y-118193743D01*
X84002105Y-118067892D01*
X84120368Y-117915109D01*
X84120370Y-117915105D01*
X84205457Y-117741643D01*
X84226596Y-117660000D01*
X83476111Y-117660000D01*
X83515610Y-117635543D01*
X83583201Y-117546038D01*
X83613895Y-117438160D01*
X83603546Y-117326479D01*
X83553552Y-117226078D01*
X83481069Y-117160000D01*
X84230471Y-117160000D01*
X84167314Y-116989472D01*
X84167312Y-116989468D01*
X84065107Y-116825496D01*
X83931997Y-116685465D01*
X83931996Y-116685464D01*
X83773413Y-116575086D01*
X83595862Y-116498893D01*
X83406606Y-116460000D01*
X83260000Y-116460000D01*
X83260000Y-117110000D01*
X82760000Y-117110000D01*
X82760000Y-116460000D01*
X82661824Y-116460000D01*
X82517778Y-116474647D01*
X82333438Y-116532484D01*
X82333428Y-116532489D01*
X82164501Y-116626251D01*
X82164494Y-116626256D01*
X82017894Y-116752107D01*
X81899631Y-116904890D01*
X81899629Y-116904894D01*
X81814542Y-117078356D01*
X81793404Y-117160000D01*
X82543889Y-117160000D01*
X82504390Y-117184457D01*
X82436799Y-117273962D01*
X82406105Y-117381840D01*
X82416454Y-117493521D01*
X82466448Y-117593922D01*
X82538931Y-117660000D01*
X81789529Y-117660000D01*
X80426596Y-117660000D01*
X79676111Y-117660000D01*
X79715610Y-117635543D01*
X79783201Y-117546038D01*
X79813895Y-117438160D01*
X79803546Y-117326479D01*
X79753552Y-117226078D01*
X79681069Y-117160000D01*
X80430471Y-117160000D01*
X80367314Y-116989472D01*
X80367312Y-116989468D01*
X80265107Y-116825496D01*
X80131997Y-116685465D01*
X80131996Y-116685464D01*
X79973413Y-116575086D01*
X79795862Y-116498893D01*
X79606606Y-116460000D01*
X79460000Y-116460000D01*
X79460000Y-117110000D01*
X78960000Y-117110000D01*
X78960000Y-116460000D01*
X78861824Y-116460000D01*
X78717778Y-116474647D01*
X78533438Y-116532484D01*
X78533428Y-116532489D01*
X78364501Y-116626251D01*
X78364494Y-116626256D01*
X78217894Y-116752107D01*
X78099631Y-116904890D01*
X78099629Y-116904894D01*
X78014542Y-117078356D01*
X77993404Y-117160000D01*
X78743889Y-117160000D01*
X78704390Y-117184457D01*
X78636799Y-117273962D01*
X78606105Y-117381840D01*
X78616454Y-117493521D01*
X78666448Y-117593922D01*
X78738931Y-117660000D01*
X77989529Y-117660000D01*
X76800500Y-117660000D01*
X76800500Y-116046963D01*
X110417995Y-116046963D01*
X110421311Y-116070734D01*
X110422500Y-116087864D01*
X110422500Y-120627335D01*
X110421311Y-120644462D01*
X110420400Y-120650992D01*
X110422368Y-120693559D01*
X110422500Y-120699285D01*
X110422500Y-120715715D01*
X110422501Y-120715720D01*
X110423029Y-120721421D01*
X110423012Y-120721422D01*
X110424082Y-120730642D01*
X110425192Y-120754634D01*
X110427333Y-120759484D01*
X110435784Y-120786777D01*
X110436756Y-120791979D01*
X110436758Y-120791984D01*
X110449394Y-120812393D01*
X110457398Y-120827579D01*
X110467095Y-120849540D01*
X110467097Y-120849543D01*
X110470841Y-120853287D01*
X110488585Y-120875687D01*
X110491373Y-120880189D01*
X110510529Y-120894655D01*
X110523483Y-120905928D01*
X112686181Y-123068625D01*
X112719666Y-123129948D01*
X112722500Y-123156306D01*
X112722500Y-137686883D01*
X112702815Y-137753922D01*
X112673987Y-137785258D01*
X112623784Y-137823780D01*
X112539227Y-137933976D01*
X112486078Y-138062291D01*
X112486076Y-138062296D01*
X112467948Y-138199998D01*
X112467948Y-138200001D01*
X112486076Y-138337703D01*
X112486078Y-138337708D01*
X112539227Y-138466023D01*
X112539228Y-138466025D01*
X112539229Y-138466026D01*
X112623782Y-138576218D01*
X112733974Y-138660771D01*
X112862295Y-138713923D01*
X112931147Y-138722987D01*
X112999999Y-138732052D01*
X113000000Y-138732052D01*
X113000001Y-138732052D01*
X113045901Y-138726009D01*
X113137705Y-138713923D01*
X113266026Y-138660771D01*
X113376218Y-138576218D01*
X113460771Y-138466026D01*
X113513923Y-138337705D01*
X113532052Y-138200000D01*
X113513923Y-138062295D01*
X113460771Y-137933974D01*
X113376218Y-137823782D01*
X113326013Y-137785258D01*
X113284811Y-137728830D01*
X113277500Y-137686883D01*
X113277500Y-123052662D01*
X113278689Y-123035531D01*
X113279598Y-123029006D01*
X113279600Y-123029002D01*
X113277632Y-122986439D01*
X113277500Y-122980713D01*
X113277500Y-122964280D01*
X113276971Y-122958570D01*
X113276987Y-122958568D01*
X113275916Y-122949340D01*
X113274808Y-122925365D01*
X113272668Y-122920518D01*
X113264215Y-122893220D01*
X113263243Y-122888019D01*
X113250606Y-122867609D01*
X113242599Y-122852419D01*
X113232901Y-122830456D01*
X113229160Y-122826715D01*
X113211415Y-122804314D01*
X113208626Y-122799810D01*
X113189465Y-122785340D01*
X113176512Y-122774068D01*
X111013819Y-120611375D01*
X110980334Y-120550052D01*
X110977500Y-120523694D01*
X110977500Y-117194999D01*
X111642891Y-117194999D01*
X111642892Y-117195000D01*
X112436314Y-117195000D01*
X112410507Y-117235156D01*
X112370000Y-117373111D01*
X112370000Y-117516889D01*
X112410507Y-117654844D01*
X112436314Y-117695000D01*
X111642892Y-117695000D01*
X111690894Y-117874150D01*
X111690898Y-117874159D01*
X111783333Y-118072387D01*
X111908787Y-118251554D01*
X112063445Y-118406212D01*
X112242612Y-118531666D01*
X112440843Y-118624103D01*
X112620000Y-118672106D01*
X112620000Y-117880501D01*
X112727685Y-117929680D01*
X112834237Y-117945000D01*
X112905763Y-117945000D01*
X113012315Y-117929680D01*
X113120000Y-117880501D01*
X113120000Y-118672105D01*
X113299156Y-118624103D01*
X113299157Y-118624103D01*
X113497387Y-118531666D01*
X113676554Y-118406212D01*
X113831212Y-118251554D01*
X113956666Y-118072387D01*
X114049101Y-117874159D01*
X114049105Y-117874150D01*
X114097108Y-117695000D01*
X113303686Y-117695000D01*
X113329493Y-117654844D01*
X113370000Y-117516889D01*
X113370000Y-117373111D01*
X113329493Y-117235156D01*
X113303686Y-117195000D01*
X114097108Y-117195000D01*
X114097108Y-117194999D01*
X114049105Y-117015849D01*
X114049101Y-117015840D01*
X113956666Y-116817612D01*
X113956664Y-116817608D01*
X113831216Y-116638450D01*
X113831211Y-116638444D01*
X113676554Y-116483787D01*
X113497387Y-116358333D01*
X113299159Y-116265898D01*
X113299150Y-116265894D01*
X113120000Y-116217891D01*
X113120000Y-117009498D01*
X113012315Y-116960320D01*
X112905763Y-116945000D01*
X112834237Y-116945000D01*
X112727685Y-116960320D01*
X112620000Y-117009498D01*
X112620000Y-116217892D01*
X112619999Y-116217891D01*
X112440849Y-116265894D01*
X112440840Y-116265898D01*
X112242612Y-116358333D01*
X112242608Y-116358335D01*
X112063450Y-116483783D01*
X112063444Y-116483788D01*
X111908788Y-116638444D01*
X111908783Y-116638450D01*
X111783335Y-116817608D01*
X111783333Y-116817612D01*
X111690898Y-117015840D01*
X111690894Y-117015849D01*
X111642891Y-117194999D01*
X110977500Y-117194999D01*
X110977500Y-116226307D01*
X110997185Y-116159268D01*
X111013819Y-116138626D01*
X111188626Y-115963819D01*
X111249949Y-115930334D01*
X111276307Y-115927500D01*
X114876883Y-115927500D01*
X114943922Y-115947185D01*
X114975258Y-115976013D01*
X115013782Y-116026218D01*
X115123974Y-116110771D01*
X115252295Y-116163923D01*
X115321147Y-116172987D01*
X115389999Y-116182052D01*
X115390000Y-116182052D01*
X115390001Y-116182052D01*
X115435901Y-116176009D01*
X115527705Y-116163923D01*
X115656026Y-116110771D01*
X115766218Y-116026218D01*
X115850771Y-115916026D01*
X115903923Y-115787705D01*
X115922052Y-115650000D01*
X115903923Y-115512295D01*
X115850771Y-115383974D01*
X115766218Y-115273782D01*
X115656026Y-115189229D01*
X115656025Y-115189228D01*
X115656023Y-115189227D01*
X115527708Y-115136078D01*
X115527703Y-115136076D01*
X115390001Y-115117948D01*
X115389999Y-115117948D01*
X115252296Y-115136076D01*
X115252291Y-115136078D01*
X115123976Y-115189227D01*
X115068878Y-115231505D01*
X115013782Y-115273782D01*
X115013781Y-115273783D01*
X115013780Y-115273784D01*
X114975258Y-115323987D01*
X114918830Y-115365189D01*
X114876883Y-115372500D01*
X111172665Y-115372500D01*
X111155538Y-115371311D01*
X111149007Y-115370400D01*
X111149003Y-115370400D01*
X111106441Y-115372368D01*
X111100715Y-115372500D01*
X111084282Y-115372500D01*
X111078582Y-115373028D01*
X111078580Y-115373012D01*
X111069358Y-115374081D01*
X111045371Y-115375190D01*
X111045359Y-115375193D01*
X111040513Y-115377333D01*
X111013238Y-115385780D01*
X111008023Y-115386755D01*
X111008017Y-115386757D01*
X110987606Y-115399395D01*
X110972420Y-115407400D01*
X110950459Y-115417096D01*
X110946712Y-115420844D01*
X110924318Y-115438582D01*
X110919810Y-115441373D01*
X110905341Y-115460533D01*
X110894070Y-115473484D01*
X110548087Y-115819467D01*
X110535142Y-115830733D01*
X110529875Y-115834710D01*
X110501168Y-115866200D01*
X110497220Y-115870335D01*
X110485593Y-115881963D01*
X110481934Y-115886369D01*
X110481922Y-115886359D01*
X110476158Y-115893634D01*
X110459978Y-115911383D01*
X110459977Y-115911386D01*
X110458063Y-115916327D01*
X110444741Y-115941600D01*
X110441750Y-115945966D01*
X110441748Y-115945971D01*
X110436250Y-115969342D01*
X110431173Y-115985735D01*
X110422500Y-116008124D01*
X110422500Y-116013422D01*
X110419206Y-116041812D01*
X110417995Y-116046958D01*
X110417995Y-116046963D01*
X76800500Y-116046963D01*
X76800500Y-109020000D01*
X77989529Y-109020000D01*
X78052685Y-109190527D01*
X78052687Y-109190531D01*
X78154892Y-109354503D01*
X78288002Y-109494534D01*
X78288003Y-109494535D01*
X78446586Y-109604913D01*
X78624137Y-109681106D01*
X78813394Y-109720000D01*
X78960000Y-109720000D01*
X78960000Y-109070000D01*
X79460000Y-109070000D01*
X79460000Y-109720000D01*
X79558176Y-109720000D01*
X79702221Y-109705352D01*
X79886561Y-109647515D01*
X79886571Y-109647510D01*
X80055498Y-109553748D01*
X80055505Y-109553743D01*
X80202105Y-109427892D01*
X80320368Y-109275109D01*
X80320370Y-109275105D01*
X80405457Y-109101643D01*
X80426596Y-109020000D01*
X81789529Y-109020000D01*
X81852685Y-109190527D01*
X81852687Y-109190531D01*
X81954892Y-109354503D01*
X82088002Y-109494534D01*
X82088003Y-109494535D01*
X82246586Y-109604913D01*
X82424137Y-109681106D01*
X82613394Y-109720000D01*
X82760000Y-109720000D01*
X82760000Y-109070000D01*
X83260000Y-109070000D01*
X83260000Y-109720000D01*
X83358176Y-109720000D01*
X83502221Y-109705352D01*
X83686561Y-109647515D01*
X83686571Y-109647510D01*
X83855498Y-109553748D01*
X83855505Y-109553743D01*
X84002105Y-109427892D01*
X84120368Y-109275109D01*
X84120370Y-109275105D01*
X84205457Y-109101643D01*
X84226596Y-109020000D01*
X83476111Y-109020000D01*
X83515610Y-108995543D01*
X83583201Y-108906038D01*
X83613895Y-108798160D01*
X83603546Y-108686479D01*
X83553552Y-108586078D01*
X83481069Y-108520000D01*
X84230471Y-108520000D01*
X84167314Y-108349472D01*
X84167312Y-108349468D01*
X84065107Y-108185496D01*
X83931997Y-108045465D01*
X83931996Y-108045464D01*
X83773413Y-107935086D01*
X83595862Y-107858893D01*
X83406606Y-107820000D01*
X83260000Y-107820000D01*
X83260000Y-108470000D01*
X82760000Y-108470000D01*
X82760000Y-107820000D01*
X82661824Y-107820000D01*
X82517778Y-107834647D01*
X82333438Y-107892484D01*
X82333428Y-107892489D01*
X82164501Y-107986251D01*
X82164494Y-107986256D01*
X82017894Y-108112107D01*
X81899631Y-108264890D01*
X81899629Y-108264894D01*
X81814542Y-108438356D01*
X81793404Y-108520000D01*
X82543889Y-108520000D01*
X82504390Y-108544457D01*
X82436799Y-108633962D01*
X82406105Y-108741840D01*
X82416454Y-108853521D01*
X82466448Y-108953922D01*
X82538931Y-109020000D01*
X81789529Y-109020000D01*
X80426596Y-109020000D01*
X79676111Y-109020000D01*
X79715610Y-108995543D01*
X79783201Y-108906038D01*
X79813895Y-108798160D01*
X79803546Y-108686479D01*
X79753552Y-108586078D01*
X79681069Y-108520000D01*
X80430471Y-108520000D01*
X80367314Y-108349472D01*
X80367312Y-108349468D01*
X80265107Y-108185496D01*
X80131997Y-108045465D01*
X80131996Y-108045464D01*
X79973413Y-107935086D01*
X79795862Y-107858893D01*
X79606606Y-107820000D01*
X79460000Y-107820000D01*
X79460000Y-108470000D01*
X78960000Y-108470000D01*
X78960000Y-107820000D01*
X78861824Y-107820000D01*
X78717778Y-107834647D01*
X78533438Y-107892484D01*
X78533428Y-107892489D01*
X78364501Y-107986251D01*
X78364494Y-107986256D01*
X78217894Y-108112107D01*
X78099631Y-108264890D01*
X78099629Y-108264894D01*
X78014542Y-108438356D01*
X77993404Y-108520000D01*
X78743889Y-108520000D01*
X78704390Y-108544457D01*
X78636799Y-108633962D01*
X78606105Y-108741840D01*
X78616454Y-108853521D01*
X78666448Y-108953922D01*
X78738931Y-109020000D01*
X77989529Y-109020000D01*
X76800500Y-109020000D01*
X76800500Y-65442306D01*
X77641828Y-65442306D01*
X77651613Y-65672662D01*
X77651614Y-65672670D01*
X77700190Y-65898062D01*
X77700190Y-65898063D01*
X77786157Y-66112002D01*
X77907048Y-66308342D01*
X78059380Y-66481425D01*
X78059384Y-66481429D01*
X78238765Y-66626269D01*
X78238766Y-66626270D01*
X78238769Y-66626271D01*
X78238772Y-66626274D01*
X78440063Y-66738721D01*
X78657462Y-66815533D01*
X78784272Y-66837277D01*
X78884706Y-66854499D01*
X78884715Y-66854500D01*
X79057534Y-66854500D01*
X79057535Y-66854500D01*
X79057536Y-66854499D01*
X79057553Y-66854499D01*
X79229734Y-66839844D01*
X79229737Y-66839843D01*
X79229739Y-66839843D01*
X79452869Y-66781745D01*
X79612386Y-66709639D01*
X79662965Y-66686776D01*
X79662967Y-66686775D01*
X79662967Y-66686774D01*
X79662971Y-66686773D01*
X79854000Y-66557659D01*
X80020462Y-66398119D01*
X80157566Y-66212742D01*
X80261370Y-66006860D01*
X80328886Y-65786397D01*
X80358172Y-65557694D01*
X80348386Y-65327332D01*
X80299810Y-65101938D01*
X80213841Y-64887994D01*
X80092951Y-64691657D01*
X79940620Y-64518575D01*
X79940619Y-64518574D01*
X79940615Y-64518570D01*
X79761234Y-64373730D01*
X79761233Y-64373729D01*
X79559938Y-64261279D01*
X79342541Y-64184468D01*
X79342540Y-64184467D01*
X79342538Y-64184467D01*
X79342534Y-64184466D01*
X79342533Y-64184466D01*
X79115293Y-64145500D01*
X79115285Y-64145500D01*
X78942465Y-64145500D01*
X78942446Y-64145500D01*
X78770265Y-64160155D01*
X78547131Y-64218254D01*
X78337034Y-64313223D01*
X78337032Y-64313224D01*
X78193757Y-64410062D01*
X78148417Y-64440708D01*
X78145999Y-64442342D01*
X77979540Y-64601878D01*
X77842434Y-64787257D01*
X77738630Y-64993138D01*
X77671113Y-65213606D01*
X77641828Y-65442306D01*
X76800500Y-65442306D01*
X76800500Y-61430000D01*
X82695000Y-61430000D01*
X83511314Y-61430000D01*
X83485507Y-61470156D01*
X83445000Y-61608111D01*
X83445000Y-61751889D01*
X83485507Y-61889844D01*
X83511314Y-61930000D01*
X82695001Y-61930000D01*
X82695001Y-62561479D01*
X82709835Y-62655149D01*
X82709837Y-62655155D01*
X82767356Y-62768041D01*
X82767363Y-62768050D01*
X82856949Y-62857636D01*
X82856953Y-62857639D01*
X82969855Y-62915166D01*
X83063514Y-62929999D01*
X83694999Y-62929999D01*
X83695000Y-62929998D01*
X83695000Y-62115501D01*
X83802685Y-62164680D01*
X83909237Y-62180000D01*
X83980763Y-62180000D01*
X84087315Y-62164680D01*
X84195000Y-62115501D01*
X84195000Y-62929999D01*
X84826479Y-62929999D01*
X84920149Y-62915164D01*
X84920155Y-62915162D01*
X85033041Y-62857643D01*
X85033050Y-62857636D01*
X85122636Y-62768050D01*
X85122639Y-62768046D01*
X85180166Y-62655144D01*
X85195000Y-62561486D01*
X85195000Y-61930000D01*
X84378686Y-61930000D01*
X84404493Y-61889844D01*
X84445000Y-61751889D01*
X84445000Y-61680000D01*
X85502770Y-61680000D01*
X85521643Y-61871626D01*
X85577538Y-62055884D01*
X85668302Y-62225692D01*
X85668306Y-62225699D01*
X85790458Y-62374541D01*
X85939300Y-62496693D01*
X85939307Y-62496697D01*
X86041949Y-62551560D01*
X86109117Y-62587462D01*
X86293376Y-62643357D01*
X86485000Y-62662230D01*
X86676624Y-62643357D01*
X86860883Y-62587462D01*
X87030698Y-62496694D01*
X87179541Y-62374541D01*
X87301694Y-62225698D01*
X87392462Y-62055883D01*
X87448357Y-61871624D01*
X87467230Y-61680000D01*
X88042770Y-61680000D01*
X88061643Y-61871626D01*
X88117538Y-62055884D01*
X88208302Y-62225692D01*
X88208306Y-62225699D01*
X88330458Y-62374541D01*
X88479300Y-62496693D01*
X88479307Y-62496697D01*
X88581949Y-62551560D01*
X88649117Y-62587462D01*
X88833376Y-62643357D01*
X89025000Y-62662230D01*
X89216624Y-62643357D01*
X89400883Y-62587462D01*
X89570698Y-62496694D01*
X89719541Y-62374541D01*
X89841694Y-62225698D01*
X89932462Y-62055883D01*
X89988357Y-61871624D01*
X90007230Y-61680000D01*
X90582770Y-61680000D01*
X90601643Y-61871626D01*
X90657538Y-62055884D01*
X90748302Y-62225692D01*
X90748306Y-62225699D01*
X90870458Y-62374541D01*
X91019300Y-62496693D01*
X91019307Y-62496697D01*
X91121949Y-62551560D01*
X91189117Y-62587462D01*
X91373376Y-62643357D01*
X91565000Y-62662230D01*
X91756624Y-62643357D01*
X91940883Y-62587462D01*
X92110698Y-62496694D01*
X92259541Y-62374541D01*
X92381694Y-62225698D01*
X92472462Y-62055883D01*
X92528357Y-61871624D01*
X92547230Y-61680000D01*
X92528357Y-61488376D01*
X92472462Y-61304117D01*
X92453528Y-61268694D01*
X92381697Y-61134307D01*
X92381693Y-61134300D01*
X92259541Y-60985458D01*
X92110699Y-60863306D01*
X92110692Y-60863302D01*
X91940884Y-60772538D01*
X91756626Y-60716643D01*
X91565000Y-60697770D01*
X91373373Y-60716643D01*
X91189115Y-60772538D01*
X91019307Y-60863302D01*
X91019300Y-60863306D01*
X90870458Y-60985458D01*
X90748306Y-61134300D01*
X90748302Y-61134307D01*
X90657538Y-61304115D01*
X90601643Y-61488373D01*
X90582770Y-61680000D01*
X90007230Y-61680000D01*
X89988357Y-61488376D01*
X89932462Y-61304117D01*
X89913528Y-61268694D01*
X89841697Y-61134307D01*
X89841693Y-61134300D01*
X89719541Y-60985458D01*
X89570699Y-60863306D01*
X89570692Y-60863302D01*
X89400884Y-60772538D01*
X89216626Y-60716643D01*
X89025000Y-60697770D01*
X88833373Y-60716643D01*
X88649115Y-60772538D01*
X88479307Y-60863302D01*
X88479300Y-60863306D01*
X88330458Y-60985458D01*
X88208306Y-61134300D01*
X88208302Y-61134307D01*
X88117538Y-61304115D01*
X88061643Y-61488373D01*
X88042770Y-61680000D01*
X87467230Y-61680000D01*
X87448357Y-61488376D01*
X87392462Y-61304117D01*
X87373528Y-61268694D01*
X87301697Y-61134307D01*
X87301693Y-61134300D01*
X87179541Y-60985458D01*
X87030699Y-60863306D01*
X87030692Y-60863302D01*
X86860884Y-60772538D01*
X86676626Y-60716643D01*
X86485000Y-60697770D01*
X86293373Y-60716643D01*
X86109115Y-60772538D01*
X85939307Y-60863302D01*
X85939300Y-60863306D01*
X85790458Y-60985458D01*
X85668306Y-61134300D01*
X85668302Y-61134307D01*
X85577538Y-61304115D01*
X85521643Y-61488373D01*
X85502770Y-61680000D01*
X84445000Y-61680000D01*
X84445000Y-61608111D01*
X84404493Y-61470156D01*
X84378686Y-61430000D01*
X85194999Y-61430000D01*
X85194999Y-60798520D01*
X85180164Y-60704850D01*
X85180162Y-60704844D01*
X85122643Y-60591958D01*
X85122636Y-60591949D01*
X85033050Y-60502363D01*
X85033046Y-60502360D01*
X84934210Y-60452000D01*
X108237770Y-60452000D01*
X108256643Y-60643626D01*
X108312538Y-60827884D01*
X108403302Y-60997692D01*
X108403306Y-60997699D01*
X108525458Y-61146541D01*
X108674300Y-61268693D01*
X108674307Y-61268697D01*
X108824922Y-61349202D01*
X108844117Y-61359462D01*
X109028376Y-61415357D01*
X109220000Y-61434230D01*
X109411624Y-61415357D01*
X109595883Y-61359462D01*
X109765698Y-61268694D01*
X109914541Y-61146541D01*
X110036694Y-60997698D01*
X110127462Y-60827883D01*
X110169598Y-60688980D01*
X114230500Y-60688980D01*
X114269815Y-60899297D01*
X114325573Y-61043224D01*
X114347106Y-61098807D01*
X114347108Y-61098813D01*
X114452296Y-61268697D01*
X114459742Y-61280722D01*
X114603886Y-61438841D01*
X114774630Y-61567781D01*
X114875472Y-61617994D01*
X114966158Y-61663150D01*
X114966164Y-61663153D01*
X115142065Y-61713200D01*
X115171952Y-61721704D01*
X115331625Y-61736500D01*
X115331628Y-61736500D01*
X115438372Y-61736500D01*
X115438375Y-61736500D01*
X115598048Y-61721704D01*
X115686000Y-61696679D01*
X115803835Y-61663153D01*
X115803837Y-61663151D01*
X115803840Y-61663151D01*
X115995370Y-61567781D01*
X116166114Y-61438841D01*
X116310258Y-61280722D01*
X116422893Y-61098810D01*
X116500185Y-60899297D01*
X116539500Y-60688980D01*
X119680500Y-60688980D01*
X119719815Y-60899297D01*
X119775573Y-61043224D01*
X119797106Y-61098807D01*
X119797108Y-61098813D01*
X119902296Y-61268697D01*
X119909742Y-61280722D01*
X120053886Y-61438841D01*
X120224630Y-61567781D01*
X120325472Y-61617994D01*
X120416158Y-61663150D01*
X120416164Y-61663153D01*
X120592065Y-61713200D01*
X120621952Y-61721704D01*
X120781625Y-61736500D01*
X120781628Y-61736500D01*
X120888372Y-61736500D01*
X120888375Y-61736500D01*
X121048048Y-61721704D01*
X121136000Y-61696679D01*
X121253835Y-61663153D01*
X121253837Y-61663151D01*
X121253840Y-61663151D01*
X121445370Y-61567781D01*
X121616114Y-61438841D01*
X121760258Y-61280722D01*
X121872893Y-61098810D01*
X121950185Y-60899297D01*
X121989500Y-60688980D01*
X121989500Y-60475020D01*
X121985197Y-60452000D01*
X126017770Y-60452000D01*
X126036643Y-60643626D01*
X126092538Y-60827884D01*
X126183302Y-60997692D01*
X126183306Y-60997699D01*
X126305458Y-61146541D01*
X126454300Y-61268693D01*
X126454307Y-61268697D01*
X126604922Y-61349202D01*
X126624117Y-61359462D01*
X126808376Y-61415357D01*
X127000000Y-61434230D01*
X127191624Y-61415357D01*
X127375883Y-61359462D01*
X127545698Y-61268694D01*
X127694541Y-61146541D01*
X127816694Y-60997698D01*
X127907462Y-60827883D01*
X127963357Y-60643624D01*
X127982230Y-60452000D01*
X127963357Y-60260376D01*
X127907462Y-60076117D01*
X127907461Y-60076115D01*
X127816697Y-59906307D01*
X127816693Y-59906300D01*
X127694541Y-59757458D01*
X127545699Y-59635306D01*
X127545692Y-59635302D01*
X127375884Y-59544538D01*
X127191626Y-59488643D01*
X127000000Y-59469770D01*
X126808373Y-59488643D01*
X126624115Y-59544538D01*
X126454307Y-59635302D01*
X126454300Y-59635306D01*
X126305458Y-59757458D01*
X126183306Y-59906300D01*
X126183302Y-59906307D01*
X126092538Y-60076115D01*
X126036643Y-60260373D01*
X126017770Y-60452000D01*
X121985197Y-60452000D01*
X121950185Y-60264703D01*
X121872893Y-60065190D01*
X121760258Y-59883278D01*
X121616114Y-59725159D01*
X121445370Y-59596219D01*
X121341580Y-59544538D01*
X121253841Y-59500849D01*
X121253835Y-59500846D01*
X121048050Y-59442296D01*
X121048047Y-59442295D01*
X120925820Y-59430969D01*
X120888375Y-59427500D01*
X120781625Y-59427500D01*
X120746894Y-59430718D01*
X120621952Y-59442295D01*
X120621949Y-59442296D01*
X120416164Y-59500846D01*
X120416158Y-59500849D01*
X120224629Y-59596219D01*
X120172870Y-59635306D01*
X120053886Y-59725159D01*
X119909742Y-59883278D01*
X119909740Y-59883279D01*
X119909738Y-59883283D01*
X119909736Y-59883286D01*
X119797108Y-60065186D01*
X119797106Y-60065192D01*
X119792874Y-60076117D01*
X119719815Y-60264703D01*
X119680500Y-60475020D01*
X119680500Y-60688980D01*
X116539500Y-60688980D01*
X116539500Y-60475020D01*
X116500185Y-60264703D01*
X116422893Y-60065190D01*
X116310258Y-59883278D01*
X116166114Y-59725159D01*
X115995370Y-59596219D01*
X115891580Y-59544538D01*
X115803841Y-59500849D01*
X115803835Y-59500846D01*
X115598050Y-59442296D01*
X115598047Y-59442295D01*
X115475820Y-59430969D01*
X115438375Y-59427500D01*
X115331625Y-59427500D01*
X115296894Y-59430718D01*
X115171952Y-59442295D01*
X115171949Y-59442296D01*
X114966164Y-59500846D01*
X114966158Y-59500849D01*
X114774629Y-59596219D01*
X114722870Y-59635306D01*
X114603886Y-59725159D01*
X114459742Y-59883278D01*
X114459740Y-59883279D01*
X114459738Y-59883283D01*
X114459736Y-59883286D01*
X114347108Y-60065186D01*
X114347106Y-60065192D01*
X114342874Y-60076117D01*
X114269815Y-60264703D01*
X114230500Y-60475020D01*
X114230500Y-60688980D01*
X110169598Y-60688980D01*
X110183357Y-60643624D01*
X110202230Y-60452000D01*
X110183357Y-60260376D01*
X110127462Y-60076117D01*
X110127461Y-60076115D01*
X110036697Y-59906307D01*
X110036693Y-59906300D01*
X109914541Y-59757458D01*
X109765699Y-59635306D01*
X109765692Y-59635302D01*
X109595884Y-59544538D01*
X109411626Y-59488643D01*
X109220000Y-59469770D01*
X109028373Y-59488643D01*
X108844115Y-59544538D01*
X108674307Y-59635302D01*
X108674300Y-59635306D01*
X108525458Y-59757458D01*
X108403306Y-59906300D01*
X108403302Y-59906307D01*
X108312538Y-60076115D01*
X108256643Y-60260373D01*
X108237770Y-60452000D01*
X84934210Y-60452000D01*
X84920144Y-60444833D01*
X84826486Y-60430000D01*
X84195000Y-60430000D01*
X84195000Y-61244498D01*
X84087315Y-61195320D01*
X83980763Y-61180000D01*
X83909237Y-61180000D01*
X83802685Y-61195320D01*
X83695000Y-61244498D01*
X83695000Y-60430000D01*
X83063520Y-60430000D01*
X82969850Y-60444835D01*
X82969844Y-60444837D01*
X82856958Y-60502356D01*
X82856949Y-60502363D01*
X82767363Y-60591949D01*
X82767360Y-60591953D01*
X82709833Y-60704855D01*
X82695000Y-60798513D01*
X82695000Y-61430000D01*
X76800500Y-61430000D01*
X76800500Y-58924500D01*
X76820185Y-58857461D01*
X76872989Y-58811706D01*
X76924500Y-58800500D01*
X151075500Y-58800500D01*
X151142539Y-58820185D01*
G37*
%TD.AperFunction*%
%TD*%
%TA.AperFunction,Conductor*%
%TO.N,+5V*%
G36*
X89344974Y-71432443D02*
G01*
X89390781Y-71485202D01*
X89402016Y-71539132D01*
X89224370Y-81082702D01*
X89412462Y-84055937D01*
X89397049Y-84124086D01*
X89364201Y-84162138D01*
X89351721Y-84171715D01*
X89351719Y-84171716D01*
X89351718Y-84171718D01*
X89279527Y-84265798D01*
X89255463Y-84297160D01*
X89194956Y-84443237D01*
X89194955Y-84443239D01*
X89174318Y-84599998D01*
X89174318Y-84600001D01*
X89194955Y-84756760D01*
X89194956Y-84756762D01*
X89255464Y-84902841D01*
X89351718Y-85028282D01*
X89435506Y-85092574D01*
X89476708Y-85149000D01*
X89483772Y-85183120D01*
X89550000Y-86229998D01*
X89550001Y-86230003D01*
X89761847Y-87270315D01*
X89764341Y-87295334D01*
X89754635Y-91653442D01*
X89734801Y-91720438D01*
X89681895Y-91766075D01*
X89635191Y-91777082D01*
X88522926Y-91817974D01*
X88455208Y-91800766D01*
X88407544Y-91749679D01*
X88394370Y-91694058D01*
X88394370Y-86882701D01*
X88294370Y-86332701D01*
X88294369Y-86332701D01*
X84874368Y-86442701D01*
X82624370Y-87042700D01*
X82624368Y-87042702D01*
X82314378Y-87892677D01*
X82314366Y-87892712D01*
X82202434Y-88268484D01*
X82164430Y-88327114D01*
X82100761Y-88355891D01*
X82076236Y-88356867D01*
X79430040Y-88199576D01*
X79364287Y-88175948D01*
X79321746Y-88120522D01*
X79313402Y-88076832D01*
X79175412Y-71547610D01*
X79194537Y-71480412D01*
X79246957Y-71434218D01*
X79299282Y-71422578D01*
X89277918Y-71412824D01*
X89344974Y-71432443D01*
G37*
%TD.AperFunction*%
%TD*%
M02*
