M48
; DRILL file {KiCad 7.0.10} date Saturday, February 03, 2024 at 01:07:03 AM
; FORMAT={-:-/ absolute / inch / decimal}
; #@! TF.CreationDate,2024-02-03T01:07:03+01:00
; #@! TF.GenerationSoftware,Kicad,Pcbnew,7.0.10
; #@! TF.FileFunction,MixedPlating,1,2
FMAT,2
INCH
; #@! TA.AperFunction,Plated,PTH,ViaDrill
T1C0.0157
; #@! TA.AperFunction,Plated,PTH,ComponentDrill
T2C0.0236
; #@! TA.AperFunction,Plated,PTH,ViaDrill
T3C0.0276
; #@! TA.AperFunction,Plated,PTH,ComponentDrill
T4C0.0394
; #@! TA.AperFunction,Plated,PTH,ComponentDrill
T5C0.0402
; #@! TA.AperFunction,Plated,PTH,ComponentDrill
T6C0.0472
; #@! TA.AperFunction,Plated,PTH,ComponentDrill
T7C0.0512
; #@! TA.AperFunction,NonPlated,NPTH,ComponentDrill
T8C0.0591
; #@! TA.AperFunction,NonPlated,NPTH,ComponentDrill
T9C0.0709
; #@! TA.AperFunction,NonPlated,NPTH,ComponentDrill
T10C0.0866
%
G90
G05
T1
X3.0974Y-4.7433
X3.1142Y-3.6256
X3.2165Y-4.3472
X3.2193Y-4.5614
X3.2531Y-3.55
X3.2571Y-3.2063
X3.2819Y-3.1555
X3.2945Y-3.6319
X3.3232Y-3.2169
X3.3264Y-3.1551
X3.335Y-3.587
X3.3528Y-4.6177
X3.3697Y-4.2827
X3.3768Y-3.574
X3.3819Y-3.2059
X3.3862Y-3.1457
X3.3866Y-3.4575
X3.389Y-3.511
X3.4441Y-3.211
X3.5008Y-3.2169
X3.5346Y-3.3307
X3.5886Y-2.5417
X3.6201Y-5.4972
X3.6831Y-5.4992
X3.8657Y-3.4587
X4.1291Y-4.5823
X4.1335Y-4.6433
X4.4488Y-5.4409
X4.4882Y-5.3228
X4.5429Y-4.5531
X4.5748Y-5.2756
X4.6327Y-4.8579
X5.2524Y-3.1484
X5.2535Y-2.9484
X5.2661Y-3.374
T3
X3.13Y-5.35
X3.14Y-5.28
X3.18Y-4.14
X3.26Y-4.15
X3.27Y-3.96
X3.29Y-5.35
X3.3Y-5.26
X3.37Y-4.13
X3.42Y-5.35
X3.43Y-5.29
X3.45Y-4.15
X3.57Y-5.26
X3.57Y-5.35
X3.59Y-4.13
X3.74Y-4.14
X3.87Y-4.07
X3.87Y-4.16
X3.9Y-4.0
X3.91Y-5.61
X4.35Y-5.5
X4.75Y-5.6
X5.15Y-3.58
T4
X3.0974Y-4.8665
X3.1974Y-4.8665
X3.3049Y-2.4283
X3.4049Y-2.4283
X3.5049Y-2.4283
X3.6049Y-2.4283
X3.7049Y-2.4283
X4.4437Y-4.6238
X4.4437Y-4.7238
X4.7874Y-4.6285
X4.7874Y-4.7285
X5.3952Y-3.9143
X5.55Y-3.53
X5.65Y-3.53
X5.8676Y-3.9143
T5
X4.3Y-2.38
X4.3Y-2.48
X4.3Y-2.58
X4.3Y-2.68
X4.3Y-2.78
X4.3Y-2.88
X4.3Y-2.98
X4.3Y-3.08
X4.3Y-3.18
X4.3Y-3.28
X4.3Y-3.38
X4.3Y-3.48
X4.3Y-3.58
X4.3Y-3.68
X4.3Y-3.78
X4.3Y-3.88
X4.3Y-3.98
X4.3Y-4.08
X4.3Y-4.18
X4.3Y-4.28
X5.0Y-2.38
X5.0Y-2.48
X5.0Y-2.58
X5.0Y-2.68
X5.0Y-2.78
X5.0Y-2.88
X5.0Y-2.98
X5.0Y-3.08
X5.0Y-3.18
X5.0Y-3.28
X5.0Y-3.38
X5.0Y-3.48
X5.0Y-3.58
X5.0Y-3.68
X5.0Y-3.78
X5.0Y-3.88
X5.0Y-3.98
X5.0Y-4.08
X5.0Y-4.18
X5.0Y-4.28
T6
X5.165Y-4.8594
X5.165Y-5.1547
T7
X5.3952Y-4.3946
X5.6334Y-3.8375
X5.6937Y-2.6803
X5.6937Y-2.8803
X5.6937Y-3.0803
X5.6937Y-3.2803
X5.7628Y-5.0191
X5.7628Y-5.2191
X5.8696Y-4.3965
T8
X4.5545Y-2.5044
X4.7455Y-2.5044
T9
X4.5427Y-2.3851
X4.7573Y-2.3851
T10
X3.1102Y-2.5787
X3.1307Y-5.5362
X5.76Y-5.52
X5.83Y-2.45
T2
G00X3.1303Y-4.2823
M15
G01X3.1067Y-4.2823
M16
G05
G00X3.1303Y-4.6224
M15
G01X3.1067Y-4.6224
M16
G05
G00X3.2799Y-4.2823
M15
G01X3.2563Y-4.2823
M16
G05
G00X3.2799Y-4.6224
M15
G01X3.2563Y-4.6224
M16
G05
M30
