%TF.GenerationSoftware,KiCad,Pcbnew,7.0.10*%
%TF.CreationDate,2024-02-05T00:38:02+01:00*%
%TF.ProjectId,Powerlabstech_Stool,506f7765-726c-4616-9273-746563685f53,rev?*%
%TF.SameCoordinates,Original*%
%TF.FileFunction,Copper,L2,Bot*%
%TF.FilePolarity,Positive*%
%FSLAX46Y46*%
G04 Gerber Fmt 4.6, Leading zero omitted, Abs format (unit mm)*
G04 Created by KiCad (PCBNEW 7.0.10) date 2024-02-05 00:38:02*
%MOMM*%
%LPD*%
G01*
G04 APERTURE LIST*
%TA.AperFunction,ComponentPad*%
%ADD10R,2.600000X2.600000*%
%TD*%
%TA.AperFunction,ComponentPad*%
%ADD11C,2.600000*%
%TD*%
%TA.AperFunction,ComponentPad*%
%ADD12R,1.700000X1.700000*%
%TD*%
%TA.AperFunction,ComponentPad*%
%ADD13O,1.700000X1.700000*%
%TD*%
%TA.AperFunction,ComponentPad*%
%ADD14O,1.700000X1.100000*%
%TD*%
%TA.AperFunction,ComponentPad*%
%ADD15R,2.400000X2.400000*%
%TD*%
%TA.AperFunction,ComponentPad*%
%ADD16C,2.400000*%
%TD*%
%TA.AperFunction,ComponentPad*%
%ADD17C,3.000000*%
%TD*%
%TA.AperFunction,ComponentPad*%
%ADD18C,2.500000*%
%TD*%
%TA.AperFunction,ViaPad*%
%ADD19C,1.000000*%
%TD*%
%TA.AperFunction,ViaPad*%
%ADD20C,0.800000*%
%TD*%
%TA.AperFunction,Conductor*%
%ADD21C,1.500000*%
%TD*%
%TA.AperFunction,Conductor*%
%ADD22C,2.000000*%
%TD*%
%TA.AperFunction,Conductor*%
%ADD23C,0.500000*%
%TD*%
%TA.AperFunction,Conductor*%
%ADD24C,0.300000*%
%TD*%
G04 APERTURE END LIST*
D10*
%TO.P,D3,1,A*%
%TO.N,+5V*%
X144620000Y-68080000D03*
D11*
%TO.P,D3,2,RK*%
%TO.N,/LED_RED_OUT*%
X144620000Y-73160000D03*
%TO.P,D3,3,GK*%
%TO.N,/LED_GREEN_OUT*%
X144620000Y-78240000D03*
%TO.P,D3,4,BK*%
%TO.N,/LED_BLUE_OUT*%
X144620000Y-83320000D03*
%TD*%
D12*
%TO.P,J5,1,Pin_1*%
%TO.N,/sw_OUT*%
X81215000Y-123610000D03*
D13*
%TO.P,J5,2,Pin_2*%
%TO.N,GND*%
X78675000Y-123610000D03*
%TD*%
D10*
%TO.P,J1,1,Pin_1*%
%TO.N,/LIVE*%
X146375000Y-132565000D03*
D11*
%TO.P,J1,2,Pin_2*%
%TO.N,/NEUTRAL*%
X146375000Y-127485000D03*
%TD*%
D13*
%TO.P,U5,1,GP0*%
%TO.N,unconnected-(U5-GP0-Pad1)*%
X109220000Y-60452000D03*
%TO.P,U5,2,GP1*%
%TO.N,/GSM_TXD*%
X109220000Y-62992000D03*
D12*
%TO.P,U5,3,GND*%
%TO.N,GND*%
X109220000Y-65532000D03*
D13*
%TO.P,U5,4,GP2*%
%TO.N,/GSM_RXD*%
X109220000Y-68072000D03*
%TO.P,U5,5,GP3*%
%TO.N,/GSM_RESET*%
X109220000Y-70612000D03*
%TO.P,U5,6,GP4*%
%TO.N,/LOAD_SWITCH*%
X109220000Y-73152000D03*
%TO.P,U5,7,GP5*%
%TO.N,/BATT_READ*%
X109220000Y-75692000D03*
D12*
%TO.P,U5,8,GND*%
%TO.N,unconnected-(U5-GND-Pad8)*%
X109220000Y-78232000D03*
D13*
%TO.P,U5,9,GP6*%
%TO.N,/MAINS_SENSE*%
X109220000Y-80772000D03*
%TO.P,U5,10,GP7*%
%TO.N,unconnected-(U5-GP7-Pad10)*%
X109220000Y-83312000D03*
%TO.P,U5,11,GP8*%
%TO.N,unconnected-(U5-GP8-Pad11)*%
X109220000Y-85852000D03*
%TO.P,U5,12,GP9*%
%TO.N,unconnected-(U5-GP9-Pad12)*%
X109220000Y-88392000D03*
D12*
%TO.P,U5,13,GND*%
%TO.N,GND*%
X109220000Y-90932000D03*
D13*
%TO.P,U5,14,GP10*%
%TO.N,unconnected-(U5-GP10-Pad14)*%
X109220000Y-93472000D03*
%TO.P,U5,15,GP11*%
%TO.N,unconnected-(U5-GP11-Pad15)*%
X109220000Y-96012000D03*
%TO.P,U5,16,GP12*%
%TO.N,unconnected-(U5-GP12-Pad16)*%
X109220000Y-98552000D03*
%TO.P,U5,17,GP13*%
%TO.N,unconnected-(U5-GP13-Pad17)*%
X109220000Y-101092000D03*
D12*
%TO.P,U5,18,GND*%
%TO.N,GND*%
X109220000Y-103632000D03*
D13*
%TO.P,U5,19,GP14*%
%TO.N,unconnected-(U5-GP14-Pad19)*%
X109220000Y-106172000D03*
%TO.P,U5,20,GP15*%
%TO.N,unconnected-(U5-GP15-Pad20)*%
X109220000Y-108712000D03*
%TO.P,U5,21,GP16*%
%TO.N,unconnected-(U5-GP16-Pad21)*%
X127000000Y-108712000D03*
%TO.P,U5,22,GP17*%
%TO.N,unconnected-(U5-GP17-Pad22)*%
X127000000Y-106172000D03*
D12*
%TO.P,U5,23,GND*%
%TO.N,GND*%
X127000000Y-103632000D03*
D13*
%TO.P,U5,24,GP18*%
%TO.N,unconnected-(U5-GP18-Pad24)*%
X127000000Y-101092000D03*
%TO.P,U5,25,GP19*%
%TO.N,unconnected-(U5-GP19-Pad25)*%
X127000000Y-98552000D03*
%TO.P,U5,26,GP20*%
%TO.N,unconnected-(U5-GP20-Pad26)*%
X127000000Y-96012000D03*
%TO.P,U5,27,GP21*%
%TO.N,unconnected-(U5-GP21-Pad27)*%
X127000000Y-93472000D03*
D12*
%TO.P,U5,28,GND*%
%TO.N,GND*%
X127000000Y-90932000D03*
D13*
%TO.P,U5,29,GP22*%
%TO.N,/MAINS_RELAY*%
X127000000Y-88392000D03*
%TO.P,U5,30,~{RUN}*%
%TO.N,unconnected-(U5-~{RUN}-Pad30)*%
X127000000Y-85852000D03*
%TO.P,U5,31,GP26*%
%TO.N,/LED_BLUE*%
X127000000Y-83312000D03*
%TO.P,U5,32,GP27*%
%TO.N,/LED_GREEN*%
X127000000Y-80772000D03*
D12*
%TO.P,U5,33,AGND*%
%TO.N,GND*%
X127000000Y-78232000D03*
D13*
%TO.P,U5,34,GP28*%
%TO.N,/LED_RED*%
X127000000Y-75692000D03*
%TO.P,U5,35,ADC_VREF*%
%TO.N,unconnected-(U5-ADC_VREF-Pad35)*%
X127000000Y-73152000D03*
%TO.P,U5,36,3V3_OUT*%
%TO.N,+3.3V*%
X127000000Y-70612000D03*
%TO.P,U5,37,3V3_EN*%
%TO.N,unconnected-(U5-3V3_EN-Pad37)*%
X127000000Y-68072000D03*
D12*
%TO.P,U5,38,GND*%
%TO.N,unconnected-(U5-GND-Pad38)*%
X127000000Y-65532000D03*
D13*
%TO.P,U5,39,VSYS*%
%TO.N,+5V*%
X127000000Y-62992000D03*
%TO.P,U5,40,VBUS*%
%TO.N,unconnected-(U5-VBUS-Pad40)*%
X127000000Y-60452000D03*
%TD*%
D12*
%TO.P,J3,1,Pin_1*%
%TO.N,/BATT_POS*%
X121600000Y-120105000D03*
D13*
%TO.P,J3,2,Pin_2*%
%TO.N,GND*%
X121600000Y-117565000D03*
%TD*%
D14*
%TO.P,J6,S1,SHIELD*%
%TO.N,GND*%
X82900000Y-108755000D03*
X79100000Y-108755000D03*
X82900000Y-117395000D03*
X79100000Y-117395000D03*
%TD*%
D12*
%TO.P,J4,1,Pin_1*%
%TO.N,GND*%
X83945000Y-61680000D03*
D13*
%TO.P,J4,2,Pin_2*%
%TO.N,/GSM_TXD*%
X86485000Y-61680000D03*
%TO.P,J4,3,Pin_3*%
%TO.N,/GSM_RXD*%
X89025000Y-61680000D03*
%TO.P,J4,4,Pin_4*%
%TO.N,/GSM_RESET*%
X91565000Y-61680000D03*
%TO.P,J4,5,Pin_5*%
%TO.N,+5V*%
X94105000Y-61680000D03*
%TD*%
D12*
%TO.P,BT1,1,+*%
%TO.N,/BATT_POS*%
X112870000Y-119985000D03*
D13*
%TO.P,BT1,2,-*%
%TO.N,GND*%
X112870000Y-117445000D03*
%TD*%
D15*
%TO.P,C1,1*%
%TO.N,/main_det_ret*%
X131190000Y-130930000D03*
D16*
%TO.P,C1,2*%
%TO.N,/NEUTRAL*%
X131190000Y-123430000D03*
%TD*%
D12*
%TO.P,J2,1,Pin_1*%
%TO.N,/NEUTRAL*%
X140970000Y-89662000D03*
D13*
%TO.P,J2,2,Pin_2*%
%TO.N,/LIVE_RELAY_CHARGER_OUT*%
X143510000Y-89662000D03*
%TD*%
D17*
%TO.P,K1,1*%
%TO.N,/LIVE_RELAY_CHARGER_OUT*%
X143088000Y-97472000D03*
D18*
%TO.P,K1,2*%
%TO.N,Net-(D2-A)*%
X137038000Y-99422000D03*
D17*
%TO.P,K1,3*%
%TO.N,unconnected-(K1-Pad3)*%
X137038000Y-111622000D03*
%TO.P,K1,4*%
%TO.N,/LIVE*%
X149088000Y-111672000D03*
D18*
%TO.P,K1,5*%
%TO.N,+5V*%
X149038000Y-99422000D03*
%TD*%
D19*
%TO.N,GND*%
X99060000Y-101600000D03*
D20*
X85590000Y-108780000D03*
D19*
X83566000Y-135890000D03*
D20*
X133760000Y-85700000D03*
X84710000Y-91110000D03*
X93750000Y-136500000D03*
X93750000Y-139500000D03*
D19*
X107250000Y-139500000D03*
X91186000Y-104902000D03*
X110500000Y-141500000D03*
D20*
X91000000Y-84500000D03*
D19*
X87122000Y-134366000D03*
X110490000Y-139700000D03*
D20*
X93750000Y-138000000D03*
D19*
X90678000Y-133604000D03*
D20*
X81500000Y-109700000D03*
X98190000Y-87850000D03*
D19*
X83175000Y-104825000D03*
D20*
X116200000Y-134000000D03*
X85770000Y-90780000D03*
X78675000Y-120480000D03*
D19*
X87000000Y-104902000D03*
D20*
X91150000Y-64560000D03*
D19*
X130810000Y-90932000D03*
D20*
X117670000Y-123390000D03*
X133440000Y-74890000D03*
X114000000Y-135200000D03*
D19*
X98298000Y-103378000D03*
X99314000Y-142494000D03*
X83058000Y-100584000D03*
D20*
X81770000Y-115860000D03*
X107500000Y-117000000D03*
X83680000Y-92250000D03*
X133410000Y-79970000D03*
D19*
X79756000Y-134112000D03*
X90678000Y-135890000D03*
D20*
X82630000Y-90170000D03*
X79100000Y-92090000D03*
X86020000Y-87820000D03*
D19*
X83820000Y-133604000D03*
D20*
X85160000Y-117290000D03*
D19*
X80772000Y-105156000D03*
X94996000Y-105156000D03*
X86868000Y-135890000D03*
X107250000Y-141500000D03*
D20*
X86080000Y-89180000D03*
X107000000Y-118500000D03*
D19*
X79502000Y-135890000D03*
D20*
%TO.N,+5V*%
X88750000Y-78250000D03*
X81000000Y-73000000D03*
X86500000Y-83500000D03*
X88500000Y-75250000D03*
X81000000Y-81750000D03*
X83250000Y-83250000D03*
X86500000Y-72750000D03*
X84000000Y-72750000D03*
X85000000Y-80250000D03*
X80750000Y-75500000D03*
X80750000Y-78750000D03*
X88500000Y-81750000D03*
%TO.N,/MAINS_SENSE*%
X115390000Y-115650000D03*
X113000000Y-138200000D03*
D19*
%TO.N,+3.3V*%
X120650000Y-142240000D03*
%TD*%
D21*
%TO.N,/BATT_POS*%
X120570000Y-121890000D02*
X114775000Y-121890000D01*
X121600000Y-120105000D02*
X121600000Y-120860000D01*
X114775000Y-121890000D02*
X112870000Y-119985000D01*
X121600000Y-120860000D02*
X120570000Y-121890000D01*
D22*
%TO.N,+5V*%
X89170000Y-81960000D02*
X95150000Y-81960000D01*
X125976000Y-62992000D02*
X139532000Y-62992000D01*
X149038000Y-99422000D02*
X149038000Y-72498000D01*
X95150000Y-81960000D02*
X104330000Y-91140000D01*
X139532000Y-62992000D02*
X144620000Y-68080000D01*
D23*
X94105000Y-67205000D02*
X84680000Y-76630000D01*
D21*
X88390000Y-81180000D02*
X89170000Y-81960000D01*
D22*
X149038000Y-72498000D02*
X144620000Y-68080000D01*
D21*
X88920000Y-81710000D02*
X89170000Y-81960000D01*
X88390000Y-81180000D02*
X87860000Y-81180000D01*
D22*
X104330000Y-91140000D02*
X104330000Y-109650000D01*
X112522000Y-114180000D02*
X112522000Y-76446000D01*
X112522000Y-76446000D02*
X125976000Y-62992000D01*
D23*
X94105000Y-61680000D02*
X94105000Y-67205000D01*
D22*
X108860000Y-114180000D02*
X112522000Y-114180000D01*
X104330000Y-109650000D02*
X108860000Y-114180000D01*
D21*
%TO.N,/NEUTRAL*%
X142228000Y-120892000D02*
X146640000Y-125304000D01*
D23*
X134924000Y-123200000D02*
X139730000Y-118394000D01*
X130930000Y-123200000D02*
X134924000Y-123200000D01*
D21*
X146640000Y-125304000D02*
X146640000Y-127220000D01*
X139730000Y-118394000D02*
X139730000Y-90902000D01*
X139730000Y-90902000D02*
X140970000Y-89662000D01*
X142228000Y-120892000D02*
X139730000Y-118394000D01*
D24*
%TO.N,/MAINS_SENSE*%
X111110000Y-115650000D02*
X115390000Y-115650000D01*
X113000000Y-138200000D02*
X113000000Y-122990000D01*
X110700000Y-120690000D02*
X110700000Y-116060000D01*
X113000000Y-122990000D02*
X110700000Y-120690000D01*
X110700000Y-116060000D02*
X111110000Y-115650000D01*
D21*
%TO.N,+3.3V*%
X117850000Y-107500000D02*
X117840000Y-107490000D01*
X121070000Y-141750000D02*
X121070000Y-141820000D01*
X121070000Y-141750000D02*
X121070000Y-129170000D01*
X121070000Y-141820000D02*
X120650000Y-142240000D01*
X123510000Y-126730000D02*
X123510000Y-113180000D01*
X117840000Y-107510000D02*
X117850000Y-107500000D01*
X117840000Y-79662000D02*
X126890000Y-70612000D01*
X123510000Y-113180000D02*
X117840000Y-107510000D01*
X117840000Y-107490000D02*
X117840000Y-79662000D01*
X121070000Y-129170000D02*
X123510000Y-126730000D01*
%TO.N,/LIVE_RELAY_CHARGER_OUT*%
X143088000Y-90084000D02*
X143510000Y-89662000D01*
X143088000Y-97472000D02*
X143088000Y-90084000D01*
%TD*%
%TA.AperFunction,Conductor*%
%TO.N,+5V*%
G36*
X89941313Y-71519685D02*
G01*
X89987068Y-71572489D01*
X89998262Y-71625714D01*
X89800011Y-85969190D01*
X89799977Y-85970840D01*
X89764370Y-87282673D01*
X89754635Y-91653442D01*
X89734801Y-91720438D01*
X89681895Y-91766075D01*
X89635191Y-91777082D01*
X88522926Y-91817974D01*
X88455208Y-91800766D01*
X88407544Y-91749679D01*
X88394370Y-91694058D01*
X88394370Y-86000000D01*
X84874370Y-86000000D01*
X82500000Y-86000000D01*
X82500000Y-88376000D01*
X82480315Y-88443039D01*
X82427511Y-88488794D01*
X82376000Y-88500000D01*
X79437353Y-88500000D01*
X79370314Y-88480315D01*
X79324559Y-88427511D01*
X79313357Y-88377021D01*
X79293541Y-85970840D01*
X79263943Y-82376759D01*
X79175400Y-71625021D01*
X79194532Y-71557822D01*
X79246957Y-71511634D01*
X79299396Y-71500000D01*
X89874274Y-71500000D01*
X89941313Y-71519685D01*
G37*
%TD.AperFunction*%
%TD*%
%TA.AperFunction,Conductor*%
%TO.N,GND*%
G36*
X151142539Y-58820185D02*
G01*
X151188294Y-58872989D01*
X151199500Y-58924500D01*
X151199500Y-86998000D01*
X151179815Y-87065039D01*
X151127011Y-87110794D01*
X151075500Y-87122000D01*
X150289500Y-87122000D01*
X150222461Y-87102315D01*
X150176706Y-87049511D01*
X150165500Y-86998000D01*
X150165500Y-72602494D01*
X150167218Y-72581927D01*
X150167741Y-72578812D01*
X150167743Y-72578801D01*
X150165534Y-72486021D01*
X150165500Y-72483072D01*
X150165500Y-72444293D01*
X150165499Y-72444274D01*
X150164645Y-72435340D01*
X150164117Y-72426505D01*
X150162620Y-72363536D01*
X150155580Y-72331176D01*
X150153307Y-72316608D01*
X150150161Y-72283649D01*
X150132415Y-72223217D01*
X150130239Y-72214689D01*
X150116849Y-72153130D01*
X150103808Y-72122677D01*
X150098824Y-72108815D01*
X150089496Y-72077044D01*
X150060639Y-72021071D01*
X150056880Y-72013091D01*
X150032085Y-71955188D01*
X150027560Y-71948502D01*
X150013523Y-71927762D01*
X150005998Y-71915080D01*
X149990826Y-71885652D01*
X149951909Y-71836166D01*
X149946688Y-71829016D01*
X149911396Y-71776873D01*
X149911392Y-71776867D01*
X149887985Y-71753460D01*
X149878195Y-71742430D01*
X149857722Y-71716396D01*
X149810112Y-71675142D01*
X149803646Y-71669121D01*
X146083819Y-67949293D01*
X146050334Y-67887970D01*
X146047500Y-67861612D01*
X146047500Y-66767441D01*
X146045662Y-66758205D01*
X146040102Y-66730252D01*
X146040101Y-66730250D01*
X146011922Y-66688077D01*
X145969749Y-66659898D01*
X145932559Y-66652500D01*
X145932558Y-66652500D01*
X144838387Y-66652500D01*
X144771348Y-66632815D01*
X144750706Y-66616181D01*
X142578483Y-64443958D01*
X140403152Y-62268626D01*
X140389823Y-62252869D01*
X140387986Y-62250289D01*
X140387984Y-62250286D01*
X140320816Y-62186241D01*
X140318706Y-62184180D01*
X140306832Y-62172306D01*
X146723828Y-62172306D01*
X146733613Y-62402662D01*
X146733614Y-62402670D01*
X146782190Y-62628062D01*
X146782190Y-62628063D01*
X146868157Y-62842002D01*
X146868159Y-62842006D01*
X146913206Y-62915166D01*
X146989048Y-63038342D01*
X147141380Y-63211425D01*
X147141384Y-63211429D01*
X147320765Y-63356269D01*
X147320766Y-63356270D01*
X147320769Y-63356271D01*
X147320772Y-63356274D01*
X147522063Y-63468721D01*
X147739462Y-63545533D01*
X147866272Y-63567277D01*
X147966706Y-63584499D01*
X147966715Y-63584500D01*
X148139534Y-63584500D01*
X148139535Y-63584500D01*
X148139536Y-63584499D01*
X148139553Y-63584499D01*
X148311734Y-63569844D01*
X148311737Y-63569843D01*
X148311739Y-63569843D01*
X148534869Y-63511745D01*
X148663229Y-63453722D01*
X148744965Y-63416776D01*
X148744967Y-63416775D01*
X148744967Y-63416774D01*
X148744971Y-63416773D01*
X148936000Y-63287659D01*
X149102462Y-63128119D01*
X149239566Y-62942742D01*
X149343370Y-62736860D01*
X149410886Y-62516397D01*
X149440172Y-62287694D01*
X149430386Y-62057332D01*
X149381810Y-61831938D01*
X149295841Y-61617994D01*
X149174951Y-61421657D01*
X149022620Y-61248575D01*
X149022619Y-61248574D01*
X149022615Y-61248570D01*
X148843234Y-61103730D01*
X148843233Y-61103729D01*
X148834422Y-61098807D01*
X148734922Y-61043223D01*
X148641938Y-60991279D01*
X148424541Y-60914468D01*
X148424540Y-60914467D01*
X148424538Y-60914467D01*
X148424534Y-60914466D01*
X148424533Y-60914466D01*
X148197293Y-60875500D01*
X148197285Y-60875500D01*
X148024465Y-60875500D01*
X148024446Y-60875500D01*
X147852265Y-60890155D01*
X147629131Y-60948254D01*
X147419034Y-61043223D01*
X147419032Y-61043224D01*
X147227999Y-61172342D01*
X147061540Y-61331878D01*
X146924434Y-61517257D01*
X146820630Y-61723138D01*
X146753113Y-61943606D01*
X146723828Y-62172306D01*
X140306832Y-62172306D01*
X140291280Y-62156754D01*
X140284333Y-62151018D01*
X140277714Y-62145143D01*
X140232144Y-62101692D01*
X140221093Y-62094590D01*
X140204286Y-62083789D01*
X140192382Y-62075096D01*
X140166853Y-62054017D01*
X140166843Y-62054010D01*
X140111575Y-62023831D01*
X140103976Y-62019323D01*
X140070664Y-61997915D01*
X140050999Y-61985277D01*
X140020255Y-61972970D01*
X140006912Y-61966683D01*
X139977867Y-61950823D01*
X139977860Y-61950819D01*
X139941516Y-61939201D01*
X139917879Y-61931645D01*
X139909558Y-61928653D01*
X139851100Y-61905250D01*
X139818578Y-61898982D01*
X139804295Y-61895336D01*
X139772760Y-61885256D01*
X139772757Y-61885255D01*
X139710234Y-61877779D01*
X139701493Y-61876416D01*
X139691136Y-61874420D01*
X139639663Y-61864500D01*
X139639660Y-61864500D01*
X139606551Y-61864500D01*
X139591830Y-61863623D01*
X139580405Y-61862257D01*
X139558953Y-61859692D01*
X139496146Y-61864184D01*
X139487301Y-61864500D01*
X126080494Y-61864500D01*
X126059927Y-61862782D01*
X126056812Y-61862258D01*
X126056802Y-61862257D01*
X126056801Y-61862257D01*
X125999414Y-61863623D01*
X125964040Y-61864465D01*
X125961090Y-61864500D01*
X125922287Y-61864500D01*
X125916597Y-61865043D01*
X125913308Y-61865357D01*
X125904485Y-61865882D01*
X125845356Y-61867290D01*
X125841535Y-61867381D01*
X125841534Y-61867381D01*
X125841526Y-61867382D01*
X125809171Y-61874420D01*
X125794606Y-61876691D01*
X125761652Y-61879838D01*
X125701227Y-61897579D01*
X125692656Y-61899766D01*
X125631130Y-61913152D01*
X125631129Y-61913152D01*
X125631126Y-61913153D01*
X125631124Y-61913154D01*
X125600682Y-61926189D01*
X125586813Y-61931175D01*
X125555044Y-61940504D01*
X125499081Y-61969354D01*
X125491078Y-61973124D01*
X125433189Y-61997915D01*
X125405763Y-62016476D01*
X125393090Y-62023996D01*
X125376489Y-62032555D01*
X125363655Y-62039172D01*
X125363653Y-62039173D01*
X125363650Y-62039175D01*
X125314155Y-62078097D01*
X125307011Y-62083313D01*
X125279859Y-62101692D01*
X125254859Y-62118613D01*
X125231450Y-62142021D01*
X125220426Y-62151806D01*
X125194397Y-62172276D01*
X125153162Y-62219864D01*
X125147130Y-62226342D01*
X111798622Y-75574850D01*
X111782883Y-75588166D01*
X111780289Y-75590013D01*
X111780286Y-75590016D01*
X111716261Y-75657161D01*
X111714206Y-75659266D01*
X111686751Y-75686723D01*
X111686749Y-75686725D01*
X111681014Y-75693670D01*
X111675151Y-75700274D01*
X111631699Y-75745847D01*
X111631691Y-75745856D01*
X111613791Y-75773710D01*
X111605098Y-75785615D01*
X111584013Y-75811153D01*
X111553836Y-75866416D01*
X111549322Y-75874024D01*
X111515280Y-75926996D01*
X111502972Y-75957740D01*
X111496689Y-75971076D01*
X111480818Y-76000141D01*
X111480818Y-76000143D01*
X111461643Y-76060123D01*
X111458651Y-76068446D01*
X111435248Y-76126905D01*
X111428980Y-76159425D01*
X111425336Y-76173704D01*
X111415256Y-76205241D01*
X111415255Y-76205242D01*
X111407779Y-76267765D01*
X111406416Y-76276505D01*
X111394500Y-76338338D01*
X111394500Y-76371449D01*
X111393623Y-76386170D01*
X111389692Y-76419044D01*
X111389692Y-76419048D01*
X111394184Y-76481854D01*
X111394500Y-76490699D01*
X111394500Y-112928500D01*
X111374815Y-112995539D01*
X111322011Y-113041294D01*
X111270500Y-113052500D01*
X109378388Y-113052500D01*
X109311349Y-113032815D01*
X109290707Y-113016181D01*
X105493819Y-109219293D01*
X105460334Y-109157970D01*
X105457500Y-109131612D01*
X105457500Y-108712000D01*
X108237770Y-108712000D01*
X108256643Y-108903626D01*
X108312538Y-109087884D01*
X108403302Y-109257692D01*
X108403306Y-109257699D01*
X108525458Y-109406541D01*
X108674300Y-109528693D01*
X108674307Y-109528697D01*
X108844115Y-109619461D01*
X108844117Y-109619462D01*
X109028376Y-109675357D01*
X109220000Y-109694230D01*
X109411624Y-109675357D01*
X109595883Y-109619462D01*
X109765698Y-109528694D01*
X109914541Y-109406541D01*
X110036694Y-109257698D01*
X110127462Y-109087883D01*
X110183357Y-108903624D01*
X110202230Y-108712000D01*
X110183357Y-108520376D01*
X110127462Y-108336117D01*
X110036694Y-108166302D01*
X110036693Y-108166300D01*
X109914541Y-108017458D01*
X109765699Y-107895306D01*
X109765692Y-107895302D01*
X109595884Y-107804538D01*
X109411626Y-107748643D01*
X109220000Y-107729770D01*
X109028373Y-107748643D01*
X108844115Y-107804538D01*
X108674307Y-107895302D01*
X108674300Y-107895306D01*
X108525458Y-108017458D01*
X108403306Y-108166300D01*
X108403302Y-108166307D01*
X108312538Y-108336115D01*
X108256643Y-108520373D01*
X108237770Y-108712000D01*
X105457500Y-108712000D01*
X105457500Y-106172000D01*
X108237770Y-106172000D01*
X108256643Y-106363626D01*
X108312538Y-106547884D01*
X108403302Y-106717692D01*
X108403306Y-106717699D01*
X108525458Y-106866541D01*
X108674300Y-106988693D01*
X108674307Y-106988697D01*
X108844115Y-107079461D01*
X108844117Y-107079462D01*
X109028376Y-107135357D01*
X109220000Y-107154230D01*
X109411624Y-107135357D01*
X109595883Y-107079462D01*
X109765698Y-106988694D01*
X109914541Y-106866541D01*
X110036694Y-106717698D01*
X110127462Y-106547883D01*
X110183357Y-106363624D01*
X110202230Y-106172000D01*
X110183357Y-105980376D01*
X110127462Y-105796117D01*
X110036694Y-105626302D01*
X110036693Y-105626300D01*
X109914541Y-105477458D01*
X109765699Y-105355306D01*
X109765692Y-105355302D01*
X109595884Y-105264538D01*
X109411626Y-105208643D01*
X109220000Y-105189770D01*
X109028373Y-105208643D01*
X108844115Y-105264538D01*
X108674307Y-105355302D01*
X108674300Y-105355306D01*
X108525458Y-105477458D01*
X108403306Y-105626300D01*
X108403302Y-105626307D01*
X108312538Y-105796115D01*
X108256643Y-105980373D01*
X108237770Y-106172000D01*
X105457500Y-106172000D01*
X105457500Y-103382000D01*
X107970000Y-103382000D01*
X108774428Y-103382000D01*
X108751318Y-103417960D01*
X108710000Y-103558673D01*
X108710000Y-103705327D01*
X108751318Y-103846040D01*
X108774428Y-103882000D01*
X107970001Y-103882000D01*
X107970001Y-104513479D01*
X107984835Y-104607149D01*
X107984837Y-104607155D01*
X108042356Y-104720041D01*
X108042363Y-104720050D01*
X108131949Y-104809636D01*
X108131953Y-104809639D01*
X108244855Y-104867166D01*
X108338514Y-104881999D01*
X108969999Y-104881999D01*
X108970000Y-104881998D01*
X108970000Y-104078494D01*
X109074839Y-104126373D01*
X109183527Y-104142000D01*
X109256473Y-104142000D01*
X109365161Y-104126373D01*
X109470000Y-104078494D01*
X109470000Y-104881999D01*
X110101479Y-104881999D01*
X110195149Y-104867164D01*
X110195155Y-104867162D01*
X110308041Y-104809643D01*
X110308050Y-104809636D01*
X110397636Y-104720050D01*
X110397639Y-104720046D01*
X110455166Y-104607144D01*
X110470000Y-104513486D01*
X110470000Y-103882000D01*
X109665572Y-103882000D01*
X109688682Y-103846040D01*
X109730000Y-103705327D01*
X109730000Y-103558673D01*
X109688682Y-103417960D01*
X109665572Y-103382000D01*
X110469999Y-103382000D01*
X110469999Y-102750520D01*
X110455164Y-102656850D01*
X110455162Y-102656844D01*
X110397643Y-102543958D01*
X110397636Y-102543949D01*
X110308050Y-102454363D01*
X110308046Y-102454360D01*
X110195144Y-102396833D01*
X110101486Y-102382000D01*
X109470000Y-102382000D01*
X109470000Y-103185505D01*
X109365161Y-103137627D01*
X109256473Y-103122000D01*
X109183527Y-103122000D01*
X109074839Y-103137627D01*
X108970000Y-103185505D01*
X108970000Y-102382000D01*
X108338520Y-102382000D01*
X108244850Y-102396835D01*
X108244844Y-102396837D01*
X108131958Y-102454356D01*
X108131949Y-102454363D01*
X108042363Y-102543949D01*
X108042360Y-102543953D01*
X107984833Y-102656855D01*
X107970000Y-102750513D01*
X107970000Y-103382000D01*
X105457500Y-103382000D01*
X105457500Y-101092000D01*
X108237770Y-101092000D01*
X108256643Y-101283626D01*
X108312538Y-101467884D01*
X108403302Y-101637692D01*
X108403306Y-101637699D01*
X108525458Y-101786541D01*
X108674300Y-101908693D01*
X108674307Y-101908697D01*
X108844115Y-101999461D01*
X108844117Y-101999462D01*
X109028376Y-102055357D01*
X109220000Y-102074230D01*
X109411624Y-102055357D01*
X109595883Y-101999462D01*
X109765698Y-101908694D01*
X109914541Y-101786541D01*
X110036694Y-101637698D01*
X110127462Y-101467883D01*
X110183357Y-101283624D01*
X110202230Y-101092000D01*
X110183357Y-100900376D01*
X110127462Y-100716117D01*
X110036694Y-100546302D01*
X110036693Y-100546300D01*
X109914541Y-100397458D01*
X109765699Y-100275306D01*
X109765692Y-100275302D01*
X109595884Y-100184538D01*
X109411626Y-100128643D01*
X109220000Y-100109770D01*
X109028373Y-100128643D01*
X108844115Y-100184538D01*
X108674307Y-100275302D01*
X108674300Y-100275306D01*
X108525458Y-100397458D01*
X108403306Y-100546300D01*
X108403302Y-100546307D01*
X108312538Y-100716115D01*
X108256643Y-100900373D01*
X108237770Y-101092000D01*
X105457500Y-101092000D01*
X105457500Y-98552000D01*
X108237770Y-98552000D01*
X108256643Y-98743626D01*
X108312538Y-98927884D01*
X108403302Y-99097692D01*
X108403306Y-99097699D01*
X108525458Y-99246541D01*
X108674300Y-99368693D01*
X108674307Y-99368697D01*
X108774040Y-99422005D01*
X108844117Y-99459462D01*
X109028376Y-99515357D01*
X109220000Y-99534230D01*
X109411624Y-99515357D01*
X109595883Y-99459462D01*
X109765698Y-99368694D01*
X109914541Y-99246541D01*
X110036694Y-99097698D01*
X110127462Y-98927883D01*
X110183357Y-98743624D01*
X110202230Y-98552000D01*
X110183357Y-98360376D01*
X110127462Y-98176117D01*
X110077196Y-98082075D01*
X110036697Y-98006307D01*
X110036693Y-98006300D01*
X109914541Y-97857458D01*
X109765699Y-97735306D01*
X109765692Y-97735302D01*
X109595884Y-97644538D01*
X109411626Y-97588643D01*
X109220000Y-97569770D01*
X109028373Y-97588643D01*
X108844115Y-97644538D01*
X108674307Y-97735302D01*
X108674300Y-97735306D01*
X108525458Y-97857458D01*
X108403306Y-98006300D01*
X108403302Y-98006307D01*
X108312538Y-98176115D01*
X108256643Y-98360373D01*
X108237770Y-98552000D01*
X105457500Y-98552000D01*
X105457500Y-96012000D01*
X108237770Y-96012000D01*
X108256643Y-96203626D01*
X108312538Y-96387884D01*
X108403302Y-96557692D01*
X108403306Y-96557699D01*
X108525458Y-96706541D01*
X108674300Y-96828693D01*
X108674307Y-96828697D01*
X108844115Y-96919461D01*
X108844117Y-96919462D01*
X109028376Y-96975357D01*
X109220000Y-96994230D01*
X109411624Y-96975357D01*
X109595883Y-96919462D01*
X109765698Y-96828694D01*
X109914541Y-96706541D01*
X110036694Y-96557698D01*
X110127462Y-96387883D01*
X110183357Y-96203624D01*
X110202230Y-96012000D01*
X110183357Y-95820376D01*
X110127462Y-95636117D01*
X110036694Y-95466302D01*
X110036693Y-95466300D01*
X109914541Y-95317458D01*
X109765699Y-95195306D01*
X109765692Y-95195302D01*
X109595884Y-95104538D01*
X109411626Y-95048643D01*
X109220000Y-95029770D01*
X109028373Y-95048643D01*
X108844115Y-95104538D01*
X108674307Y-95195302D01*
X108674300Y-95195306D01*
X108525458Y-95317458D01*
X108403306Y-95466300D01*
X108403302Y-95466307D01*
X108312538Y-95636115D01*
X108256643Y-95820373D01*
X108237770Y-96012000D01*
X105457500Y-96012000D01*
X105457500Y-93472000D01*
X108237770Y-93472000D01*
X108256643Y-93663626D01*
X108312538Y-93847884D01*
X108403302Y-94017692D01*
X108403306Y-94017699D01*
X108525458Y-94166541D01*
X108674300Y-94288693D01*
X108674307Y-94288697D01*
X108844115Y-94379461D01*
X108844117Y-94379462D01*
X109028376Y-94435357D01*
X109220000Y-94454230D01*
X109411624Y-94435357D01*
X109595883Y-94379462D01*
X109765698Y-94288694D01*
X109914541Y-94166541D01*
X110036694Y-94017698D01*
X110127462Y-93847883D01*
X110183357Y-93663624D01*
X110202230Y-93472000D01*
X110183357Y-93280376D01*
X110127462Y-93096117D01*
X110036694Y-92926302D01*
X110036693Y-92926300D01*
X109914541Y-92777458D01*
X109765699Y-92655306D01*
X109765692Y-92655302D01*
X109595884Y-92564538D01*
X109411626Y-92508643D01*
X109220000Y-92489770D01*
X109028373Y-92508643D01*
X108844115Y-92564538D01*
X108674307Y-92655302D01*
X108674300Y-92655306D01*
X108525458Y-92777458D01*
X108403306Y-92926300D01*
X108403302Y-92926307D01*
X108312538Y-93096115D01*
X108256643Y-93280373D01*
X108237770Y-93472000D01*
X105457500Y-93472000D01*
X105457500Y-91244494D01*
X105459218Y-91223927D01*
X105459741Y-91220812D01*
X105459743Y-91220801D01*
X105457534Y-91128021D01*
X105457500Y-91125072D01*
X105457500Y-91086293D01*
X105457499Y-91086274D01*
X105456645Y-91077340D01*
X105456117Y-91068505D01*
X105454620Y-91005536D01*
X105447580Y-90973176D01*
X105445307Y-90958608D01*
X105442161Y-90925649D01*
X105424415Y-90865217D01*
X105422239Y-90856689D01*
X105408849Y-90795130D01*
X105395808Y-90764677D01*
X105390824Y-90750815D01*
X105381496Y-90719044D01*
X105362398Y-90682000D01*
X107970000Y-90682000D01*
X108774428Y-90682000D01*
X108751318Y-90717960D01*
X108710000Y-90858673D01*
X108710000Y-91005327D01*
X108751318Y-91146040D01*
X108774428Y-91182000D01*
X107970001Y-91182000D01*
X107970001Y-91813479D01*
X107984835Y-91907149D01*
X107984837Y-91907155D01*
X108042356Y-92020041D01*
X108042363Y-92020050D01*
X108131949Y-92109636D01*
X108131953Y-92109639D01*
X108244855Y-92167166D01*
X108338514Y-92181999D01*
X108969999Y-92181999D01*
X108970000Y-92181998D01*
X108970000Y-91378494D01*
X109074839Y-91426373D01*
X109183527Y-91442000D01*
X109256473Y-91442000D01*
X109365161Y-91426373D01*
X109470000Y-91378494D01*
X109470000Y-92181999D01*
X110101479Y-92181999D01*
X110195149Y-92167164D01*
X110195155Y-92167162D01*
X110308041Y-92109643D01*
X110308050Y-92109636D01*
X110397636Y-92020050D01*
X110397639Y-92020046D01*
X110455166Y-91907144D01*
X110470000Y-91813486D01*
X110470000Y-91182000D01*
X109665572Y-91182000D01*
X109688682Y-91146040D01*
X109730000Y-91005327D01*
X109730000Y-90858673D01*
X109688682Y-90717960D01*
X109665572Y-90682000D01*
X110469999Y-90682000D01*
X110469999Y-90050520D01*
X110455164Y-89956850D01*
X110455162Y-89956844D01*
X110397643Y-89843958D01*
X110397636Y-89843949D01*
X110308050Y-89754363D01*
X110308046Y-89754360D01*
X110195144Y-89696833D01*
X110101486Y-89682000D01*
X109470000Y-89682000D01*
X109470000Y-90485505D01*
X109365161Y-90437627D01*
X109256473Y-90422000D01*
X109183527Y-90422000D01*
X109074839Y-90437627D01*
X108970000Y-90485505D01*
X108970000Y-89682000D01*
X108338520Y-89682000D01*
X108244850Y-89696835D01*
X108244844Y-89696837D01*
X108131958Y-89754356D01*
X108131949Y-89754363D01*
X108042363Y-89843949D01*
X108042360Y-89843953D01*
X107984833Y-89956855D01*
X107970000Y-90050513D01*
X107970000Y-90682000D01*
X105362398Y-90682000D01*
X105352639Y-90663071D01*
X105348880Y-90655091D01*
X105324085Y-90597188D01*
X105319560Y-90590502D01*
X105305523Y-90569762D01*
X105297998Y-90557080D01*
X105282826Y-90527652D01*
X105243909Y-90478166D01*
X105238688Y-90471016D01*
X105203396Y-90418873D01*
X105203392Y-90418867D01*
X105179985Y-90395460D01*
X105170195Y-90384430D01*
X105149722Y-90358396D01*
X105102112Y-90317142D01*
X105095646Y-90311121D01*
X103176525Y-88392000D01*
X108237770Y-88392000D01*
X108256643Y-88583626D01*
X108312538Y-88767884D01*
X108403302Y-88937692D01*
X108403306Y-88937699D01*
X108525458Y-89086541D01*
X108674300Y-89208693D01*
X108674307Y-89208697D01*
X108844115Y-89299461D01*
X108844117Y-89299462D01*
X109028376Y-89355357D01*
X109220000Y-89374230D01*
X109411624Y-89355357D01*
X109595883Y-89299462D01*
X109765698Y-89208694D01*
X109914541Y-89086541D01*
X110036694Y-88937698D01*
X110127462Y-88767883D01*
X110183357Y-88583624D01*
X110202230Y-88392000D01*
X110183357Y-88200376D01*
X110127462Y-88016117D01*
X110036694Y-87846302D01*
X110036693Y-87846300D01*
X109914541Y-87697458D01*
X109765699Y-87575306D01*
X109765692Y-87575302D01*
X109595884Y-87484538D01*
X109411626Y-87428643D01*
X109220000Y-87409770D01*
X109028373Y-87428643D01*
X108844115Y-87484538D01*
X108674307Y-87575302D01*
X108674300Y-87575306D01*
X108525458Y-87697458D01*
X108403306Y-87846300D01*
X108403302Y-87846307D01*
X108312538Y-88016115D01*
X108256643Y-88200373D01*
X108237770Y-88392000D01*
X103176525Y-88392000D01*
X100636526Y-85852000D01*
X108237770Y-85852000D01*
X108256643Y-86043626D01*
X108312538Y-86227884D01*
X108403302Y-86397692D01*
X108403306Y-86397699D01*
X108525458Y-86546541D01*
X108674300Y-86668693D01*
X108674307Y-86668697D01*
X108844115Y-86759461D01*
X108844117Y-86759462D01*
X109028376Y-86815357D01*
X109220000Y-86834230D01*
X109411624Y-86815357D01*
X109595883Y-86759462D01*
X109765698Y-86668694D01*
X109914541Y-86546541D01*
X110036694Y-86397698D01*
X110127462Y-86227883D01*
X110183357Y-86043624D01*
X110202230Y-85852000D01*
X110183357Y-85660376D01*
X110127462Y-85476117D01*
X110036694Y-85306302D01*
X110036693Y-85306300D01*
X109914541Y-85157458D01*
X109765699Y-85035306D01*
X109765692Y-85035302D01*
X109595884Y-84944538D01*
X109411626Y-84888643D01*
X109220000Y-84869770D01*
X109028373Y-84888643D01*
X108844115Y-84944538D01*
X108674307Y-85035302D01*
X108674300Y-85035306D01*
X108525458Y-85157458D01*
X108403306Y-85306300D01*
X108403302Y-85306307D01*
X108312538Y-85476115D01*
X108256643Y-85660373D01*
X108237770Y-85852000D01*
X100636526Y-85852000D01*
X98096526Y-83312000D01*
X108237770Y-83312000D01*
X108256643Y-83503626D01*
X108312538Y-83687884D01*
X108403302Y-83857692D01*
X108403306Y-83857699D01*
X108525458Y-84006541D01*
X108674300Y-84128693D01*
X108674307Y-84128697D01*
X108807313Y-84199790D01*
X108844117Y-84219462D01*
X109028376Y-84275357D01*
X109220000Y-84294230D01*
X109411624Y-84275357D01*
X109595883Y-84219462D01*
X109765698Y-84128694D01*
X109914541Y-84006541D01*
X110036694Y-83857698D01*
X110127462Y-83687883D01*
X110183357Y-83503624D01*
X110202230Y-83312000D01*
X110183357Y-83120376D01*
X110127462Y-82936117D01*
X110036694Y-82766302D01*
X110036693Y-82766300D01*
X109914541Y-82617458D01*
X109765699Y-82495306D01*
X109765692Y-82495302D01*
X109595884Y-82404538D01*
X109411626Y-82348643D01*
X109220000Y-82329770D01*
X109028373Y-82348643D01*
X108844115Y-82404538D01*
X108674307Y-82495302D01*
X108674300Y-82495306D01*
X108525458Y-82617458D01*
X108403306Y-82766300D01*
X108403302Y-82766307D01*
X108312538Y-82936115D01*
X108256643Y-83120373D01*
X108237770Y-83312000D01*
X98096526Y-83312000D01*
X96021152Y-81236626D01*
X96007823Y-81220869D01*
X96005986Y-81218289D01*
X96005984Y-81218286D01*
X95938817Y-81154242D01*
X95936707Y-81152181D01*
X95909280Y-81124754D01*
X95902333Y-81119018D01*
X95895714Y-81113143D01*
X95850144Y-81069692D01*
X95839093Y-81062590D01*
X95822286Y-81051789D01*
X95810382Y-81043096D01*
X95784853Y-81022017D01*
X95784843Y-81022010D01*
X95729575Y-80991831D01*
X95721976Y-80987323D01*
X95685099Y-80963624D01*
X95668999Y-80953277D01*
X95638255Y-80940970D01*
X95624912Y-80934683D01*
X95595867Y-80918823D01*
X95595860Y-80918819D01*
X95559516Y-80907201D01*
X95535879Y-80899645D01*
X95527558Y-80896653D01*
X95469100Y-80873250D01*
X95436578Y-80866982D01*
X95422295Y-80863336D01*
X95390760Y-80853256D01*
X95390757Y-80853255D01*
X95328234Y-80845779D01*
X95319493Y-80844416D01*
X95312319Y-80843033D01*
X95257663Y-80832500D01*
X95257660Y-80832500D01*
X95224551Y-80832500D01*
X95209830Y-80831623D01*
X95176953Y-80827692D01*
X95114146Y-80832184D01*
X95105301Y-80832500D01*
X90202254Y-80832500D01*
X90135215Y-80812815D01*
X90099849Y-80772000D01*
X108237770Y-80772000D01*
X108256643Y-80963626D01*
X108312538Y-81147884D01*
X108403302Y-81317692D01*
X108403306Y-81317699D01*
X108525458Y-81466541D01*
X108674300Y-81588693D01*
X108674307Y-81588697D01*
X108844115Y-81679461D01*
X108844117Y-81679462D01*
X109028376Y-81735357D01*
X109220000Y-81754230D01*
X109411624Y-81735357D01*
X109595883Y-81679462D01*
X109765698Y-81588694D01*
X109914541Y-81466541D01*
X110036694Y-81317698D01*
X110127462Y-81147883D01*
X110183357Y-80963624D01*
X110202230Y-80772000D01*
X110183357Y-80580376D01*
X110127462Y-80396117D01*
X110036694Y-80226302D01*
X110036693Y-80226300D01*
X109914541Y-80077458D01*
X109765699Y-79955306D01*
X109765692Y-79955302D01*
X109595884Y-79864538D01*
X109411626Y-79808643D01*
X109220000Y-79789770D01*
X109028373Y-79808643D01*
X108844115Y-79864538D01*
X108674307Y-79955302D01*
X108674300Y-79955306D01*
X108525458Y-80077458D01*
X108403306Y-80226300D01*
X108403302Y-80226307D01*
X108312538Y-80396115D01*
X108256643Y-80580373D01*
X108237770Y-80772000D01*
X90099849Y-80772000D01*
X90089460Y-80760011D01*
X90078266Y-80706786D01*
X90100549Y-79094558D01*
X108242500Y-79094558D01*
X108249898Y-79131749D01*
X108278077Y-79173922D01*
X108320250Y-79202101D01*
X108320252Y-79202102D01*
X108345654Y-79207155D01*
X108357441Y-79209500D01*
X108357442Y-79209500D01*
X110082559Y-79209500D01*
X110094346Y-79207155D01*
X110119748Y-79202102D01*
X110161922Y-79173922D01*
X110190102Y-79131748D01*
X110197500Y-79094558D01*
X110197500Y-77369442D01*
X110190102Y-77332252D01*
X110190101Y-77332250D01*
X110161922Y-77290077D01*
X110119749Y-77261898D01*
X110082559Y-77254500D01*
X110082558Y-77254500D01*
X108357442Y-77254500D01*
X108357441Y-77254500D01*
X108320250Y-77261898D01*
X108278077Y-77290077D01*
X108249898Y-77332250D01*
X108242500Y-77369441D01*
X108242500Y-79094558D01*
X90100549Y-79094558D01*
X90147578Y-75692000D01*
X108237770Y-75692000D01*
X108256643Y-75883626D01*
X108312538Y-76067884D01*
X108403302Y-76237692D01*
X108403306Y-76237699D01*
X108525458Y-76386541D01*
X108674300Y-76508693D01*
X108674307Y-76508697D01*
X108844115Y-76599461D01*
X108844117Y-76599462D01*
X109028376Y-76655357D01*
X109220000Y-76674230D01*
X109411624Y-76655357D01*
X109595883Y-76599462D01*
X109765698Y-76508694D01*
X109914541Y-76386541D01*
X110036694Y-76237698D01*
X110127462Y-76067883D01*
X110183357Y-75883624D01*
X110202230Y-75692000D01*
X110183357Y-75500376D01*
X110127462Y-75316117D01*
X110036694Y-75146302D01*
X110036693Y-75146300D01*
X109914541Y-74997458D01*
X109765699Y-74875306D01*
X109765692Y-74875302D01*
X109595884Y-74784538D01*
X109411626Y-74728643D01*
X109220000Y-74709770D01*
X109028373Y-74728643D01*
X108844115Y-74784538D01*
X108674307Y-74875302D01*
X108674300Y-74875306D01*
X108525458Y-74997458D01*
X108403306Y-75146300D01*
X108403302Y-75146307D01*
X108312538Y-75316115D01*
X108256643Y-75500373D01*
X108237770Y-75692000D01*
X90147578Y-75692000D01*
X90182685Y-73152000D01*
X108237770Y-73152000D01*
X108256643Y-73343626D01*
X108312538Y-73527884D01*
X108403302Y-73697692D01*
X108403306Y-73697699D01*
X108525458Y-73846541D01*
X108674300Y-73968693D01*
X108674307Y-73968697D01*
X108807313Y-74039790D01*
X108844117Y-74059462D01*
X109028376Y-74115357D01*
X109220000Y-74134230D01*
X109411624Y-74115357D01*
X109595883Y-74059462D01*
X109765698Y-73968694D01*
X109914541Y-73846541D01*
X110036694Y-73697698D01*
X110127462Y-73527883D01*
X110183357Y-73343624D01*
X110202230Y-73152000D01*
X110183357Y-72960376D01*
X110127462Y-72776117D01*
X110036694Y-72606302D01*
X110036693Y-72606300D01*
X109914541Y-72457458D01*
X109765699Y-72335306D01*
X109765692Y-72335302D01*
X109595884Y-72244538D01*
X109411626Y-72188643D01*
X109220000Y-72169770D01*
X109028373Y-72188643D01*
X108844115Y-72244538D01*
X108674307Y-72335302D01*
X108674300Y-72335306D01*
X108525458Y-72457458D01*
X108403306Y-72606300D01*
X108403302Y-72606307D01*
X108312538Y-72776115D01*
X108256643Y-72960373D01*
X108237770Y-73152000D01*
X90182685Y-73152000D01*
X90202883Y-71690641D01*
X90223492Y-71623880D01*
X90239190Y-71604674D01*
X91231864Y-70612000D01*
X108237770Y-70612000D01*
X108256643Y-70803626D01*
X108312538Y-70987884D01*
X108403302Y-71157692D01*
X108403306Y-71157699D01*
X108525458Y-71306541D01*
X108674300Y-71428693D01*
X108674307Y-71428697D01*
X108810604Y-71501549D01*
X108844117Y-71519462D01*
X109028376Y-71575357D01*
X109220000Y-71594230D01*
X109411624Y-71575357D01*
X109595883Y-71519462D01*
X109765698Y-71428694D01*
X109914541Y-71306541D01*
X110036694Y-71157698D01*
X110127462Y-70987883D01*
X110183357Y-70803624D01*
X110202230Y-70612000D01*
X110183357Y-70420376D01*
X110127462Y-70236117D01*
X110127461Y-70236115D01*
X110036697Y-70066307D01*
X110036693Y-70066300D01*
X109914541Y-69917458D01*
X109765699Y-69795306D01*
X109765692Y-69795302D01*
X109595884Y-69704538D01*
X109411626Y-69648643D01*
X109220000Y-69629770D01*
X109028373Y-69648643D01*
X108844115Y-69704538D01*
X108674307Y-69795302D01*
X108674300Y-69795306D01*
X108525458Y-69917458D01*
X108403306Y-70066300D01*
X108403302Y-70066307D01*
X108312538Y-70236115D01*
X108256643Y-70420373D01*
X108237770Y-70612000D01*
X91231864Y-70612000D01*
X92214094Y-69629770D01*
X93771864Y-68072000D01*
X108237770Y-68072000D01*
X108256643Y-68263626D01*
X108312538Y-68447884D01*
X108403302Y-68617692D01*
X108403306Y-68617699D01*
X108525458Y-68766541D01*
X108674300Y-68888693D01*
X108674307Y-68888697D01*
X108844115Y-68979461D01*
X108844117Y-68979462D01*
X109028376Y-69035357D01*
X109220000Y-69054230D01*
X109411624Y-69035357D01*
X109595883Y-68979462D01*
X109765698Y-68888694D01*
X109914541Y-68766541D01*
X110036694Y-68617698D01*
X110127462Y-68447883D01*
X110183357Y-68263624D01*
X110202230Y-68072000D01*
X110183357Y-67880376D01*
X110127462Y-67696117D01*
X110036694Y-67526302D01*
X110036693Y-67526300D01*
X109914541Y-67377458D01*
X109765699Y-67255306D01*
X109765692Y-67255302D01*
X109595884Y-67164538D01*
X109411626Y-67108643D01*
X109220000Y-67089770D01*
X109028373Y-67108643D01*
X108844115Y-67164538D01*
X108674307Y-67255302D01*
X108674300Y-67255306D01*
X108525458Y-67377458D01*
X108403306Y-67526300D01*
X108403302Y-67526307D01*
X108312538Y-67696115D01*
X108256643Y-67880373D01*
X108237770Y-68072000D01*
X93771864Y-68072000D01*
X94335157Y-67508707D01*
X94355014Y-67492582D01*
X94364209Y-67486576D01*
X94383778Y-67461432D01*
X94393963Y-67449902D01*
X94394052Y-67449814D01*
X94399091Y-67442756D01*
X94406212Y-67432783D01*
X94409278Y-67428671D01*
X94441592Y-67387155D01*
X94441592Y-67387152D01*
X94445344Y-67380219D01*
X94448828Y-67373093D01*
X94448832Y-67373089D01*
X94463854Y-67322625D01*
X94465413Y-67317764D01*
X94482500Y-67267994D01*
X94483800Y-67260201D01*
X94484781Y-67252338D01*
X94482606Y-67199758D01*
X94482500Y-67194633D01*
X94482500Y-65282000D01*
X107970000Y-65282000D01*
X108774428Y-65282000D01*
X108751318Y-65317960D01*
X108710000Y-65458673D01*
X108710000Y-65605327D01*
X108751318Y-65746040D01*
X108774428Y-65782000D01*
X107970001Y-65782000D01*
X107970001Y-66413479D01*
X107984835Y-66507149D01*
X107984837Y-66507155D01*
X108042356Y-66620041D01*
X108042363Y-66620050D01*
X108131949Y-66709636D01*
X108131953Y-66709639D01*
X108244855Y-66767166D01*
X108338514Y-66781999D01*
X108969999Y-66781999D01*
X108970000Y-66781998D01*
X108970000Y-65978494D01*
X109074839Y-66026373D01*
X109183527Y-66042000D01*
X109256473Y-66042000D01*
X109365161Y-66026373D01*
X109470000Y-65978494D01*
X109470000Y-66781999D01*
X110101479Y-66781999D01*
X110195149Y-66767164D01*
X110195155Y-66767162D01*
X110308041Y-66709643D01*
X110308050Y-66709636D01*
X110397636Y-66620050D01*
X110397639Y-66620046D01*
X110455166Y-66507144D01*
X110470000Y-66413486D01*
X110470000Y-65782000D01*
X109665572Y-65782000D01*
X109688682Y-65746040D01*
X109730000Y-65605327D01*
X109730000Y-65458673D01*
X109688682Y-65317960D01*
X109665572Y-65282000D01*
X110469999Y-65282000D01*
X110469999Y-64650520D01*
X110455164Y-64556850D01*
X110455162Y-64556844D01*
X110397643Y-64443958D01*
X110397636Y-64443949D01*
X110308050Y-64354363D01*
X110308046Y-64354360D01*
X110195144Y-64296833D01*
X110101486Y-64282000D01*
X109470000Y-64282000D01*
X109470000Y-65085505D01*
X109365161Y-65037627D01*
X109256473Y-65022000D01*
X109183527Y-65022000D01*
X109074839Y-65037627D01*
X108970000Y-65085505D01*
X108970000Y-64282000D01*
X108338520Y-64282000D01*
X108244850Y-64296835D01*
X108244844Y-64296837D01*
X108131958Y-64354356D01*
X108131949Y-64354363D01*
X108042363Y-64443949D01*
X108042360Y-64443953D01*
X107984833Y-64556855D01*
X107970000Y-64650513D01*
X107970000Y-65282000D01*
X94482500Y-65282000D01*
X94482500Y-62992000D01*
X108237770Y-62992000D01*
X108256643Y-63183626D01*
X108312538Y-63367884D01*
X108403302Y-63537692D01*
X108403306Y-63537699D01*
X108525458Y-63686541D01*
X108674300Y-63808693D01*
X108674307Y-63808697D01*
X108779776Y-63865071D01*
X108844117Y-63899462D01*
X109028376Y-63955357D01*
X109220000Y-63974230D01*
X109411624Y-63955357D01*
X109595883Y-63899462D01*
X109765698Y-63808694D01*
X109914541Y-63686541D01*
X109933747Y-63663139D01*
X114676616Y-63663139D01*
X114707550Y-63865071D01*
X114707553Y-63865083D01*
X114747977Y-63974229D01*
X114778505Y-64056657D01*
X114886570Y-64230031D01*
X114886571Y-64230032D01*
X114886573Y-64230035D01*
X115023161Y-64373726D01*
X115027322Y-64378103D01*
X115195000Y-64494810D01*
X115382739Y-64575375D01*
X115582852Y-64616500D01*
X115582853Y-64616500D01*
X115735941Y-64616500D01*
X115888248Y-64601012D01*
X116083164Y-64539856D01*
X116083164Y-64539855D01*
X116083173Y-64539853D01*
X116261798Y-64440708D01*
X116416809Y-64307636D01*
X116541859Y-64146084D01*
X116631830Y-63962667D01*
X116683037Y-63764894D01*
X116688197Y-63663139D01*
X119526616Y-63663139D01*
X119557550Y-63865071D01*
X119557553Y-63865083D01*
X119597977Y-63974229D01*
X119628505Y-64056657D01*
X119736570Y-64230031D01*
X119736571Y-64230032D01*
X119736573Y-64230035D01*
X119873161Y-64373726D01*
X119877322Y-64378103D01*
X120045000Y-64494810D01*
X120232739Y-64575375D01*
X120432852Y-64616500D01*
X120432853Y-64616500D01*
X120585941Y-64616500D01*
X120738248Y-64601012D01*
X120933164Y-64539856D01*
X120933164Y-64539855D01*
X120933173Y-64539853D01*
X121111798Y-64440708D01*
X121266809Y-64307636D01*
X121391859Y-64146084D01*
X121481830Y-63962667D01*
X121533037Y-63764894D01*
X121543384Y-63560861D01*
X121512448Y-63358921D01*
X121441495Y-63167343D01*
X121333430Y-62993969D01*
X121333427Y-62993966D01*
X121333426Y-62993964D01*
X121192680Y-62845899D01*
X121192679Y-62845898D01*
X121187087Y-62842006D01*
X121080819Y-62768041D01*
X121024999Y-62729189D01*
X120837262Y-62648625D01*
X120712507Y-62622987D01*
X120637148Y-62607500D01*
X120484060Y-62607500D01*
X120484059Y-62607500D01*
X120331751Y-62622987D01*
X120136835Y-62684143D01*
X120136825Y-62684148D01*
X119958200Y-62783293D01*
X119958199Y-62783293D01*
X119803191Y-62916362D01*
X119803190Y-62916363D01*
X119678143Y-63077912D01*
X119588170Y-63261332D01*
X119536963Y-63459105D01*
X119526616Y-63663138D01*
X119526616Y-63663139D01*
X116688197Y-63663139D01*
X116693384Y-63560861D01*
X116662448Y-63358921D01*
X116591495Y-63167343D01*
X116483430Y-62993969D01*
X116483427Y-62993966D01*
X116483426Y-62993964D01*
X116342680Y-62845899D01*
X116342679Y-62845898D01*
X116337087Y-62842006D01*
X116230819Y-62768041D01*
X116174999Y-62729189D01*
X115987262Y-62648625D01*
X115862507Y-62622987D01*
X115787148Y-62607500D01*
X115634060Y-62607500D01*
X115634059Y-62607500D01*
X115481751Y-62622987D01*
X115286835Y-62684143D01*
X115286825Y-62684148D01*
X115108200Y-62783293D01*
X115108199Y-62783293D01*
X114953191Y-62916362D01*
X114953190Y-62916363D01*
X114828143Y-63077912D01*
X114738170Y-63261332D01*
X114686963Y-63459105D01*
X114676616Y-63663138D01*
X114676616Y-63663139D01*
X109933747Y-63663139D01*
X110036694Y-63537698D01*
X110127462Y-63367883D01*
X110183357Y-63183624D01*
X110202230Y-62992000D01*
X110183357Y-62800376D01*
X110127462Y-62616117D01*
X110098261Y-62561486D01*
X110036697Y-62446307D01*
X110036693Y-62446300D01*
X109914541Y-62297458D01*
X109765699Y-62175306D01*
X109765692Y-62175302D01*
X109595884Y-62084538D01*
X109411626Y-62028643D01*
X109220000Y-62009770D01*
X109028373Y-62028643D01*
X108844115Y-62084538D01*
X108674307Y-62175302D01*
X108674300Y-62175306D01*
X108525458Y-62297458D01*
X108403306Y-62446300D01*
X108403302Y-62446307D01*
X108312538Y-62616115D01*
X108256643Y-62800373D01*
X108237770Y-62992000D01*
X94482500Y-62992000D01*
X94482500Y-62660919D01*
X94502185Y-62593880D01*
X94548045Y-62551562D01*
X94650698Y-62496694D01*
X94799541Y-62374541D01*
X94921694Y-62225698D01*
X95012462Y-62055883D01*
X95068357Y-61871624D01*
X95087230Y-61680000D01*
X95068357Y-61488376D01*
X95012462Y-61304117D01*
X94993528Y-61268694D01*
X94921697Y-61134307D01*
X94921693Y-61134300D01*
X94799541Y-60985458D01*
X94650699Y-60863306D01*
X94650692Y-60863302D01*
X94480884Y-60772538D01*
X94296626Y-60716643D01*
X94105000Y-60697770D01*
X93913373Y-60716643D01*
X93729115Y-60772538D01*
X93559307Y-60863302D01*
X93559300Y-60863306D01*
X93410458Y-60985458D01*
X93288306Y-61134300D01*
X93288302Y-61134307D01*
X93197538Y-61304115D01*
X93141643Y-61488373D01*
X93122770Y-61680000D01*
X93141643Y-61871626D01*
X93197538Y-62055884D01*
X93288302Y-62225692D01*
X93288306Y-62225699D01*
X93410458Y-62374541D01*
X93514036Y-62459545D01*
X93559302Y-62496694D01*
X93661954Y-62551562D01*
X93711797Y-62600522D01*
X93727500Y-62660919D01*
X93727500Y-66997272D01*
X93707815Y-67064311D01*
X93691181Y-67084953D01*
X89517954Y-71258181D01*
X89456631Y-71291666D01*
X89430273Y-71294500D01*
X79299390Y-71294500D01*
X79254875Y-71299379D01*
X79202469Y-71311006D01*
X79191462Y-71313769D01*
X79111112Y-71357438D01*
X79111109Y-71357440D01*
X79058677Y-71403633D01*
X79040873Y-71421368D01*
X78996886Y-71501549D01*
X78977753Y-71568754D01*
X78969907Y-71626707D01*
X78969907Y-71626712D01*
X78969907Y-71626713D01*
X79103479Y-87846302D01*
X79107864Y-88378705D01*
X79107865Y-88378723D01*
X79112734Y-88421532D01*
X79123936Y-88472019D01*
X79126242Y-88481370D01*
X79126245Y-88481378D01*
X79169252Y-88562083D01*
X79169254Y-88562086D01*
X79215013Y-88614895D01*
X79232595Y-88632839D01*
X79232599Y-88632843D01*
X79232600Y-88632844D01*
X79232602Y-88632845D01*
X79312412Y-88677488D01*
X79312416Y-88677490D01*
X79379455Y-88697175D01*
X79437353Y-88705500D01*
X79437357Y-88705500D01*
X82375991Y-88705500D01*
X82376000Y-88705500D01*
X82419684Y-88700803D01*
X82448875Y-88694452D01*
X82471174Y-88689602D01*
X82471190Y-88689598D01*
X82471195Y-88689597D01*
X82481373Y-88687110D01*
X82562085Y-88644100D01*
X82614889Y-88598345D01*
X82632843Y-88580754D01*
X82677490Y-88500937D01*
X82697175Y-88433898D01*
X82705500Y-88376000D01*
X82705500Y-86329500D01*
X82725185Y-86262461D01*
X82777989Y-86216706D01*
X82829500Y-86205500D01*
X88064870Y-86205500D01*
X88131909Y-86225185D01*
X88177664Y-86277989D01*
X88188870Y-86329500D01*
X88188870Y-91694060D01*
X88194403Y-91741428D01*
X88207578Y-91797055D01*
X88211339Y-91810789D01*
X88257286Y-91889867D01*
X88257287Y-91889869D01*
X88304940Y-91940945D01*
X88304951Y-91940955D01*
X88323192Y-91958252D01*
X88404596Y-91999936D01*
X88472314Y-92017144D01*
X88530476Y-92023335D01*
X89642741Y-91982443D01*
X89682331Y-91977102D01*
X89729035Y-91966095D01*
X89729051Y-91966090D01*
X89729072Y-91966086D01*
X89735311Y-91964511D01*
X89735312Y-91964511D01*
X89747121Y-91958252D01*
X89816122Y-91921681D01*
X89869028Y-91876044D01*
X89887023Y-91858491D01*
X89931847Y-91778773D01*
X89951681Y-91711777D01*
X89960134Y-91653900D01*
X89969859Y-87287165D01*
X89969904Y-87284177D01*
X90005401Y-85976416D01*
X90005433Y-85975074D01*
X90005467Y-85973424D01*
X90005491Y-85972030D01*
X90012346Y-85476117D01*
X90043670Y-83209786D01*
X90064279Y-83143025D01*
X90117710Y-83098004D01*
X90167658Y-83087500D01*
X94631612Y-83087500D01*
X94698651Y-83107185D01*
X94719293Y-83123819D01*
X103166181Y-91570707D01*
X103199666Y-91632030D01*
X103202500Y-91658388D01*
X103202500Y-109545507D01*
X103200783Y-109566072D01*
X103200257Y-109569195D01*
X103200257Y-109569198D01*
X103202465Y-109661960D01*
X103202500Y-109664910D01*
X103202500Y-109703717D01*
X103203356Y-109712690D01*
X103203882Y-109721514D01*
X103205381Y-109784465D01*
X103212420Y-109816825D01*
X103214689Y-109831374D01*
X103217278Y-109858483D01*
X103217839Y-109864353D01*
X103235576Y-109924760D01*
X103237765Y-109933334D01*
X103251151Y-109994866D01*
X103251154Y-109994874D01*
X103264188Y-110025312D01*
X103269176Y-110039188D01*
X103278503Y-110070954D01*
X103278506Y-110070962D01*
X103307351Y-110126914D01*
X103311123Y-110134919D01*
X103335915Y-110192812D01*
X103351344Y-110215608D01*
X103354477Y-110220237D01*
X103362001Y-110232918D01*
X103377172Y-110262345D01*
X103416090Y-110311834D01*
X103421308Y-110318980D01*
X103456608Y-110371134D01*
X103480020Y-110394546D01*
X103489803Y-110405568D01*
X103510278Y-110431604D01*
X103557880Y-110472851D01*
X103564345Y-110478871D01*
X107988847Y-114903372D01*
X108002172Y-114919124D01*
X108004017Y-114921715D01*
X108004018Y-114921716D01*
X108071202Y-114985776D01*
X108073272Y-114987797D01*
X108100718Y-115015243D01*
X108107665Y-115020979D01*
X108114258Y-115026830D01*
X108158591Y-115069101D01*
X108159856Y-115070308D01*
X108169040Y-115076210D01*
X108187714Y-115088211D01*
X108199619Y-115096904D01*
X108225145Y-115117980D01*
X108225148Y-115117982D01*
X108225152Y-115117985D01*
X108280432Y-115148170D01*
X108288001Y-115152661D01*
X108340999Y-115186721D01*
X108371753Y-115199033D01*
X108385076Y-115205309D01*
X108414141Y-115221180D01*
X108474125Y-115240354D01*
X108482398Y-115243328D01*
X108540902Y-115266750D01*
X108573425Y-115273017D01*
X108587699Y-115276660D01*
X108619242Y-115286744D01*
X108681763Y-115294219D01*
X108690487Y-115295579D01*
X108752337Y-115307500D01*
X108785448Y-115307500D01*
X108800168Y-115308376D01*
X108833046Y-115312308D01*
X108891849Y-115308102D01*
X108895850Y-115307816D01*
X108904696Y-115307500D01*
X110760693Y-115307500D01*
X110827732Y-115327185D01*
X110873487Y-115379989D01*
X110883431Y-115449147D01*
X110854406Y-115512703D01*
X110848374Y-115519181D01*
X110548087Y-115819467D01*
X110535142Y-115830733D01*
X110529875Y-115834710D01*
X110501168Y-115866200D01*
X110497220Y-115870335D01*
X110485593Y-115881963D01*
X110481934Y-115886369D01*
X110481922Y-115886359D01*
X110476158Y-115893634D01*
X110459978Y-115911383D01*
X110459977Y-115911386D01*
X110458063Y-115916327D01*
X110444741Y-115941600D01*
X110441750Y-115945966D01*
X110441748Y-115945971D01*
X110436250Y-115969342D01*
X110431173Y-115985735D01*
X110422500Y-116008124D01*
X110422500Y-116013422D01*
X110419206Y-116041812D01*
X110417995Y-116046958D01*
X110417995Y-116046963D01*
X110421311Y-116070734D01*
X110422500Y-116087864D01*
X110422500Y-120627335D01*
X110421311Y-120644462D01*
X110420400Y-120650992D01*
X110422368Y-120693559D01*
X110422500Y-120699285D01*
X110422500Y-120715715D01*
X110422501Y-120715720D01*
X110423029Y-120721421D01*
X110423012Y-120721422D01*
X110424082Y-120730642D01*
X110425192Y-120754634D01*
X110427333Y-120759484D01*
X110435784Y-120786777D01*
X110436756Y-120791979D01*
X110436758Y-120791984D01*
X110449394Y-120812393D01*
X110457398Y-120827579D01*
X110467095Y-120849540D01*
X110467097Y-120849543D01*
X110470841Y-120853287D01*
X110488585Y-120875687D01*
X110491373Y-120880189D01*
X110510529Y-120894655D01*
X110523483Y-120905928D01*
X112686181Y-123068625D01*
X112719666Y-123129948D01*
X112722500Y-123156306D01*
X112722500Y-137686883D01*
X112702815Y-137753922D01*
X112673987Y-137785258D01*
X112623784Y-137823780D01*
X112539227Y-137933976D01*
X112486078Y-138062291D01*
X112486076Y-138062296D01*
X112467948Y-138199998D01*
X112467948Y-138200001D01*
X112486076Y-138337703D01*
X112486078Y-138337708D01*
X112539227Y-138466023D01*
X112539228Y-138466025D01*
X112539229Y-138466026D01*
X112623782Y-138576218D01*
X112733974Y-138660771D01*
X112862295Y-138713923D01*
X112931147Y-138722987D01*
X112999999Y-138732052D01*
X113000000Y-138732052D01*
X113000001Y-138732052D01*
X113045901Y-138726009D01*
X113137705Y-138713923D01*
X113266026Y-138660771D01*
X113376218Y-138576218D01*
X113460771Y-138466026D01*
X113513923Y-138337705D01*
X113532052Y-138200000D01*
X113513923Y-138062295D01*
X113460771Y-137933974D01*
X113376218Y-137823782D01*
X113326013Y-137785258D01*
X113284811Y-137728830D01*
X113277500Y-137686883D01*
X113277500Y-123052662D01*
X113278689Y-123035531D01*
X113279598Y-123029006D01*
X113279600Y-123029002D01*
X113277632Y-122986439D01*
X113277500Y-122980713D01*
X113277500Y-122964280D01*
X113276971Y-122958570D01*
X113276987Y-122958568D01*
X113275916Y-122949340D01*
X113274808Y-122925365D01*
X113272668Y-122920518D01*
X113264215Y-122893220D01*
X113263243Y-122888019D01*
X113250606Y-122867609D01*
X113242599Y-122852419D01*
X113232901Y-122830456D01*
X113229160Y-122826715D01*
X113211415Y-122804314D01*
X113208626Y-122799810D01*
X113189465Y-122785340D01*
X113176512Y-122774068D01*
X111013819Y-120611375D01*
X110980334Y-120550052D01*
X110977500Y-120523694D01*
X110977500Y-117194999D01*
X111642891Y-117194999D01*
X111642892Y-117195000D01*
X112436314Y-117195000D01*
X112410507Y-117235156D01*
X112370000Y-117373111D01*
X112370000Y-117516889D01*
X112410507Y-117654844D01*
X112436314Y-117695000D01*
X111642892Y-117695000D01*
X111690894Y-117874150D01*
X111690898Y-117874159D01*
X111783333Y-118072387D01*
X111908787Y-118251554D01*
X112063445Y-118406212D01*
X112242612Y-118531666D01*
X112440843Y-118624103D01*
X112620000Y-118672106D01*
X112620000Y-117880501D01*
X112727685Y-117929680D01*
X112834237Y-117945000D01*
X112905763Y-117945000D01*
X113012315Y-117929680D01*
X113120000Y-117880501D01*
X113120000Y-118672105D01*
X113299156Y-118624103D01*
X113299157Y-118624103D01*
X113497387Y-118531666D01*
X113676554Y-118406212D01*
X113831212Y-118251554D01*
X113956666Y-118072387D01*
X114049101Y-117874159D01*
X114049105Y-117874150D01*
X114097108Y-117695000D01*
X113303686Y-117695000D01*
X113329493Y-117654844D01*
X113370000Y-117516889D01*
X113370000Y-117373111D01*
X113329493Y-117235156D01*
X113303686Y-117195000D01*
X114097108Y-117195000D01*
X114097108Y-117194999D01*
X114049105Y-117015849D01*
X114049101Y-117015840D01*
X113956666Y-116817612D01*
X113956664Y-116817608D01*
X113831216Y-116638450D01*
X113831211Y-116638444D01*
X113676554Y-116483787D01*
X113497387Y-116358333D01*
X113299159Y-116265898D01*
X113299150Y-116265894D01*
X113120000Y-116217891D01*
X113120000Y-117009498D01*
X113012315Y-116960320D01*
X112905763Y-116945000D01*
X112834237Y-116945000D01*
X112727685Y-116960320D01*
X112620000Y-117009498D01*
X112620000Y-116217892D01*
X112619999Y-116217891D01*
X112440849Y-116265894D01*
X112440840Y-116265898D01*
X112242612Y-116358333D01*
X112242608Y-116358335D01*
X112063450Y-116483783D01*
X112063444Y-116483788D01*
X111908788Y-116638444D01*
X111908783Y-116638450D01*
X111783335Y-116817608D01*
X111783333Y-116817612D01*
X111690898Y-117015840D01*
X111690894Y-117015849D01*
X111642891Y-117194999D01*
X110977500Y-117194999D01*
X110977500Y-116226307D01*
X110997185Y-116159268D01*
X111013819Y-116138626D01*
X111188626Y-115963819D01*
X111249949Y-115930334D01*
X111276307Y-115927500D01*
X114876883Y-115927500D01*
X114943922Y-115947185D01*
X114975258Y-115976013D01*
X115013782Y-116026218D01*
X115123974Y-116110771D01*
X115252295Y-116163923D01*
X115321147Y-116172987D01*
X115389999Y-116182052D01*
X115390000Y-116182052D01*
X115390001Y-116182052D01*
X115435901Y-116176009D01*
X115527705Y-116163923D01*
X115656026Y-116110771D01*
X115766218Y-116026218D01*
X115850771Y-115916026D01*
X115903923Y-115787705D01*
X115922052Y-115650000D01*
X115903923Y-115512295D01*
X115850771Y-115383974D01*
X115766218Y-115273782D01*
X115656026Y-115189229D01*
X115656025Y-115189228D01*
X115656023Y-115189227D01*
X115527708Y-115136078D01*
X115527703Y-115136076D01*
X115390001Y-115117948D01*
X115389999Y-115117948D01*
X115252296Y-115136076D01*
X115252291Y-115136078D01*
X115123976Y-115189227D01*
X115082333Y-115221181D01*
X115013782Y-115273782D01*
X115013781Y-115273783D01*
X115013780Y-115273784D01*
X114975258Y-115323987D01*
X114918830Y-115365189D01*
X114876883Y-115372500D01*
X113180581Y-115372500D01*
X113113542Y-115352815D01*
X113067787Y-115300011D01*
X113057843Y-115230853D01*
X113086868Y-115167297D01*
X113123764Y-115138283D01*
X113134341Y-115132830D01*
X113134340Y-115132830D01*
X113134345Y-115132828D01*
X113195560Y-115084687D01*
X113200289Y-115081147D01*
X113215512Y-115070307D01*
X113263714Y-115035984D01*
X113276239Y-115022846D01*
X113289329Y-115010947D01*
X113303604Y-114999722D01*
X113354597Y-114940872D01*
X113358569Y-114936502D01*
X113372670Y-114921714D01*
X113412307Y-114880145D01*
X113422123Y-114864869D01*
X113432718Y-114850713D01*
X113444612Y-114836989D01*
X113483554Y-114769538D01*
X113486599Y-114764543D01*
X113528721Y-114699001D01*
X113535469Y-114682142D01*
X113543197Y-114666235D01*
X113552276Y-114650511D01*
X113577752Y-114576899D01*
X113579803Y-114571403D01*
X113608750Y-114499098D01*
X113612184Y-114481278D01*
X113616765Y-114464180D01*
X113622702Y-114447027D01*
X113633787Y-114369922D01*
X113634755Y-114364162D01*
X113649500Y-114287663D01*
X113649500Y-114269510D01*
X113650762Y-114251864D01*
X113653346Y-114233893D01*
X113649640Y-114156096D01*
X113649500Y-114150196D01*
X113649500Y-76964388D01*
X113669185Y-76897349D01*
X113685819Y-76876707D01*
X122490526Y-68072000D01*
X126017770Y-68072000D01*
X126036643Y-68263626D01*
X126092538Y-68447884D01*
X126183302Y-68617692D01*
X126183306Y-68617699D01*
X126305458Y-68766541D01*
X126454300Y-68888693D01*
X126454307Y-68888697D01*
X126624115Y-68979461D01*
X126624117Y-68979462D01*
X126808376Y-69035357D01*
X127000000Y-69054230D01*
X127191624Y-69035357D01*
X127375883Y-68979462D01*
X127545698Y-68888694D01*
X127694541Y-68766541D01*
X127816694Y-68617698D01*
X127907462Y-68447883D01*
X127963357Y-68263624D01*
X127982230Y-68072000D01*
X127963357Y-67880376D01*
X127907462Y-67696117D01*
X127816694Y-67526302D01*
X127816693Y-67526300D01*
X127694541Y-67377458D01*
X127545699Y-67255306D01*
X127545692Y-67255302D01*
X127375884Y-67164538D01*
X127191626Y-67108643D01*
X127000000Y-67089770D01*
X126808373Y-67108643D01*
X126624115Y-67164538D01*
X126454307Y-67255302D01*
X126454300Y-67255306D01*
X126305458Y-67377458D01*
X126183306Y-67526300D01*
X126183302Y-67526307D01*
X126092538Y-67696115D01*
X126036643Y-67880373D01*
X126017770Y-68072000D01*
X122490526Y-68072000D01*
X125810819Y-64751707D01*
X125872142Y-64718222D01*
X125941834Y-64723206D01*
X125997767Y-64765078D01*
X126022184Y-64830542D01*
X126022500Y-64839388D01*
X126022500Y-66394558D01*
X126029898Y-66431749D01*
X126058077Y-66473922D01*
X126100250Y-66502101D01*
X126100252Y-66502102D01*
X126125654Y-66507155D01*
X126137441Y-66509500D01*
X126137442Y-66509500D01*
X127862559Y-66509500D01*
X127874346Y-66507155D01*
X127899748Y-66502102D01*
X127941922Y-66473922D01*
X127970102Y-66431748D01*
X127977500Y-66394558D01*
X127977500Y-64669442D01*
X127970102Y-64632252D01*
X127949807Y-64601878D01*
X127941922Y-64590077D01*
X127899749Y-64561898D01*
X127862559Y-64554500D01*
X127862558Y-64554500D01*
X126307388Y-64554500D01*
X126240349Y-64534815D01*
X126194594Y-64482011D01*
X126184650Y-64412853D01*
X126213675Y-64349297D01*
X126219707Y-64342819D01*
X126406707Y-64155819D01*
X126468030Y-64122334D01*
X126494388Y-64119500D01*
X139013612Y-64119500D01*
X139080651Y-64139185D01*
X139101293Y-64155819D01*
X143156181Y-68210707D01*
X143189666Y-68272030D01*
X143192500Y-68298388D01*
X143192500Y-69392558D01*
X143199898Y-69429749D01*
X143228077Y-69471922D01*
X143270250Y-69500101D01*
X143270252Y-69500102D01*
X143298205Y-69505662D01*
X143307441Y-69507500D01*
X143307442Y-69507500D01*
X144401612Y-69507500D01*
X144468651Y-69527185D01*
X144489293Y-69543819D01*
X147874181Y-72928707D01*
X147907666Y-72990030D01*
X147910500Y-73016388D01*
X147910500Y-86998000D01*
X147890815Y-87065039D01*
X147838011Y-87110794D01*
X147786500Y-87122000D01*
X138176000Y-87122000D01*
X138201077Y-92926300D01*
X138224546Y-98358747D01*
X138205151Y-98425871D01*
X138152545Y-98471854D01*
X138083430Y-98482096D01*
X138019750Y-98453346D01*
X138009324Y-98443272D01*
X137974153Y-98405067D01*
X137906470Y-98352387D01*
X137794005Y-98264852D01*
X137593233Y-98156199D01*
X137593228Y-98156197D01*
X137377317Y-98082075D01*
X137227200Y-98057025D01*
X137152143Y-98044500D01*
X136923857Y-98044500D01*
X136867564Y-98053893D01*
X136698682Y-98082075D01*
X136482771Y-98156197D01*
X136482766Y-98156199D01*
X136281994Y-98264852D01*
X136101849Y-98405065D01*
X136101844Y-98405070D01*
X135947230Y-98573024D01*
X135822372Y-98764136D01*
X135730671Y-98973195D01*
X135674631Y-99194490D01*
X135674629Y-99194502D01*
X135655779Y-99421994D01*
X135655779Y-99422005D01*
X135674629Y-99649497D01*
X135674631Y-99649509D01*
X135730671Y-99870804D01*
X135822372Y-100079863D01*
X135947230Y-100270975D01*
X135951217Y-100275306D01*
X136101847Y-100438933D01*
X136281997Y-100579149D01*
X136482768Y-100687801D01*
X136698685Y-100761925D01*
X136923857Y-100799500D01*
X136923858Y-100799500D01*
X137152142Y-100799500D01*
X137152143Y-100799500D01*
X137377315Y-100761925D01*
X137593232Y-100687801D01*
X137794003Y-100579149D01*
X137974153Y-100438933D01*
X138018460Y-100390802D01*
X138078343Y-100354814D01*
X138148181Y-100356913D01*
X138205797Y-100396437D01*
X138232900Y-100460836D01*
X138233686Y-100474251D01*
X138249806Y-104205265D01*
X138230411Y-104272389D01*
X138221588Y-104284554D01*
X129000000Y-115500000D01*
X129000000Y-143075500D01*
X128980315Y-143142539D01*
X128927511Y-143188294D01*
X128876000Y-143199500D01*
X121202432Y-143199500D01*
X121135393Y-143179815D01*
X121089638Y-143127011D01*
X121079694Y-143057853D01*
X121108719Y-142994297D01*
X121135646Y-142971022D01*
X121203004Y-142927968D01*
X121661711Y-142469259D01*
X121669091Y-142462455D01*
X121710817Y-142427014D01*
X121760373Y-142361821D01*
X121762423Y-142359202D01*
X121800657Y-142311638D01*
X121813726Y-142295380D01*
X121813819Y-142295190D01*
X121826203Y-142275227D01*
X121826326Y-142275066D01*
X121860713Y-142200736D01*
X121862128Y-142197783D01*
X121898530Y-142124387D01*
X121898581Y-142124181D01*
X121906385Y-142102020D01*
X121906469Y-142101839D01*
X121924072Y-142021866D01*
X121924832Y-142018623D01*
X121944594Y-141939161D01*
X121944599Y-141938954D01*
X121947456Y-141915632D01*
X121947500Y-141915434D01*
X121947500Y-141833590D01*
X121947545Y-141830232D01*
X121948180Y-141806776D01*
X121949763Y-141748363D01*
X121949719Y-141748138D01*
X121947500Y-141724780D01*
X121947500Y-129584834D01*
X121967185Y-129517795D01*
X121983819Y-129497153D01*
X122960237Y-128520735D01*
X124101717Y-127379254D01*
X124109097Y-127372449D01*
X124150817Y-127337014D01*
X124200361Y-127271838D01*
X124202411Y-127269217D01*
X124253726Y-127205380D01*
X124253816Y-127205196D01*
X124266205Y-127185223D01*
X124266326Y-127185066D01*
X124300713Y-127110736D01*
X124302128Y-127107783D01*
X124338530Y-127034387D01*
X124338581Y-127034181D01*
X124346385Y-127012020D01*
X124346469Y-127011839D01*
X124364072Y-126931866D01*
X124364832Y-126928623D01*
X124384594Y-126849161D01*
X124384599Y-126848954D01*
X124387456Y-126825632D01*
X124387500Y-126825434D01*
X124387500Y-126743569D01*
X124387545Y-126740212D01*
X124389762Y-126658363D01*
X124389720Y-126658144D01*
X124387500Y-126634785D01*
X124387500Y-113220702D01*
X124387909Y-113210638D01*
X124392350Y-113156101D01*
X124381296Y-113074964D01*
X124380888Y-113071631D01*
X124372038Y-112990251D01*
X124371970Y-112990051D01*
X124366612Y-112967189D01*
X124366584Y-112966977D01*
X124352448Y-112928500D01*
X124338339Y-112890095D01*
X124337224Y-112886928D01*
X124311092Y-112809373D01*
X124311091Y-112809372D01*
X124310982Y-112809190D01*
X124300835Y-112788014D01*
X124300762Y-112787815D01*
X124256672Y-112718838D01*
X124254901Y-112715983D01*
X124212693Y-112645831D01*
X124212692Y-112645830D01*
X124212691Y-112645828D01*
X124212538Y-112645666D01*
X124198082Y-112627174D01*
X124197970Y-112626999D01*
X124197966Y-112626994D01*
X124140090Y-112569118D01*
X124137748Y-112566712D01*
X124081431Y-112507259D01*
X124081427Y-112507256D01*
X124081425Y-112507254D01*
X124081242Y-112507130D01*
X124063153Y-112492181D01*
X120282973Y-108712000D01*
X126017770Y-108712000D01*
X126036643Y-108903626D01*
X126092538Y-109087884D01*
X126183302Y-109257692D01*
X126183306Y-109257699D01*
X126305458Y-109406541D01*
X126454300Y-109528693D01*
X126454307Y-109528697D01*
X126624115Y-109619461D01*
X126624117Y-109619462D01*
X126808376Y-109675357D01*
X127000000Y-109694230D01*
X127191624Y-109675357D01*
X127375883Y-109619462D01*
X127545698Y-109528694D01*
X127694541Y-109406541D01*
X127816694Y-109257698D01*
X127907462Y-109087883D01*
X127963357Y-108903624D01*
X127982230Y-108712000D01*
X127963357Y-108520376D01*
X127907462Y-108336117D01*
X127816694Y-108166302D01*
X127816693Y-108166300D01*
X127694541Y-108017458D01*
X127545699Y-107895306D01*
X127545692Y-107895302D01*
X127375884Y-107804538D01*
X127191626Y-107748643D01*
X127000000Y-107729770D01*
X126808373Y-107748643D01*
X126624115Y-107804538D01*
X126454307Y-107895302D01*
X126454300Y-107895306D01*
X126305458Y-108017458D01*
X126183306Y-108166300D01*
X126183302Y-108166307D01*
X126092538Y-108336115D01*
X126036643Y-108520373D01*
X126017770Y-108712000D01*
X120282973Y-108712000D01*
X118753819Y-107182846D01*
X118720334Y-107121523D01*
X118717500Y-107095165D01*
X118717500Y-106172000D01*
X126017770Y-106172000D01*
X126036643Y-106363626D01*
X126092538Y-106547884D01*
X126183302Y-106717692D01*
X126183306Y-106717699D01*
X126305458Y-106866541D01*
X126454300Y-106988693D01*
X126454307Y-106988697D01*
X126624115Y-107079461D01*
X126624117Y-107079462D01*
X126808376Y-107135357D01*
X127000000Y-107154230D01*
X127191624Y-107135357D01*
X127375883Y-107079462D01*
X127545698Y-106988694D01*
X127694541Y-106866541D01*
X127816694Y-106717698D01*
X127907462Y-106547883D01*
X127963357Y-106363624D01*
X127982230Y-106172000D01*
X127963357Y-105980376D01*
X127907462Y-105796117D01*
X127816694Y-105626302D01*
X127816693Y-105626300D01*
X127694541Y-105477458D01*
X127545699Y-105355306D01*
X127545692Y-105355302D01*
X127375884Y-105264538D01*
X127191626Y-105208643D01*
X127000000Y-105189770D01*
X126808373Y-105208643D01*
X126624115Y-105264538D01*
X126454307Y-105355302D01*
X126454300Y-105355306D01*
X126305458Y-105477458D01*
X126183306Y-105626300D01*
X126183302Y-105626307D01*
X126092538Y-105796115D01*
X126036643Y-105980373D01*
X126017770Y-106172000D01*
X118717500Y-106172000D01*
X118717500Y-103382000D01*
X125750000Y-103382000D01*
X126554428Y-103382000D01*
X126531318Y-103417960D01*
X126490000Y-103558673D01*
X126490000Y-103705327D01*
X126531318Y-103846040D01*
X126554428Y-103882000D01*
X125750001Y-103882000D01*
X125750001Y-104513479D01*
X125764835Y-104607149D01*
X125764837Y-104607155D01*
X125822356Y-104720041D01*
X125822363Y-104720050D01*
X125911949Y-104809636D01*
X125911953Y-104809639D01*
X126024855Y-104867166D01*
X126118514Y-104881999D01*
X126749999Y-104881999D01*
X126750000Y-104881998D01*
X126750000Y-104078494D01*
X126854839Y-104126373D01*
X126963527Y-104142000D01*
X127036473Y-104142000D01*
X127145161Y-104126373D01*
X127250000Y-104078494D01*
X127250000Y-104881999D01*
X127881479Y-104881999D01*
X127975149Y-104867164D01*
X127975155Y-104867162D01*
X128088041Y-104809643D01*
X128088050Y-104809636D01*
X128177636Y-104720050D01*
X128177639Y-104720046D01*
X128235166Y-104607144D01*
X128250000Y-104513486D01*
X128250000Y-103882000D01*
X127445572Y-103882000D01*
X127468682Y-103846040D01*
X127510000Y-103705327D01*
X127510000Y-103558673D01*
X127468682Y-103417960D01*
X127445572Y-103382000D01*
X128249999Y-103382000D01*
X128249999Y-102750520D01*
X128235164Y-102656850D01*
X128235162Y-102656844D01*
X128177643Y-102543958D01*
X128177636Y-102543949D01*
X128088050Y-102454363D01*
X128088046Y-102454360D01*
X127975144Y-102396833D01*
X127881486Y-102382000D01*
X127250000Y-102382000D01*
X127250000Y-103185505D01*
X127145161Y-103137627D01*
X127036473Y-103122000D01*
X126963527Y-103122000D01*
X126854839Y-103137627D01*
X126750000Y-103185505D01*
X126750000Y-102382000D01*
X126118520Y-102382000D01*
X126024850Y-102396835D01*
X126024844Y-102396837D01*
X125911958Y-102454356D01*
X125911949Y-102454363D01*
X125822363Y-102543949D01*
X125822360Y-102543953D01*
X125764833Y-102656855D01*
X125750000Y-102750513D01*
X125750000Y-103382000D01*
X118717500Y-103382000D01*
X118717500Y-101092000D01*
X126017770Y-101092000D01*
X126036643Y-101283626D01*
X126092538Y-101467884D01*
X126183302Y-101637692D01*
X126183306Y-101637699D01*
X126305458Y-101786541D01*
X126454300Y-101908693D01*
X126454307Y-101908697D01*
X126624115Y-101999461D01*
X126624117Y-101999462D01*
X126808376Y-102055357D01*
X127000000Y-102074230D01*
X127191624Y-102055357D01*
X127375883Y-101999462D01*
X127545698Y-101908694D01*
X127694541Y-101786541D01*
X127816694Y-101637698D01*
X127907462Y-101467883D01*
X127963357Y-101283624D01*
X127982230Y-101092000D01*
X127963357Y-100900376D01*
X127907462Y-100716117D01*
X127816694Y-100546302D01*
X127816693Y-100546300D01*
X127694541Y-100397458D01*
X127545699Y-100275306D01*
X127545692Y-100275302D01*
X127375884Y-100184538D01*
X127191626Y-100128643D01*
X127000000Y-100109770D01*
X126808373Y-100128643D01*
X126624115Y-100184538D01*
X126454307Y-100275302D01*
X126454300Y-100275306D01*
X126305458Y-100397458D01*
X126183306Y-100546300D01*
X126183302Y-100546307D01*
X126092538Y-100716115D01*
X126036643Y-100900373D01*
X126017770Y-101092000D01*
X118717500Y-101092000D01*
X118717500Y-98552000D01*
X126017770Y-98552000D01*
X126036643Y-98743626D01*
X126092538Y-98927884D01*
X126183302Y-99097692D01*
X126183306Y-99097699D01*
X126305458Y-99246541D01*
X126454300Y-99368693D01*
X126454307Y-99368697D01*
X126554040Y-99422005D01*
X126624117Y-99459462D01*
X126808376Y-99515357D01*
X127000000Y-99534230D01*
X127191624Y-99515357D01*
X127375883Y-99459462D01*
X127545698Y-99368694D01*
X127694541Y-99246541D01*
X127816694Y-99097698D01*
X127907462Y-98927883D01*
X127963357Y-98743624D01*
X127982230Y-98552000D01*
X127963357Y-98360376D01*
X127907462Y-98176117D01*
X127857196Y-98082075D01*
X127816697Y-98006307D01*
X127816693Y-98006300D01*
X127694541Y-97857458D01*
X127545699Y-97735306D01*
X127545692Y-97735302D01*
X127375884Y-97644538D01*
X127191626Y-97588643D01*
X127000000Y-97569770D01*
X126808373Y-97588643D01*
X126624115Y-97644538D01*
X126454307Y-97735302D01*
X126454300Y-97735306D01*
X126305458Y-97857458D01*
X126183306Y-98006300D01*
X126183302Y-98006307D01*
X126092538Y-98176115D01*
X126036643Y-98360373D01*
X126017770Y-98552000D01*
X118717500Y-98552000D01*
X118717500Y-96012000D01*
X126017770Y-96012000D01*
X126036643Y-96203626D01*
X126092538Y-96387884D01*
X126183302Y-96557692D01*
X126183306Y-96557699D01*
X126305458Y-96706541D01*
X126454300Y-96828693D01*
X126454307Y-96828697D01*
X126624115Y-96919461D01*
X126624117Y-96919462D01*
X126808376Y-96975357D01*
X127000000Y-96994230D01*
X127191624Y-96975357D01*
X127375883Y-96919462D01*
X127545698Y-96828694D01*
X127694541Y-96706541D01*
X127816694Y-96557698D01*
X127907462Y-96387883D01*
X127963357Y-96203624D01*
X127982230Y-96012000D01*
X127963357Y-95820376D01*
X127907462Y-95636117D01*
X127816694Y-95466302D01*
X127816693Y-95466300D01*
X127694541Y-95317458D01*
X127545699Y-95195306D01*
X127545692Y-95195302D01*
X127375884Y-95104538D01*
X127191626Y-95048643D01*
X127000000Y-95029770D01*
X126808373Y-95048643D01*
X126624115Y-95104538D01*
X126454307Y-95195302D01*
X126454300Y-95195306D01*
X126305458Y-95317458D01*
X126183306Y-95466300D01*
X126183302Y-95466307D01*
X126092538Y-95636115D01*
X126036643Y-95820373D01*
X126017770Y-96012000D01*
X118717500Y-96012000D01*
X118717500Y-93472000D01*
X126017770Y-93472000D01*
X126036643Y-93663626D01*
X126092538Y-93847884D01*
X126183302Y-94017692D01*
X126183306Y-94017699D01*
X126305458Y-94166541D01*
X126454300Y-94288693D01*
X126454307Y-94288697D01*
X126624115Y-94379461D01*
X126624117Y-94379462D01*
X126808376Y-94435357D01*
X127000000Y-94454230D01*
X127191624Y-94435357D01*
X127375883Y-94379462D01*
X127545698Y-94288694D01*
X127694541Y-94166541D01*
X127816694Y-94017698D01*
X127907462Y-93847883D01*
X127963357Y-93663624D01*
X127982230Y-93472000D01*
X127963357Y-93280376D01*
X127907462Y-93096117D01*
X127816694Y-92926302D01*
X127816693Y-92926300D01*
X127694541Y-92777458D01*
X127545699Y-92655306D01*
X127545692Y-92655302D01*
X127375884Y-92564538D01*
X127191626Y-92508643D01*
X127000000Y-92489770D01*
X126808373Y-92508643D01*
X126624115Y-92564538D01*
X126454307Y-92655302D01*
X126454300Y-92655306D01*
X126305458Y-92777458D01*
X126183306Y-92926300D01*
X126183302Y-92926307D01*
X126092538Y-93096115D01*
X126036643Y-93280373D01*
X126017770Y-93472000D01*
X118717500Y-93472000D01*
X118717500Y-90682000D01*
X125750000Y-90682000D01*
X126554428Y-90682000D01*
X126531318Y-90717960D01*
X126490000Y-90858673D01*
X126490000Y-91005327D01*
X126531318Y-91146040D01*
X126554428Y-91182000D01*
X125750001Y-91182000D01*
X125750001Y-91813479D01*
X125764835Y-91907149D01*
X125764837Y-91907155D01*
X125822356Y-92020041D01*
X125822363Y-92020050D01*
X125911949Y-92109636D01*
X125911953Y-92109639D01*
X126024855Y-92167166D01*
X126118514Y-92181999D01*
X126749999Y-92181999D01*
X126750000Y-92181998D01*
X126750000Y-91378494D01*
X126854839Y-91426373D01*
X126963527Y-91442000D01*
X127036473Y-91442000D01*
X127145161Y-91426373D01*
X127250000Y-91378494D01*
X127250000Y-92181999D01*
X127881479Y-92181999D01*
X127975149Y-92167164D01*
X127975155Y-92167162D01*
X128088041Y-92109643D01*
X128088050Y-92109636D01*
X128177636Y-92020050D01*
X128177639Y-92020046D01*
X128235166Y-91907144D01*
X128250000Y-91813486D01*
X128250000Y-91182000D01*
X127445572Y-91182000D01*
X127468682Y-91146040D01*
X127510000Y-91005327D01*
X127510000Y-90858673D01*
X127468682Y-90717960D01*
X127445572Y-90682000D01*
X128249999Y-90682000D01*
X128249999Y-90050520D01*
X128235164Y-89956850D01*
X128235162Y-89956844D01*
X128177643Y-89843958D01*
X128177636Y-89843949D01*
X128088050Y-89754363D01*
X128088046Y-89754360D01*
X127975144Y-89696833D01*
X127881486Y-89682000D01*
X127250000Y-89682000D01*
X127250000Y-90485505D01*
X127145161Y-90437627D01*
X127036473Y-90422000D01*
X126963527Y-90422000D01*
X126854839Y-90437627D01*
X126750000Y-90485505D01*
X126750000Y-89682000D01*
X126118520Y-89682000D01*
X126024850Y-89696835D01*
X126024844Y-89696837D01*
X125911958Y-89754356D01*
X125911949Y-89754363D01*
X125822363Y-89843949D01*
X125822360Y-89843953D01*
X125764833Y-89956855D01*
X125750000Y-90050513D01*
X125750000Y-90682000D01*
X118717500Y-90682000D01*
X118717500Y-88392000D01*
X126017770Y-88392000D01*
X126036643Y-88583626D01*
X126092538Y-88767884D01*
X126183302Y-88937692D01*
X126183306Y-88937699D01*
X126305458Y-89086541D01*
X126454300Y-89208693D01*
X126454307Y-89208697D01*
X126624115Y-89299461D01*
X126624117Y-89299462D01*
X126808376Y-89355357D01*
X127000000Y-89374230D01*
X127191624Y-89355357D01*
X127375883Y-89299462D01*
X127545698Y-89208694D01*
X127694541Y-89086541D01*
X127816694Y-88937698D01*
X127907462Y-88767883D01*
X127963357Y-88583624D01*
X127982230Y-88392000D01*
X127963357Y-88200376D01*
X127907462Y-88016117D01*
X127816694Y-87846302D01*
X127816693Y-87846300D01*
X127694541Y-87697458D01*
X127545699Y-87575306D01*
X127545692Y-87575302D01*
X127375884Y-87484538D01*
X127191626Y-87428643D01*
X127000000Y-87409770D01*
X126808373Y-87428643D01*
X126624115Y-87484538D01*
X126454307Y-87575302D01*
X126454300Y-87575306D01*
X126305458Y-87697458D01*
X126183306Y-87846300D01*
X126183302Y-87846307D01*
X126092538Y-88016115D01*
X126036643Y-88200373D01*
X126017770Y-88392000D01*
X118717500Y-88392000D01*
X118717500Y-85852000D01*
X126017770Y-85852000D01*
X126036643Y-86043626D01*
X126092538Y-86227884D01*
X126183302Y-86397692D01*
X126183306Y-86397699D01*
X126305458Y-86546541D01*
X126454300Y-86668693D01*
X126454307Y-86668697D01*
X126624115Y-86759461D01*
X126624117Y-86759462D01*
X126808376Y-86815357D01*
X127000000Y-86834230D01*
X127191624Y-86815357D01*
X127375883Y-86759462D01*
X127545698Y-86668694D01*
X127694541Y-86546541D01*
X127816694Y-86397698D01*
X127907462Y-86227883D01*
X127963357Y-86043624D01*
X127982230Y-85852000D01*
X127963357Y-85660376D01*
X127907462Y-85476117D01*
X127816694Y-85306302D01*
X127816693Y-85306300D01*
X127694541Y-85157458D01*
X127545699Y-85035306D01*
X127545692Y-85035302D01*
X127375884Y-84944538D01*
X127191626Y-84888643D01*
X127000000Y-84869770D01*
X126808373Y-84888643D01*
X126624115Y-84944538D01*
X126454307Y-85035302D01*
X126454300Y-85035306D01*
X126305458Y-85157458D01*
X126183306Y-85306300D01*
X126183302Y-85306307D01*
X126092538Y-85476115D01*
X126036643Y-85660373D01*
X126017770Y-85852000D01*
X118717500Y-85852000D01*
X118717500Y-83312000D01*
X126017770Y-83312000D01*
X126036643Y-83503626D01*
X126092538Y-83687884D01*
X126183302Y-83857692D01*
X126183306Y-83857699D01*
X126305458Y-84006541D01*
X126454300Y-84128693D01*
X126454307Y-84128697D01*
X126587313Y-84199790D01*
X126624117Y-84219462D01*
X126808376Y-84275357D01*
X127000000Y-84294230D01*
X127191624Y-84275357D01*
X127375883Y-84219462D01*
X127545698Y-84128694D01*
X127694541Y-84006541D01*
X127816694Y-83857698D01*
X127907462Y-83687883D01*
X127963357Y-83503624D01*
X127981442Y-83320005D01*
X143187608Y-83320005D01*
X143207143Y-83555760D01*
X143265219Y-83785097D01*
X143360248Y-84001742D01*
X143489638Y-84199790D01*
X143518615Y-84231267D01*
X143649867Y-84373845D01*
X143836556Y-84519151D01*
X144044615Y-84631746D01*
X144268369Y-84708561D01*
X144501714Y-84747500D01*
X144501715Y-84747500D01*
X144738285Y-84747500D01*
X144738286Y-84747500D01*
X144971631Y-84708561D01*
X145195385Y-84631746D01*
X145403444Y-84519151D01*
X145590133Y-84373845D01*
X145750359Y-84199793D01*
X145879751Y-84001743D01*
X145974781Y-83785097D01*
X146032856Y-83555764D01*
X146052392Y-83320000D01*
X146051729Y-83312000D01*
X146035850Y-83120373D01*
X146032856Y-83084236D01*
X145974781Y-82854903D01*
X145879751Y-82638257D01*
X145786357Y-82495306D01*
X145750361Y-82440209D01*
X145666068Y-82348643D01*
X145590133Y-82266155D01*
X145519992Y-82211562D01*
X145403446Y-82120850D01*
X145403441Y-82120847D01*
X145195391Y-82008257D01*
X145195388Y-82008255D01*
X145195385Y-82008254D01*
X145195382Y-82008253D01*
X145195380Y-82008252D01*
X144971633Y-81931439D01*
X144816067Y-81905479D01*
X144738286Y-81892500D01*
X144501714Y-81892500D01*
X144443377Y-81902234D01*
X144268366Y-81931439D01*
X144044619Y-82008252D01*
X144044608Y-82008257D01*
X143836558Y-82120847D01*
X143836553Y-82120850D01*
X143649869Y-82266153D01*
X143489638Y-82440209D01*
X143360248Y-82638257D01*
X143265219Y-82854902D01*
X143207143Y-83084239D01*
X143187608Y-83319994D01*
X143187608Y-83320005D01*
X127981442Y-83320005D01*
X127982230Y-83312000D01*
X127963357Y-83120376D01*
X127907462Y-82936117D01*
X127816694Y-82766302D01*
X127816693Y-82766300D01*
X127694541Y-82617458D01*
X127545699Y-82495306D01*
X127545692Y-82495302D01*
X127375884Y-82404538D01*
X127191626Y-82348643D01*
X127000000Y-82329770D01*
X126808373Y-82348643D01*
X126624115Y-82404538D01*
X126454307Y-82495302D01*
X126454300Y-82495306D01*
X126305458Y-82617458D01*
X126183306Y-82766300D01*
X126183302Y-82766307D01*
X126092538Y-82936115D01*
X126036643Y-83120373D01*
X126017770Y-83312000D01*
X118717500Y-83312000D01*
X118717500Y-80772000D01*
X126017770Y-80772000D01*
X126036643Y-80963626D01*
X126092538Y-81147884D01*
X126183302Y-81317692D01*
X126183306Y-81317699D01*
X126305458Y-81466541D01*
X126454300Y-81588693D01*
X126454307Y-81588697D01*
X126624115Y-81679461D01*
X126624117Y-81679462D01*
X126808376Y-81735357D01*
X127000000Y-81754230D01*
X127191624Y-81735357D01*
X127375883Y-81679462D01*
X127545698Y-81588694D01*
X127694541Y-81466541D01*
X127816694Y-81317698D01*
X127907462Y-81147883D01*
X127963357Y-80963624D01*
X127982230Y-80772000D01*
X127963357Y-80580376D01*
X127907462Y-80396117D01*
X127816694Y-80226302D01*
X127816693Y-80226300D01*
X127694541Y-80077458D01*
X127545699Y-79955306D01*
X127545692Y-79955302D01*
X127375884Y-79864538D01*
X127191626Y-79808643D01*
X127000000Y-79789770D01*
X126808373Y-79808643D01*
X126624115Y-79864538D01*
X126454307Y-79955302D01*
X126454300Y-79955306D01*
X126305458Y-80077458D01*
X126183306Y-80226300D01*
X126183302Y-80226307D01*
X126092538Y-80396115D01*
X126036643Y-80580373D01*
X126017770Y-80772000D01*
X118717500Y-80772000D01*
X118717500Y-80076833D01*
X118737185Y-80009794D01*
X118753814Y-79989157D01*
X120760971Y-77982000D01*
X125750000Y-77982000D01*
X126554428Y-77982000D01*
X126531318Y-78017960D01*
X126490000Y-78158673D01*
X126490000Y-78305327D01*
X126531318Y-78446040D01*
X126554428Y-78482000D01*
X125750001Y-78482000D01*
X125750001Y-79113479D01*
X125764835Y-79207149D01*
X125764837Y-79207155D01*
X125822356Y-79320041D01*
X125822363Y-79320050D01*
X125911949Y-79409636D01*
X125911953Y-79409639D01*
X126024855Y-79467166D01*
X126118514Y-79481999D01*
X126749999Y-79481999D01*
X126750000Y-79481998D01*
X126750000Y-78678494D01*
X126854839Y-78726373D01*
X126963527Y-78742000D01*
X127036473Y-78742000D01*
X127145161Y-78726373D01*
X127250000Y-78678494D01*
X127250000Y-79481999D01*
X127881479Y-79481999D01*
X127975149Y-79467164D01*
X127975155Y-79467162D01*
X128088041Y-79409643D01*
X128088050Y-79409636D01*
X128177636Y-79320050D01*
X128177639Y-79320046D01*
X128235166Y-79207144D01*
X128250000Y-79113486D01*
X128250000Y-78482000D01*
X127445572Y-78482000D01*
X127468682Y-78446040D01*
X127510000Y-78305327D01*
X127510000Y-78240005D01*
X143187608Y-78240005D01*
X143207143Y-78475760D01*
X143265219Y-78705097D01*
X143360248Y-78921742D01*
X143489638Y-79119790D01*
X143489641Y-79119793D01*
X143649867Y-79293845D01*
X143836556Y-79439151D01*
X144044615Y-79551746D01*
X144268369Y-79628561D01*
X144501714Y-79667500D01*
X144501715Y-79667500D01*
X144738285Y-79667500D01*
X144738286Y-79667500D01*
X144971631Y-79628561D01*
X145195385Y-79551746D01*
X145403444Y-79439151D01*
X145590133Y-79293845D01*
X145750359Y-79119793D01*
X145879751Y-78921743D01*
X145974781Y-78705097D01*
X146032856Y-78475764D01*
X146052392Y-78240000D01*
X146032856Y-78004236D01*
X145974781Y-77774903D01*
X145879751Y-77558257D01*
X145756393Y-77369442D01*
X145750361Y-77360209D01*
X145724623Y-77332250D01*
X145590133Y-77186155D01*
X145420807Y-77054363D01*
X145403446Y-77040850D01*
X145403441Y-77040847D01*
X145195391Y-76928257D01*
X145195388Y-76928255D01*
X145195385Y-76928254D01*
X145195382Y-76928253D01*
X145195380Y-76928252D01*
X144971633Y-76851439D01*
X144816067Y-76825479D01*
X144738286Y-76812500D01*
X144501714Y-76812500D01*
X144443377Y-76822234D01*
X144268366Y-76851439D01*
X144044619Y-76928252D01*
X144044608Y-76928257D01*
X143836558Y-77040847D01*
X143836553Y-77040850D01*
X143649869Y-77186153D01*
X143489638Y-77360209D01*
X143360248Y-77558257D01*
X143265219Y-77774902D01*
X143207143Y-78004239D01*
X143187608Y-78239994D01*
X143187608Y-78240005D01*
X127510000Y-78240005D01*
X127510000Y-78158673D01*
X127468682Y-78017960D01*
X127445572Y-77982000D01*
X128249999Y-77982000D01*
X128249999Y-77350520D01*
X128235164Y-77256850D01*
X128235162Y-77256844D01*
X128177643Y-77143958D01*
X128177636Y-77143949D01*
X128088050Y-77054363D01*
X128088046Y-77054360D01*
X127975144Y-76996833D01*
X127881486Y-76982000D01*
X127250000Y-76982000D01*
X127250000Y-77785505D01*
X127145161Y-77737627D01*
X127036473Y-77722000D01*
X126963527Y-77722000D01*
X126854839Y-77737627D01*
X126750000Y-77785505D01*
X126750000Y-76982000D01*
X126118520Y-76982000D01*
X126024850Y-76996835D01*
X126024844Y-76996837D01*
X125911958Y-77054356D01*
X125911949Y-77054363D01*
X125822363Y-77143949D01*
X125822360Y-77143953D01*
X125764833Y-77256855D01*
X125750000Y-77350513D01*
X125750000Y-77982000D01*
X120760971Y-77982000D01*
X123050971Y-75692000D01*
X126017770Y-75692000D01*
X126036643Y-75883626D01*
X126092538Y-76067884D01*
X126183302Y-76237692D01*
X126183306Y-76237699D01*
X126305458Y-76386541D01*
X126454300Y-76508693D01*
X126454307Y-76508697D01*
X126624115Y-76599461D01*
X126624117Y-76599462D01*
X126808376Y-76655357D01*
X127000000Y-76674230D01*
X127191624Y-76655357D01*
X127375883Y-76599462D01*
X127545698Y-76508694D01*
X127694541Y-76386541D01*
X127816694Y-76237698D01*
X127907462Y-76067883D01*
X127963357Y-75883624D01*
X127982230Y-75692000D01*
X127963357Y-75500376D01*
X127907462Y-75316117D01*
X127816694Y-75146302D01*
X127816693Y-75146300D01*
X127694541Y-74997458D01*
X127545699Y-74875306D01*
X127545692Y-74875302D01*
X127375884Y-74784538D01*
X127191626Y-74728643D01*
X127000000Y-74709770D01*
X126808373Y-74728643D01*
X126624115Y-74784538D01*
X126454307Y-74875302D01*
X126454300Y-74875306D01*
X126305458Y-74997458D01*
X126183306Y-75146300D01*
X126183302Y-75146307D01*
X126092538Y-75316115D01*
X126036643Y-75500373D01*
X126017770Y-75692000D01*
X123050971Y-75692000D01*
X125819347Y-72923623D01*
X125880668Y-72890140D01*
X125950360Y-72895124D01*
X126006293Y-72936996D01*
X126030710Y-73002460D01*
X126030429Y-73023459D01*
X126017770Y-73151999D01*
X126036643Y-73343626D01*
X126092538Y-73527884D01*
X126183302Y-73697692D01*
X126183306Y-73697699D01*
X126305458Y-73846541D01*
X126454300Y-73968693D01*
X126454307Y-73968697D01*
X126587313Y-74039790D01*
X126624117Y-74059462D01*
X126808376Y-74115357D01*
X127000000Y-74134230D01*
X127191624Y-74115357D01*
X127375883Y-74059462D01*
X127545698Y-73968694D01*
X127694541Y-73846541D01*
X127816694Y-73697698D01*
X127907462Y-73527883D01*
X127963357Y-73343624D01*
X127981442Y-73160005D01*
X143187608Y-73160005D01*
X143207143Y-73395760D01*
X143265219Y-73625097D01*
X143360248Y-73841742D01*
X143489638Y-74039790D01*
X143518615Y-74071267D01*
X143649867Y-74213845D01*
X143836556Y-74359151D01*
X144044615Y-74471746D01*
X144268369Y-74548561D01*
X144501714Y-74587500D01*
X144501715Y-74587500D01*
X144738285Y-74587500D01*
X144738286Y-74587500D01*
X144971631Y-74548561D01*
X145195385Y-74471746D01*
X145403444Y-74359151D01*
X145590133Y-74213845D01*
X145750359Y-74039793D01*
X145879751Y-73841743D01*
X145974781Y-73625097D01*
X146032856Y-73395764D01*
X146052392Y-73160000D01*
X146051729Y-73152000D01*
X146032856Y-72924239D01*
X146032856Y-72924236D01*
X145974781Y-72694903D01*
X145879751Y-72478257D01*
X145848824Y-72430920D01*
X145750361Y-72280209D01*
X145660348Y-72182429D01*
X145590133Y-72106155D01*
X145480834Y-72021084D01*
X145403446Y-71960850D01*
X145403441Y-71960847D01*
X145195391Y-71848257D01*
X145195388Y-71848255D01*
X145195385Y-71848254D01*
X145195382Y-71848253D01*
X145195380Y-71848252D01*
X144971633Y-71771439D01*
X144797792Y-71742430D01*
X144738286Y-71732500D01*
X144501714Y-71732500D01*
X144443377Y-71742234D01*
X144268366Y-71771439D01*
X144044619Y-71848252D01*
X144044608Y-71848257D01*
X143836558Y-71960847D01*
X143836553Y-71960850D01*
X143649869Y-72106153D01*
X143489638Y-72280209D01*
X143360248Y-72478257D01*
X143265219Y-72694902D01*
X143207143Y-72924239D01*
X143187608Y-73159994D01*
X143187608Y-73160005D01*
X127981442Y-73160005D01*
X127982230Y-73152000D01*
X127963357Y-72960376D01*
X127907462Y-72776117D01*
X127816694Y-72606302D01*
X127816693Y-72606300D01*
X127694541Y-72457458D01*
X127545699Y-72335306D01*
X127545692Y-72335302D01*
X127375884Y-72244538D01*
X127191626Y-72188643D01*
X127000000Y-72169770D01*
X126999999Y-72169770D01*
X126871459Y-72182429D01*
X126802813Y-72169410D01*
X126752103Y-72121344D01*
X126735429Y-72053493D01*
X126758086Y-71987399D01*
X126771619Y-71971351D01*
X127135198Y-71607772D01*
X127186882Y-71576794D01*
X127191616Y-71575357D01*
X127191624Y-71575357D01*
X127375883Y-71519462D01*
X127545698Y-71428694D01*
X127694541Y-71306541D01*
X127816694Y-71157698D01*
X127907462Y-70987883D01*
X127963357Y-70803624D01*
X127982230Y-70612000D01*
X127963357Y-70420376D01*
X127907462Y-70236117D01*
X127907461Y-70236115D01*
X127816697Y-70066307D01*
X127816693Y-70066300D01*
X127694541Y-69917458D01*
X127545699Y-69795306D01*
X127545692Y-69795302D01*
X127375884Y-69704538D01*
X127191626Y-69648643D01*
X127000000Y-69629770D01*
X126808373Y-69648643D01*
X126624115Y-69704538D01*
X126454307Y-69795302D01*
X126454300Y-69795306D01*
X126305458Y-69917458D01*
X126183307Y-70066300D01*
X126183305Y-70066303D01*
X126178859Y-70074620D01*
X126157186Y-70103840D01*
X117248290Y-79012735D01*
X117240887Y-79019560D01*
X117199187Y-79054981D01*
X117199184Y-79054984D01*
X117149648Y-79120144D01*
X117147585Y-79122783D01*
X117096269Y-79186626D01*
X117096171Y-79186825D01*
X117083812Y-79206751D01*
X117083679Y-79206925D01*
X117083669Y-79206941D01*
X117049295Y-79281238D01*
X117047846Y-79284262D01*
X117011474Y-79357602D01*
X117011466Y-79357624D01*
X117011412Y-79357844D01*
X117003632Y-79379941D01*
X117003534Y-79380152D01*
X117003528Y-79380168D01*
X116985926Y-79460132D01*
X116985161Y-79463398D01*
X116965405Y-79542841D01*
X116965399Y-79543073D01*
X116962551Y-79566335D01*
X116962500Y-79566566D01*
X116962500Y-79648429D01*
X116962455Y-79651786D01*
X116960238Y-79733635D01*
X116960278Y-79733844D01*
X116962500Y-79757213D01*
X116962500Y-107449297D01*
X116962091Y-107459359D01*
X116957650Y-107513902D01*
X116957832Y-107520629D01*
X116957196Y-107520646D01*
X116957371Y-107527177D01*
X116957467Y-107527175D01*
X116957649Y-107533900D01*
X116959524Y-107547660D01*
X116960614Y-107567747D01*
X116960238Y-107581637D01*
X116960238Y-107581638D01*
X116973109Y-107648722D01*
X116974194Y-107655343D01*
X116983416Y-107723021D01*
X116983418Y-107723029D01*
X116988204Y-107736057D01*
X116993586Y-107755438D01*
X116996204Y-107769081D01*
X117023193Y-107831821D01*
X117025678Y-107838058D01*
X117049236Y-107902181D01*
X117049236Y-107902182D01*
X117056715Y-107913882D01*
X117066143Y-107931666D01*
X117071627Y-107944416D01*
X117071628Y-107944418D01*
X117071629Y-107944419D01*
X117111500Y-107999926D01*
X117115223Y-108005417D01*
X117152032Y-108063004D01*
X117152037Y-108063009D01*
X117161846Y-108072818D01*
X117174876Y-108088157D01*
X117182978Y-108099437D01*
X117182982Y-108099441D01*
X117233823Y-108145052D01*
X117238699Y-108149671D01*
X122596181Y-113507153D01*
X122629666Y-113568476D01*
X122632500Y-113594834D01*
X122632500Y-116530371D01*
X122612815Y-116597410D01*
X122560011Y-116643165D01*
X122490853Y-116653109D01*
X122427297Y-116624084D01*
X122420819Y-116618052D01*
X122406554Y-116603787D01*
X122227387Y-116478333D01*
X122029159Y-116385898D01*
X122029150Y-116385894D01*
X121850000Y-116337891D01*
X121850000Y-117129498D01*
X121742315Y-117080320D01*
X121635763Y-117065000D01*
X121564237Y-117065000D01*
X121457685Y-117080320D01*
X121350000Y-117129498D01*
X121350000Y-116337892D01*
X121349999Y-116337891D01*
X121170849Y-116385894D01*
X121170840Y-116385898D01*
X120972612Y-116478333D01*
X120972608Y-116478335D01*
X120793450Y-116603783D01*
X120793444Y-116603788D01*
X120638788Y-116758444D01*
X120638783Y-116758450D01*
X120513335Y-116937608D01*
X120513333Y-116937612D01*
X120420898Y-117135840D01*
X120420894Y-117135849D01*
X120372891Y-117314999D01*
X120372892Y-117315000D01*
X121166314Y-117315000D01*
X121140507Y-117355156D01*
X121100000Y-117493111D01*
X121100000Y-117636889D01*
X121140507Y-117774844D01*
X121166314Y-117815000D01*
X120372892Y-117815000D01*
X120420894Y-117994150D01*
X120420898Y-117994159D01*
X120513333Y-118192387D01*
X120638787Y-118371554D01*
X120793445Y-118526212D01*
X120972612Y-118651666D01*
X121170843Y-118744103D01*
X121350000Y-118792106D01*
X121350000Y-118000501D01*
X121457685Y-118049680D01*
X121564237Y-118065000D01*
X121635763Y-118065000D01*
X121742315Y-118049680D01*
X121850000Y-118000501D01*
X121850000Y-118792105D01*
X122029156Y-118744103D01*
X122029157Y-118744103D01*
X122227387Y-118651666D01*
X122406554Y-118526212D01*
X122406557Y-118526209D01*
X122420819Y-118511948D01*
X122482142Y-118478463D01*
X122551834Y-118483447D01*
X122607767Y-118525319D01*
X122632184Y-118590783D01*
X122632500Y-118599629D01*
X122632500Y-119010209D01*
X122612815Y-119077248D01*
X122560011Y-119123003D01*
X122490853Y-119132947D01*
X122484307Y-119131826D01*
X122462560Y-119127500D01*
X122462558Y-119127500D01*
X120737442Y-119127500D01*
X120737441Y-119127500D01*
X120700250Y-119134898D01*
X120658077Y-119163077D01*
X120629898Y-119205250D01*
X120622500Y-119242441D01*
X120622500Y-120545165D01*
X120602815Y-120612204D01*
X120586181Y-120632846D01*
X120242846Y-120976181D01*
X120181523Y-121009666D01*
X120155165Y-121012500D01*
X115189834Y-121012500D01*
X115122795Y-120992815D01*
X115102153Y-120976181D01*
X113883819Y-119757846D01*
X113850334Y-119696523D01*
X113847500Y-119670165D01*
X113847500Y-119122441D01*
X113845662Y-119113205D01*
X113840102Y-119085252D01*
X113834754Y-119077248D01*
X113811922Y-119043077D01*
X113769749Y-119014898D01*
X113732559Y-119007500D01*
X113732558Y-119007500D01*
X112007442Y-119007500D01*
X112007441Y-119007500D01*
X111970250Y-119014898D01*
X111928077Y-119043077D01*
X111899898Y-119085250D01*
X111892500Y-119122441D01*
X111892500Y-120847558D01*
X111899898Y-120884749D01*
X111928077Y-120926922D01*
X111970250Y-120955101D01*
X111970252Y-120955102D01*
X111998205Y-120960662D01*
X112007441Y-120962500D01*
X112007442Y-120962500D01*
X112555166Y-120962500D01*
X112622205Y-120982185D01*
X112642847Y-120998819D01*
X114125729Y-122481701D01*
X114132555Y-122489105D01*
X114167986Y-122530817D01*
X114233183Y-122580379D01*
X114235808Y-122582432D01*
X114299614Y-122633722D01*
X114299616Y-122633723D01*
X114299620Y-122633726D01*
X114299811Y-122633820D01*
X114319760Y-122646194D01*
X114319934Y-122646326D01*
X114319936Y-122646327D01*
X114319939Y-122646329D01*
X114366948Y-122668077D01*
X114394286Y-122680724D01*
X114397249Y-122682145D01*
X114470613Y-122718530D01*
X114470820Y-122718581D01*
X114492961Y-122726376D01*
X114493161Y-122726469D01*
X114493164Y-122726469D01*
X114493165Y-122726470D01*
X114493164Y-122726470D01*
X114573113Y-122744068D01*
X114576382Y-122744834D01*
X114583411Y-122746582D01*
X114655839Y-122764594D01*
X114656044Y-122764599D01*
X114679363Y-122767455D01*
X114679566Y-122767500D01*
X114761408Y-122767500D01*
X114764766Y-122767545D01*
X114846637Y-122769763D01*
X114846852Y-122769721D01*
X114870218Y-122767500D01*
X120529297Y-122767500D01*
X120539359Y-122767908D01*
X120593902Y-122772350D01*
X120675032Y-122761296D01*
X120678337Y-122760891D01*
X120759749Y-122752038D01*
X120759935Y-122751975D01*
X120782824Y-122746610D01*
X120783023Y-122746583D01*
X120859881Y-122718345D01*
X120863010Y-122717243D01*
X120940625Y-122691093D01*
X120940801Y-122690986D01*
X120961986Y-122680835D01*
X120962183Y-122680763D01*
X121031193Y-122636651D01*
X121033994Y-122634914D01*
X121104172Y-122592691D01*
X121104322Y-122592548D01*
X121122828Y-122578079D01*
X121123004Y-122577968D01*
X121180916Y-122520054D01*
X121183248Y-122517784D01*
X121242741Y-122461431D01*
X121242861Y-122461253D01*
X121257811Y-122443160D01*
X122191717Y-121509254D01*
X122199097Y-121502449D01*
X122240817Y-121467014D01*
X122290361Y-121401838D01*
X122292411Y-121399217D01*
X122343726Y-121335380D01*
X122343816Y-121335196D01*
X122356205Y-121315223D01*
X122356326Y-121315066D01*
X122390713Y-121240736D01*
X122392129Y-121237781D01*
X122397414Y-121227125D01*
X122444836Y-121175816D01*
X122512472Y-121158289D01*
X122578846Y-121180110D01*
X122622886Y-121234353D01*
X122632500Y-121282225D01*
X122632500Y-126315164D01*
X122612815Y-126382203D01*
X122596181Y-126402845D01*
X120478290Y-128520735D01*
X120470887Y-128527560D01*
X120429187Y-128562981D01*
X120429184Y-128562984D01*
X120379648Y-128628144D01*
X120377585Y-128630783D01*
X120326269Y-128694626D01*
X120326171Y-128694825D01*
X120313812Y-128714751D01*
X120313679Y-128714925D01*
X120313669Y-128714941D01*
X120279295Y-128789238D01*
X120277846Y-128792262D01*
X120241474Y-128865602D01*
X120241466Y-128865624D01*
X120241412Y-128865844D01*
X120233632Y-128887941D01*
X120233534Y-128888152D01*
X120233528Y-128888168D01*
X120215926Y-128968132D01*
X120215161Y-128971398D01*
X120195405Y-129050841D01*
X120195399Y-129051073D01*
X120192551Y-129074335D01*
X120192500Y-129074566D01*
X120192500Y-129156429D01*
X120192455Y-129159786D01*
X120190238Y-129241635D01*
X120190278Y-129241844D01*
X120192500Y-129265213D01*
X120192500Y-141405165D01*
X120172815Y-141472204D01*
X120156181Y-141492846D01*
X119995878Y-141653148D01*
X119995864Y-141653164D01*
X119906273Y-141764620D01*
X119821471Y-141935610D01*
X119821470Y-141935611D01*
X119815444Y-141959843D01*
X119775406Y-142120839D01*
X119771229Y-142275060D01*
X119770238Y-142311638D01*
X119799801Y-142465703D01*
X119806206Y-142499085D01*
X119881629Y-142674419D01*
X119992980Y-142829439D01*
X120135053Y-142956898D01*
X120153908Y-142967558D01*
X120202578Y-143017688D01*
X120216419Y-143086173D01*
X120191037Y-143151269D01*
X120134491Y-143192310D01*
X120092879Y-143199500D01*
X76924500Y-143199500D01*
X76857461Y-143179815D01*
X76811706Y-143127011D01*
X76800500Y-143075500D01*
X76800500Y-140562306D01*
X78161828Y-140562306D01*
X78171613Y-140792662D01*
X78171614Y-140792670D01*
X78220190Y-141018062D01*
X78220190Y-141018063D01*
X78306157Y-141232002D01*
X78427048Y-141428342D01*
X78579380Y-141601425D01*
X78579384Y-141601429D01*
X78758765Y-141746269D01*
X78758766Y-141746270D01*
X78758769Y-141746271D01*
X78758772Y-141746274D01*
X78960063Y-141858721D01*
X79177462Y-141935533D01*
X79304272Y-141957277D01*
X79404706Y-141974499D01*
X79404715Y-141974500D01*
X79577534Y-141974500D01*
X79577535Y-141974500D01*
X79577536Y-141974499D01*
X79577553Y-141974499D01*
X79749734Y-141959844D01*
X79749737Y-141959843D01*
X79749739Y-141959843D01*
X79972869Y-141901745D01*
X80131074Y-141830232D01*
X80182965Y-141806776D01*
X80182967Y-141806775D01*
X80182967Y-141806774D01*
X80182971Y-141806773D01*
X80374000Y-141677659D01*
X80540462Y-141518119D01*
X80677566Y-141332742D01*
X80781370Y-141126860D01*
X80848886Y-140906397D01*
X80878172Y-140677694D01*
X80868386Y-140447332D01*
X80819810Y-140221938D01*
X80733841Y-140007994D01*
X80612951Y-139811657D01*
X80460620Y-139638575D01*
X80460619Y-139638574D01*
X80460615Y-139638570D01*
X80281234Y-139493730D01*
X80281233Y-139493729D01*
X80079938Y-139381279D01*
X79862541Y-139304468D01*
X79862540Y-139304467D01*
X79862538Y-139304467D01*
X79862534Y-139304466D01*
X79862533Y-139304466D01*
X79635293Y-139265500D01*
X79635285Y-139265500D01*
X79462465Y-139265500D01*
X79462446Y-139265500D01*
X79290265Y-139280155D01*
X79067131Y-139338254D01*
X78857034Y-139433223D01*
X78857032Y-139433224D01*
X78665999Y-139562342D01*
X78499540Y-139721878D01*
X78362434Y-139907257D01*
X78258630Y-140113138D01*
X78191113Y-140333606D01*
X78161828Y-140562306D01*
X76800500Y-140562306D01*
X76800500Y-123359999D01*
X77447891Y-123359999D01*
X77447892Y-123360000D01*
X78241314Y-123360000D01*
X78215507Y-123400156D01*
X78175000Y-123538111D01*
X78175000Y-123681889D01*
X78215507Y-123819844D01*
X78241314Y-123860000D01*
X77447892Y-123860000D01*
X77495894Y-124039150D01*
X77495898Y-124039159D01*
X77588333Y-124237387D01*
X77713787Y-124416554D01*
X77868445Y-124571212D01*
X78047612Y-124696666D01*
X78245843Y-124789103D01*
X78425000Y-124837106D01*
X78425000Y-124045501D01*
X78532685Y-124094680D01*
X78639237Y-124110000D01*
X78710763Y-124110000D01*
X78817315Y-124094680D01*
X78925000Y-124045501D01*
X78925000Y-124837105D01*
X79104156Y-124789103D01*
X79104157Y-124789103D01*
X79302387Y-124696666D01*
X79481554Y-124571212D01*
X79580208Y-124472558D01*
X80237500Y-124472558D01*
X80244898Y-124509749D01*
X80273077Y-124551922D01*
X80315250Y-124580101D01*
X80315252Y-124580102D01*
X80343205Y-124585662D01*
X80352441Y-124587500D01*
X80352442Y-124587500D01*
X82077559Y-124587500D01*
X82084957Y-124586028D01*
X82114748Y-124580102D01*
X82156922Y-124551922D01*
X82185102Y-124509748D01*
X82192500Y-124472558D01*
X82192500Y-122747442D01*
X82185102Y-122710252D01*
X82185101Y-122710250D01*
X82156922Y-122668077D01*
X82114749Y-122639898D01*
X82077559Y-122632500D01*
X82077558Y-122632500D01*
X80352442Y-122632500D01*
X80352441Y-122632500D01*
X80315250Y-122639898D01*
X80273077Y-122668077D01*
X80244898Y-122710250D01*
X80237500Y-122747441D01*
X80237500Y-124472558D01*
X79580208Y-124472558D01*
X79636212Y-124416554D01*
X79761666Y-124237387D01*
X79854101Y-124039159D01*
X79854105Y-124039150D01*
X79902108Y-123860000D01*
X79108686Y-123860000D01*
X79134493Y-123819844D01*
X79175000Y-123681889D01*
X79175000Y-123538111D01*
X79134493Y-123400156D01*
X79108686Y-123360000D01*
X79902108Y-123360000D01*
X79902108Y-123359999D01*
X79854105Y-123180849D01*
X79854101Y-123180840D01*
X79761666Y-122982612D01*
X79761664Y-122982608D01*
X79636216Y-122803450D01*
X79636211Y-122803444D01*
X79481554Y-122648787D01*
X79302387Y-122523333D01*
X79104159Y-122430898D01*
X79104150Y-122430894D01*
X78925000Y-122382891D01*
X78925000Y-123174498D01*
X78817315Y-123125320D01*
X78710763Y-123110000D01*
X78639237Y-123110000D01*
X78532685Y-123125320D01*
X78425000Y-123174498D01*
X78425000Y-122382892D01*
X78424999Y-122382891D01*
X78245849Y-122430894D01*
X78245840Y-122430898D01*
X78047612Y-122523333D01*
X78047608Y-122523335D01*
X77868450Y-122648783D01*
X77868444Y-122648788D01*
X77713788Y-122803444D01*
X77713783Y-122803450D01*
X77588335Y-122982608D01*
X77588333Y-122982612D01*
X77495898Y-123180840D01*
X77495894Y-123180849D01*
X77447891Y-123359999D01*
X76800500Y-123359999D01*
X76800500Y-117645000D01*
X77879529Y-117645000D01*
X77942685Y-117815527D01*
X77942687Y-117815531D01*
X78044892Y-117979503D01*
X78178002Y-118119534D01*
X78178003Y-118119535D01*
X78336586Y-118229913D01*
X78514137Y-118306106D01*
X78703394Y-118345000D01*
X78850000Y-118345000D01*
X78850000Y-117695000D01*
X79350000Y-117695000D01*
X79350000Y-118345000D01*
X79448176Y-118345000D01*
X79592221Y-118330352D01*
X79776561Y-118272515D01*
X79776571Y-118272510D01*
X79945498Y-118178748D01*
X79945505Y-118178743D01*
X80092105Y-118052892D01*
X80210368Y-117900109D01*
X80210370Y-117900105D01*
X80295457Y-117726643D01*
X80316596Y-117645000D01*
X81679529Y-117645000D01*
X81742685Y-117815527D01*
X81742687Y-117815531D01*
X81844892Y-117979503D01*
X81978002Y-118119534D01*
X81978003Y-118119535D01*
X82136586Y-118229913D01*
X82314137Y-118306106D01*
X82503394Y-118345000D01*
X82650000Y-118345000D01*
X82650000Y-117695000D01*
X83150000Y-117695000D01*
X83150000Y-118345000D01*
X83248176Y-118345000D01*
X83392221Y-118330352D01*
X83576561Y-118272515D01*
X83576571Y-118272510D01*
X83745498Y-118178748D01*
X83745505Y-118178743D01*
X83892105Y-118052892D01*
X84010368Y-117900109D01*
X84010370Y-117900105D01*
X84095457Y-117726643D01*
X84116596Y-117645000D01*
X83366111Y-117645000D01*
X83405610Y-117620543D01*
X83473201Y-117531038D01*
X83503895Y-117423160D01*
X83493546Y-117311479D01*
X83443552Y-117211078D01*
X83371069Y-117145000D01*
X84120471Y-117145000D01*
X84057314Y-116974472D01*
X84057312Y-116974468D01*
X83955107Y-116810496D01*
X83821997Y-116670465D01*
X83821996Y-116670464D01*
X83663413Y-116560086D01*
X83485862Y-116483893D01*
X83296606Y-116445000D01*
X83150000Y-116445000D01*
X83150000Y-117095000D01*
X82650000Y-117095000D01*
X82650000Y-116445000D01*
X82551824Y-116445000D01*
X82407778Y-116459647D01*
X82223438Y-116517484D01*
X82223428Y-116517489D01*
X82054501Y-116611251D01*
X82054494Y-116611256D01*
X81907894Y-116737107D01*
X81789631Y-116889890D01*
X81789629Y-116889894D01*
X81704542Y-117063356D01*
X81683404Y-117145000D01*
X82433889Y-117145000D01*
X82394390Y-117169457D01*
X82326799Y-117258962D01*
X82296105Y-117366840D01*
X82306454Y-117478521D01*
X82356448Y-117578922D01*
X82428931Y-117645000D01*
X81679529Y-117645000D01*
X80316596Y-117645000D01*
X79566111Y-117645000D01*
X79605610Y-117620543D01*
X79673201Y-117531038D01*
X79703895Y-117423160D01*
X79693546Y-117311479D01*
X79643552Y-117211078D01*
X79571069Y-117145000D01*
X80320471Y-117145000D01*
X80257314Y-116974472D01*
X80257312Y-116974468D01*
X80155107Y-116810496D01*
X80021997Y-116670465D01*
X80021996Y-116670464D01*
X79863413Y-116560086D01*
X79685862Y-116483893D01*
X79496606Y-116445000D01*
X79350000Y-116445000D01*
X79350000Y-117095000D01*
X78850000Y-117095000D01*
X78850000Y-116445000D01*
X78751824Y-116445000D01*
X78607778Y-116459647D01*
X78423438Y-116517484D01*
X78423428Y-116517489D01*
X78254501Y-116611251D01*
X78254494Y-116611256D01*
X78107894Y-116737107D01*
X77989631Y-116889890D01*
X77989629Y-116889894D01*
X77904542Y-117063356D01*
X77883404Y-117145000D01*
X78633889Y-117145000D01*
X78594390Y-117169457D01*
X78526799Y-117258962D01*
X78496105Y-117366840D01*
X78506454Y-117478521D01*
X78556448Y-117578922D01*
X78628931Y-117645000D01*
X77879529Y-117645000D01*
X76800500Y-117645000D01*
X76800500Y-109005000D01*
X77879529Y-109005000D01*
X77942685Y-109175527D01*
X77942687Y-109175531D01*
X78044892Y-109339503D01*
X78178002Y-109479534D01*
X78178003Y-109479535D01*
X78336586Y-109589913D01*
X78514137Y-109666106D01*
X78703394Y-109705000D01*
X78850000Y-109705000D01*
X78850000Y-109055000D01*
X79350000Y-109055000D01*
X79350000Y-109705000D01*
X79448176Y-109705000D01*
X79592221Y-109690352D01*
X79776561Y-109632515D01*
X79776571Y-109632510D01*
X79945498Y-109538748D01*
X79945505Y-109538743D01*
X80092105Y-109412892D01*
X80210368Y-109260109D01*
X80210370Y-109260105D01*
X80295457Y-109086643D01*
X80316596Y-109005000D01*
X81679529Y-109005000D01*
X81742685Y-109175527D01*
X81742687Y-109175531D01*
X81844892Y-109339503D01*
X81978002Y-109479534D01*
X81978003Y-109479535D01*
X82136586Y-109589913D01*
X82314137Y-109666106D01*
X82503394Y-109705000D01*
X82650000Y-109705000D01*
X82650000Y-109055000D01*
X83150000Y-109055000D01*
X83150000Y-109705000D01*
X83248176Y-109705000D01*
X83392221Y-109690352D01*
X83576561Y-109632515D01*
X83576571Y-109632510D01*
X83745498Y-109538748D01*
X83745505Y-109538743D01*
X83892105Y-109412892D01*
X84010368Y-109260109D01*
X84010370Y-109260105D01*
X84095457Y-109086643D01*
X84116596Y-109005000D01*
X83366111Y-109005000D01*
X83405610Y-108980543D01*
X83473201Y-108891038D01*
X83503895Y-108783160D01*
X83493546Y-108671479D01*
X83443552Y-108571078D01*
X83371069Y-108505000D01*
X84120471Y-108505000D01*
X84057314Y-108334472D01*
X84057312Y-108334468D01*
X83955107Y-108170496D01*
X83821997Y-108030465D01*
X83821996Y-108030464D01*
X83663413Y-107920086D01*
X83485862Y-107843893D01*
X83296606Y-107805000D01*
X83150000Y-107805000D01*
X83150000Y-108455000D01*
X82650000Y-108455000D01*
X82650000Y-107805000D01*
X82551824Y-107805000D01*
X82407778Y-107819647D01*
X82223438Y-107877484D01*
X82223428Y-107877489D01*
X82054501Y-107971251D01*
X82054494Y-107971256D01*
X81907894Y-108097107D01*
X81789631Y-108249890D01*
X81789629Y-108249894D01*
X81704542Y-108423356D01*
X81683404Y-108505000D01*
X82433889Y-108505000D01*
X82394390Y-108529457D01*
X82326799Y-108618962D01*
X82296105Y-108726840D01*
X82306454Y-108838521D01*
X82356448Y-108938922D01*
X82428931Y-109005000D01*
X81679529Y-109005000D01*
X80316596Y-109005000D01*
X79566111Y-109005000D01*
X79605610Y-108980543D01*
X79673201Y-108891038D01*
X79703895Y-108783160D01*
X79693546Y-108671479D01*
X79643552Y-108571078D01*
X79571069Y-108505000D01*
X80320471Y-108505000D01*
X80257314Y-108334472D01*
X80257312Y-108334468D01*
X80155107Y-108170496D01*
X80021997Y-108030465D01*
X80021996Y-108030464D01*
X79863413Y-107920086D01*
X79685862Y-107843893D01*
X79496606Y-107805000D01*
X79350000Y-107805000D01*
X79350000Y-108455000D01*
X78850000Y-108455000D01*
X78850000Y-107805000D01*
X78751824Y-107805000D01*
X78607778Y-107819647D01*
X78423438Y-107877484D01*
X78423428Y-107877489D01*
X78254501Y-107971251D01*
X78254494Y-107971256D01*
X78107894Y-108097107D01*
X77989631Y-108249890D01*
X77989629Y-108249894D01*
X77904542Y-108423356D01*
X77883404Y-108505000D01*
X78633889Y-108505000D01*
X78594390Y-108529457D01*
X78526799Y-108618962D01*
X78496105Y-108726840D01*
X78506454Y-108838521D01*
X78556448Y-108938922D01*
X78628931Y-109005000D01*
X77879529Y-109005000D01*
X76800500Y-109005000D01*
X76800500Y-65442306D01*
X77641828Y-65442306D01*
X77651613Y-65672662D01*
X77651614Y-65672670D01*
X77700190Y-65898062D01*
X77700190Y-65898063D01*
X77786157Y-66112002D01*
X77907048Y-66308342D01*
X78059380Y-66481425D01*
X78059384Y-66481429D01*
X78238765Y-66626269D01*
X78238766Y-66626270D01*
X78238769Y-66626271D01*
X78238772Y-66626274D01*
X78440063Y-66738721D01*
X78657462Y-66815533D01*
X78784272Y-66837277D01*
X78884706Y-66854499D01*
X78884715Y-66854500D01*
X79057534Y-66854500D01*
X79057535Y-66854500D01*
X79057536Y-66854499D01*
X79057553Y-66854499D01*
X79229734Y-66839844D01*
X79229737Y-66839843D01*
X79229739Y-66839843D01*
X79452869Y-66781745D01*
X79612386Y-66709639D01*
X79662965Y-66686776D01*
X79662967Y-66686775D01*
X79662967Y-66686774D01*
X79662971Y-66686773D01*
X79854000Y-66557659D01*
X80020462Y-66398119D01*
X80157566Y-66212742D01*
X80261370Y-66006860D01*
X80328886Y-65786397D01*
X80358172Y-65557694D01*
X80348386Y-65327332D01*
X80299810Y-65101938D01*
X80213841Y-64887994D01*
X80092951Y-64691657D01*
X79940620Y-64518575D01*
X79940619Y-64518574D01*
X79940615Y-64518570D01*
X79761234Y-64373730D01*
X79761233Y-64373729D01*
X79559938Y-64261279D01*
X79342541Y-64184468D01*
X79342540Y-64184467D01*
X79342538Y-64184467D01*
X79342534Y-64184466D01*
X79342533Y-64184466D01*
X79115293Y-64145500D01*
X79115285Y-64145500D01*
X78942465Y-64145500D01*
X78942446Y-64145500D01*
X78770265Y-64160155D01*
X78547131Y-64218254D01*
X78337034Y-64313223D01*
X78337032Y-64313224D01*
X78193757Y-64410062D01*
X78148417Y-64440708D01*
X78145999Y-64442342D01*
X77979540Y-64601878D01*
X77842434Y-64787257D01*
X77738630Y-64993138D01*
X77671113Y-65213606D01*
X77641828Y-65442306D01*
X76800500Y-65442306D01*
X76800500Y-61430000D01*
X82695000Y-61430000D01*
X83511314Y-61430000D01*
X83485507Y-61470156D01*
X83445000Y-61608111D01*
X83445000Y-61751889D01*
X83485507Y-61889844D01*
X83511314Y-61930000D01*
X82695001Y-61930000D01*
X82695001Y-62561479D01*
X82709835Y-62655149D01*
X82709837Y-62655155D01*
X82767356Y-62768041D01*
X82767363Y-62768050D01*
X82856949Y-62857636D01*
X82856953Y-62857639D01*
X82969855Y-62915166D01*
X83063514Y-62929999D01*
X83694999Y-62929999D01*
X83695000Y-62929998D01*
X83695000Y-62115501D01*
X83802685Y-62164680D01*
X83909237Y-62180000D01*
X83980763Y-62180000D01*
X84087315Y-62164680D01*
X84195000Y-62115501D01*
X84195000Y-62929999D01*
X84826479Y-62929999D01*
X84920149Y-62915164D01*
X84920155Y-62915162D01*
X85033041Y-62857643D01*
X85033050Y-62857636D01*
X85122636Y-62768050D01*
X85122639Y-62768046D01*
X85180166Y-62655144D01*
X85195000Y-62561486D01*
X85195000Y-61930000D01*
X84378686Y-61930000D01*
X84404493Y-61889844D01*
X84445000Y-61751889D01*
X84445000Y-61680000D01*
X85502770Y-61680000D01*
X85521643Y-61871626D01*
X85577538Y-62055884D01*
X85668302Y-62225692D01*
X85668306Y-62225699D01*
X85790458Y-62374541D01*
X85939300Y-62496693D01*
X85939307Y-62496697D01*
X86041949Y-62551560D01*
X86109117Y-62587462D01*
X86293376Y-62643357D01*
X86485000Y-62662230D01*
X86676624Y-62643357D01*
X86860883Y-62587462D01*
X87030698Y-62496694D01*
X87179541Y-62374541D01*
X87301694Y-62225698D01*
X87392462Y-62055883D01*
X87448357Y-61871624D01*
X87467230Y-61680000D01*
X88042770Y-61680000D01*
X88061643Y-61871626D01*
X88117538Y-62055884D01*
X88208302Y-62225692D01*
X88208306Y-62225699D01*
X88330458Y-62374541D01*
X88479300Y-62496693D01*
X88479307Y-62496697D01*
X88581949Y-62551560D01*
X88649117Y-62587462D01*
X88833376Y-62643357D01*
X89025000Y-62662230D01*
X89216624Y-62643357D01*
X89400883Y-62587462D01*
X89570698Y-62496694D01*
X89719541Y-62374541D01*
X89841694Y-62225698D01*
X89932462Y-62055883D01*
X89988357Y-61871624D01*
X90007230Y-61680000D01*
X90582770Y-61680000D01*
X90601643Y-61871626D01*
X90657538Y-62055884D01*
X90748302Y-62225692D01*
X90748306Y-62225699D01*
X90870458Y-62374541D01*
X91019300Y-62496693D01*
X91019307Y-62496697D01*
X91121949Y-62551560D01*
X91189117Y-62587462D01*
X91373376Y-62643357D01*
X91565000Y-62662230D01*
X91756624Y-62643357D01*
X91940883Y-62587462D01*
X92110698Y-62496694D01*
X92259541Y-62374541D01*
X92381694Y-62225698D01*
X92472462Y-62055883D01*
X92528357Y-61871624D01*
X92547230Y-61680000D01*
X92528357Y-61488376D01*
X92472462Y-61304117D01*
X92453528Y-61268694D01*
X92381697Y-61134307D01*
X92381693Y-61134300D01*
X92259541Y-60985458D01*
X92110699Y-60863306D01*
X92110692Y-60863302D01*
X91940884Y-60772538D01*
X91756626Y-60716643D01*
X91565000Y-60697770D01*
X91373373Y-60716643D01*
X91189115Y-60772538D01*
X91019307Y-60863302D01*
X91019300Y-60863306D01*
X90870458Y-60985458D01*
X90748306Y-61134300D01*
X90748302Y-61134307D01*
X90657538Y-61304115D01*
X90601643Y-61488373D01*
X90582770Y-61680000D01*
X90007230Y-61680000D01*
X89988357Y-61488376D01*
X89932462Y-61304117D01*
X89913528Y-61268694D01*
X89841697Y-61134307D01*
X89841693Y-61134300D01*
X89719541Y-60985458D01*
X89570699Y-60863306D01*
X89570692Y-60863302D01*
X89400884Y-60772538D01*
X89216626Y-60716643D01*
X89025000Y-60697770D01*
X88833373Y-60716643D01*
X88649115Y-60772538D01*
X88479307Y-60863302D01*
X88479300Y-60863306D01*
X88330458Y-60985458D01*
X88208306Y-61134300D01*
X88208302Y-61134307D01*
X88117538Y-61304115D01*
X88061643Y-61488373D01*
X88042770Y-61680000D01*
X87467230Y-61680000D01*
X87448357Y-61488376D01*
X87392462Y-61304117D01*
X87373528Y-61268694D01*
X87301697Y-61134307D01*
X87301693Y-61134300D01*
X87179541Y-60985458D01*
X87030699Y-60863306D01*
X87030692Y-60863302D01*
X86860884Y-60772538D01*
X86676626Y-60716643D01*
X86485000Y-60697770D01*
X86293373Y-60716643D01*
X86109115Y-60772538D01*
X85939307Y-60863302D01*
X85939300Y-60863306D01*
X85790458Y-60985458D01*
X85668306Y-61134300D01*
X85668302Y-61134307D01*
X85577538Y-61304115D01*
X85521643Y-61488373D01*
X85502770Y-61680000D01*
X84445000Y-61680000D01*
X84445000Y-61608111D01*
X84404493Y-61470156D01*
X84378686Y-61430000D01*
X85194999Y-61430000D01*
X85194999Y-60798520D01*
X85180164Y-60704850D01*
X85180162Y-60704844D01*
X85122643Y-60591958D01*
X85122636Y-60591949D01*
X85033050Y-60502363D01*
X85033046Y-60502360D01*
X84934210Y-60452000D01*
X108237770Y-60452000D01*
X108256643Y-60643626D01*
X108312538Y-60827884D01*
X108403302Y-60997692D01*
X108403306Y-60997699D01*
X108525458Y-61146541D01*
X108674300Y-61268693D01*
X108674307Y-61268697D01*
X108824922Y-61349202D01*
X108844117Y-61359462D01*
X109028376Y-61415357D01*
X109220000Y-61434230D01*
X109411624Y-61415357D01*
X109595883Y-61359462D01*
X109765698Y-61268694D01*
X109914541Y-61146541D01*
X110036694Y-60997698D01*
X110127462Y-60827883D01*
X110169598Y-60688980D01*
X114230500Y-60688980D01*
X114269815Y-60899297D01*
X114325573Y-61043224D01*
X114347106Y-61098807D01*
X114347108Y-61098813D01*
X114452296Y-61268697D01*
X114459742Y-61280722D01*
X114603886Y-61438841D01*
X114774630Y-61567781D01*
X114875472Y-61617994D01*
X114966158Y-61663150D01*
X114966164Y-61663153D01*
X115142065Y-61713200D01*
X115171952Y-61721704D01*
X115331625Y-61736500D01*
X115331628Y-61736500D01*
X115438372Y-61736500D01*
X115438375Y-61736500D01*
X115598048Y-61721704D01*
X115686000Y-61696679D01*
X115803835Y-61663153D01*
X115803837Y-61663151D01*
X115803840Y-61663151D01*
X115995370Y-61567781D01*
X116166114Y-61438841D01*
X116310258Y-61280722D01*
X116422893Y-61098810D01*
X116500185Y-60899297D01*
X116539500Y-60688980D01*
X119680500Y-60688980D01*
X119719815Y-60899297D01*
X119775573Y-61043224D01*
X119797106Y-61098807D01*
X119797108Y-61098813D01*
X119902296Y-61268697D01*
X119909742Y-61280722D01*
X120053886Y-61438841D01*
X120224630Y-61567781D01*
X120325472Y-61617994D01*
X120416158Y-61663150D01*
X120416164Y-61663153D01*
X120592065Y-61713200D01*
X120621952Y-61721704D01*
X120781625Y-61736500D01*
X120781628Y-61736500D01*
X120888372Y-61736500D01*
X120888375Y-61736500D01*
X121048048Y-61721704D01*
X121136000Y-61696679D01*
X121253835Y-61663153D01*
X121253837Y-61663151D01*
X121253840Y-61663151D01*
X121445370Y-61567781D01*
X121616114Y-61438841D01*
X121760258Y-61280722D01*
X121872893Y-61098810D01*
X121950185Y-60899297D01*
X121989500Y-60688980D01*
X121989500Y-60475020D01*
X121985197Y-60452000D01*
X126017770Y-60452000D01*
X126036643Y-60643626D01*
X126092538Y-60827884D01*
X126183302Y-60997692D01*
X126183306Y-60997699D01*
X126305458Y-61146541D01*
X126454300Y-61268693D01*
X126454307Y-61268697D01*
X126604922Y-61349202D01*
X126624117Y-61359462D01*
X126808376Y-61415357D01*
X127000000Y-61434230D01*
X127191624Y-61415357D01*
X127375883Y-61359462D01*
X127545698Y-61268694D01*
X127694541Y-61146541D01*
X127816694Y-60997698D01*
X127907462Y-60827883D01*
X127963357Y-60643624D01*
X127982230Y-60452000D01*
X127963357Y-60260376D01*
X127907462Y-60076117D01*
X127907461Y-60076115D01*
X127816697Y-59906307D01*
X127816693Y-59906300D01*
X127694541Y-59757458D01*
X127545699Y-59635306D01*
X127545692Y-59635302D01*
X127375884Y-59544538D01*
X127191626Y-59488643D01*
X127000000Y-59469770D01*
X126808373Y-59488643D01*
X126624115Y-59544538D01*
X126454307Y-59635302D01*
X126454300Y-59635306D01*
X126305458Y-59757458D01*
X126183306Y-59906300D01*
X126183302Y-59906307D01*
X126092538Y-60076115D01*
X126036643Y-60260373D01*
X126017770Y-60452000D01*
X121985197Y-60452000D01*
X121950185Y-60264703D01*
X121872893Y-60065190D01*
X121760258Y-59883278D01*
X121616114Y-59725159D01*
X121445370Y-59596219D01*
X121341580Y-59544538D01*
X121253841Y-59500849D01*
X121253835Y-59500846D01*
X121048050Y-59442296D01*
X121048047Y-59442295D01*
X120925820Y-59430969D01*
X120888375Y-59427500D01*
X120781625Y-59427500D01*
X120746894Y-59430718D01*
X120621952Y-59442295D01*
X120621949Y-59442296D01*
X120416164Y-59500846D01*
X120416158Y-59500849D01*
X120224629Y-59596219D01*
X120172870Y-59635306D01*
X120053886Y-59725159D01*
X119909742Y-59883278D01*
X119909740Y-59883279D01*
X119909738Y-59883283D01*
X119909736Y-59883286D01*
X119797108Y-60065186D01*
X119797106Y-60065192D01*
X119792874Y-60076117D01*
X119719815Y-60264703D01*
X119680500Y-60475020D01*
X119680500Y-60688980D01*
X116539500Y-60688980D01*
X116539500Y-60475020D01*
X116500185Y-60264703D01*
X116422893Y-60065190D01*
X116310258Y-59883278D01*
X116166114Y-59725159D01*
X115995370Y-59596219D01*
X115891580Y-59544538D01*
X115803841Y-59500849D01*
X115803835Y-59500846D01*
X115598050Y-59442296D01*
X115598047Y-59442295D01*
X115475820Y-59430969D01*
X115438375Y-59427500D01*
X115331625Y-59427500D01*
X115296894Y-59430718D01*
X115171952Y-59442295D01*
X115171949Y-59442296D01*
X114966164Y-59500846D01*
X114966158Y-59500849D01*
X114774629Y-59596219D01*
X114722870Y-59635306D01*
X114603886Y-59725159D01*
X114459742Y-59883278D01*
X114459740Y-59883279D01*
X114459738Y-59883283D01*
X114459736Y-59883286D01*
X114347108Y-60065186D01*
X114347106Y-60065192D01*
X114342874Y-60076117D01*
X114269815Y-60264703D01*
X114230500Y-60475020D01*
X114230500Y-60688980D01*
X110169598Y-60688980D01*
X110183357Y-60643624D01*
X110202230Y-60452000D01*
X110183357Y-60260376D01*
X110127462Y-60076117D01*
X110127461Y-60076115D01*
X110036697Y-59906307D01*
X110036693Y-59906300D01*
X109914541Y-59757458D01*
X109765699Y-59635306D01*
X109765692Y-59635302D01*
X109595884Y-59544538D01*
X109411626Y-59488643D01*
X109220000Y-59469770D01*
X109028373Y-59488643D01*
X108844115Y-59544538D01*
X108674307Y-59635302D01*
X108674300Y-59635306D01*
X108525458Y-59757458D01*
X108403306Y-59906300D01*
X108403302Y-59906307D01*
X108312538Y-60076115D01*
X108256643Y-60260373D01*
X108237770Y-60452000D01*
X84934210Y-60452000D01*
X84920144Y-60444833D01*
X84826486Y-60430000D01*
X84195000Y-60430000D01*
X84195000Y-61244498D01*
X84087315Y-61195320D01*
X83980763Y-61180000D01*
X83909237Y-61180000D01*
X83802685Y-61195320D01*
X83695000Y-61244498D01*
X83695000Y-60430000D01*
X83063520Y-60430000D01*
X82969850Y-60444835D01*
X82969844Y-60444837D01*
X82856958Y-60502356D01*
X82856949Y-60502363D01*
X82767363Y-60591949D01*
X82767360Y-60591953D01*
X82709833Y-60704855D01*
X82695000Y-60798513D01*
X82695000Y-61430000D01*
X76800500Y-61430000D01*
X76800500Y-58924500D01*
X76820185Y-58857461D01*
X76872989Y-58811706D01*
X76924500Y-58800500D01*
X151075500Y-58800500D01*
X151142539Y-58820185D01*
G37*
%TD.AperFunction*%
%TD*%
M02*
