%TF.GenerationSoftware,KiCad,Pcbnew,7.0.10*%
%TF.CreationDate,2024-02-03T01:06:53+01:00*%
%TF.ProjectId,Powerlabstech_Stool,506f7765-726c-4616-9273-746563685f53,rev?*%
%TF.SameCoordinates,Original*%
%TF.FileFunction,Copper,L1,Top*%
%TF.FilePolarity,Positive*%
%FSLAX46Y46*%
G04 Gerber Fmt 4.6, Leading zero omitted, Abs format (unit mm)*
G04 Created by KiCad (PCBNEW 7.0.10) date 2024-02-03 01:06:53*
%MOMM*%
%LPD*%
G01*
G04 APERTURE LIST*
G04 Aperture macros list*
%AMRoundRect*
0 Rectangle with rounded corners*
0 $1 Rounding radius*
0 $2 $3 $4 $5 $6 $7 $8 $9 X,Y pos of 4 corners*
0 Add a 4 corners polygon primitive as box body*
4,1,4,$2,$3,$4,$5,$6,$7,$8,$9,$2,$3,0*
0 Add four circle primitives for the rounded corners*
1,1,$1+$1,$2,$3*
1,1,$1+$1,$4,$5*
1,1,$1+$1,$6,$7*
1,1,$1+$1,$8,$9*
0 Add four rect primitives between the rounded corners*
20,1,$1+$1,$2,$3,$4,$5,0*
20,1,$1+$1,$4,$5,$6,$7,0*
20,1,$1+$1,$6,$7,$8,$9,0*
20,1,$1+$1,$8,$9,$2,$3,0*%
G04 Aperture macros list end*
%TA.AperFunction,SMDPad,CuDef*%
%ADD10RoundRect,0.175000X-0.425000X0.175000X-0.425000X-0.175000X0.425000X-0.175000X0.425000X0.175000X0*%
%TD*%
%TA.AperFunction,SMDPad,CuDef*%
%ADD11RoundRect,0.190000X0.410000X-0.190000X0.410000X0.190000X-0.410000X0.190000X-0.410000X-0.190000X0*%
%TD*%
%TA.AperFunction,SMDPad,CuDef*%
%ADD12RoundRect,0.200000X0.400000X-0.200000X0.400000X0.200000X-0.400000X0.200000X-0.400000X-0.200000X0*%
%TD*%
%TA.AperFunction,SMDPad,CuDef*%
%ADD13RoundRect,0.175000X0.425000X-0.175000X0.425000X0.175000X-0.425000X0.175000X-0.425000X-0.175000X0*%
%TD*%
%TA.AperFunction,SMDPad,CuDef*%
%ADD14RoundRect,0.190000X-0.410000X0.190000X-0.410000X-0.190000X0.410000X-0.190000X0.410000X0.190000X0*%
%TD*%
%TA.AperFunction,SMDPad,CuDef*%
%ADD15RoundRect,0.200000X-0.400000X0.200000X-0.400000X-0.200000X0.400000X-0.200000X0.400000X0.200000X0*%
%TD*%
%TA.AperFunction,ComponentPad*%
%ADD16O,1.700000X1.100000*%
%TD*%
%TA.AperFunction,SMDPad,CuDef*%
%ADD17RoundRect,0.225000X0.250000X-0.225000X0.250000X0.225000X-0.250000X0.225000X-0.250000X-0.225000X0*%
%TD*%
%TA.AperFunction,ComponentPad*%
%ADD18R,2.600000X2.600000*%
%TD*%
%TA.AperFunction,ComponentPad*%
%ADD19C,2.600000*%
%TD*%
%TA.AperFunction,SMDPad,CuDef*%
%ADD20RoundRect,0.250000X1.400000X1.000000X-1.400000X1.000000X-1.400000X-1.000000X1.400000X-1.000000X0*%
%TD*%
%TA.AperFunction,ComponentPad*%
%ADD21R,1.700000X1.700000*%
%TD*%
%TA.AperFunction,ComponentPad*%
%ADD22O,1.700000X1.700000*%
%TD*%
%TA.AperFunction,SMDPad,CuDef*%
%ADD23RoundRect,0.150000X-0.150000X0.587500X-0.150000X-0.587500X0.150000X-0.587500X0.150000X0.587500X0*%
%TD*%
%TA.AperFunction,SMDPad,CuDef*%
%ADD24RoundRect,0.250000X-0.550000X1.500000X-0.550000X-1.500000X0.550000X-1.500000X0.550000X1.500000X0*%
%TD*%
%TA.AperFunction,SMDPad,CuDef*%
%ADD25RoundRect,0.450000X1.800000X2.050000X-1.800000X2.050000X-1.800000X-2.050000X1.800000X-2.050000X0*%
%TD*%
%TA.AperFunction,SMDPad,CuDef*%
%ADD26RoundRect,0.200000X-0.275000X0.200000X-0.275000X-0.200000X0.275000X-0.200000X0.275000X0.200000X0*%
%TD*%
%TA.AperFunction,SMDPad,CuDef*%
%ADD27RoundRect,0.200000X0.275000X-0.200000X0.275000X0.200000X-0.275000X0.200000X-0.275000X-0.200000X0*%
%TD*%
%TA.AperFunction,SMDPad,CuDef*%
%ADD28RoundRect,0.225000X0.225000X0.250000X-0.225000X0.250000X-0.225000X-0.250000X0.225000X-0.250000X0*%
%TD*%
%TA.AperFunction,SMDPad,CuDef*%
%ADD29RoundRect,0.150000X-0.587500X-0.150000X0.587500X-0.150000X0.587500X0.150000X-0.587500X0.150000X0*%
%TD*%
%TA.AperFunction,SMDPad,CuDef*%
%ADD30RoundRect,0.200000X-0.200000X-0.275000X0.200000X-0.275000X0.200000X0.275000X-0.200000X0.275000X0*%
%TD*%
%TA.AperFunction,SMDPad,CuDef*%
%ADD31RoundRect,0.250000X-1.000000X-0.650000X1.000000X-0.650000X1.000000X0.650000X-1.000000X0.650000X0*%
%TD*%
%TA.AperFunction,SMDPad,CuDef*%
%ADD32RoundRect,0.200000X0.200000X0.275000X-0.200000X0.275000X-0.200000X-0.275000X0.200000X-0.275000X0*%
%TD*%
%TA.AperFunction,SMDPad,CuDef*%
%ADD33R,3.500000X1.700000*%
%TD*%
%TA.AperFunction,SMDPad,CuDef*%
%ADD34RoundRect,0.250000X-0.300000X2.050000X-0.300000X-2.050000X0.300000X-2.050000X0.300000X2.050000X0*%
%TD*%
%TA.AperFunction,SMDPad,CuDef*%
%ADD35RoundRect,0.250000X-2.375000X2.025000X-2.375000X-2.025000X2.375000X-2.025000X2.375000X2.025000X0*%
%TD*%
%TA.AperFunction,SMDPad,CuDef*%
%ADD36RoundRect,0.250002X-5.149998X4.449998X-5.149998X-4.449998X5.149998X-4.449998X5.149998X4.449998X0*%
%TD*%
%TA.AperFunction,SMDPad,CuDef*%
%ADD37RoundRect,0.250000X0.850000X0.350000X-0.850000X0.350000X-0.850000X-0.350000X0.850000X-0.350000X0*%
%TD*%
%TA.AperFunction,SMDPad,CuDef*%
%ADD38RoundRect,0.250000X1.275000X1.125000X-1.275000X1.125000X-1.275000X-1.125000X1.275000X-1.125000X0*%
%TD*%
%TA.AperFunction,SMDPad,CuDef*%
%ADD39RoundRect,0.249997X2.950003X2.650003X-2.950003X2.650003X-2.950003X-2.650003X2.950003X-2.650003X0*%
%TD*%
%TA.AperFunction,SMDPad,CuDef*%
%ADD40RoundRect,0.250000X-1.400000X-1.000000X1.400000X-1.000000X1.400000X1.000000X-1.400000X1.000000X0*%
%TD*%
%TA.AperFunction,SMDPad,CuDef*%
%ADD41R,2.000000X1.780000*%
%TD*%
%TA.AperFunction,SMDPad,CuDef*%
%ADD42RoundRect,0.250000X0.300000X-2.050000X0.300000X2.050000X-0.300000X2.050000X-0.300000X-2.050000X0*%
%TD*%
%TA.AperFunction,SMDPad,CuDef*%
%ADD43RoundRect,0.250000X2.375000X-2.025000X2.375000X2.025000X-2.375000X2.025000X-2.375000X-2.025000X0*%
%TD*%
%TA.AperFunction,SMDPad,CuDef*%
%ADD44RoundRect,0.250002X5.149998X-4.449998X5.149998X4.449998X-5.149998X4.449998X-5.149998X-4.449998X0*%
%TD*%
%TA.AperFunction,SMDPad,CuDef*%
%ADD45RoundRect,0.225000X-0.225000X-0.250000X0.225000X-0.250000X0.225000X0.250000X-0.225000X0.250000X0*%
%TD*%
%TA.AperFunction,SMDPad,CuDef*%
%ADD46RoundRect,0.250000X1.000000X0.650000X-1.000000X0.650000X-1.000000X-0.650000X1.000000X-0.650000X0*%
%TD*%
%TA.AperFunction,ComponentPad*%
%ADD47R,2.400000X2.400000*%
%TD*%
%TA.AperFunction,ComponentPad*%
%ADD48C,2.400000*%
%TD*%
%TA.AperFunction,SMDPad,CuDef*%
%ADD49RoundRect,0.225000X-0.250000X0.225000X-0.250000X-0.225000X0.250000X-0.225000X0.250000X0.225000X0*%
%TD*%
%TA.AperFunction,ComponentPad*%
%ADD50C,3.000000*%
%TD*%
%TA.AperFunction,ComponentPad*%
%ADD51C,2.500000*%
%TD*%
%TA.AperFunction,ViaPad*%
%ADD52C,0.800000*%
%TD*%
%TA.AperFunction,ViaPad*%
%ADD53C,1.000000*%
%TD*%
%TA.AperFunction,Conductor*%
%ADD54C,0.500000*%
%TD*%
%TA.AperFunction,Conductor*%
%ADD55C,1.000000*%
%TD*%
%TA.AperFunction,Conductor*%
%ADD56C,1.500000*%
%TD*%
%TA.AperFunction,Conductor*%
%ADD57C,0.300000*%
%TD*%
G04 APERTURE END LIST*
D10*
%TO.P,J6,A5,CC1*%
%TO.N,unconnected-(J6-CC1-PadA5)*%
X83090000Y-112590000D03*
D11*
%TO.P,J6,A9,VBUS*%
%TO.N,/sw_OUT*%
X83090000Y-114610000D03*
D12*
%TO.P,J6,A12,GND*%
%TO.N,GND*%
X83090000Y-115840000D03*
D13*
%TO.P,J6,B5,CC2*%
%TO.N,unconnected-(J6-CC2-PadB5)*%
X83090000Y-113590000D03*
D14*
%TO.P,J6,B9,VBUS*%
%TO.N,/sw_OUT*%
X83090000Y-111570000D03*
D15*
%TO.P,J6,B12,GND*%
%TO.N,GND*%
X83090000Y-110340000D03*
D16*
%TO.P,J6,S1,SHIELD*%
X83010000Y-108770000D03*
X79210000Y-108770000D03*
X83010000Y-117410000D03*
X79210000Y-117410000D03*
%TD*%
D17*
%TO.P,C14,2*%
%TO.N,GND*%
X85500000Y-109895000D03*
%TO.P,C14,1*%
%TO.N,/sw_OUT*%
X85500000Y-111445000D03*
%TD*%
D18*
%TO.P,D3,1,A*%
%TO.N,+5V*%
X144620000Y-68080000D03*
D19*
%TO.P,D3,2,RK*%
%TO.N,/LED_RED_OUT*%
X144620000Y-73160000D03*
%TO.P,D3,3,GK*%
%TO.N,/LED_GREEN_OUT*%
X144620000Y-78240000D03*
%TO.P,D3,4,BK*%
%TO.N,/LED_BLUE_OUT*%
X144620000Y-83320000D03*
%TD*%
D20*
%TO.P,D4,1,K*%
%TO.N,GND*%
X80772000Y-102460000D03*
%TO.P,D4,2,A*%
%TO.N,/out_1*%
X80772000Y-95660000D03*
%TD*%
D21*
%TO.P,J5,1,Pin_1*%
%TO.N,/sw_OUT*%
X81215000Y-123610000D03*
D22*
%TO.P,J5,2,Pin_2*%
%TO.N,GND*%
X78675000Y-123610000D03*
%TD*%
D23*
%TO.P,Q1,1,G*%
%TO.N,/MAINS_RELAY*%
X136078000Y-92280500D03*
%TO.P,Q1,2,S*%
%TO.N,GND*%
X134178000Y-92280500D03*
%TO.P,Q1,3,D*%
%TO.N,Net-(D2-A)*%
X135128000Y-94155500D03*
%TD*%
D24*
%TO.P,C10,1*%
%TO.N,/sw_OUT*%
X81580000Y-128885000D03*
%TO.P,C10,2*%
%TO.N,GND*%
X81580000Y-134285000D03*
%TD*%
D25*
%TO.P,L2,2,2*%
%TO.N,/sw_OUT*%
X90040000Y-116160000D03*
%TO.P,L2,1,1*%
%TO.N,/sw_1*%
X101040000Y-116160000D03*
%TD*%
D26*
%TO.P,R7,1*%
%TO.N,/LED_BLUE*%
X133696000Y-82641000D03*
%TO.P,R7,2*%
%TO.N,GND*%
X133696000Y-84291000D03*
%TD*%
D19*
%TO.P,J1,2,Pin_2*%
%TO.N,/NEUTRAL*%
X146375000Y-127485000D03*
D18*
%TO.P,J1,1,Pin_1*%
%TO.N,/LIVE*%
X146375000Y-132565000D03*
%TD*%
D27*
%TO.P,R2,1*%
%TO.N,+3.3V*%
X116200000Y-142425000D03*
%TO.P,R2,2*%
%TO.N,/MAINS_SENSE*%
X116200000Y-140775000D03*
%TD*%
D25*
%TO.P,L1,1,1*%
%TO.N,/out_1*%
X96550000Y-75940000D03*
%TO.P,L1,2,2*%
%TO.N,+5V*%
X85550000Y-75940000D03*
%TD*%
D28*
%TO.P,C9,1*%
%TO.N,/BATT_OUT+*%
X101825000Y-141960000D03*
%TO.P,C9,2*%
%TO.N,GND*%
X100275000Y-141960000D03*
%TD*%
D29*
%TO.P,Q2,1,G*%
%TO.N,/LED_RED*%
X135620500Y-71848000D03*
%TO.P,Q2,2,S*%
%TO.N,GND*%
X135620500Y-73748000D03*
%TO.P,Q2,3,D*%
%TO.N,/LED_RED_OUT*%
X137495500Y-72798000D03*
%TD*%
D30*
%TO.P,R12,1*%
%TO.N,/BATT_POS*%
X116945000Y-119895000D03*
%TO.P,R12,2*%
%TO.N,/BATT_READ*%
X118595000Y-119895000D03*
%TD*%
D27*
%TO.P,R3,1*%
%TO.N,Net-(R1-Pad2)*%
X124200000Y-142425000D03*
%TO.P,R3,2*%
%TO.N,Net-(R3-Pad2)*%
X124200000Y-140775000D03*
%TD*%
D31*
%TO.P,D1,1,K*%
%TO.N,/main_det_ret*%
X131500000Y-140000000D03*
%TO.P,D1,2,A*%
%TO.N,/LIVE*%
X135500000Y-140000000D03*
%TD*%
D32*
%TO.P,R4,1*%
%TO.N,/MAINS_RELAY*%
X135953000Y-90170000D03*
%TO.P,R4,2*%
%TO.N,GND*%
X134303000Y-90170000D03*
%TD*%
D22*
%TO.P,U5,1,GP0*%
%TO.N,unconnected-(U5-GP0-Pad1)*%
X109220000Y-60452000D03*
D33*
X108320000Y-60452000D03*
D22*
%TO.P,U5,2,GP1*%
%TO.N,/GSM_TXD*%
X109220000Y-62992000D03*
D33*
X108320000Y-62992000D03*
D21*
%TO.P,U5,3,GND*%
%TO.N,GND*%
X109220000Y-65532000D03*
D33*
X108320000Y-65532000D03*
D22*
%TO.P,U5,4,GP2*%
%TO.N,/GSM_RXD*%
X109220000Y-68072000D03*
D33*
X108320000Y-68072000D03*
D22*
%TO.P,U5,5,GP3*%
%TO.N,/GSM_RESET*%
X109220000Y-70612000D03*
D33*
X108320000Y-70612000D03*
D22*
%TO.P,U5,6,GP4*%
%TO.N,/LOAD_SWITCH*%
X109220000Y-73152000D03*
D33*
X108320000Y-73152000D03*
D22*
%TO.P,U5,7,GP5*%
%TO.N,/BATT_READ*%
X109220000Y-75692000D03*
D33*
X108320000Y-75692000D03*
D21*
%TO.P,U5,8,GND*%
%TO.N,unconnected-(U5-GND-Pad8)*%
X109220000Y-78232000D03*
D33*
X108320000Y-78232000D03*
D22*
%TO.P,U5,9,GP6*%
%TO.N,/MAINS_SENSE*%
X109220000Y-80772000D03*
D33*
X108320000Y-80772000D03*
D22*
%TO.P,U5,10,GP7*%
%TO.N,unconnected-(U5-GP7-Pad10)*%
X109220000Y-83312000D03*
D33*
X108320000Y-83312000D03*
D22*
%TO.P,U5,11,GP8*%
%TO.N,unconnected-(U5-GP8-Pad11)*%
X109220000Y-85852000D03*
D33*
X108320000Y-85852000D03*
D22*
%TO.P,U5,12,GP9*%
%TO.N,unconnected-(U5-GP9-Pad12)*%
X109220000Y-88392000D03*
D33*
X108320000Y-88392000D03*
D21*
%TO.P,U5,13,GND*%
%TO.N,GND*%
X109220000Y-90932000D03*
D33*
X108320000Y-90932000D03*
D22*
%TO.P,U5,14,GP10*%
%TO.N,unconnected-(U5-GP10-Pad14)*%
X109220000Y-93472000D03*
D33*
X108320000Y-93472000D03*
D22*
%TO.P,U5,15,GP11*%
%TO.N,unconnected-(U5-GP11-Pad15)*%
X109220000Y-96012000D03*
D33*
X108320000Y-96012000D03*
D22*
%TO.P,U5,16,GP12*%
%TO.N,unconnected-(U5-GP12-Pad16)*%
X109220000Y-98552000D03*
D33*
X108320000Y-98552000D03*
D22*
%TO.P,U5,17,GP13*%
%TO.N,unconnected-(U5-GP13-Pad17)*%
X109220000Y-101092000D03*
D33*
X108320000Y-101092000D03*
D21*
%TO.P,U5,18,GND*%
%TO.N,GND*%
X109220000Y-103632000D03*
D33*
X108320000Y-103632000D03*
D22*
%TO.P,U5,19,GP14*%
%TO.N,unconnected-(U5-GP14-Pad19)*%
X109220000Y-106172000D03*
D33*
X108320000Y-106172000D03*
D22*
%TO.P,U5,20,GP15*%
%TO.N,unconnected-(U5-GP15-Pad20)*%
X109220000Y-108712000D03*
D33*
X108320000Y-108712000D03*
D22*
%TO.P,U5,21,GP16*%
%TO.N,unconnected-(U5-GP16-Pad21)*%
X127000000Y-108712000D03*
D33*
X127900000Y-108712000D03*
D22*
%TO.P,U5,22,GP17*%
%TO.N,unconnected-(U5-GP17-Pad22)*%
X127000000Y-106172000D03*
D33*
X127900000Y-106172000D03*
D21*
%TO.P,U5,23,GND*%
%TO.N,GND*%
X127000000Y-103632000D03*
D33*
X127900000Y-103632000D03*
D22*
%TO.P,U5,24,GP18*%
%TO.N,unconnected-(U5-GP18-Pad24)*%
X127000000Y-101092000D03*
D33*
X127900000Y-101092000D03*
D22*
%TO.P,U5,25,GP19*%
%TO.N,unconnected-(U5-GP19-Pad25)*%
X127000000Y-98552000D03*
D33*
X127900000Y-98552000D03*
D22*
%TO.P,U5,26,GP20*%
%TO.N,unconnected-(U5-GP20-Pad26)*%
X127000000Y-96012000D03*
D33*
X127900000Y-96012000D03*
D22*
%TO.P,U5,27,GP21*%
%TO.N,unconnected-(U5-GP21-Pad27)*%
X127000000Y-93472000D03*
D33*
X127900000Y-93472000D03*
D21*
%TO.P,U5,28,GND*%
%TO.N,GND*%
X127000000Y-90932000D03*
D33*
X127900000Y-90932000D03*
D22*
%TO.P,U5,29,GP22*%
%TO.N,/MAINS_RELAY*%
X127000000Y-88392000D03*
D33*
X127900000Y-88392000D03*
D22*
%TO.P,U5,30,~{RUN}*%
%TO.N,unconnected-(U5-~{RUN}-Pad30)*%
X127000000Y-85852000D03*
D33*
X127900000Y-85852000D03*
D22*
%TO.P,U5,31,GP26*%
%TO.N,/LED_BLUE*%
X127000000Y-83312000D03*
D33*
X127900000Y-83312000D03*
D22*
%TO.P,U5,32,GP27*%
%TO.N,/LED_GREEN*%
X127000000Y-80772000D03*
D33*
X127900000Y-80772000D03*
D21*
%TO.P,U5,33,AGND*%
%TO.N,GND*%
X127000000Y-78232000D03*
D33*
X127900000Y-78232000D03*
D22*
%TO.P,U5,34,GP28*%
%TO.N,/LED_RED*%
X127000000Y-75692000D03*
D33*
X127900000Y-75692000D03*
D22*
%TO.P,U5,35,ADC_VREF*%
%TO.N,unconnected-(U5-ADC_VREF-Pad35)*%
X127000000Y-73152000D03*
D33*
X127900000Y-73152000D03*
D22*
%TO.P,U5,36,3V3_OUT*%
%TO.N,+3.3V*%
X127000000Y-70612000D03*
D33*
X127900000Y-70612000D03*
D22*
%TO.P,U5,37,3V3_EN*%
%TO.N,unconnected-(U5-3V3_EN-Pad37)*%
X127000000Y-68072000D03*
D33*
X127900000Y-68072000D03*
D21*
%TO.P,U5,38,GND*%
%TO.N,unconnected-(U5-GND-Pad38)*%
X127000000Y-65532000D03*
D33*
X127900000Y-65532000D03*
D22*
%TO.P,U5,39,VSYS*%
%TO.N,+5V*%
X127000000Y-62992000D03*
D33*
X127900000Y-62992000D03*
D22*
%TO.P,U5,40,VBUS*%
%TO.N,unconnected-(U5-VBUS-Pad40)*%
X127000000Y-60452000D03*
D33*
X127900000Y-60452000D03*
%TD*%
D29*
%TO.P,Q4,1,G*%
%TO.N,/LED_BLUE*%
X135620500Y-82516000D03*
%TO.P,Q4,2,S*%
%TO.N,GND*%
X135620500Y-84416000D03*
%TO.P,Q4,3,D*%
%TO.N,/LED_BLUE_OUT*%
X137495500Y-83466000D03*
%TD*%
D34*
%TO.P,U3,1,VIN*%
%TO.N,/BATT_POS*%
X94170000Y-89380000D03*
%TO.P,U3,2,OUT*%
%TO.N,/out_1*%
X92470000Y-89380000D03*
%TO.P,U3,3,GND*%
%TO.N,GND*%
X90770000Y-89380000D03*
D35*
X93545000Y-96105000D03*
X87995000Y-96105000D03*
D36*
X90770000Y-98530000D03*
D35*
X93545000Y-100955000D03*
X87995000Y-100955000D03*
D34*
%TO.P,U3,4,FB*%
%TO.N,+5V*%
X89070000Y-89380000D03*
%TO.P,U3,5,~{ON}/OFF*%
%TO.N,GND*%
X87370000Y-89380000D03*
%TD*%
D21*
%TO.P,J3,1,Pin_1*%
%TO.N,/BATT_POS*%
X121600000Y-120105000D03*
D22*
%TO.P,J3,2,Pin_2*%
%TO.N,GND*%
X121600000Y-117565000D03*
%TD*%
D30*
%TO.P,R11,1*%
%TO.N,/FB_1*%
X89091000Y-139585000D03*
%TO.P,R11,2*%
%TO.N,GND*%
X90741000Y-139585000D03*
%TD*%
D26*
%TO.P,R6,1*%
%TO.N,/LED_GREEN*%
X133510000Y-77053000D03*
%TO.P,R6,2*%
%TO.N,GND*%
X133510000Y-78703000D03*
%TD*%
D24*
%TO.P,C7,1*%
%TO.N,+5V*%
X80750000Y-86190000D03*
%TO.P,C7,2*%
%TO.N,GND*%
X80750000Y-91590000D03*
%TD*%
D37*
%TO.P,Q5,1,G*%
%TO.N,Net-(Q5-G)*%
X115452000Y-129280000D03*
D38*
%TO.P,Q5,2,D*%
%TO.N,/BATT_OUT+*%
X110827000Y-128525000D03*
X110827000Y-125475000D03*
D39*
X109152000Y-127000000D03*
D38*
X107477000Y-128525000D03*
X107477000Y-125475000D03*
D37*
%TO.P,Q5,3,S*%
%TO.N,/BATT_POS*%
X115452000Y-124720000D03*
%TD*%
D17*
%TO.P,C5,1*%
%TO.N,/BATT_POS*%
X97570000Y-90080000D03*
%TO.P,C5,2*%
%TO.N,GND*%
X97570000Y-88530000D03*
%TD*%
%TO.P,C2,1*%
%TO.N,/MAINS_SENSE*%
X114000000Y-138175000D03*
%TO.P,C2,2*%
%TO.N,GND*%
X114000000Y-136625000D03*
%TD*%
D23*
%TO.P,Q6,1,G*%
%TO.N,/LOAD_SWITCH*%
X119822000Y-126570500D03*
%TO.P,Q6,2,S*%
%TO.N,GND*%
X117922000Y-126570500D03*
%TO.P,Q6,3,D*%
%TO.N,Net-(Q5-G)*%
X118872000Y-128445500D03*
%TD*%
D40*
%TO.P,D5,2,A*%
%TO.N,/sw_1*%
X107560000Y-121462500D03*
%TO.P,D5,1,K*%
%TO.N,GND*%
X107560000Y-114662500D03*
%TD*%
D29*
%TO.P,Q3,1,G*%
%TO.N,/LED_GREEN*%
X135620500Y-76928000D03*
%TO.P,Q3,2,S*%
%TO.N,GND*%
X135620500Y-78828000D03*
%TO.P,Q3,3,D*%
%TO.N,/LED_GREEN_OUT*%
X137495500Y-77878000D03*
%TD*%
D21*
%TO.P,J4,1,Pin_1*%
%TO.N,GND*%
X83945000Y-61680000D03*
D22*
%TO.P,J4,2,Pin_2*%
%TO.N,/GSM_TXD*%
X86485000Y-61680000D03*
%TO.P,J4,3,Pin_3*%
%TO.N,/GSM_RXD*%
X89025000Y-61680000D03*
%TO.P,J4,4,Pin_4*%
%TO.N,/GSM_RESET*%
X91565000Y-61680000D03*
%TO.P,J4,5,Pin_5*%
%TO.N,+5V*%
X94105000Y-61680000D03*
%TD*%
D41*
%TO.P,U1,1*%
%TO.N,Net-(R3-Pad2)*%
X123820000Y-138420000D03*
%TO.P,U1,2*%
%TO.N,/NEUTRAL*%
X123820000Y-135880000D03*
%TO.P,U1,3*%
%TO.N,GND*%
X116200000Y-135880000D03*
%TO.P,U1,4*%
%TO.N,/MAINS_SENSE*%
X116200000Y-138420000D03*
%TD*%
D24*
%TO.P,C8,1*%
%TO.N,/BATT_OUT+*%
X108712000Y-134968000D03*
%TO.P,C8,2*%
%TO.N,GND*%
X108712000Y-140368000D03*
%TD*%
D21*
%TO.P,BT1,1,+*%
%TO.N,/BATT_POS*%
X112870000Y-119985000D03*
D22*
%TO.P,BT1,2,-*%
%TO.N,GND*%
X112870000Y-117445000D03*
%TD*%
D32*
%TO.P,R1,1*%
%TO.N,/main_det_ret*%
X128410000Y-142175000D03*
%TO.P,R1,2*%
%TO.N,Net-(R1-Pad2)*%
X126760000Y-142175000D03*
%TD*%
D26*
%TO.P,R5,1*%
%TO.N,/LED_RED*%
X133510000Y-71973000D03*
%TO.P,R5,2*%
%TO.N,GND*%
X133510000Y-73623000D03*
%TD*%
D32*
%TO.P,R10,1*%
%TO.N,/LOAD_SWITCH*%
X119415000Y-124460000D03*
%TO.P,R10,2*%
%TO.N,GND*%
X117765000Y-124460000D03*
%TD*%
D42*
%TO.P,U4,1,GND*%
%TO.N,GND*%
X95020000Y-138525000D03*
%TO.P,U4,2,FB*%
%TO.N,/FB_1*%
X96720000Y-138525000D03*
%TO.P,U4,3,SW*%
%TO.N,/sw_1*%
X98420000Y-138525000D03*
D43*
X95645000Y-131800000D03*
X101195000Y-131800000D03*
D44*
X98420000Y-129375000D03*
D43*
X95645000Y-126950000D03*
X101195000Y-126950000D03*
D42*
%TO.P,U4,4,VC*%
%TO.N,GND*%
X100120000Y-138525000D03*
%TO.P,U4,5,VIN*%
%TO.N,/BATT_OUT+*%
X101820000Y-138525000D03*
%TD*%
D24*
%TO.P,C4,1*%
%TO.N,/BATT_POS*%
X100330000Y-93880000D03*
%TO.P,C4,2*%
%TO.N,GND*%
X100330000Y-99280000D03*
%TD*%
D28*
%TO.P,C13,1*%
%TO.N,/BATT_READ*%
X118505000Y-116025000D03*
%TO.P,C13,2*%
%TO.N,GND*%
X116955000Y-116025000D03*
%TD*%
D32*
%TO.P,R13,1*%
%TO.N,/BATT_READ*%
X118615000Y-117765000D03*
%TO.P,R13,2*%
%TO.N,GND*%
X116965000Y-117765000D03*
%TD*%
D30*
%TO.P,R8,1*%
%TO.N,/BATT_POS*%
X113315000Y-131810000D03*
%TO.P,R8,2*%
%TO.N,Net-(Q5-G)*%
X114965000Y-131810000D03*
%TD*%
D28*
%TO.P,C3,1*%
%TO.N,+5V*%
X93935000Y-64520000D03*
%TO.P,C3,2*%
%TO.N,GND*%
X92385000Y-64520000D03*
%TD*%
D45*
%TO.P,C6,1*%
%TO.N,+5V*%
X89025000Y-85970000D03*
%TO.P,C6,2*%
%TO.N,GND*%
X90575000Y-85970000D03*
%TD*%
D46*
%TO.P,D2,1,K*%
%TO.N,+5V*%
X144240000Y-93980000D03*
%TO.P,D2,2,A*%
%TO.N,Net-(D2-A)*%
X140240000Y-93980000D03*
%TD*%
D47*
%TO.P,C1,1*%
%TO.N,/main_det_ret*%
X131190000Y-130930000D03*
D48*
%TO.P,C1,2*%
%TO.N,/NEUTRAL*%
X131190000Y-123430000D03*
%TD*%
D32*
%TO.P,R9,1*%
%TO.N,/sw_OUT*%
X90741000Y-137685000D03*
%TO.P,R9,2*%
%TO.N,/FB_1*%
X89091000Y-137685000D03*
%TD*%
D49*
%TO.P,C12,1*%
%TO.N,/sw_OUT*%
X85190000Y-114575000D03*
%TO.P,C12,2*%
%TO.N,GND*%
X85190000Y-116125000D03*
%TD*%
D21*
%TO.P,J2,1,Pin_1*%
%TO.N,/NEUTRAL*%
X140970000Y-89662000D03*
D22*
%TO.P,J2,2,Pin_2*%
%TO.N,/LIVE_RELAY_CHARGER_OUT*%
X143510000Y-89662000D03*
%TD*%
D24*
%TO.P,C11,1*%
%TO.N,/sw_OUT*%
X89020000Y-128885000D03*
%TO.P,C11,2*%
%TO.N,GND*%
X89020000Y-134285000D03*
%TD*%
D50*
%TO.P,K1,1*%
%TO.N,/LIVE_RELAY_CHARGER_OUT*%
X143088000Y-97472000D03*
D51*
%TO.P,K1,2*%
%TO.N,Net-(D2-A)*%
X137038000Y-99422000D03*
D50*
%TO.P,K1,3*%
%TO.N,unconnected-(K1-Pad3)*%
X137038000Y-111622000D03*
%TO.P,K1,4*%
%TO.N,/LIVE*%
X149088000Y-111672000D03*
D51*
%TO.P,K1,5*%
%TO.N,+5V*%
X149038000Y-99422000D03*
%TD*%
D52*
%TO.N,GND*%
X89780000Y-84600000D03*
X81770000Y-115860000D03*
X81700000Y-110420000D03*
X85590000Y-108780000D03*
X85160000Y-117290000D03*
X78675000Y-120480000D03*
X133760000Y-85700000D03*
X133410000Y-79970000D03*
X133440000Y-74890000D03*
D53*
X99060000Y-101600000D03*
X83566000Y-135890000D03*
D52*
X84710000Y-91110000D03*
X91950000Y-139630000D03*
D53*
X87630000Y-105410000D03*
D52*
X104880000Y-116390000D03*
D53*
X91186000Y-104902000D03*
X87122000Y-134366000D03*
X110490000Y-139700000D03*
X90678000Y-133604000D03*
D52*
X104990000Y-117940000D03*
X98190000Y-87850000D03*
D53*
X82804000Y-105410000D03*
D52*
X116200000Y-134000000D03*
X85770000Y-90780000D03*
D53*
X85598000Y-104902000D03*
D52*
X91150000Y-64560000D03*
D53*
X130810000Y-90932000D03*
D52*
X117670000Y-123390000D03*
X114000000Y-135200000D03*
D53*
X98298000Y-103378000D03*
X99314000Y-142494000D03*
X83058000Y-100584000D03*
D52*
X83680000Y-92250000D03*
X93550000Y-139680000D03*
D53*
X79756000Y-134112000D03*
X90678000Y-135890000D03*
D52*
X82630000Y-90170000D03*
X79100000Y-92090000D03*
X86020000Y-87820000D03*
D53*
X83820000Y-133604000D03*
X98298000Y-105664000D03*
X80772000Y-105156000D03*
X94996000Y-105156000D03*
X86868000Y-135890000D03*
D52*
X86080000Y-89180000D03*
D53*
X79502000Y-135890000D03*
D52*
%TO.N,+5V*%
X88920000Y-81710000D03*
X83360000Y-80150000D03*
X82730000Y-81440000D03*
X84410000Y-81710000D03*
X86010000Y-79900000D03*
X84490000Y-80140000D03*
X85900000Y-81430000D03*
X87480000Y-81560000D03*
%TO.N,/MAINS_SENSE*%
X115390000Y-115650000D03*
X113000000Y-138200000D03*
D53*
%TO.N,+3.3V*%
X120650000Y-142240000D03*
%TD*%
D54*
%TO.N,GND*%
X90575000Y-85395000D02*
X89780000Y-84600000D01*
X90575000Y-85970000D02*
X90575000Y-85395000D01*
D55*
X81790000Y-115840000D02*
X81770000Y-115860000D01*
X83042500Y-115840000D02*
X81790000Y-115840000D01*
X81780000Y-110340000D02*
X81700000Y-110420000D01*
X83042500Y-110340000D02*
X81780000Y-110340000D01*
X85500000Y-108870000D02*
X85590000Y-108780000D01*
X85500000Y-109895000D02*
X85500000Y-108870000D01*
X85190000Y-117260000D02*
X85160000Y-117290000D01*
X85190000Y-116125000D02*
X85190000Y-117260000D01*
X83042500Y-110340000D02*
X83487500Y-109895000D01*
X83487500Y-109895000D02*
X85500000Y-109895000D01*
X83042500Y-115840000D02*
X83327500Y-116125000D01*
X83327500Y-116125000D02*
X85190000Y-116125000D01*
%TO.N,/sw_OUT*%
X83042500Y-114610000D02*
X85155000Y-114610000D01*
X85155000Y-114610000D02*
X85190000Y-114575000D01*
X81215000Y-123610000D02*
X82590000Y-123610000D01*
X82590000Y-123610000D02*
X90040000Y-116160000D01*
D56*
%TO.N,/BATT_POS*%
X100330000Y-93880000D02*
X100460000Y-93750000D01*
X106020000Y-110790000D02*
X110920000Y-110790000D01*
X110920000Y-110790000D02*
X110920000Y-118035000D01*
X110920000Y-118035000D02*
X112870000Y-119985000D01*
X100460000Y-93750000D02*
X103830000Y-93750000D01*
X103830000Y-93750000D02*
X103830000Y-108600000D01*
X103830000Y-108600000D02*
X106020000Y-110790000D01*
D55*
%TO.N,/sw_OUT*%
X83060000Y-111510000D02*
X85435000Y-111510000D01*
X85435000Y-111510000D02*
X85500000Y-111445000D01*
X85165000Y-114550000D02*
X85190000Y-114575000D01*
%TO.N,GND*%
X104990000Y-117940000D02*
X104990000Y-115460000D01*
X104720000Y-114832500D02*
X105072500Y-114480000D01*
X105072500Y-114480000D02*
X105970000Y-114480000D01*
X104990000Y-115460000D02*
X105970000Y-114480000D01*
D54*
%TO.N,/LED_BLUE_OUT*%
X137495500Y-83466000D02*
X144474000Y-83466000D01*
X144474000Y-83466000D02*
X144620000Y-83320000D01*
%TO.N,GND*%
X135620500Y-84416000D02*
X133821000Y-84416000D01*
X133821000Y-84416000D02*
X133696000Y-84291000D01*
X133696000Y-85636000D02*
X133760000Y-85700000D01*
X133696000Y-84291000D02*
X133696000Y-85636000D01*
X133510000Y-79870000D02*
X133410000Y-79970000D01*
X133510000Y-78703000D02*
X133510000Y-79870000D01*
X135620500Y-73748000D02*
X133635000Y-73748000D01*
X133635000Y-73748000D02*
X133510000Y-73623000D01*
X135620500Y-78828000D02*
X133635000Y-78828000D01*
X133635000Y-78828000D02*
X133510000Y-78703000D01*
%TO.N,/LED_GREEN_OUT*%
X137495500Y-77878000D02*
X144258000Y-77878000D01*
X144258000Y-77878000D02*
X144620000Y-78240000D01*
%TO.N,/LED_RED_OUT*%
X137495500Y-72798000D02*
X144258000Y-72798000D01*
X144258000Y-72798000D02*
X144620000Y-73160000D01*
%TO.N,GND*%
X133510000Y-74820000D02*
X133440000Y-74890000D01*
X133510000Y-73623000D02*
X133510000Y-74820000D01*
D57*
%TO.N,/LED_RED*%
X135620500Y-71848000D02*
X133635000Y-71848000D01*
X133635000Y-71848000D02*
X133510000Y-71973000D01*
%TO.N,/LED_GREEN*%
X135620500Y-76928000D02*
X133635000Y-76928000D01*
X133635000Y-76928000D02*
X133510000Y-77053000D01*
%TO.N,/LED_BLUE*%
X133696000Y-82641000D02*
X135495500Y-82641000D01*
X135495500Y-82641000D02*
X135620500Y-82516000D01*
X133696000Y-82641000D02*
X133025000Y-83312000D01*
X133025000Y-83312000D02*
X127000000Y-83312000D01*
%TO.N,/LED_GREEN*%
X133510000Y-77053000D02*
X129791000Y-80772000D01*
X129791000Y-80772000D02*
X127000000Y-80772000D01*
%TO.N,/LED_RED*%
X129760000Y-75692000D02*
X126890000Y-75692000D01*
X129760000Y-75692000D02*
X129791000Y-75692000D01*
X129791000Y-75692000D02*
X133510000Y-71973000D01*
D54*
%TO.N,GND*%
X90575000Y-85970000D02*
X90575000Y-89185000D01*
X90575000Y-89185000D02*
X90770000Y-89380000D01*
%TO.N,Net-(R3-Pad2)*%
X124200000Y-140457500D02*
X124200000Y-139542500D01*
X124200000Y-139542500D02*
X124200000Y-138502500D01*
X124200000Y-138502500D02*
X123990000Y-138292500D01*
%TO.N,Net-(R1-Pad2)*%
X124200000Y-142425000D02*
X126510000Y-142425000D01*
X126510000Y-142425000D02*
X126760000Y-142175000D01*
%TO.N,/NEUTRAL*%
X125200000Y-127560000D02*
X129560000Y-123200000D01*
X129560000Y-123200000D02*
X130930000Y-123200000D01*
D57*
%TO.N,/MAINS_SENSE*%
X116200000Y-138420000D02*
X116200000Y-140775000D01*
D54*
%TO.N,+3.3V*%
X120515000Y-142105000D02*
X120220000Y-142400000D01*
X120220000Y-142400000D02*
X116225000Y-142400000D01*
X116225000Y-142400000D02*
X116200000Y-142425000D01*
D57*
%TO.N,/MAINS_SENSE*%
X114000000Y-138175000D02*
X115955000Y-138175000D01*
X115955000Y-138175000D02*
X116200000Y-138420000D01*
X113000000Y-138200000D02*
X113975000Y-138200000D01*
X113975000Y-138200000D02*
X114000000Y-138175000D01*
D54*
%TO.N,GND*%
X116200000Y-134000000D02*
X116200000Y-135880000D01*
X114000000Y-136625000D02*
X114000000Y-135200000D01*
D57*
%TO.N,/BATT_POS*%
X112870000Y-119985000D02*
X112870000Y-121190000D01*
D56*
X112870000Y-122138000D02*
X112870000Y-119985000D01*
D57*
X113315000Y-126857000D02*
X115452000Y-124720000D01*
X116945000Y-119895000D02*
X112960000Y-119895000D01*
D56*
X112870000Y-121190000D02*
X112870000Y-122138000D01*
X112870000Y-122138000D02*
X115452000Y-124720000D01*
D57*
X113315000Y-131810000D02*
X113315000Y-126857000D01*
X112960000Y-119895000D02*
X112870000Y-119985000D01*
D55*
%TO.N,GND*%
X97570000Y-88530000D02*
X97570000Y-88470000D01*
D57*
X116955000Y-117755000D02*
X116955000Y-116025000D01*
D54*
X131572000Y-90170000D02*
X130810000Y-90932000D01*
D55*
X91585000Y-139585000D02*
X93455000Y-139585000D01*
D57*
X116965000Y-117765000D02*
X116955000Y-117755000D01*
D54*
X134178000Y-92280500D02*
X132158500Y-92280500D01*
D55*
X93550000Y-139680000D02*
X93645000Y-139585000D01*
X91560000Y-139610000D02*
X91585000Y-139585000D01*
D57*
X116645000Y-117445000D02*
X112870000Y-117445000D01*
D55*
X100120000Y-138525000D02*
X100120000Y-140970000D01*
X100120000Y-140970000D02*
X100120000Y-141688000D01*
D57*
X116965000Y-117765000D02*
X116645000Y-117445000D01*
D54*
X78675000Y-120480000D02*
X78745000Y-120410000D01*
D55*
X93960000Y-139585000D02*
X95020000Y-138525000D01*
X100120000Y-140970000D02*
X100120000Y-141805000D01*
X97570000Y-88470000D02*
X98190000Y-87850000D01*
D56*
X86490000Y-102460000D02*
X87995000Y-100955000D01*
D55*
X126890000Y-90932000D02*
X130810000Y-90932000D01*
X93455000Y-139585000D02*
X93550000Y-139680000D01*
X92385000Y-64520000D02*
X91190000Y-64520000D01*
X90741000Y-139585000D02*
X91535000Y-139585000D01*
D54*
X87370000Y-89380000D02*
X87370000Y-88220000D01*
X117922000Y-126570500D02*
X117922000Y-124617000D01*
D55*
X91535000Y-139585000D02*
X91560000Y-139610000D01*
D54*
X134303000Y-90170000D02*
X131572000Y-90170000D01*
D55*
X91190000Y-64520000D02*
X91150000Y-64560000D01*
D54*
X78675000Y-123610000D02*
X78675000Y-120480000D01*
D56*
X109822000Y-140368000D02*
X110490000Y-139700000D01*
X80772000Y-102460000D02*
X86490000Y-102460000D01*
D55*
X104820000Y-117770000D02*
X104990000Y-117940000D01*
D54*
X117765000Y-123485000D02*
X117670000Y-123390000D01*
X132158500Y-92280500D02*
X130810000Y-90932000D01*
D55*
X100120000Y-141688000D02*
X99314000Y-142494000D01*
X104820000Y-117240000D02*
X104820000Y-117770000D01*
D54*
X117922000Y-124617000D02*
X117765000Y-124460000D01*
X117765000Y-124460000D02*
X117765000Y-123485000D01*
X134303000Y-92155500D02*
X134178000Y-92280500D01*
D55*
X93645000Y-139585000D02*
X93960000Y-139585000D01*
D56*
X108712000Y-140368000D02*
X109822000Y-140368000D01*
D54*
X134303000Y-90170000D02*
X134303000Y-92155500D01*
%TO.N,+5V*%
X93935000Y-64520000D02*
X94105000Y-64350000D01*
X149038000Y-96460000D02*
X149038000Y-99422000D01*
X144240000Y-93980000D02*
X146558000Y-93980000D01*
X146558000Y-93980000D02*
X149038000Y-96460000D01*
X94105000Y-64350000D02*
X94105000Y-61680000D01*
%TO.N,/NEUTRAL*%
X124840000Y-135510000D02*
X125200000Y-135150000D01*
X125200000Y-135150000D02*
X125200000Y-127560000D01*
D57*
%TO.N,/MAINS_SENSE*%
X109110000Y-80772000D02*
X113790000Y-85452000D01*
X113790000Y-85452000D02*
X113790000Y-114050000D01*
X113790000Y-114050000D02*
X115390000Y-115650000D01*
%TO.N,/GSM_TXD*%
X104802000Y-62992000D02*
X109110000Y-62992000D01*
X100860000Y-59050000D02*
X104802000Y-62992000D01*
X89115000Y-59050000D02*
X100860000Y-59050000D01*
X86485000Y-61680000D02*
X89115000Y-59050000D01*
%TO.N,/BATT_READ*%
X114650000Y-110270000D02*
X114650000Y-79360000D01*
X118505000Y-114125000D02*
X114650000Y-110270000D01*
X118505000Y-116025000D02*
X118505000Y-119805000D01*
X114650000Y-79360000D02*
X110982000Y-75692000D01*
X118505000Y-116025000D02*
X118505000Y-114125000D01*
X118505000Y-119805000D02*
X118595000Y-119895000D01*
X110982000Y-75692000D02*
X109110000Y-75692000D01*
%TO.N,/GSM_RXD*%
X99840000Y-59600000D02*
X106000000Y-65760000D01*
X109042000Y-68140000D02*
X109110000Y-68072000D01*
X91105000Y-59600000D02*
X99840000Y-59600000D01*
X89025000Y-61680000D02*
X91105000Y-59600000D01*
X106000000Y-68140000D02*
X109042000Y-68140000D01*
X106000000Y-65760000D02*
X106000000Y-68140000D01*
D55*
%TO.N,/LIVE*%
X138940000Y-140000000D02*
X146640000Y-132300000D01*
D56*
X149088000Y-111672000D02*
X150130000Y-112714000D01*
X150130000Y-112714000D02*
X150130000Y-128810000D01*
D55*
X135500000Y-140000000D02*
X138940000Y-140000000D01*
D56*
X150130000Y-128810000D02*
X146640000Y-132300000D01*
D57*
%TO.N,/MAINS_RELAY*%
X134175000Y-88392000D02*
X126890000Y-88392000D01*
X135953000Y-92155500D02*
X136078000Y-92280500D01*
X135953000Y-90170000D02*
X135953000Y-92155500D01*
X134175000Y-88392000D02*
X135953000Y-90170000D01*
%TO.N,/LOAD_SWITCH*%
X116000000Y-110600000D02*
X119970000Y-114570000D01*
X119970000Y-123905000D02*
X119415000Y-124460000D01*
X119970000Y-114570000D02*
X119970000Y-123905000D01*
D54*
X119822000Y-124867000D02*
X119822000Y-126570500D01*
D57*
X109110000Y-73152000D02*
X110992000Y-73152000D01*
D54*
X119415000Y-124460000D02*
X119822000Y-124867000D01*
D57*
X110992000Y-73152000D02*
X116000000Y-78160000D01*
X116000000Y-78160000D02*
X116000000Y-110600000D01*
%TO.N,/GSM_RESET*%
X91565000Y-61680000D02*
X93095000Y-60150000D01*
X104662000Y-70612000D02*
X109110000Y-70612000D01*
X93095000Y-60150000D02*
X98430000Y-60150000D01*
X98430000Y-64380000D02*
X104662000Y-70612000D01*
X98430000Y-60150000D02*
X98430000Y-64380000D01*
D55*
%TO.N,/sw_1*%
X98420000Y-134575000D02*
X101195000Y-131800000D01*
X98420000Y-138525000D02*
X98420000Y-134575000D01*
X98420000Y-134575000D02*
X95645000Y-131800000D01*
D57*
%TO.N,/FB_1*%
X89091000Y-137685000D02*
X89091000Y-139585000D01*
X91010000Y-142140000D02*
X95510000Y-142140000D01*
X96720000Y-140930000D02*
X95510000Y-142140000D01*
X89091000Y-139585000D02*
X89091000Y-140221000D01*
X96310000Y-138935000D02*
X96720000Y-138525000D01*
X89091000Y-140221000D02*
X91010000Y-142140000D01*
X96720000Y-138525000D02*
X96720000Y-140930000D01*
D54*
%TO.N,/main_det_ret*%
X131500000Y-130227780D02*
X131630000Y-130097780D01*
X131500000Y-140000000D02*
X131500000Y-130227780D01*
X128460000Y-141790000D02*
X129710000Y-141790000D01*
X129710000Y-141790000D02*
X131500000Y-140000000D01*
X131630000Y-139870000D02*
X131500000Y-140000000D01*
D57*
%TO.N,/sw_OUT*%
X91950000Y-131500000D02*
X89295000Y-128845000D01*
X90741000Y-137685000D02*
X91325000Y-137685000D01*
X89295000Y-128845000D02*
X89020000Y-128845000D01*
X91325000Y-137685000D02*
X91950000Y-137060000D01*
X91950000Y-137060000D02*
X91950000Y-131500000D01*
D54*
%TO.N,Net-(D2-A)*%
X135128000Y-97512000D02*
X137038000Y-99422000D01*
X135128000Y-94155500D02*
X140064500Y-94155500D01*
X135128000Y-94155500D02*
X135128000Y-97512000D01*
X140064500Y-94155500D02*
X140240000Y-93980000D01*
D57*
%TO.N,Net-(Q5-G)*%
X115452000Y-131323000D02*
X115452000Y-129280000D01*
X114965000Y-131810000D02*
X115452000Y-131323000D01*
D54*
X118037500Y-129280000D02*
X118872000Y-128445500D01*
X115452000Y-129280000D02*
X118037500Y-129280000D01*
%TD*%
%TA.AperFunction,Conductor*%
%TO.N,/out_1*%
G36*
X100527095Y-68855366D02*
G01*
X100574382Y-68906802D01*
X100587112Y-68958508D01*
X100834926Y-78871066D01*
X100816923Y-78938576D01*
X100765279Y-78985637D01*
X100715096Y-78998096D01*
X93218000Y-79248000D01*
X93218000Y-91948000D01*
X93217999Y-91948000D01*
X91694000Y-92202000D01*
X91694000Y-86106000D01*
X91694000Y-86105999D01*
X91205105Y-85372658D01*
X91184412Y-85309595D01*
X90431073Y-68987250D01*
X90447646Y-68919375D01*
X90498284Y-68871234D01*
X90566910Y-68858113D01*
X90575326Y-68859221D01*
X91948000Y-69088000D01*
X100459508Y-68837661D01*
X100527095Y-68855366D01*
G37*
%TD.AperFunction*%
%TD*%
%TA.AperFunction,Conductor*%
%TO.N,GND*%
G36*
X88041375Y-87020325D02*
G01*
X88087703Y-87072627D01*
X88099476Y-87125882D01*
X88080513Y-91686516D01*
X88060550Y-91753473D01*
X88007556Y-91799008D01*
X87956514Y-91810000D01*
X85629997Y-91810000D01*
X82408121Y-93554771D01*
X82348022Y-93569729D01*
X80056749Y-93550311D01*
X79989879Y-93530059D01*
X79989354Y-93529713D01*
X78673119Y-92658402D01*
X78628083Y-92604983D01*
X78619077Y-92535696D01*
X78621264Y-92524940D01*
X79356166Y-89585334D01*
X79391522Y-89525073D01*
X79453846Y-89493491D01*
X79478259Y-89491424D01*
X85590000Y-89580000D01*
X85362625Y-87164141D01*
X85375941Y-87095553D01*
X85424225Y-87045052D01*
X85484725Y-87028530D01*
X87974124Y-87001373D01*
X88041375Y-87020325D01*
G37*
%TD.AperFunction*%
%TD*%
%TA.AperFunction,Conductor*%
%TO.N,/BATT_OUT+*%
G36*
X112366463Y-123999631D02*
G01*
X112433444Y-124019515D01*
X112479041Y-124072455D01*
X112490093Y-124123536D01*
X112499906Y-137095906D01*
X112480272Y-137162961D01*
X112427503Y-137208755D01*
X112375906Y-137220000D01*
X104420000Y-137220000D01*
X102787725Y-142608473D01*
X102749450Y-142666927D01*
X102685649Y-142695408D01*
X102664432Y-142696438D01*
X101268096Y-142644401D01*
X101201836Y-142622233D01*
X101158080Y-142567762D01*
X101148721Y-142521829D01*
X101091238Y-137208755D01*
X101081287Y-136289009D01*
X101100245Y-136221763D01*
X101152551Y-136175440D01*
X101198854Y-136163837D01*
X103780000Y-136030000D01*
X105070000Y-134670000D01*
X105820000Y-130350000D01*
X105790588Y-124104954D01*
X105809957Y-124037825D01*
X105862545Y-123991821D01*
X105914956Y-123980373D01*
X112366463Y-123999631D01*
G37*
%TD.AperFunction*%
%TD*%
%TA.AperFunction,Conductor*%
%TO.N,GND*%
G36*
X91209159Y-132339925D02*
G01*
X91255123Y-132392547D01*
X91266487Y-132447910D01*
X91153303Y-136569691D01*
X91131786Y-136636165D01*
X91077746Y-136680453D01*
X91029646Y-136690287D01*
X78706893Y-136719697D01*
X78639807Y-136700172D01*
X78593926Y-136647478D01*
X78582624Y-136593135D01*
X78667497Y-132490951D01*
X78688564Y-132424335D01*
X78742303Y-132379682D01*
X78790973Y-132369519D01*
X91142044Y-132320507D01*
X91209159Y-132339925D01*
G37*
%TD.AperFunction*%
%TD*%
%TA.AperFunction,Conductor*%
%TO.N,/sw_OUT*%
G36*
X91396958Y-110933331D02*
G01*
X91445661Y-110983429D01*
X91460000Y-111041313D01*
X91460000Y-131069321D01*
X91440315Y-131136360D01*
X91387511Y-131182115D01*
X91339365Y-131193275D01*
X89324501Y-131247977D01*
X78461988Y-131542885D01*
X78394442Y-131525028D01*
X78347271Y-131473486D01*
X78335454Y-131404622D01*
X78344093Y-131371413D01*
X80207550Y-126880006D01*
X80245563Y-126829954D01*
X85270000Y-122890000D01*
X85380192Y-117956773D01*
X85401368Y-117890195D01*
X85441036Y-117852817D01*
X85547656Y-117789763D01*
X85575041Y-117762376D01*
X85587325Y-117752537D01*
X85587144Y-117752318D01*
X85593157Y-117747342D01*
X85593162Y-117747340D01*
X85639384Y-117698116D01*
X85642033Y-117695384D01*
X85661623Y-117675796D01*
X85664096Y-117672606D01*
X85671682Y-117663722D01*
X85701693Y-117631767D01*
X85711389Y-117614128D01*
X85722073Y-117597861D01*
X85734408Y-117581962D01*
X85751817Y-117541728D01*
X85756955Y-117531243D01*
X85778069Y-117492840D01*
X85778069Y-117492838D01*
X85778072Y-117492834D01*
X85783078Y-117473334D01*
X85789382Y-117454924D01*
X85797370Y-117436465D01*
X85797373Y-117436459D01*
X85801567Y-117409977D01*
X85804230Y-117393166D01*
X85806596Y-117381737D01*
X85817500Y-117339272D01*
X85817500Y-117319135D01*
X85819027Y-117299735D01*
X85822174Y-117279867D01*
X85818050Y-117236238D01*
X85817500Y-117224569D01*
X85817500Y-116196036D01*
X85819696Y-116172803D01*
X85819836Y-116172063D01*
X85821239Y-116164714D01*
X85817745Y-116109178D01*
X85817500Y-116101392D01*
X85817500Y-116085531D01*
X85817500Y-116085524D01*
X85815506Y-116069748D01*
X85814779Y-116062043D01*
X85811284Y-116006484D01*
X85808736Y-115998645D01*
X85803647Y-115975872D01*
X85802616Y-115967707D01*
X85801205Y-115964143D01*
X85792499Y-115918499D01*
X85792499Y-115866548D01*
X85782517Y-115798028D01*
X85730848Y-115692338D01*
X85730847Y-115692337D01*
X85730847Y-115692336D01*
X85647663Y-115609152D01*
X85541971Y-115557482D01*
X85532772Y-115554640D01*
X85533204Y-115553238D01*
X85479173Y-115528440D01*
X85441510Y-115469591D01*
X85436584Y-115432119D01*
X85527443Y-111364472D01*
X85548620Y-111297890D01*
X85602432Y-111253325D01*
X85644309Y-111243445D01*
X91328904Y-110917516D01*
X91396958Y-110933331D01*
G37*
%TD.AperFunction*%
%TD*%
%TA.AperFunction,Conductor*%
%TO.N,/BATT_POS*%
G36*
X95268629Y-86677903D02*
G01*
X95335344Y-86698654D01*
X95380251Y-86752182D01*
X95390311Y-86811031D01*
X95190000Y-89519999D01*
X95190000Y-89520000D01*
X99275874Y-89500213D01*
X99343006Y-89519573D01*
X99354342Y-89527712D01*
X101858284Y-91548268D01*
X101898094Y-91605687D01*
X101903889Y-91656170D01*
X101510635Y-95914822D01*
X101484869Y-95979767D01*
X101428082Y-96020473D01*
X101384361Y-96027388D01*
X98493772Y-95962117D01*
X98427194Y-95940924D01*
X98382643Y-95887101D01*
X98376519Y-95869191D01*
X97420000Y-92170000D01*
X97419999Y-92169999D01*
X93811486Y-92110844D01*
X93744778Y-92090064D01*
X93724261Y-92072937D01*
X93525029Y-91866326D01*
X93492665Y-91804404D01*
X93490292Y-91779535D01*
X93519274Y-86775262D01*
X93539347Y-86708340D01*
X93592415Y-86662891D01*
X93645246Y-86651998D01*
X95268629Y-86677903D01*
G37*
%TD.AperFunction*%
%TD*%
%TA.AperFunction,Conductor*%
%TO.N,/sw_1*%
G36*
X102764942Y-112289528D02*
G01*
X102829920Y-112315207D01*
X102870700Y-112371941D01*
X102877676Y-112415511D01*
X102741049Y-119207802D01*
X102720020Y-119274432D01*
X102701929Y-119295727D01*
X102090000Y-119869998D01*
X102090000Y-119870000D01*
X106739292Y-119831093D01*
X106806492Y-119850216D01*
X106852687Y-119902635D01*
X106864206Y-119960585D01*
X106744414Y-122660500D01*
X106721777Y-122726601D01*
X106666997Y-122769971D01*
X106641890Y-122777151D01*
X103880000Y-123259999D01*
X103889886Y-134115435D01*
X103870262Y-134182492D01*
X103817500Y-134228295D01*
X103765435Y-134239547D01*
X93012984Y-134200447D01*
X92946017Y-134180519D01*
X92900454Y-134127549D01*
X92889436Y-134077016D01*
X92840567Y-123413815D01*
X92859944Y-123346686D01*
X92912538Y-123300690D01*
X92963811Y-123289249D01*
X94490000Y-123280000D01*
X94312110Y-111657885D01*
X94330766Y-111590554D01*
X94382863Y-111543996D01*
X94447332Y-111532499D01*
X102764942Y-112289528D01*
G37*
%TD.AperFunction*%
%TD*%
%TA.AperFunction,Conductor*%
%TO.N,GND*%
G36*
X96422715Y-93720407D02*
G01*
X96469131Y-93772630D01*
X96480991Y-93824572D01*
X96509999Y-97469999D01*
X96510000Y-97470000D01*
X97869999Y-97470000D01*
X97870000Y-97470000D01*
X101452648Y-97344462D01*
X101520334Y-97361787D01*
X101567910Y-97412956D01*
X101580985Y-97467427D01*
X101609093Y-101102738D01*
X101589928Y-101169928D01*
X101537479Y-101216090D01*
X101492972Y-101227447D01*
X100509999Y-101290000D01*
X100685642Y-106500716D01*
X100668227Y-106568380D01*
X100616994Y-106615888D01*
X100560646Y-106628888D01*
X78700598Y-106441036D01*
X78633731Y-106420777D01*
X78588431Y-106367581D01*
X78577688Y-106319422D01*
X78452416Y-99786004D01*
X78470812Y-99718601D01*
X78522729Y-99671842D01*
X78576025Y-99659629D01*
X85260000Y-99640000D01*
X85367721Y-93960122D01*
X85388674Y-93893471D01*
X85442336Y-93848725D01*
X85490136Y-93838486D01*
X96355435Y-93701569D01*
X96422715Y-93720407D01*
G37*
%TD.AperFunction*%
%TD*%
%TA.AperFunction,Conductor*%
%TO.N,/out_1*%
G36*
X93438654Y-92830616D02*
G01*
X93435816Y-92900428D01*
X93395686Y-92957623D01*
X93335892Y-92983444D01*
X91697804Y-93217456D01*
X91690156Y-93218307D01*
X85642677Y-93702105D01*
X85632791Y-93702500D01*
X85584176Y-93702500D01*
X85575067Y-93703827D01*
X85558768Y-93705110D01*
X85502957Y-93705814D01*
X85488466Y-93705997D01*
X85488460Y-93705997D01*
X85488451Y-93705998D01*
X85462386Y-93708924D01*
X85413684Y-93719356D01*
X85397603Y-93721711D01*
X85343999Y-93726000D01*
X84328000Y-94487999D01*
X84328000Y-94488000D01*
X84570808Y-97401703D01*
X84556759Y-97470145D01*
X84507938Y-97520127D01*
X84447237Y-97536000D01*
X78356000Y-97536000D01*
X78288961Y-97516315D01*
X78243206Y-97463511D01*
X78232000Y-97412000D01*
X78232000Y-94104000D01*
X78251685Y-94036961D01*
X78304489Y-93991206D01*
X78356000Y-93980000D01*
X81788001Y-93980000D01*
X83058000Y-93599000D01*
X84328000Y-93218000D01*
X85820761Y-92222826D01*
X85887460Y-92202018D01*
X85889544Y-92202000D01*
X91694000Y-92202000D01*
X93218000Y-91948000D01*
X93438654Y-92830616D01*
G37*
%TD.AperFunction*%
%TD*%
%TA.AperFunction,Conductor*%
%TO.N,+5V*%
G36*
X89344974Y-71432443D02*
G01*
X89390781Y-71485202D01*
X89402016Y-71539132D01*
X89224370Y-81082702D01*
X89412462Y-84055937D01*
X89397049Y-84124086D01*
X89364201Y-84162138D01*
X89351721Y-84171715D01*
X89351719Y-84171716D01*
X89351718Y-84171718D01*
X89279527Y-84265798D01*
X89255463Y-84297160D01*
X89194956Y-84443237D01*
X89194955Y-84443239D01*
X89174318Y-84599998D01*
X89174318Y-84600001D01*
X89194955Y-84756760D01*
X89194956Y-84756762D01*
X89255464Y-84902841D01*
X89351718Y-85028282D01*
X89435506Y-85092574D01*
X89476708Y-85149000D01*
X89483772Y-85183120D01*
X89550000Y-86229998D01*
X89550001Y-86230003D01*
X89761847Y-87270315D01*
X89764341Y-87295334D01*
X89754635Y-91653442D01*
X89734801Y-91720438D01*
X89681895Y-91766075D01*
X89635191Y-91777082D01*
X88522926Y-91817974D01*
X88455208Y-91800766D01*
X88407544Y-91749679D01*
X88394370Y-91694058D01*
X88394370Y-86882701D01*
X88294370Y-86332701D01*
X88294369Y-86332701D01*
X84874368Y-86442701D01*
X82624370Y-87042700D01*
X82624368Y-87042702D01*
X82314378Y-87892677D01*
X82314366Y-87892712D01*
X82202434Y-88268484D01*
X82164430Y-88327114D01*
X82100761Y-88355891D01*
X82076236Y-88356867D01*
X79430040Y-88199576D01*
X79364287Y-88175948D01*
X79321746Y-88120522D01*
X79313402Y-88076832D01*
X79175412Y-71547610D01*
X79194537Y-71480412D01*
X79246957Y-71434218D01*
X79299282Y-71422578D01*
X89277918Y-71412824D01*
X89344974Y-71432443D01*
G37*
%TD.AperFunction*%
%TD*%
M02*
