%TF.GenerationSoftware,KiCad,Pcbnew,7.0.10*%
%TF.CreationDate,2024-02-05T00:38:03+01:00*%
%TF.ProjectId,Powerlabstech_Stool,506f7765-726c-4616-9273-746563685f53,rev?*%
%TF.SameCoordinates,Original*%
%TF.FileFunction,Soldermask,Bot*%
%TF.FilePolarity,Negative*%
%FSLAX46Y46*%
G04 Gerber Fmt 4.6, Leading zero omitted, Abs format (unit mm)*
G04 Created by KiCad (PCBNEW 7.0.10) date 2024-02-05 00:38:03*
%MOMM*%
%LPD*%
G01*
G04 APERTURE LIST*
%ADD10R,2.600000X2.600000*%
%ADD11C,2.600000*%
%ADD12C,2.200000*%
%ADD13R,1.700000X1.700000*%
%ADD14O,1.700000X1.700000*%
%ADD15O,1.800000X1.800000*%
%ADD16O,1.500000X1.500000*%
%ADD17O,1.700000X1.100000*%
%ADD18R,2.400000X2.400000*%
%ADD19C,2.400000*%
%ADD20C,3.000000*%
%ADD21C,2.500000*%
G04 APERTURE END LIST*
D10*
%TO.C,D3*%
X144620000Y-68080000D03*
D11*
X144620000Y-73160000D03*
X144620000Y-78240000D03*
X144620000Y-83320000D03*
%TD*%
D12*
%TO.C,H1*%
X148082000Y-62230000D03*
%TD*%
D13*
%TO.C,J5*%
X81215000Y-123610000D03*
D14*
X78675000Y-123610000D03*
%TD*%
D10*
%TO.C,J1*%
X146375000Y-132565000D03*
D11*
X146375000Y-127485000D03*
%TD*%
D12*
%TO.C,H3*%
X146304000Y-140208000D03*
%TD*%
D15*
%TO.C,U5*%
X115385000Y-60582000D03*
D16*
X115685000Y-63612000D03*
X120535000Y-63612000D03*
D15*
X120835000Y-60582000D03*
D14*
X109220000Y-60452000D03*
X109220000Y-62992000D03*
D13*
X109220000Y-65532000D03*
D14*
X109220000Y-68072000D03*
X109220000Y-70612000D03*
X109220000Y-73152000D03*
X109220000Y-75692000D03*
D13*
X109220000Y-78232000D03*
D14*
X109220000Y-80772000D03*
X109220000Y-83312000D03*
X109220000Y-85852000D03*
X109220000Y-88392000D03*
D13*
X109220000Y-90932000D03*
D14*
X109220000Y-93472000D03*
X109220000Y-96012000D03*
X109220000Y-98552000D03*
X109220000Y-101092000D03*
D13*
X109220000Y-103632000D03*
D14*
X109220000Y-106172000D03*
X109220000Y-108712000D03*
X127000000Y-108712000D03*
X127000000Y-106172000D03*
D13*
X127000000Y-103632000D03*
D14*
X127000000Y-101092000D03*
X127000000Y-98552000D03*
X127000000Y-96012000D03*
X127000000Y-93472000D03*
D13*
X127000000Y-90932000D03*
D14*
X127000000Y-88392000D03*
X127000000Y-85852000D03*
X127000000Y-83312000D03*
X127000000Y-80772000D03*
D13*
X127000000Y-78232000D03*
D14*
X127000000Y-75692000D03*
X127000000Y-73152000D03*
X127000000Y-70612000D03*
X127000000Y-68072000D03*
D13*
X127000000Y-65532000D03*
D14*
X127000000Y-62992000D03*
X127000000Y-60452000D03*
%TD*%
D13*
%TO.C,J3*%
X121600000Y-120105000D03*
D14*
X121600000Y-117565000D03*
%TD*%
D12*
%TO.C,H4*%
X79520000Y-140620000D03*
%TD*%
D17*
%TO.C,J6*%
X82900000Y-108755000D03*
X79100000Y-108755000D03*
X82900000Y-117395000D03*
X79100000Y-117395000D03*
%TD*%
D13*
%TO.C,J4*%
X83945000Y-61680000D03*
D14*
X86485000Y-61680000D03*
X89025000Y-61680000D03*
X91565000Y-61680000D03*
X94105000Y-61680000D03*
%TD*%
D13*
%TO.C,BT1*%
X112870000Y-119985000D03*
D14*
X112870000Y-117445000D03*
%TD*%
D12*
%TO.C,H2*%
X79000000Y-65500000D03*
%TD*%
D18*
%TO.C,C1*%
X131190000Y-130930000D03*
D19*
X131190000Y-123430000D03*
%TD*%
D13*
%TO.C,J2*%
X140970000Y-89662000D03*
D14*
X143510000Y-89662000D03*
%TD*%
D20*
%TO.C,K1*%
X143088000Y-97472000D03*
D21*
X137038000Y-99422000D03*
D20*
X137038000Y-111622000D03*
X149088000Y-111672000D03*
D21*
X149038000Y-99422000D03*
%TD*%
M02*
