%TF.GenerationSoftware,KiCad,Pcbnew,7.0.10*%
%TF.CreationDate,2024-02-05T00:38:03+01:00*%
%TF.ProjectId,Powerlabstech_Stool,506f7765-726c-4616-9273-746563685f53,rev?*%
%TF.SameCoordinates,Original*%
%TF.FileFunction,Paste,Top*%
%TF.FilePolarity,Positive*%
%FSLAX46Y46*%
G04 Gerber Fmt 4.6, Leading zero omitted, Abs format (unit mm)*
G04 Created by KiCad (PCBNEW 7.0.10) date 2024-02-05 00:38:03*
%MOMM*%
%LPD*%
G01*
G04 APERTURE LIST*
G04 Aperture macros list*
%AMRoundRect*
0 Rectangle with rounded corners*
0 $1 Rounding radius*
0 $2 $3 $4 $5 $6 $7 $8 $9 X,Y pos of 4 corners*
0 Add a 4 corners polygon primitive as box body*
4,1,4,$2,$3,$4,$5,$6,$7,$8,$9,$2,$3,0*
0 Add four circle primitives for the rounded corners*
1,1,$1+$1,$2,$3*
1,1,$1+$1,$4,$5*
1,1,$1+$1,$6,$7*
1,1,$1+$1,$8,$9*
0 Add four rect primitives between the rounded corners*
20,1,$1+$1,$2,$3,$4,$5,0*
20,1,$1+$1,$4,$5,$6,$7,0*
20,1,$1+$1,$6,$7,$8,$9,0*
20,1,$1+$1,$8,$9,$2,$3,0*%
G04 Aperture macros list end*
%ADD10RoundRect,0.250000X1.400000X1.000000X-1.400000X1.000000X-1.400000X-1.000000X1.400000X-1.000000X0*%
%ADD11RoundRect,0.150000X-0.150000X0.587500X-0.150000X-0.587500X0.150000X-0.587500X0.150000X0.587500X0*%
%ADD12RoundRect,0.250000X-0.550000X1.500000X-0.550000X-1.500000X0.550000X-1.500000X0.550000X1.500000X0*%
%ADD13RoundRect,0.450000X1.800000X2.050000X-1.800000X2.050000X-1.800000X-2.050000X1.800000X-2.050000X0*%
%ADD14RoundRect,0.200000X-0.275000X0.200000X-0.275000X-0.200000X0.275000X-0.200000X0.275000X0.200000X0*%
%ADD15RoundRect,0.200000X0.275000X-0.200000X0.275000X0.200000X-0.275000X0.200000X-0.275000X-0.200000X0*%
%ADD16RoundRect,0.200000X0.200000X0.275000X-0.200000X0.275000X-0.200000X-0.275000X0.200000X-0.275000X0*%
%ADD17RoundRect,0.225000X0.225000X0.250000X-0.225000X0.250000X-0.225000X-0.250000X0.225000X-0.250000X0*%
%ADD18RoundRect,0.150000X-0.587500X-0.150000X0.587500X-0.150000X0.587500X0.150000X-0.587500X0.150000X0*%
%ADD19RoundRect,0.200000X-0.200000X-0.275000X0.200000X-0.275000X0.200000X0.275000X-0.200000X0.275000X0*%
%ADD20RoundRect,0.250000X-1.000000X-0.650000X1.000000X-0.650000X1.000000X0.650000X-1.000000X0.650000X0*%
%ADD21RoundRect,0.250000X-0.300000X2.050000X-0.300000X-2.050000X0.300000X-2.050000X0.300000X2.050000X0*%
%ADD22RoundRect,0.250000X-2.375000X2.025000X-2.375000X-2.025000X2.375000X-2.025000X2.375000X2.025000X0*%
%ADD23RoundRect,0.175000X-0.425000X0.175000X-0.425000X-0.175000X0.425000X-0.175000X0.425000X0.175000X0*%
%ADD24RoundRect,0.190000X0.410000X-0.190000X0.410000X0.190000X-0.410000X0.190000X-0.410000X-0.190000X0*%
%ADD25RoundRect,0.200000X0.400000X-0.200000X0.400000X0.200000X-0.400000X0.200000X-0.400000X-0.200000X0*%
%ADD26RoundRect,0.175000X0.425000X-0.175000X0.425000X0.175000X-0.425000X0.175000X-0.425000X-0.175000X0*%
%ADD27RoundRect,0.190000X-0.410000X0.190000X-0.410000X-0.190000X0.410000X-0.190000X0.410000X0.190000X0*%
%ADD28RoundRect,0.200000X-0.400000X0.200000X-0.400000X-0.200000X0.400000X-0.200000X0.400000X0.200000X0*%
%ADD29O,1.700000X1.100000*%
%ADD30RoundRect,0.250000X0.850000X0.350000X-0.850000X0.350000X-0.850000X-0.350000X0.850000X-0.350000X0*%
%ADD31RoundRect,0.250000X1.275000X1.125000X-1.275000X1.125000X-1.275000X-1.125000X1.275000X-1.125000X0*%
%ADD32RoundRect,0.225000X0.250000X-0.225000X0.250000X0.225000X-0.250000X0.225000X-0.250000X-0.225000X0*%
%ADD33RoundRect,0.250000X-1.400000X-1.000000X1.400000X-1.000000X1.400000X1.000000X-1.400000X1.000000X0*%
%ADD34R,2.000000X1.780000*%
%ADD35RoundRect,0.250000X0.300000X-2.050000X0.300000X2.050000X-0.300000X2.050000X-0.300000X-2.050000X0*%
%ADD36RoundRect,0.250000X2.375000X-2.025000X2.375000X2.025000X-2.375000X2.025000X-2.375000X-2.025000X0*%
%ADD37RoundRect,0.225000X-0.225000X-0.250000X0.225000X-0.250000X0.225000X0.250000X-0.225000X0.250000X0*%
%ADD38RoundRect,0.250000X1.000000X0.650000X-1.000000X0.650000X-1.000000X-0.650000X1.000000X-0.650000X0*%
%ADD39RoundRect,0.225000X-0.250000X0.225000X-0.250000X-0.225000X0.250000X-0.225000X0.250000X0.225000X0*%
G04 APERTURE END LIST*
D10*
%TO.C,D4*%
X80772000Y-102460000D03*
X80772000Y-95660000D03*
%TD*%
D11*
%TO.C,Q1*%
X136078000Y-92280500D03*
X134178000Y-92280500D03*
X135128000Y-94155500D03*
%TD*%
D12*
%TO.C,C10*%
X81580000Y-128885000D03*
X81580000Y-134285000D03*
%TD*%
D13*
%TO.C,L2*%
X101040000Y-116160000D03*
X90040000Y-116160000D03*
%TD*%
D14*
%TO.C,R7*%
X133696000Y-82641000D03*
X133696000Y-84291000D03*
%TD*%
D15*
%TO.C,R2*%
X116200000Y-142425000D03*
X116200000Y-140775000D03*
%TD*%
D13*
%TO.C,L1*%
X96550000Y-75940000D03*
X85550000Y-75940000D03*
%TD*%
D16*
%TO.C,R14*%
X82325000Y-106600000D03*
X80675000Y-106600000D03*
%TD*%
D17*
%TO.C,C9*%
X101825000Y-141960000D03*
X100275000Y-141960000D03*
%TD*%
D18*
%TO.C,Q2*%
X135620500Y-71848000D03*
X135620500Y-73748000D03*
X137495500Y-72798000D03*
%TD*%
D19*
%TO.C,R12*%
X116945000Y-119895000D03*
X118595000Y-119895000D03*
%TD*%
D15*
%TO.C,R3*%
X124200000Y-142425000D03*
X124200000Y-140775000D03*
%TD*%
D20*
%TO.C,D1*%
X131500000Y-140000000D03*
X135500000Y-140000000D03*
%TD*%
D16*
%TO.C,R4*%
X135953000Y-90170000D03*
X134303000Y-90170000D03*
%TD*%
D18*
%TO.C,Q4*%
X135620500Y-82516000D03*
X135620500Y-84416000D03*
X137495500Y-83466000D03*
%TD*%
D21*
%TO.C,U3*%
X94170000Y-89380000D03*
X92470000Y-89380000D03*
X90770000Y-89380000D03*
D22*
X93545000Y-96105000D03*
X87995000Y-96105000D03*
X93545000Y-100955000D03*
X87995000Y-100955000D03*
D21*
X89070000Y-89380000D03*
X87370000Y-89380000D03*
%TD*%
D19*
%TO.C,R11*%
X89091000Y-139585000D03*
X90741000Y-139585000D03*
%TD*%
D14*
%TO.C,R6*%
X133510000Y-77053000D03*
X133510000Y-78703000D03*
%TD*%
D16*
%TO.C,R16*%
X82225000Y-119700000D03*
X80575000Y-119700000D03*
%TD*%
D23*
%TO.C,J6*%
X82980000Y-112575000D03*
D24*
X82980000Y-114595000D03*
D25*
X82980000Y-115825000D03*
D26*
X82980000Y-113575000D03*
D27*
X82980000Y-111555000D03*
D28*
X82980000Y-110325000D03*
D29*
X82900000Y-108755000D03*
X79100000Y-108755000D03*
X82900000Y-117395000D03*
X79100000Y-117395000D03*
%TD*%
D12*
%TO.C,C7*%
X80750000Y-86190000D03*
X80750000Y-91590000D03*
%TD*%
D30*
%TO.C,Q5*%
X115452000Y-129280000D03*
D31*
X110827000Y-128525000D03*
X110827000Y-125475000D03*
X107477000Y-128525000D03*
X107477000Y-125475000D03*
D30*
X115452000Y-124720000D03*
%TD*%
D32*
%TO.C,C5*%
X97570000Y-90080000D03*
X97570000Y-88530000D03*
%TD*%
%TO.C,C2*%
X114000000Y-138175000D03*
X114000000Y-136625000D03*
%TD*%
D11*
%TO.C,Q6*%
X119822000Y-126570500D03*
X117922000Y-126570500D03*
X118872000Y-128445500D03*
%TD*%
D33*
%TO.C,D5*%
X107560000Y-114662500D03*
X107560000Y-121462500D03*
%TD*%
D18*
%TO.C,Q3*%
X135620500Y-76928000D03*
X135620500Y-78828000D03*
X137495500Y-77878000D03*
%TD*%
D34*
%TO.C,U1*%
X123820000Y-138420000D03*
X123820000Y-135880000D03*
X116200000Y-135880000D03*
X116200000Y-138420000D03*
%TD*%
D12*
%TO.C,C8*%
X108712000Y-134968000D03*
X108712000Y-140368000D03*
%TD*%
D16*
%TO.C,R1*%
X128410000Y-142175000D03*
X126760000Y-142175000D03*
%TD*%
D14*
%TO.C,R5*%
X133510000Y-71973000D03*
X133510000Y-73623000D03*
%TD*%
D16*
%TO.C,R10*%
X119415000Y-124460000D03*
X117765000Y-124460000D03*
%TD*%
D35*
%TO.C,U4*%
X95020000Y-138525000D03*
X96720000Y-138525000D03*
X98420000Y-138525000D03*
D36*
X95645000Y-131800000D03*
X101195000Y-131800000D03*
X95645000Y-126950000D03*
X101195000Y-126950000D03*
D35*
X100120000Y-138525000D03*
X101820000Y-138525000D03*
%TD*%
D12*
%TO.C,C4*%
X100330000Y-93880000D03*
X100330000Y-99280000D03*
%TD*%
D17*
%TO.C,C13*%
X118505000Y-116025000D03*
X116955000Y-116025000D03*
%TD*%
D16*
%TO.C,R13*%
X118615000Y-117765000D03*
X116965000Y-117765000D03*
%TD*%
D19*
%TO.C,R8*%
X113315000Y-131810000D03*
X114965000Y-131810000D03*
%TD*%
D17*
%TO.C,C3*%
X93935000Y-64520000D03*
X92385000Y-64520000D03*
%TD*%
D37*
%TO.C,C6*%
X89025000Y-85970000D03*
X90575000Y-85970000D03*
%TD*%
D32*
%TO.C,C14*%
X85500000Y-111445000D03*
X85500000Y-109895000D03*
%TD*%
D38*
%TO.C,D2*%
X144240000Y-93980000D03*
X140240000Y-93980000D03*
%TD*%
D16*
%TO.C,R9*%
X90741000Y-137685000D03*
X89091000Y-137685000D03*
%TD*%
D39*
%TO.C,C12*%
X85190000Y-114575000D03*
X85190000Y-116125000D03*
%TD*%
D12*
%TO.C,C11*%
X89020000Y-128885000D03*
X89020000Y-134285000D03*
%TD*%
M02*
