%TF.GenerationSoftware,KiCad,Pcbnew,7.0.10*%
%TF.CreationDate,2024-02-03T01:06:53+01:00*%
%TF.ProjectId,Powerlabstech_Stool,506f7765-726c-4616-9273-746563685f53,rev?*%
%TF.SameCoordinates,Original*%
%TF.FileFunction,Soldermask,Top*%
%TF.FilePolarity,Negative*%
%FSLAX46Y46*%
G04 Gerber Fmt 4.6, Leading zero omitted, Abs format (unit mm)*
G04 Created by KiCad (PCBNEW 7.0.10) date 2024-02-03 01:06:53*
%MOMM*%
%LPD*%
G01*
G04 APERTURE LIST*
G04 Aperture macros list*
%AMRoundRect*
0 Rectangle with rounded corners*
0 $1 Rounding radius*
0 $2 $3 $4 $5 $6 $7 $8 $9 X,Y pos of 4 corners*
0 Add a 4 corners polygon primitive as box body*
4,1,4,$2,$3,$4,$5,$6,$7,$8,$9,$2,$3,0*
0 Add four circle primitives for the rounded corners*
1,1,$1+$1,$2,$3*
1,1,$1+$1,$4,$5*
1,1,$1+$1,$6,$7*
1,1,$1+$1,$8,$9*
0 Add four rect primitives between the rounded corners*
20,1,$1+$1,$2,$3,$4,$5,0*
20,1,$1+$1,$4,$5,$6,$7,0*
20,1,$1+$1,$6,$7,$8,$9,0*
20,1,$1+$1,$8,$9,$2,$3,0*%
G04 Aperture macros list end*
%ADD10RoundRect,0.175000X-0.425000X0.175000X-0.425000X-0.175000X0.425000X-0.175000X0.425000X0.175000X0*%
%ADD11RoundRect,0.190000X0.410000X-0.190000X0.410000X0.190000X-0.410000X0.190000X-0.410000X-0.190000X0*%
%ADD12RoundRect,0.200000X0.400000X-0.200000X0.400000X0.200000X-0.400000X0.200000X-0.400000X-0.200000X0*%
%ADD13RoundRect,0.175000X0.425000X-0.175000X0.425000X0.175000X-0.425000X0.175000X-0.425000X-0.175000X0*%
%ADD14RoundRect,0.190000X-0.410000X0.190000X-0.410000X-0.190000X0.410000X-0.190000X0.410000X0.190000X0*%
%ADD15RoundRect,0.200000X-0.400000X0.200000X-0.400000X-0.200000X0.400000X-0.200000X0.400000X0.200000X0*%
%ADD16O,1.700000X1.100000*%
%ADD17RoundRect,0.225000X0.250000X-0.225000X0.250000X0.225000X-0.250000X0.225000X-0.250000X-0.225000X0*%
%ADD18R,2.600000X2.600000*%
%ADD19C,2.600000*%
%ADD20RoundRect,0.250000X1.400000X1.000000X-1.400000X1.000000X-1.400000X-1.000000X1.400000X-1.000000X0*%
%ADD21C,2.200000*%
%ADD22R,1.700000X1.700000*%
%ADD23O,1.700000X1.700000*%
%ADD24RoundRect,0.150000X-0.150000X0.587500X-0.150000X-0.587500X0.150000X-0.587500X0.150000X0.587500X0*%
%ADD25RoundRect,0.250000X-0.550000X1.500000X-0.550000X-1.500000X0.550000X-1.500000X0.550000X1.500000X0*%
%ADD26RoundRect,0.450000X1.800000X2.050000X-1.800000X2.050000X-1.800000X-2.050000X1.800000X-2.050000X0*%
%ADD27RoundRect,0.200000X-0.275000X0.200000X-0.275000X-0.200000X0.275000X-0.200000X0.275000X0.200000X0*%
%ADD28RoundRect,0.200000X0.275000X-0.200000X0.275000X0.200000X-0.275000X0.200000X-0.275000X-0.200000X0*%
%ADD29RoundRect,0.225000X0.225000X0.250000X-0.225000X0.250000X-0.225000X-0.250000X0.225000X-0.250000X0*%
%ADD30RoundRect,0.150000X-0.587500X-0.150000X0.587500X-0.150000X0.587500X0.150000X-0.587500X0.150000X0*%
%ADD31RoundRect,0.200000X-0.200000X-0.275000X0.200000X-0.275000X0.200000X0.275000X-0.200000X0.275000X0*%
%ADD32RoundRect,0.250000X-1.000000X-0.650000X1.000000X-0.650000X1.000000X0.650000X-1.000000X0.650000X0*%
%ADD33RoundRect,0.200000X0.200000X0.275000X-0.200000X0.275000X-0.200000X-0.275000X0.200000X-0.275000X0*%
%ADD34O,1.800000X1.800000*%
%ADD35O,1.500000X1.500000*%
%ADD36R,3.500000X1.700000*%
%ADD37RoundRect,0.250000X-0.300000X2.050000X-0.300000X-2.050000X0.300000X-2.050000X0.300000X2.050000X0*%
%ADD38RoundRect,0.250002X-5.149998X4.449998X-5.149998X-4.449998X5.149998X-4.449998X5.149998X4.449998X0*%
%ADD39RoundRect,0.250000X0.850000X0.350000X-0.850000X0.350000X-0.850000X-0.350000X0.850000X-0.350000X0*%
%ADD40RoundRect,0.249997X2.950003X2.650003X-2.950003X2.650003X-2.950003X-2.650003X2.950003X-2.650003X0*%
%ADD41RoundRect,0.250000X-1.400000X-1.000000X1.400000X-1.000000X1.400000X1.000000X-1.400000X1.000000X0*%
%ADD42R,2.000000X1.780000*%
%ADD43RoundRect,0.250000X0.300000X-2.050000X0.300000X2.050000X-0.300000X2.050000X-0.300000X-2.050000X0*%
%ADD44RoundRect,0.250002X5.149998X-4.449998X5.149998X4.449998X-5.149998X4.449998X-5.149998X-4.449998X0*%
%ADD45RoundRect,0.225000X-0.225000X-0.250000X0.225000X-0.250000X0.225000X0.250000X-0.225000X0.250000X0*%
%ADD46RoundRect,0.250000X1.000000X0.650000X-1.000000X0.650000X-1.000000X-0.650000X1.000000X-0.650000X0*%
%ADD47R,2.400000X2.400000*%
%ADD48C,2.400000*%
%ADD49RoundRect,0.225000X-0.250000X0.225000X-0.250000X-0.225000X0.250000X-0.225000X0.250000X0.225000X0*%
%ADD50C,3.000000*%
%ADD51C,2.500000*%
G04 APERTURE END LIST*
D10*
%TO.C,J6*%
X83090000Y-112590000D03*
D11*
X83090000Y-114610000D03*
D12*
X83090000Y-115840000D03*
D13*
X83090000Y-113590000D03*
D14*
X83090000Y-111570000D03*
D15*
X83090000Y-110340000D03*
D16*
X83010000Y-108770000D03*
X79210000Y-108770000D03*
X83010000Y-117410000D03*
X79210000Y-117410000D03*
%TD*%
D17*
%TO.C,C14*%
X85500000Y-109895000D03*
X85500000Y-111445000D03*
%TD*%
D18*
%TO.C,D3*%
X144620000Y-68080000D03*
D19*
X144620000Y-73160000D03*
X144620000Y-78240000D03*
X144620000Y-83320000D03*
%TD*%
D20*
%TO.C,D4*%
X80772000Y-102460000D03*
X80772000Y-95660000D03*
%TD*%
D21*
%TO.C,H1*%
X148082000Y-62230000D03*
%TD*%
D22*
%TO.C,J5*%
X81215000Y-123610000D03*
D23*
X78675000Y-123610000D03*
%TD*%
D24*
%TO.C,Q1*%
X136078000Y-92280500D03*
X134178000Y-92280500D03*
X135128000Y-94155500D03*
%TD*%
D25*
%TO.C,C10*%
X81580000Y-128885000D03*
X81580000Y-134285000D03*
%TD*%
D26*
%TO.C,L2*%
X90040000Y-116160000D03*
X101040000Y-116160000D03*
%TD*%
D27*
%TO.C,R7*%
X133696000Y-82641000D03*
X133696000Y-84291000D03*
%TD*%
D19*
%TO.C,J1*%
X146375000Y-127485000D03*
D18*
X146375000Y-132565000D03*
%TD*%
D28*
%TO.C,R2*%
X116200000Y-142425000D03*
X116200000Y-140775000D03*
%TD*%
D26*
%TO.C,L1*%
X96550000Y-75940000D03*
X85550000Y-75940000D03*
%TD*%
D29*
%TO.C,C9*%
X101825000Y-141960000D03*
X100275000Y-141960000D03*
%TD*%
D21*
%TO.C,H3*%
X146304000Y-140208000D03*
%TD*%
D30*
%TO.C,Q2*%
X135620500Y-71848000D03*
X135620500Y-73748000D03*
X137495500Y-72798000D03*
%TD*%
D31*
%TO.C,R12*%
X116945000Y-119895000D03*
X118595000Y-119895000D03*
%TD*%
D28*
%TO.C,R3*%
X124200000Y-142425000D03*
X124200000Y-140775000D03*
%TD*%
D32*
%TO.C,D1*%
X131500000Y-140000000D03*
X135500000Y-140000000D03*
%TD*%
D33*
%TO.C,R4*%
X135953000Y-90170000D03*
X134303000Y-90170000D03*
%TD*%
D34*
%TO.C,U5*%
X115385000Y-60582000D03*
D35*
X115685000Y-63612000D03*
X120535000Y-63612000D03*
D34*
X120835000Y-60582000D03*
D23*
X109220000Y-60452000D03*
D36*
X108320000Y-60452000D03*
D23*
X109220000Y-62992000D03*
D36*
X108320000Y-62992000D03*
D22*
X109220000Y-65532000D03*
D36*
X108320000Y-65532000D03*
D23*
X109220000Y-68072000D03*
D36*
X108320000Y-68072000D03*
D23*
X109220000Y-70612000D03*
D36*
X108320000Y-70612000D03*
D23*
X109220000Y-73152000D03*
D36*
X108320000Y-73152000D03*
D23*
X109220000Y-75692000D03*
D36*
X108320000Y-75692000D03*
D22*
X109220000Y-78232000D03*
D36*
X108320000Y-78232000D03*
D23*
X109220000Y-80772000D03*
D36*
X108320000Y-80772000D03*
D23*
X109220000Y-83312000D03*
D36*
X108320000Y-83312000D03*
D23*
X109220000Y-85852000D03*
D36*
X108320000Y-85852000D03*
D23*
X109220000Y-88392000D03*
D36*
X108320000Y-88392000D03*
D22*
X109220000Y-90932000D03*
D36*
X108320000Y-90932000D03*
D23*
X109220000Y-93472000D03*
D36*
X108320000Y-93472000D03*
D23*
X109220000Y-96012000D03*
D36*
X108320000Y-96012000D03*
D23*
X109220000Y-98552000D03*
D36*
X108320000Y-98552000D03*
D23*
X109220000Y-101092000D03*
D36*
X108320000Y-101092000D03*
D22*
X109220000Y-103632000D03*
D36*
X108320000Y-103632000D03*
D23*
X109220000Y-106172000D03*
D36*
X108320000Y-106172000D03*
D23*
X109220000Y-108712000D03*
D36*
X108320000Y-108712000D03*
D23*
X127000000Y-108712000D03*
D36*
X127900000Y-108712000D03*
D23*
X127000000Y-106172000D03*
D36*
X127900000Y-106172000D03*
D22*
X127000000Y-103632000D03*
D36*
X127900000Y-103632000D03*
D23*
X127000000Y-101092000D03*
D36*
X127900000Y-101092000D03*
D23*
X127000000Y-98552000D03*
D36*
X127900000Y-98552000D03*
D23*
X127000000Y-96012000D03*
D36*
X127900000Y-96012000D03*
D23*
X127000000Y-93472000D03*
D36*
X127900000Y-93472000D03*
D22*
X127000000Y-90932000D03*
D36*
X127900000Y-90932000D03*
D23*
X127000000Y-88392000D03*
D36*
X127900000Y-88392000D03*
D23*
X127000000Y-85852000D03*
D36*
X127900000Y-85852000D03*
D23*
X127000000Y-83312000D03*
D36*
X127900000Y-83312000D03*
D23*
X127000000Y-80772000D03*
D36*
X127900000Y-80772000D03*
D22*
X127000000Y-78232000D03*
D36*
X127900000Y-78232000D03*
D23*
X127000000Y-75692000D03*
D36*
X127900000Y-75692000D03*
D23*
X127000000Y-73152000D03*
D36*
X127900000Y-73152000D03*
D23*
X127000000Y-70612000D03*
D36*
X127900000Y-70612000D03*
D23*
X127000000Y-68072000D03*
D36*
X127900000Y-68072000D03*
D22*
X127000000Y-65532000D03*
D36*
X127900000Y-65532000D03*
D23*
X127000000Y-62992000D03*
D36*
X127900000Y-62992000D03*
D23*
X127000000Y-60452000D03*
D36*
X127900000Y-60452000D03*
%TD*%
D30*
%TO.C,Q4*%
X135620500Y-82516000D03*
X135620500Y-84416000D03*
X137495500Y-83466000D03*
%TD*%
D37*
%TO.C,U3*%
X94170000Y-89380000D03*
X92470000Y-89380000D03*
X90770000Y-89380000D03*
D38*
X90770000Y-98530000D03*
D37*
X89070000Y-89380000D03*
X87370000Y-89380000D03*
%TD*%
D22*
%TO.C,J3*%
X121600000Y-120105000D03*
D23*
X121600000Y-117565000D03*
%TD*%
D31*
%TO.C,R11*%
X89091000Y-139585000D03*
X90741000Y-139585000D03*
%TD*%
D21*
%TO.C,H4*%
X79520000Y-140620000D03*
%TD*%
D27*
%TO.C,R6*%
X133510000Y-77053000D03*
X133510000Y-78703000D03*
%TD*%
D25*
%TO.C,C7*%
X80750000Y-86190000D03*
X80750000Y-91590000D03*
%TD*%
D39*
%TO.C,Q5*%
X115452000Y-129280000D03*
D40*
X109152000Y-127000000D03*
D39*
X115452000Y-124720000D03*
%TD*%
D17*
%TO.C,C5*%
X97570000Y-90080000D03*
X97570000Y-88530000D03*
%TD*%
%TO.C,C2*%
X114000000Y-138175000D03*
X114000000Y-136625000D03*
%TD*%
D24*
%TO.C,Q6*%
X119822000Y-126570500D03*
X117922000Y-126570500D03*
X118872000Y-128445500D03*
%TD*%
D41*
%TO.C,D5*%
X107560000Y-121462500D03*
X107560000Y-114662500D03*
%TD*%
D30*
%TO.C,Q3*%
X135620500Y-76928000D03*
X135620500Y-78828000D03*
X137495500Y-77878000D03*
%TD*%
D22*
%TO.C,J4*%
X83945000Y-61680000D03*
D23*
X86485000Y-61680000D03*
X89025000Y-61680000D03*
X91565000Y-61680000D03*
X94105000Y-61680000D03*
%TD*%
D42*
%TO.C,U1*%
X123820000Y-138420000D03*
X123820000Y-135880000D03*
X116200000Y-135880000D03*
X116200000Y-138420000D03*
%TD*%
D25*
%TO.C,C8*%
X108712000Y-134968000D03*
X108712000Y-140368000D03*
%TD*%
D22*
%TO.C,BT1*%
X112870000Y-119985000D03*
D23*
X112870000Y-117445000D03*
%TD*%
D33*
%TO.C,R1*%
X128410000Y-142175000D03*
X126760000Y-142175000D03*
%TD*%
D27*
%TO.C,R5*%
X133510000Y-71973000D03*
X133510000Y-73623000D03*
%TD*%
D33*
%TO.C,R10*%
X119415000Y-124460000D03*
X117765000Y-124460000D03*
%TD*%
D43*
%TO.C,U4*%
X95020000Y-138525000D03*
X96720000Y-138525000D03*
X98420000Y-138525000D03*
D44*
X98420000Y-129375000D03*
D43*
X100120000Y-138525000D03*
X101820000Y-138525000D03*
%TD*%
D25*
%TO.C,C4*%
X100330000Y-93880000D03*
X100330000Y-99280000D03*
%TD*%
D21*
%TO.C,H2*%
X79000000Y-65500000D03*
%TD*%
D29*
%TO.C,C13*%
X118505000Y-116025000D03*
X116955000Y-116025000D03*
%TD*%
D33*
%TO.C,R13*%
X118615000Y-117765000D03*
X116965000Y-117765000D03*
%TD*%
D31*
%TO.C,R8*%
X113315000Y-131810000D03*
X114965000Y-131810000D03*
%TD*%
D29*
%TO.C,C3*%
X93935000Y-64520000D03*
X92385000Y-64520000D03*
%TD*%
D45*
%TO.C,C6*%
X89025000Y-85970000D03*
X90575000Y-85970000D03*
%TD*%
D46*
%TO.C,D2*%
X144240000Y-93980000D03*
X140240000Y-93980000D03*
%TD*%
D47*
%TO.C,C1*%
X131190000Y-130930000D03*
D48*
X131190000Y-123430000D03*
%TD*%
D33*
%TO.C,R9*%
X90741000Y-137685000D03*
X89091000Y-137685000D03*
%TD*%
D49*
%TO.C,C12*%
X85190000Y-114575000D03*
X85190000Y-116125000D03*
%TD*%
D22*
%TO.C,J2*%
X140970000Y-89662000D03*
D23*
X143510000Y-89662000D03*
%TD*%
D25*
%TO.C,C11*%
X89020000Y-128885000D03*
X89020000Y-134285000D03*
%TD*%
D50*
%TO.C,K1*%
X143088000Y-97472000D03*
D51*
X137038000Y-99422000D03*
D50*
X137038000Y-111622000D03*
X149088000Y-111672000D03*
D51*
X149038000Y-99422000D03*
%TD*%
M02*
